<svg xmlns="http://www.w3.org/2000/svg" width="1055" height="564">    <g id="sequence-journey-bold-v2--family--8">        <g id="lines">            <g id="g-8">                <g id="cu" >                    <path id="Vector" transform="translate(876, 216)" fill="#e7fbf2" d="M24 192 C24 218.51 45.4904 240 72 240 C98.5096 240 120 218.51 120 192 L120 36 L108 36 L132 0 L156 36 L144 36 L144 192 C144 231.764 111.765 264 72 264 C32.2355 264 0 231.764 0 192 L24 192 Z"></path>
                    <path id="Vector_1" transform="translate(876, 216)" fill="none" stroke="#3cc583" stroke-width="2" stroke-linejoin="miter" stroke-linecap="none" stroke-miterlimit="4"  d="M 24 192 C 24 218.5097 45.4904 240 72 240 C 98.5096 240 120 218.5097 120 192 L 120 36 L 108 36 L 132 0 L 156 36 L 144 36 L 144 192 C 144 231.7645 111.7645 264 72 264 C 32.2355 264 0 231.7645 0 192 L 24 192 Z"></path></g></g>
            <g id="g-7">                <g id="cu_1" >                    <path id="Vector_2" transform="translate(756, 156)" fill="#fef2e6" d="M0 72 C0 32.2355 32.2355 0 72 0 C111.765 0 144 32.2355 144 72 L144 252 L120 252 L120 72 C120 45.4903 98.5096 24 72 24 C45.4904 24 24 45.4903 24 72 L0 72 Z"></path>
                    <path id="Vector_3" transform="translate(756, 156)" fill="none" stroke="#db8333" stroke-width="2" stroke-linejoin="miter" stroke-linecap="none" stroke-miterlimit="4"  d="M 0 72 C 0 32.2355 32.2355 0 72 0 C 111.7645 0 144 32.2355 144 72 L 144 252 L 120 252 L 120 72 C 120 45.4903 98.5096 24 72 24 C 45.4904 24 24 45.4903 24 72 L 0 72 Z"></path></g></g>
            <g id="g-6">                <g id="cu_2" >                    <path id="Vector_4" transform="translate(636, 228)" fill="#e8f9ff" d="M24 120 C24 146.51 45.4904 168 72 168 C98.5096 168 120 146.51 120 120 L120 60 L120 0 L144 0 L144 60 L144 120 C144 159.764 111.765 192 72 192 C32.2355 192 0 159.764 0 120 L24 120 Z"></path>
                    <path id="Vector_5" transform="translate(636, 228)" fill="none" stroke="#17aee1" stroke-width="2" stroke-linejoin="miter" stroke-linecap="none" stroke-miterlimit="4"  d="M 24 120 C 24 146.5097 45.4904 168 72 168 C 98.5096 168 120 146.5097 120 120 L 120 0 L 144 0 L 144 120 C 144 159.7645 111.7645 192 72 192 C 32.2355 192 0 159.7645 0 120 L 24 120 Z"></path></g></g>
            <g id="g-5">                <g id="cu_3" >                    <path id="Vector_6" transform="translate(516, 216)" fill="#faf0ff" d="M0 72 C0 32.2355 32.2355 0 72 0 C111.765 0 144 32.2355 144 72 L144 132 L120 132 L120 72 C120 45.4903 98.5096 24 72 24 C45.4904 24 24 45.4903 24 72 L24 192 L0 192 L0 72 Z"></path>
                    <path id="Vector_7" transform="translate(516, 216)" fill="none" stroke="#b960e2" stroke-width="2" stroke-linejoin="miter" stroke-linecap="none" stroke-miterlimit="4"  d="M 0 72 C 0 32.2355 32.2355 0 72 0 C 111.7645 0 144 32.2355 144 72 L 144 132 L 120 132 L 120 72 C 120 45.4903 98.5096 24 72 24 C 45.4904 24 24 45.4903 24 72 L 24 192 L 0 192 L 0 72 Z"></path></g></g>
            <g id="g-4">                <g id="cu_4" >                    <path id="Vector_8" transform="translate(396, 288)" fill="#fefbdb" d="M24 120 C24 146.51 45.4903 168 72 168 C98.5097 168 120 146.51 120 120 L144 120 C144 159.764 111.764 192 72 192 C32.2355 192 0 159.764 0 120 L0 60 L0 0 L24 0 L24 60 L24 120 Z"></path>
                    <path id="Vector_9" transform="translate(396, 288)" fill="none" stroke="#d1bd08" stroke-width="2" stroke-linejoin="miter" stroke-linecap="none" stroke-miterlimit="4"  d="M 24 120 C 24 146.5097 45.4903 168 72 168 C 98.5097 168 120 146.5097 120 120 L 144 120 C 144 159.7645 111.7645 192 72 192 C 32.2355 192 0 159.7645 0 120 L 0 0 L 24 0 L 24 120 Z"></path></g></g>
            <g id="g-3">                <g id="cu_5" >                    <path id="Vector_10" transform="translate(276, 156)" fill="#f3f0ff" d="M0 72 C0 32.2355 32.2355 0 72 0 C111.764 0 144 32.2355 144 72 L144 132 L120 132 L120 72 C120 45.4903 98.5097 24 72 24 C45.4903 24 24 45.4903 24 72 L0 72 Z"></path>
                    <path id="Vector_11" transform="translate(276, 156)" fill="none" stroke="#7e62ec" stroke-width="2" stroke-linejoin="miter" stroke-linecap="none" stroke-miterlimit="4"  d="M 0 72 C 0 32.2355 32.2355 0 72 0 C 111.7645 0 144 32.2355 144 72 L 144 132 L 120 132 L 120 72 C 120 45.4903 98.5097 24 72 24 C 45.4903 24 24 45.4903 24 72 L 0 72 Z"></path></g></g>
            <g id="g-2">                <g id="cu_6" >                    <path id="Vector_12" transform="translate(156, 228)" fill="#f2fae1" d="M24 120 C24 146.51 45.4903 168 72 168 C98.5097 168 120 146.51 120 120 L120 60 L120 0 L144 0 L144 60 L144 120 C144 159.764 111.764 192 72 192 C32.2355 192 0 159.764 0 120 L0 60 L24 60 L24 120 Z"></path>
                    <path id="Vector_13" transform="translate(156, 228)" fill="none" stroke="#93c332" stroke-width="2" stroke-linejoin="miter" stroke-linecap="none" stroke-miterlimit="4"  d="M 24 120 C 24 146.5097 45.4903 168 72 168 C 98.5097 168 120 146.5097 120 120 L 120 0 L 144 0 L 144 120 C 144 159.7645 111.7645 192 72 192 C 32.2355 192 0 159.7645 0 120 L 0 60 L 24 60 L 24 120 Z"></path></g></g>
            <g id="g-1">                <g id="cu_7" >                    <path id="Vector_14" transform="translate(36, 216)" fill="#ffedeb" d="M72 24 C45.4903 24 24 45.4903 24 72 L24 132 L24 192 L0 192 L0 132 L0 72 C0 32.2355 32.2355 0 72 0 C111.765 0 144 32.2355 144 72 L120 72 C120 45.4903 98.5097 24 72 24 Z"></path>
                    <path id="Vector_15" transform="translate(36, 216)" fill="none" stroke="#df5e59" stroke-width="2" stroke-linejoin="miter" stroke-linecap="none" stroke-miterlimit="4"  d="M 72 24 C 45.4903 24 24 45.4903 24 72 L 24 192 L 0 192 L 0 72 C 0 32.2355 32.2355 0 72 0 C 111.7645 0 144 32.2355 144 72 L 120 72 C 120 45.4903 98.5097 24 72 24 Z"></path></g></g></g>
        <rect id="ic-cc-8" data-entity-classes="NotInside" fill="#33de7b1a" transform="matrix(1, 0, 0, -1, 924, 432)" width="48" height="48" rx="0" ry="0"></rect>
        <rect id="ic-cc-7" data-entity-classes="NotInside" fill="#33de7b1a" transform="matrix(1, 0, 0, -1, 804, 252)" width="48" height="48" rx="0" ry="0"></rect>
        <rect id="ic-cc-6" data-entity-classes="NotInside" fill="#33de7b1a" transform="matrix(1, 0, 0, -1, 684, 372)" width="48" height="48" rx="0" ry="0"></rect>
        <rect id="ic-cc-5" data-entity-classes="NotInside" fill="#33de7b1a" transform="matrix(1, 0, 0, -1, 564, 312)" width="48" height="48" rx="0" ry="0"></rect>
        <rect id="ic-cc-4" data-entity-classes="NotInside" fill="#33de7b1a" transform="matrix(1, 0, 0, -1, 444, 432)" width="48" height="48" rx="0" ry="0"></rect>
        <rect id="ic-cc-3" data-entity-classes="NotInside" fill="#33de7b1a" transform="matrix(1, 0, 0, -1, 324, 252)" width="48" height="48" rx="0" ry="0"></rect>
        <rect id="ic-cc-2" data-entity-classes="NotInside" fill="#33de7b1a" transform="matrix(1, 0, 0, -1, 204, 372)" width="48" height="48" rx="0" ry="0"></rect>
        <rect id="ic-cc-1" data-entity-classes="NotInside" fill="#33de7b1a" transform="matrix(1, 0, 0, -1, 84, 312)" width="48" height="48" rx="0" ry="0"></rect>
        <rect id="tx-ct-8" fill="#ff00001a" transform="translate(852, 492)" width="192" height="72" rx="0" ry="0"></rect>
        <path id="tx-cb-7" transform="translate(732, 72)" fill="#ff00001a" d="M0 0 L192 0 L192 72 L0 72 L0 0 Z"></path>
        <path id="tx-ct-6" transform="translate(612, 432)" fill="#ff00001a" d="M0 0 L192 0 L192 72 L0 72 L0 0 Z"></path>
        <rect id="tx-cb-5" fill="#ff00001a" transform="translate(492, 132)" width="192" height="72" rx="0" ry="0"></rect>
        <rect id="tx-ct-4" fill="#ff00001a" transform="translate(372, 492)" width="192" height="72" rx="0" ry="0"></rect>
        <rect id="tx-cb-3" fill="#ff00001a" transform="translate(252, 72)" width="192" height="72" rx="0" ry="0"></rect>
        <rect id="tx-ct-2" fill="#ff00001a" transform="translate(132, 432)" width="192" height="72" rx="0" ry="0"></rect>
        <rect id="tx-cb-1" fill="#ff00001a" transform="translate(12, 132)" width="192" height="72" rx="0" ry="0"></rect>
        <rect id="tx-cb-title" data-entity-classes="Title" fill="#ff00001a" transform="translate(228, 0)" width="600" height="48" rx="0" ry="0"></rect>
        <rect id="bt-cc-remove-8" fill="#1ac6ff33" transform="translate(936, 468)" width="24" height="24" rx="0" ry="0"></rect>
        <rect id="bt-cc-remove-7" fill="#1ac6ff33" transform="translate(816, 144)" width="24" height="24" rx="0" ry="0"></rect>
        <rect id="bt-cc-remove-6" fill="#1ac6ff33" transform="translate(696.04296875, 408)" width="24" height="24" rx="0" ry="0"></rect>
        <rect id="bt-cc-remove-5" fill="#1ac6ff33" transform="translate(576, 204)" width="24" height="24" rx="0" ry="0"></rect>
        <rect id="bt-cc-remove-4" fill="#1ac6ff33" transform="translate(455.998046875, 468)" width="24" height="24" rx="0" ry="0"></rect>
        <rect id="bt-cc-remove-3" fill="#1ac6ff33" transform="translate(336, 144)" width="24" height="24" rx="0" ry="0"></rect>
        <rect id="bt-cc-remove-2" fill="#1ac6ff33" transform="translate(216, 408)" width="24" height="24" rx="0" ry="0"></rect>
        <rect id="bt-cc-remove-1" fill="#1ac6ff33" transform="translate(95.998046875, 204)" width="24" height="24" rx="0" ry="0"></rect></g></svg>