<svg xmlns="http://www.w3.org/2000/svg" width="744" height="492">    <g id="sector-links-v4--family--4">        <g id="lines">            <g id="g-4">                <g id="cu_Vector" >                    <path id="Vector" transform="matrix(0.9999999403953552, 0, 0, 0.9999999403953552, 229, 133)" fill="#e7fbf2" d="M19.7932 115.363 C-6.5977 88.9723 -6.5977 46.1842 19.7932 19.7932 C46.1841 -6.5977 88.9723 -6.5977 115.363 19.7932 L135.843 40.2725 L101.71 74.4047 L81.2311 53.9254 C73.6908 46.3851 61.4656 46.3851 53.9254 53.9254 C46.3851 61.4657 46.3851 73.6908 53.9254 81.2311 L135.843 163.148 L101.71 197.28 L19.7932 115.363 Z"></path>
                    <path id="Vector_1" transform="matrix(0.9999999403953552, 0, 0, 0.9999999403953552, 229, 133)" fill="none" stroke="#3cc583" stroke-width="2" stroke-linejoin="miter" stroke-linecap="none" stroke-miterlimit="4"  d="M 19.7932 115.3633 C -6.5977 88.9723 -6.5977 46.1842 19.7932 19.7932 C 46.1841 -6.5977 88.9723 -6.5977 115.3633 19.7932 L 135.8426 40.2725 L 101.7104 74.4047 L 81.2311 53.9254 C 73.6908 46.3851 61.4656 46.3851 53.9254 53.9254 C 46.3851 61.4657 46.3851 73.6908 53.9254 81.2311 L 135.8426 163.1483 L 101.7104 197.2805 L 19.7932 115.3633 Z"></path></g></g>
            <g id="g-3">                <g id="cu_Vector_1" >                    <path id="Vector_2" transform="matrix(0.9999999403953552, 0, 0, 0.9999999403953552, 229.00050971761812, 282.49559020996094)" fill="#fefbdb" d="M115.363 116.049 C88.9723 142.44 46.1842 142.44 19.7932 116.049 C-6.5977 89.6584 -6.5977 46.8703 19.7932 20.4793 L40.2725 1.9038e-5 L74.4047 34.1322 L53.9254 54.6115 C46.3851 62.1518 46.3851 74.3769 53.9254 81.9172 C61.4657 89.4575 73.6908 89.4575 81.2311 81.9172 L163.148 0 L197.28 34.1322 L115.363 116.049 Z"></path>
                    <path id="Vector_3" transform="matrix(0.9999999403953552, 0, 0, 0.9999999403953552, 229.00050971761812, 282.49559020996094)" fill="none" stroke="#d1bd08" stroke-width="2" stroke-linejoin="miter" stroke-linecap="none" stroke-miterlimit="4"  d="M 115.3633 116.0494 C 88.9723 142.4403 46.1842 142.4403 19.7932 116.0494 C -6.5977 89.6584 -6.5977 46.8703 19.7932 20.4793 L 40.2725 0 L 74.4047 34.1322 L 53.9254 54.6115 C 46.3851 62.1517 46.3851 74.3769 53.9254 81.9172 C 61.4657 89.4575 73.6908 89.4575 81.2311 81.9172 L 163.1483 0 L 197.2805 34.1322 L 115.3633 116.0494 Z"></path></g></g>
            <g id="g-2">                <g id="cu_Vector_2" >                    <path id="Vector_4" transform="matrix(0.9999999403953552, 0, 0, 0.9999999403953552, 378.49559020996094, 221.05767059326172)" fill="#e8f9ff" d="M116.049 81.9172 C142.44 108.308 142.44 151.096 116.049 177.487 C89.6584 203.878 46.8703 203.878 20.4793 177.487 L0 157.008 L34.1322 122.876 L54.6115 143.355 C62.1517 150.895 74.3769 150.895 81.9172 143.355 C89.4575 135.815 89.4575 123.59 81.9172 116.049 L2.6627e-6 34.1322 L34.1322 0 L116.049 81.9172 Z"></path>
                    <path id="Vector_5" transform="matrix(0.9999999403953552, 0, 0, 0.9999999403953552, 378.49559020996094, 221.05767059326172)" fill="none" stroke="#17aee1" stroke-width="2" stroke-linejoin="miter" stroke-linecap="none" stroke-miterlimit="4"  d="M 116.0494 81.9172 C 142.4403 108.3081 142.4403 151.0963 116.0494 177.4873 C 89.6584 203.8782 46.8702 203.8782 20.4793 177.4873 L 0 157.008 L 34.1322 122.8758 L 54.6115 143.3551 C 62.1517 150.8954 74.3769 150.8954 81.9172 143.3551 C 89.4575 135.8148 89.4575 123.5896 81.9172 116.0494 L 0 34.1322 L 34.1322 0 L 116.0494 81.9172 Z"></path></g></g>
            <g id="g-1">                <g id="cu_Vector_3" >                    <path id="Vector_6" transform="matrix(0.9999999403953552, 0, 0, 0.9999999403953552, 317.0577926635742, 133)" fill="#ffedeb" d="M81.9172 19.7932 C108.308 -6.5977 151.096 -6.5977 177.487 19.7932 C203.878 46.1842 203.878 88.9723 177.487 115.363 L157.008 135.843 L122.876 101.71 L143.355 81.2311 C150.895 73.6908 150.895 61.4656 143.355 53.9254 C135.815 46.3851 123.59 46.3851 116.049 53.9254 L34.1322 135.843 L0 101.71 L81.9172 19.7932 Z"></path>
                    <path id="Vector_7" transform="matrix(0.9999999403953552, 0, 0, 0.9999999403953552, 317.0577926635742, 133)" fill="none" stroke="#df5e59" stroke-width="2" stroke-linejoin="miter" stroke-linecap="none" stroke-miterlimit="4"  d="M 81.9172 19.7932 C 108.3081 -6.5977 151.0963 -6.5977 177.4873 19.7932 C 203.8782 46.1842 203.8782 88.9723 177.4873 115.3633 L 157.008 135.8426 L 122.8758 101.7104 L 143.3551 81.2311 C 150.8954 73.6908 150.8954 61.4656 143.3551 53.9254 C 135.8148 46.3851 123.5896 46.3851 116.0494 53.9254 L 34.1322 135.8426 L 0 101.7104 L 81.9172 19.7932 Z"></path></g></g></g>
        <path id="tx-cb-title" data-entity-classes="Title" transform="matrix(1, -1.6081230200044232e-16, 1.6081230200044232e-16, 1, 72, 0)" fill="#ff00001a" d="M0 0 L600 0 L600 48 L0 48 L0 0 Z"></path>
        <rect id="bt-cc-remove-4" fill="#1ac6ff33" transform="matrix(1, -5.5489128374629215e-17, 5.553318070533134e-17, 1, 198, 156)" width="24" height="24" rx="0" ry="0"></rect>
        <rect id="bt-cc-remove-3" fill="#1ac6ff33" transform="matrix(0.9999999403953552, -5.551115123125783e-17, 5.551115123125783e-17, 0.9999999403953552, 198, 384)" width="24" height="24" rx="0" ry="0"></rect>
        <rect id="bt-cc-remove-2" fill="#1ac6ff33" transform="matrix(0.9999999403953552, -5.551115123125783e-17, 5.551115123125783e-17, 0.9999999403953552, 510, 384)" width="24" height="24" rx="0" ry="0"></rect>
        <rect id="bt-cc-remove-1" fill="#1ac6ff33" transform="matrix(0.9999999403953552, 0, 0, 0.9999999403953552, 510, 144)" width="24" height="24" rx="0" ry="0"></rect>
        <path id="tx-rt-4-desc" data-entity-classes="Description" transform="matrix(1, -5.551115123125783e-17, 5.551115123125783e-17, 1, 30, 156)" fill="#ff00001a" d="M0 0 L168 0 L168 96 L0 96 L0 0 Z"></path>
        <path id="tx-rt-3-desc" data-entity-classes="Description" transform="matrix(1, -5.551115123125783e-17, 5.551115123125783e-17, 1, 30, 384)" fill="#ff00001a" d="M0 0 L168 0 L168 96 L0 96 L0 0 Z"></path>
        <path id="tx-lt-2-desc" data-entity-classes="Description" transform="translate(533.923828125, 384)" fill="#ff00001a" d="M0 0 L168 0 L168 96 L0 96 L0 0 Z"></path>
        <path id="tx-lt-1-desc" data-entity-classes="Description" transform="matrix(1, -5.551115123125783e-17, 5.551115123125783e-17, 1, 534, 144)" fill="#ff00001a" d="M0 0 L168 0 L168 96 L0 96 L0 0 Z"></path>
        <rect id="bt-cc-add-5" fill="#1ac6ff33" transform="matrix(1, -8.326672684688674e-17, 8.326672684688674e-17, 1, 342, 120)" width="24" height="24" rx="0" ry="0"></rect>
        <rect id="bt-cc-add-3" fill="#1ac6ff33" transform="matrix(1, -8.326672684688674e-17, 8.326672684688674e-17, 1, 360, 396)" width="24" height="24" rx="0" ry="0"></rect>
        <rect id="bt-cc-add-4" fill="#1ac6ff33" transform="matrix(1, -8.326672684688674e-17, 8.326672684688674e-17, 1, 228, 264)" width="24" height="24" rx="0" ry="0"></rect>
        <rect id="bt-cc-add-2" fill="#1ac6ff33" transform="matrix(1, -8.326672684688674e-17, 8.326672684688674e-17, 1, 492, 264)" width="24" height="24" rx="0" ry="0"></rect>
        <rect id="bt-cc-add-1" fill="#1ac6ff33" transform="matrix(1, 5.551115123125783e-17, -5.551115123125783e-17, 1, 378.076171875, 120.10107421875)" width="24" height="24" rx="0" ry="0"></rect>
        <g id="tx-rb-4" data-entity-classes="DescTitle">            <path id="rect" transform="translate(29, 96)" fill="#ff00001a" d="M0 0 L168 0 L168 48 L0 48 L0 0 Z"></path>
            <text id="Label" fill="#3cc583" transform="translate(148, 120)" font-size="20" font-family="Roboto" font-weight="700" data-align="horizontal:LEFT;vertical:TOP"></text></g>
        <g id="tx-rb-3" data-entity-classes="DescTitle">            <path id="rect_1" transform="translate(30, 324)" fill="#ff00001a" d="M0 0 L168 0 L168 48 L0 48 L0 0 Z"></path>
            <text id="Label_1" fill="#d1bd08" transform="translate(149, 348)" font-size="20" font-family="Roboto" font-weight="700" data-align="horizontal:LEFT;vertical:TOP"></text></g>
        <g id="tx-lb-2" data-entity-classes="DescTitle">            <path id="rect_2" transform="translate(534, 324)" fill="#ff00001a" d="M0 0 L168 0 L168 48 L0 48 L0 0 Z"></path>
            <text id="Label_2" fill="#17aee1" transform="translate(534, 348)" font-size="20" font-family="Roboto" font-weight="700" data-align="horizontal:LEFT;vertical:TOP"></text></g>
        <g id="tx-lb-1" data-entity-classes="DescTitle">            <path id="rect_3" transform="translate(535, 84)" fill="#ff00001a" d="M0 0 L168 0 L168 48 L0 48 L0 0 Z"></path>
            <text id="Label_3" fill="#df5e59" transform="translate(535, 108)" font-size="20" font-family="Roboto" font-weight="700" data-align="horizontal:LEFT;vertical:TOP"></text></g></g></svg>