<svg xmlns="http://www.w3.org/2000/svg" width="888" height="672">    <g id="sector-links-v4--family--6">        <g id="lines">            <g id="g-6">                <g id="cu_Subtract" >                    <path id="Subtract" transform="translate(304.7295608520508, 134)" fill="#f2fae1" d="M183.66 134.428 L125.461 33.6252 C106.896 1.4704 65.7802 -9.5464 33.6254 9.0182 C1.4707 27.5827 -9.5465 68.6986 9.0181 100.853 L17.2808 115.165 L72.7297 115.165 L50.6047 76.8433 C45.3006 67.6562 48.4483 55.9088 57.6354 50.6046 C66.8225 45.3005 78.5699 48.4482 83.8741 57.6353 L155.935 182.448 L183.66 134.428 Z"></path>
                    <path id="Subtract_1" transform="translate(304.7295608520508, 134)" fill="none" stroke="#93c332" stroke-width="2" stroke-linejoin="miter" stroke-linecap="none" stroke-miterlimit="4"  d="M 183.6595 134.4283 L 125.4608 33.6252 C 106.8962 1.4704 65.7802 -9.5464 33.6254 9.0182 C 1.4707 27.5827 -9.5465 68.6986 9.0181 100.8534 L 17.2808 115.1649 L 72.7297 115.1649 L 50.6047 76.8433 C 45.3006 67.6562 48.4483 55.9088 57.6354 50.6046 C 66.8225 45.3005 78.5699 48.4482 83.8741 57.6353 L 155.9351 182.4485 L 183.6595 134.4283 Z"></path></g></g>
            <g id="g-5">                <g id="cu_Subtract_1" >                    <path id="Subtract_2" transform="translate(232.71044921875, 258.7716522216797)" fill="#fef2e6" d="M183.625 0 L67.228 1.0176e-5 C30.0988 1.3422e-5 -3.2459e-6 30.0991 7.279e-13 67.2282 C3.2459e-6 104.357 30.0988 134.456 67.228 134.456 L83.7534 134.456 L111.478 86.4363 L67.228 86.4363 C56.6196 86.4363 48.0199 77.8366 48.0199 67.2282 C48.0199 56.6199 56.6196 48.0202 67.228 48.0202 L211.35 48.0202 L183.625 0 Z"></path>
                    <path id="Subtract_3" transform="translate(232.71044921875, 258.7716522216797)" fill="none" stroke="#db8333" stroke-width="2" stroke-linejoin="miter" stroke-linecap="none" stroke-miterlimit="4"  d="M 183.6254 0 L 67.228 0 C 30.0988 0 -0 30.0991 2.6254e-13 67.2282 C 0 104.3574 30.0988 134.4565 67.228 134.4565 L 83.7534 134.4565 L 111.4779 86.4363 L 67.228 86.4363 C 56.6196 86.4363 48.0199 77.8366 48.0199 67.2282 C 48.0199 56.6199 56.6196 48.0202 67.228 48.0202 L 211.3499 48.0202 L 183.6254 0 Z"></path></g></g>
            <g id="g-4">                <g id="cu_Subtract_2" >                    <path id="Subtract_4" transform="translate(304.7290573120117, 316.3431396484375)" fill="#e7fbf2" d="M67.2168 9.5713e-6 L9.0181 100.803 C-9.5465 132.958 1.4707 174.074 33.6254 192.638 C65.7802 211.203 106.896 200.186 125.461 168.031 L133.724 153.72 L105.999 105.7 L83.8741 144.021 C78.5699 153.208 66.8225 156.356 57.6354 151.052 C48.4483 145.748 45.3006 134 50.6047 124.813 L122.666 0 L67.2168 9.5713e-6 Z"></path>
                    <path id="Subtract_5" transform="translate(304.7290573120117, 316.3431396484375)" fill="none" stroke="#3cc583" stroke-width="2" stroke-linejoin="miter" stroke-linecap="none" stroke-miterlimit="4"  d="M 67.2168 0 L 9.0181 100.8032 C -9.5465 132.958 1.4707 174.0739 33.6254 192.6384 C 65.7802 211.203 106.8962 200.1862 125.4608 168.0314 L 133.7235 153.7199 L 105.9991 105.6997 L 83.8741 144.0213 C 78.5699 153.2084 66.8225 156.3561 57.6354 151.0519 C 48.4483 145.7478 45.3006 134.0003 50.6047 124.8132 L 122.6657 0 L 67.2168 0 Z"></path></g></g>
            <g id="g-3">                <g id="cu_Subtract_3" >                    <path id="Subtract_6" transform="translate(399.60955810546875, 335.5513000488281)" fill="#fefbdb" d="M0 48.0202 L58.1987 148.823 C76.7633 180.978 117.879 191.995 150.034 173.43 C182.189 154.866 193.206 113.75 174.641 81.5951 L166.379 67.2836 L110.93 67.2836 L133.055 105.605 C138.359 114.792 135.211 126.54 126.024 131.844 C116.837 137.148 105.09 134 99.7854 124.813 L27.7244 0 L0 48.0202 Z"></path>
                    <path id="Subtract_7" transform="translate(399.60955810546875, 335.5513000488281)" fill="none" stroke="#d1bd08" stroke-width="2" stroke-linejoin="miter" stroke-linecap="none" stroke-miterlimit="4"  d="M 0 48.0202 L 58.1987 148.8233 C 76.7633 180.9781 117.8793 191.9949 150.0341 173.4303 C 182.1889 154.8657 193.206 113.7498 174.6414 81.5951 L 166.3787 67.2836 L 110.9298 67.2836 L 133.0548 105.6052 C 138.3589 114.7923 135.2112 126.5397 126.0241 131.8438 C 116.837 137.148 105.0896 134.0003 99.7854 124.8132 L 27.7244 0 L 0 48.0202 Z"></path></g></g>
            <g id="g-2">                <g id="cu_Subtract_4" >                    <path id="Subtract_8" transform="translate(443.93858337402344, 258.7717742919922)" fill="#e8f9ff" d="M27.7245 134.456 L144.122 134.456 C181.251 134.456 211.35 104.357 211.35 67.2282 C211.35 30.0991 181.251 -3.2459e-6 144.122 1.8198e-13 L127.596 1.4447e-6 L99.872 48.0202 L144.122 48.0202 C154.73 48.0202 163.33 56.6199 163.33 67.2282 C163.33 77.8365 154.73 86.4363 144.122 86.4363 L0 86.4363 L27.7245 134.456 Z"></path>
                    <path id="Subtract_9" transform="translate(443.93858337402344, 258.7717742919922)" fill="none" stroke="#17aee1" stroke-width="2" stroke-linejoin="miter" stroke-linecap="none" stroke-miterlimit="4"  d="M 27.7245 134.4565 L 144.1219 134.4565 C 181.2511 134.4564 211.3499 104.3573 211.3499 67.2282 C 211.3499 30.0991 181.251 -0 144.1219 2.6253e-13 L 127.5964 0 L 99.872 48.0202 L 144.1219 48.0202 C 154.7302 48.0202 163.3299 56.6199 163.3299 67.2282 C 163.3299 77.8365 154.7302 86.4363 144.1219 86.4363 L 0 86.4363 L 27.7245 134.4565 Z"></path></g></g>
            <g id="g-1">                <g id="cu_Subtract_5" >                    <path id="Subtract_10" transform="translate(449.5455780029297, 134.00025286365417)" fill="#ffedeb" d="M66.5067 201.657 L124.705 100.853 C143.27 68.6986 132.253 27.5827 100.098 9.0182 C67.9433 -9.5464 26.8273 1.4704 8.2627 33.6252 L0 47.9367 L27.7245 95.9568 L49.8494 57.6352 C55.1536 48.4482 66.901 45.3005 76.0881 50.6046 C85.2752 55.9088 88.4229 67.6562 83.1188 76.8433 L11.0578 201.657 L66.5067 201.657 Z"></path>
                    <path id="Subtract_11" transform="translate(449.5455780029297, 134.00025286365417)" fill="none" stroke="#df5e59" stroke-width="2" stroke-linejoin="miter" stroke-linecap="none" stroke-miterlimit="4"  d="M 66.5067 201.6566 L 124.7054 100.8534 C 143.27 68.6986 132.2528 27.5827 100.0981 9.0182 C 67.9433 -9.5464 26.8273 1.4704 8.2627 33.6252 L 0 47.9367 L 27.7245 95.9568 L 49.8494 57.6352 C 55.1536 48.4482 66.901 45.3005 76.0881 50.6046 C 85.2752 55.9088 88.4229 67.6562 83.1188 76.8433 L 11.0578 201.6566 L 66.5067 201.6566 Z"></path></g></g></g>
        <path id="tx-cb-title" data-entity-classes="Title" transform="matrix(1, -1.6081230200044232e-16, 1.6081230200044232e-16, 1, 144, 0)" fill="#ff00001a" d="M0 0 L600 0 L600 48 L0 48 L0 0 Z"></path>
        <rect id="bt-cc-remove-6" fill="#1ac6ff33" transform="matrix(0.9999999403953552, -5.551115123125783e-17, 5.551115123125783e-17, 0.9999999403953552, 288, 144)" width="24" height="24" rx="0" ry="0"></rect>
        <rect id="bt-cc-remove-5" fill="#1ac6ff33" transform="matrix(0.9999999403953552, 0, 0, 0.9999999403953552, 210, 312.1298828125)" width="24" height="24" rx="0" ry="0"></rect>
        <rect id="bt-cc-remove-4" fill="#1ac6ff33" transform="matrix(1, -5.551115123125783e-17, 5.551115123125783e-17, 1, 299.923828125, 480)" width="24" height="24" rx="0" ry="0"></rect>
        <rect id="bt-cc-remove-3" fill="#1ac6ff33" transform="matrix(0.9999999403953552, -5.551115123125783e-17, 5.551115123125783e-17, 0.9999999403953552, 564, 480)" width="24" height="24" rx="0" ry="0"></rect>
        <rect id="bt-cc-remove-2" fill="#1ac6ff33" transform="matrix(0.9999999403953552, -5.551115123125783e-17, 5.551115123125783e-17, 0.9999999403953552, 655, 312.1956787109375)" width="24" height="24" rx="0" ry="0"></rect>
        <rect id="bt-cc-remove-1" fill="#1ac6ff33" transform="matrix(0.9999999403953552, 0, 0, 0.9999999403953552, 576, 144)" width="24" height="24" rx="0" ry="0"></rect>
        <path id="tx-rt-6-desc" data-entity-classes="Description" transform="matrix(1, -5.551115123125783e-17, 5.551115123125783e-17, 1, 120, 144)" fill="#ff00001a" d="M0 0 L168 0 L168 96 L0 96 L0 0 Z"></path>
        <path id="tx-rt-5-desc" data-entity-classes="Description" transform="translate(42, 312)" fill="#ff00001a" d="M0 0 L168 0 L168 96 L0 96 L0 0 Z"></path>
        <path id="tx-rt-4-desc" data-entity-classes="Description" transform="matrix(1, -5.551115123125783e-17, 5.551115123125783e-17, 1, 132, 516)" fill="#ff00001a" d="M0 0 L168 0 L168 96 L0 96 L0 0 Z"></path>
        <path id="tx-lt-3-desc" data-entity-classes="Description" transform="matrix(1, -5.551115123125783e-17, 5.551115123125783e-17, 1, 600, 516)" fill="#ff00001a" d="M0 0 L168 0 L168 96 L0 96 L0 0 Z"></path>
        <path id="tx-lt-2-desc" data-entity-classes="Description" transform="translate(679, 312.1297607421875)" fill="#ff00001a" d="M0 0 L168 0 L168 96 L0 96 L0 0 Z"></path>
        <path id="tx-lt-1-desc" data-entity-classes="Description" transform="matrix(1, -5.551115123125783e-17, 5.551115123125783e-17, 1, 600, 144.360595703125)" fill="#ff00001a" d="M0 0 L168 0 L168 96 L0 96 L0 0 Z"></path>
        <g id="tx-rb-4" data-entity-classes="DescTitle">            <path id="rect" transform="translate(132, 456)" fill="#ff00001a" d="M0 0 L168 0 L168 48 L0 48 L0 0 Z"></path>
            <text id="Label" fill="#3cc583" transform="translate(251, 480)" font-size="20" font-family="Roboto" font-weight="700" data-align="horizontal:LEFT;vertical:TOP"></text></g>
        <g id="tx-lb-3" data-entity-classes="DescTitle">            <path id="rect_1" transform="translate(600, 456)" fill="#ff00001a" d="M0 0 L168 0 L168 48 L0 48 L0 0 Z"></path>
            <text id="Label_1" fill="#d1bd08" transform="translate(600, 480)" font-size="20" font-family="Roboto" font-weight="700" data-align="horizontal:LEFT;vertical:TOP"></text></g>
        <g id="tx-lb-2" data-entity-classes="DescTitle">            <path id="rect_2" transform="translate(679.076171875, 252)" fill="#ff00001a" d="M0 0 L168 0 L168 48 L0 48 L0 0 Z"></path>
            <text id="Label_2" fill="#17aee1" transform="translate(679.076171875, 276)" font-size="20" font-family="Roboto" font-weight="700" data-align="horizontal:LEFT;vertical:TOP"></text></g>
        <g id="tx-rb-5" data-entity-classes="DescTitle">            <path id="rect_3" transform="translate(42, 252)" fill="#ff00001a" d="M0 0 L168 0 L168 48 L0 48 L0 0 Z"></path>
            <text id="Label_3" fill="#db8333" transform="translate(161, 276)" font-size="20" font-family="Roboto" font-weight="700" data-align="horizontal:LEFT;vertical:TOP"></text></g>
        <g id="tx-lb-1" data-entity-classes="DescTitle">            <path id="rect_4" transform="translate(600, 84)" fill="#ff00001a" d="M0 0 L168 0 L168 48 L0 48 L0 0 Z"></path>
            <text id="Label_4" fill="#df5e59" transform="translate(600, 108)" font-size="20" font-family="Roboto" font-weight="700" data-align="horizontal:LEFT;vertical:TOP"></text></g>
        <g id="tx-rb-6" data-entity-classes="DescTitle">            <path id="rect_5" transform="translate(120.076171875, 84)" fill="#ff00001a" d="M0 0 L168 0 L168 48 L0 48 L0 0 Z"></path>
            <text id="Label_5" fill="#93c332" transform="translate(239.076171875, 108)" font-size="20" font-family="Roboto" font-weight="700" data-align="horizontal:LEFT;vertical:TOP"></text></g></g></svg>