<svg xmlns="http://www.w3.org/2000/svg" width="888" height="696">    <g id="sector-links-v4--family--5">        <g id="lines">            <g id="g-5">                <g id="cu_Subtract" >                    <path id="Subtract" transform="matrix(1, 0, 0, -1, 297.7096824645996, 294.09275817871094)" fill="#fef2e6" d="M27.464 154.082 C-2.4353 132.191 -8.9272 90.2063 12.964 60.307 L32.1834 34.0568 L79.6624 50.3404 L55.4881 83.3581 L55.5129 83.3763 L55.4863 83.3575 L51.6336 88.6195 C45.379 97.1621 47.2338 109.158 55.7764 115.412 C64.3191 121.667 76.3147 119.812 82.5693 111.269 L99.0849 88.7122 L99.0601 88.694 L157.867 8.3749 L157.871 8.3754 L164.003 0 L193.56 40.753 L138.202 116.362 L138.226 116.38 L121.239 139.582 C99.3477 169.481 57.3632 175.973 27.464 154.082 Z"></path>
                    <path id="Subtract_1" transform="matrix(1, 0, 0, -1, 297.7096824645996, 294.09275817871094)" fill="none" stroke="#db8333" stroke-width="2" stroke-linejoin="miter" stroke-linecap="none" stroke-miterlimit="4"  d="M 27.464 154.0819 C -2.4353 132.1907 -8.9272 90.2063 12.964 60.307 L 32.1834 34.0568 L 79.6624 50.3404 L 55.4881 83.3581 L 55.5129 83.3763 L 55.4863 83.3575 L 51.6336 88.6195 C 45.379 97.1621 47.2338 109.1577 55.7764 115.4123 C 64.3191 121.6669 76.3147 119.8121 82.5693 111.2695 L 99.0849 88.7122 L 99.0601 88.694 L 157.8668 8.3749 L 157.8711 8.3754 L 164.0032 0 L 193.5597 40.753 L 138.2015 116.362 L 138.2264 116.3802 L 121.2389 139.5819 C 99.3477 169.4812 57.3632 175.9731 27.464 154.0819 Z"></path></g></g>
            <g id="g-4">                <g id="cu_Subtract_1" >                    <path id="Subtract_2" transform="matrix(1, 0, 0, -1, 249, 411.34259033203125)" fill="#e7fbf2" d="M3.0529 47.1632 C14.0719 11.7828 51.686 -7.9661 87.0664 3.0529 L118.129 12.727 L118.112 62.9207 L79.0419 50.7525 L79.0327 50.7819 L79.0419 50.7506 L72.8152 48.8114 C62.7066 45.6631 51.9597 51.3056 48.8114 61.4143 C45.6631 71.523 51.3056 82.2699 61.4143 85.4182 L88.1068 93.7314 L88.116 93.702 L183.159 123.302 L183.16 123.307 L191.894 126.027 L161.434 166.733 L74.6274 139.698 L74.6183 139.727 L47.1632 131.177 C11.7828 120.158 -7.9661 82.5436 3.0529 47.1632 Z"></path>
                    <path id="Subtract_3" transform="matrix(1, 0, 0, -1, 249, 411.34259033203125)" fill="none" stroke="#3cc583" stroke-width="2" stroke-linejoin="miter" stroke-linecap="none" stroke-miterlimit="4"  d="M 3.0529 47.1632 C 14.0719 11.7828 51.686 -7.9661 87.0664 3.0529 L 118.1287 12.727 L 118.1124 62.9207 L 79.0419 50.7525 L 79.0327 50.7819 L 79.0419 50.7506 L 72.8152 48.8114 C 62.7065 45.6631 51.9597 51.3056 48.8114 61.4143 C 45.6631 71.523 51.3056 82.2699 61.4143 85.4182 L 88.1068 93.7314 L 88.116 93.702 L 183.1591 123.3024 L 183.16 123.3066 L 191.894 126.0268 L 161.4342 166.7332 L 74.6274 139.698 L 74.6183 139.7274 L 47.1632 131.1767 C 11.7828 120.1577 -7.9661 82.5436 3.0529 47.1632 Z"></path></g></g>
            <g id="g-3">                <g id="cu_Subtract_2" >                    <path id="Subtract_4" transform="matrix(1, 0, 0, -1, 376.5702819824219, 504)" fill="#fefbdb" d="M67.1751 1.1354e-5 C104.232 0.0213 134.255 30.0789 134.233 67.1355 L134.215 99.6694 L86.2779 114.552 L86.3015 73.6301 L86.2707 73.6301 L86.3033 73.6296 L86.3071 67.1079 C86.3131 56.5203 77.7351 47.9324 67.1475 47.9263 C56.5599 47.9203 47.9721 56.4983 47.966 67.0859 L47.9499 95.0429 L47.9807 95.0429 L47.9234 194.589 L47.9197 194.591 L47.9136 205.045 L0 189.487 L0.0539 95.8141 L0.0231 95.8141 L0.0396 67.0583 C0.061 30.0017 30.1185 -0.0213 67.1751 1.1354e-5 Z"></path>
                    <path id="Subtract_5" transform="matrix(1, 0, 0, -1, 376.5702819824219, 504)" fill="none" stroke="#d1bd08" stroke-width="2" stroke-linejoin="miter" stroke-linecap="none" stroke-miterlimit="4"  d="M 67.1751 0 C 104.2317 0.0213 134.2547 30.0789 134.2334 67.1355 L 134.2147 99.6694 L 86.2779 114.5516 L 86.3015 73.6301 L 86.2707 73.6301 L 86.3033 73.6296 L 86.3071 67.1079 C 86.3131 56.5203 77.7351 47.9324 67.1475 47.9263 C 56.5599 47.9203 47.9721 56.4983 47.966 67.0859 L 47.9499 95.0429 L 47.9807 95.0429 L 47.9234 194.5888 L 47.9197 194.591 L 47.9136 205.0447 L 0 189.4867 L 0.0539 95.8141 L 0.0231 95.8141 L 0.0396 67.0583 C 0.061 30.0017 30.1185 -0.0213 67.1751 0 Z"></path></g></g>
            <g id="g-2">                <g id="cu_Subtract_3" >                    <path id="Subtract_6" transform="matrix(1, 0, 0, -1, 436.6248474121094, 411.28636169433594)" fill="#e8f9ff" d="M198.252 45.5398 C210.168 80.6284 191.382 118.733 156.294 130.649 L125.488 141.11 L95.9584 100.522 L134.707 87.3631 L134.697 87.3339 L134.708 87.3646 L140.883 85.2675 C150.908 81.8631 156.276 70.9761 152.871 60.9508 C149.467 50.9254 138.58 45.5582 128.554 48.9627 L102.082 57.9524 L102.092 57.9816 L7.8328 89.991 L7.8295 89.9881 L0 92.6469 L0 42.0365 L85.9246 12.8574 L85.9147 12.8282 L113.143 3.5817 C148.232 -8.334 186.336 10.4513 198.252 45.5398 Z"></path>
                    <path id="Subtract_7" transform="matrix(1, 0, 0, -1, 436.6248474121094, 411.28636169433594)" fill="none" stroke="#17aee1" stroke-width="2" stroke-linejoin="miter" stroke-linecap="none" stroke-miterlimit="4"  d="M 198.2521 45.5398 C 210.1678 80.6284 191.3825 118.7329 156.2939 130.6486 L 125.4878 141.11 L 95.9584 100.5215 L 134.7066 87.3631 L 134.6967 87.3339 L 134.7077 87.3646 L 140.883 85.2675 C 150.9083 81.8631 156.2755 70.9761 152.871 60.9508 C 149.4666 50.9255 138.5795 45.5582 128.5543 48.9627 L 102.082 57.9524 L 102.0919 57.9816 L 7.8328 89.991 L 7.8295 89.9881 L 0 92.6469 L 0 42.0365 L 85.9246 12.8574 L 85.9147 12.8282 L 113.1434 3.5817 C 148.2319 -8.334 186.3364 10.4513 198.2521 45.5398 Z"></path></g></g>
            <g id="g-1">                <g id="cu_Subtract_4" >                    <path id="Subtract_8" transform="matrix(1, 0, 0, -1, 449.27854919433594, 330.07984924316406)" fill="#ffedeb" d="M112.834 190.206 C82.849 211.98 40.8903 205.324 19.1164 175.339 L0 149.014 L30.021 108.787 L54.0658 141.9 L54.0907 141.881 L54.0647 141.901 L57.8967 147.178 C64.1178 155.745 76.106 157.647 84.6731 151.426 C93.2402 145.205 95.142 133.217 88.9209 124.65 L72.4938 102.028 L72.4688 102.046 L13.9773 21.497 L13.9791 21.493 L9.0911 14.7618 L57.5965 0 L110.78 73.2388 L110.805 73.2207 L127.701 96.4889 C149.475 126.474 142.819 168.432 112.834 190.206 Z"></path>
                    <path id="Subtract_9" transform="matrix(1, 0, 0, -1, 449.27854919433594, 330.07984924316406)" fill="none" stroke="#df5e59" stroke-width="2" stroke-linejoin="miter" stroke-linecap="none" stroke-miterlimit="4"  d="M 112.8338 190.2062 C 82.849 211.98 40.8903 205.3237 19.1164 175.3389 L 0 149.0136 L 30.021 108.7874 L 54.0658 141.8996 L 54.0907 141.8815 L 54.0647 141.9011 L 57.8967 147.1782 C 64.1178 155.7452 76.106 157.6471 84.6731 151.426 C 93.2402 145.2049 95.142 133.2166 88.9209 124.6496 L 72.4938 102.0278 L 72.4688 102.0459 L 13.9773 21.497 L 13.9791 21.493 L 9.0911 14.7618 L 57.5965 0 L 110.7797 73.2388 L 110.8047 73.2207 L 127.7011 96.4889 C 149.475 126.4737 142.8186 168.4323 112.8338 190.2062 Z"></path></g></g></g>
        <path id="tx-cb-title" data-entity-classes="Title" transform="matrix(1, -1.6081230200044232e-16, 1.6081230200044232e-16, 1, 144, 0)" fill="#ff00001a" d="M0 0 L600 0 L600 48 L0 48 L0 0 Z"></path>
        <rect id="bt-cc-remove-5" fill="#1ac6ff33" transform="matrix(0.9999999403953552, 0, 0, 0.9999999403953552, 282, 138)" width="24" height="24" rx="0" ry="0"></rect>
        <rect id="bt-cc-remove-4" fill="#1ac6ff33" transform="matrix(1, -5.551115123125783e-17, 5.551115123125783e-17, 1, 227.923828125, 348)" width="24" height="24" rx="0" ry="0"></rect>
        <rect id="bt-cc-remove-3" fill="#1ac6ff33" transform="matrix(0.9999999403953552, -5.551115123125783e-17, 5.551115123125783e-17, 0.9999999403953552, 432, 504)" width="24" height="24" rx="0" ry="0"></rect>
        <rect id="bt-cc-remove-2" fill="#1ac6ff33" transform="matrix(0.9999999403953552, -5.551115123125783e-17, 5.551115123125783e-17, 0.9999999403953552, 636, 348.06591796875)" width="24" height="24" rx="0" ry="0"></rect>
        <rect id="bt-cc-remove-1" fill="#1ac6ff33" transform="matrix(0.9999999403953552, 0, 0, 0.9999999403953552, 582, 144)" width="24" height="24" rx="0" ry="0"></rect>
        <path id="tx-rt-5-desc" data-entity-classes="Description" transform="translate(114.15234375, 138)" fill="#ff00001a" d="M0 0 L168 0 L168 96 L0 96 L0 0 Z"></path>
        <path id="tx-rt-4-desc" data-entity-classes="Description" transform="matrix(1, -5.551115123125783e-17, 5.551115123125783e-17, 1, 60, 384)" fill="#ff00001a" d="M0 0 L168 0 L168 96 L0 96 L0 0 Z"></path>
        <path id="tx-ct-3-desc" data-entity-classes="Description" transform="matrix(1, -5.551115123125783e-17, 5.551115123125783e-17, 1, 360, 588)" fill="#ff00001a" d="M0 0 L168 0 L168 96 L0 96 L0 0 Z"></path>
        <path id="tx-lt-2-desc" data-entity-classes="Description" transform="translate(660, 384)" fill="#ff00001a" d="M0 0 L168 0 L168 96 L0 96 L0 0 Z"></path>
        <path id="tx-lt-1-desc" data-entity-classes="Description" transform="matrix(1, -5.551115123125783e-17, 5.551115123125783e-17, 1, 606, 138)" fill="#ff00001a" d="M0 0 L168 0 L168 96 L0 96 L0 0 Z"></path>
        <rect id="bt-cc-add-6" fill="#1ac6ff33" transform="matrix(1, -8.326672684688674e-17, 8.326672684688674e-17, 1, 414, 120)" width="24" height="24" rx="0" ry="0"></rect>
        <rect id="bt-cc-add-5" fill="#1ac6ff33" transform="matrix(1, -8.326672684688674e-17, 8.326672684688674e-17, 1, 276, 240)" width="24" height="24" rx="0" ry="0"></rect>
        <rect id="bt-cc-add-3" fill="#1ac6ff33" transform="matrix(1, -8.326672684688674e-17, 8.326672684688674e-17, 1, 528, 420)" width="24" height="24" rx="0" ry="0"></rect>
        <rect id="bt-cc-add-4" fill="#1ac6ff33" transform="matrix(1, -8.326672684688674e-17, 8.326672684688674e-17, 1, 342, 420)" width="24" height="24" rx="0" ry="0"></rect>
        <rect id="bt-cc-add-2" fill="#1ac6ff33" transform="matrix(1, -8.326672684688674e-17, 8.326672684688674e-17, 1, 588, 240)" width="24" height="24" rx="0" ry="0"></rect>
        <rect id="bt-cc-add-1" fill="#1ac6ff33" transform="matrix(1, 5.551115123125783e-17, -5.551115123125783e-17, 1, 450.076171875, 120.10107421875)" width="24" height="24" rx="0" ry="0"></rect>
        <g id="tx-rb-4" data-entity-classes="DescTitle">            <path id="rect" transform="translate(60, 324)" fill="#ff00001a" d="M0 0 L168 0 L168 48 L0 48 L0 0 Z"></path>
            <text id="Label" fill="#3cc583" transform="translate(179, 348)" font-size="20" font-family="Roboto" font-weight="700" data-align="horizontal:LEFT;vertical:TOP"></text></g>
        <g id="tx-cb-3" data-entity-classes="DescTitle">            <path id="rect_1" transform="translate(360, 528)" fill="#ff00001a" d="M0 0 L168 0 L168 48 L0 48 L0 0 Z"></path>
            <text id="Label_1" fill="#d1bd08" transform="translate(420, 552)" font-size="20" font-family="Roboto" font-weight="700" data-align="horizontal:LEFT;vertical:TOP"></text></g>
        <g id="tx-lb-2" data-entity-classes="DescTitle">            <path id="rect_2" transform="translate(660, 324)" fill="#ff00001a" d="M0 0 L168 0 L168 48 L0 48 L0 0 Z"></path>
            <text id="Label_2" fill="#17aee1" transform="translate(660, 348)" font-size="20" font-family="Roboto" font-weight="700" data-align="horizontal:LEFT;vertical:TOP"></text></g>
        <g id="tx-rb-5" data-entity-classes="DescTitle">            <path id="rect_3" transform="translate(114, 78)" fill="#ff00001a" d="M0 0 L168 0 L168 48 L0 48 L0 0 Z"></path>
            <text id="Label_3" fill="#db8333" transform="translate(233, 102)" font-size="20" font-family="Roboto" font-weight="700" data-align="horizontal:LEFT;vertical:TOP"></text></g>
        <g id="tx-lb-1" data-entity-classes="DescTitle">            <path id="rect_4" transform="translate(606, 78)" fill="#ff00001a" d="M0 0 L168 0 L168 48 L0 48 L0 0 Z"></path>
            <text id="Label_4" fill="#df5e59" transform="translate(606, 102)" font-size="20" font-family="Roboto" font-weight="700" data-align="horizontal:LEFT;vertical:TOP"></text></g></g></svg>