<svg xmlns="http://www.w3.org/2000/svg" width="576" height="564">    <g id="sequence-journey-thin-v1--family--4">        <g id="lines">            <g id="ar-with-terminator">                <path id="ar" marker-start="url(#arrow)" marker-end="url(#disc)" transform="translate(48, 168)" fill="none" stroke="#484848" stroke-width="2" stroke-linejoin="round" stroke-linecap="round" stroke-miterlimit="4" stroke-dasharray="8 7" d="M 480 60 L 480 240 C 480 273.1371 453.1371 300 420 300 C 386.8629 300 360 273.1371 360 240 L 360 60 C 360 26.8629 333.1371 0 300 0 C 266.8629 0 240 26.8629 240 60 L 240 180 C 240 213.1371 213.1371 240 180 240 C 146.8629 240 120 213.1371 120 180 L 120 120 C 120 86.8629 93.1371 60 60 60 C 26.8629 60 0 86.8629 0 120 L 0 240"></path></g>
            <g id="g-4">                <g id="cu" >                    <path id="vector" transform="translate(425.583984375, 365.595703125)" fill="#fefbdb" d="M84 42 C84 65.196 65.196 84 42 84 C18.804 84 0 65.196 0 42 C0 18.804 18.804 0 42 0 C65.196 0 84 18.804 84 42 Z"></path>
                    <path id="vector_1" transform="translate(425.583984375, 365.595703125)" fill="none" stroke="#d1bd08" stroke-width="2" stroke-linejoin="miter" stroke-linecap="none" stroke-miterlimit="4"  d="M 84 42 C 84 65.196 65.196 84 42 84 C 18.804 84 0 65.196 0 42 C 0 18.804 18.804 0 42 0 C 65.196 0 84 18.804 84 42 Z"></path></g></g>
            <g id="g-3">                <g id="cu_1" >                    <path id="vector_2" transform="translate(305.583984375, 185.595703125)" fill="#f3f0ff" d="M84 42 C84 65.196 65.196 84 42 84 C18.804 84 0 65.196 0 42 C0 18.804 18.804 0 42 0 C65.196 0 84 18.804 84 42 Z"></path>
                    <path id="vector_3" transform="translate(305.583984375, 185.595703125)" fill="none" stroke="#7e62ec" stroke-width="2" stroke-linejoin="miter" stroke-linecap="none" stroke-miterlimit="4"  d="M 84 42 C 84 65.196 65.196 84 42 84 C 18.804 84 0 65.196 0 42 C 0 18.804 18.804 0 42 0 C 65.196 0 84 18.804 84 42 Z"></path></g></g>
            <g id="g-2">                <g id="cu_2" >                    <path id="vector_4" transform="translate(185.583984375, 305.595703125)" fill="#f2fae1" d="M84 42 C84 65.196 65.196 84 42 84 C18.804 84 0 65.196 0 42 C0 18.804 18.804 0 42 0 C65.196 0 84 18.804 84 42 Z"></path>
                    <path id="vector_5" transform="translate(185.583984375, 305.595703125)" fill="none" stroke="#93c332" stroke-width="2" stroke-linejoin="miter" stroke-linecap="none" stroke-miterlimit="4"  d="M 84 42 C 84 65.196 65.196 84 42 84 C 18.804 84 0 65.196 0 42 C 0 18.804 18.804 0 42 0 C 65.196 0 84 18.804 84 42 Z"></path></g></g>
            <g id="g-1">                <g id="cu_3" >                    <path id="vector_6" transform="translate(65.583984375, 245.595703125)" fill="#ffedeb" d="M84 42 C84 65.196 65.196 84 42 84 C18.804 84 0 65.196 0 42 C0 18.804 18.804 0 42 0 C65.196 0 84 18.804 84 42 Z"></path>
                    <path id="vector_7" transform="translate(65.583984375, 245.595703125)" fill="none" stroke="#df5e59" stroke-width="2" stroke-linejoin="miter" stroke-linecap="none" stroke-miterlimit="4"  d="M 84 42 C 84 65.196 65.196 84 42 84 C 18.804 84 0 65.196 0 42 C 0 18.804 18.804 0 42 0 C 65.196 0 84 18.804 84 42 Z"></path></g></g></g>
        <rect id="ic-cc-4" fill="#33de7b1a" transform="matrix(1, 0, 0, -1, 444, 432.404296875)" width="48" height="48" rx="0" ry="0"></rect>
        <rect id="ic-cc-3" fill="#33de7b1a" transform="matrix(1, 0, 0, -1, 324, 252.404296875)" width="48" height="48" rx="0" ry="0"></rect>
        <rect id="ic-cc-2" fill="#33de7b1a" transform="matrix(1, 0, 0, -1, 204, 372.404296875)" width="48" height="48" rx="0" ry="0"></rect>
        <rect id="ic-cc-1" fill="#33de7b1a" transform="matrix(1, 0, 0, -1, 84, 312.404296875)" width="48" height="48" rx="0" ry="0"></rect>
        <rect id="tx-ct-4" fill="#ff00001a" transform="translate(372, 492.404296875)" width="192" height="72" rx="0" ry="0"></rect>
        <rect id="tx-cb-3" fill="#ff00001a" transform="translate(252, 72.404296875)" width="192" height="72" rx="0" ry="0"></rect>
        <rect id="tx-ct-2" fill="#ff00001a" transform="translate(132, 432.404296875)" width="192" height="72" rx="0" ry="0"></rect>
        <rect id="tx-cb-1" fill="#ff00001a" transform="translate(12, 132.404296875)" width="192" height="72" rx="0" ry="0"></rect>
        <rect id="tx-cb-title" fill="#ff00001a" width="576" height="48" rx="0" ry="0"></rect>
        <rect id="bt-cc-remove-4" fill="#1ac6ff33" transform="translate(455.998046875, 456.404296875)" width="24" height="24" rx="0" ry="0"></rect>
        <rect id="bt-cc-remove-3" fill="#1ac6ff33" transform="translate(336, 156.404296875)" width="24" height="24" rx="0" ry="0"></rect>
        <rect id="bt-cc-remove-2" fill="#1ac6ff33" transform="translate(216, 396.404296875)" width="24" height="24" rx="0" ry="0"></rect>
        <rect id="bt-cc-remove-1" fill="#1ac6ff33" transform="translate(95.998046875, 216.404296875)" width="24" height="24" rx="0" ry="0"></rect>
        <rect id="bt-cc-add-5" fill="#1ac6ff33" transform="translate(516, 306)" width="24" height="24" rx="0" ry="0"></rect>
        <rect id="bt-cc-add-4" fill="#1ac6ff33" transform="translate(396, 306)" width="24" height="24" rx="0" ry="0"></rect>
        <rect id="bt-cc-add-3" fill="#1ac6ff33" transform="translate(276, 306)" width="24" height="24" rx="0" ry="0"></rect>
        <rect id="bt-cc-add-2" fill="#1ac6ff33" transform="translate(156, 306)" width="24" height="24" rx="0" ry="0"></rect>
        <rect id="bt-cc-add-1" fill="#1ac6ff33" transform="translate(36, 306)" width="24" height="24" rx="0" ry="0"></rect></g>
    <defs >        <marker id="arrow" viewBox="-13 -13 26 26" refX="0" refY="0" markerWidth="13" markerHeight="13" markerUnits="strokeWidth" orient="auto-start-reverse">            <path d="M -8 -6.5 L -1.5 0 L -8 6.5" stroke="#666666" fill="none" stroke-width="2" stroke-linejoin="round" stroke-linecap="round"></path></marker>
        <marker id="disc" viewBox="-3 -3 6 6" refX="0" refY="0" markerWidth="6" markerHeight="6" markerUnits="strokeWidth" orient="auto-start-reverse">            <circle cx="0" cy="0" r="1.5" stroke="#666666" fill="#666666" stroke-width="2" stroke-linejoin="round" stroke-linecap="round"></circle></marker></defs></svg>