<svg xmlns="http://www.w3.org/2000/svg" width="1055" height="564">    <g id="sequence-journey-thin-v1--family--8">        <g id="lines">            <g id="ar-with-terminator">                <path id="ar" marker-start="url(#disc)" marker-end="url(#arrow)" transform="translate(48, 168)" fill="none" stroke="#484848" stroke-width="2" stroke-linejoin="round" stroke-linecap="round" stroke-miterlimit="4" stroke-dasharray="8 7" d="M 0 240 L 0 120 C 0 86.8629 26.8629 60 60 60 C 93.1371 60 120 86.8629 120 120 L 120 180 C 120 213.1371 146.8629 240 180 240 C 213.1371 240 240 213.1371 240 180 L 240 60 C 240 26.8629 266.8629 0 300 0 C 333.1371 0 360 26.8629 360 60 L 360 240 C 360 273.1371 386.8629 300 420 300 C 453.1371 300 480 273.1371 480 240 L 480 120 C 480 86.8629 506.8629 60 540 60 C 573.1371 60 600 86.8629 600 120 L 600 180 C 600 213.1371 626.8629 240 660 240 C 693.1371 240 720 213.1371 720 180 L 720 60 C 720 26.8629 746.8629 0 780 0 C 813.1371 0 840 26.8629 840 60 L 840 240 C 840 273.1371 866.8629 300 900 300 C 933.1371 300 960 273.1371 960 240 L 960 60"></path></g>
            <g id="g-8">                <g id="cu" >                    <path id="vector" transform="translate(905.583984375, 365.595703125)" fill="#e7fbf2" d="M84 42 C84 65.196 65.196 84 42 84 C18.804 84 0 65.196 0 42 C0 18.804 18.804 0 42 0 C65.196 0 84 18.804 84 42 Z"></path>
                    <path id="vector_1" transform="translate(905.583984375, 365.595703125)" fill="none" stroke="#3cc583" stroke-width="2" stroke-linejoin="miter" stroke-linecap="none" stroke-miterlimit="4"  d="M 84 42 C 84 65.196 65.196 84 42 84 C 18.804 84 0 65.196 0 42 C 0 18.804 18.804 0 42 0 C 65.196 0 84 18.804 84 42 Z"></path></g></g>
            <g id="g-7">                <g id="cu_1" >                    <path id="vector_2" transform="translate(785.583984375, 185.595703125)" fill="#fef2e6" d="M84 42 C84 65.196 65.196 84 42 84 C18.804 84 0 65.196 0 42 C0 18.804 18.804 0 42 0 C65.196 0 84 18.804 84 42 Z"></path>
                    <path id="vector_3" transform="translate(785.583984375, 185.595703125)" fill="none" stroke="#db8333" stroke-width="2" stroke-linejoin="miter" stroke-linecap="none" stroke-miterlimit="4"  d="M 84 42 C 84 65.196 65.196 84 42 84 C 18.804 84 0 65.196 0 42 C 0 18.804 18.804 0 42 0 C 65.196 0 84 18.804 84 42 Z"></path></g></g>
            <g id="g-6">                <g id="cu_2" >                    <path id="vector_4" transform="translate(665.583984375, 305.595703125)" fill="#e8f9ff" d="M84 42 C84 65.196 65.196 84 42 84 C18.804 84 0 65.196 0 42 C0 18.804 18.804 0 42 0 C65.196 0 84 18.804 84 42 Z"></path>
                    <path id="vector_5" transform="translate(665.583984375, 305.595703125)" fill="none" stroke="#17aee1" stroke-width="2" stroke-linejoin="miter" stroke-linecap="none" stroke-miterlimit="4"  d="M 84 42 C 84 65.196 65.196 84 42 84 C 18.804 84 0 65.196 0 42 C 0 18.804 18.804 0 42 0 C 65.196 0 84 18.804 84 42 Z"></path></g></g>
            <g id="g-5">                <g id="cu_3" >                    <path id="vector_6" transform="translate(545.583984375, 245.595703125)" fill="#faf0ff" d="M84 42 C84 65.196 65.196 84 42 84 C18.804 84 0 65.196 0 42 C0 18.804 18.804 0 42 0 C65.196 0 84 18.804 84 42 Z"></path>
                    <path id="vector_7" transform="translate(545.583984375, 245.595703125)" fill="none" stroke="#b960e2" stroke-width="2" stroke-linejoin="miter" stroke-linecap="none" stroke-miterlimit="4"  d="M 84 42 C 84 65.196 65.196 84 42 84 C 18.804 84 0 65.196 0 42 C 0 18.804 18.804 0 42 0 C 65.196 0 84 18.804 84 42 Z"></path></g></g>
            <g id="g-4">                <g id="cu_4" >                    <path id="vector_8" transform="translate(425.583984375, 365.595703125)" fill="#fefbdb" d="M84 42 C84 65.196 65.196 84 42 84 C18.804 84 0 65.196 0 42 C0 18.804 18.804 0 42 0 C65.196 0 84 18.804 84 42 Z"></path>
                    <path id="vector_9" transform="translate(425.583984375, 365.595703125)" fill="none" stroke="#d1bd08" stroke-width="2" stroke-linejoin="miter" stroke-linecap="none" stroke-miterlimit="4"  d="M 84 42 C 84 65.196 65.196 84 42 84 C 18.804 84 0 65.196 0 42 C 0 18.804 18.804 0 42 0 C 65.196 0 84 18.804 84 42 Z"></path></g></g>
            <g id="g-3">                <g id="cu_5" >                    <path id="vector_10" transform="translate(305.583984375, 185.595703125)" fill="#f3f0ff" d="M84 42 C84 65.196 65.196 84 42 84 C18.804 84 0 65.196 0 42 C0 18.804 18.804 0 42 0 C65.196 0 84 18.804 84 42 Z"></path>
                    <path id="vector_11" transform="translate(305.583984375, 185.595703125)" fill="none" stroke="#7e62ec" stroke-width="2" stroke-linejoin="miter" stroke-linecap="none" stroke-miterlimit="4"  d="M 84 42 C 84 65.196 65.196 84 42 84 C 18.804 84 0 65.196 0 42 C 0 18.804 18.804 0 42 0 C 65.196 0 84 18.804 84 42 Z"></path></g></g>
            <g id="g-2">                <g id="cu_6" >                    <path id="vector_12" transform="translate(185.583984375, 305.595703125)" fill="#f2fae1" d="M84 42 C84 65.196 65.196 84 42 84 C18.804 84 0 65.196 0 42 C0 18.804 18.804 0 42 0 C65.196 0 84 18.804 84 42 Z"></path>
                    <path id="vector_13" transform="translate(185.583984375, 305.595703125)" fill="none" stroke="#93c332" stroke-width="2" stroke-linejoin="miter" stroke-linecap="none" stroke-miterlimit="4"  d="M 84 42 C 84 65.196 65.196 84 42 84 C 18.804 84 0 65.196 0 42 C 0 18.804 18.804 0 42 0 C 65.196 0 84 18.804 84 42 Z"></path></g></g>
            <g id="g-1">                <g id="cu_7" >                    <path id="vector_14" transform="translate(65.583984375, 245.595703125)" fill="#ffedeb" d="M84 42 C84 65.196 65.196 84 42 84 C18.804 84 0 65.196 0 42 C0 18.804 18.804 0 42 0 C65.196 0 84 18.804 84 42 Z"></path>
                    <path id="vector_15" transform="translate(65.583984375, 245.595703125)" fill="none" stroke="#df5e59" stroke-width="2" stroke-linejoin="miter" stroke-linecap="none" stroke-miterlimit="4"  d="M 84 42 C 84 65.196 65.196 84 42 84 C 18.804 84 0 65.196 0 42 C 0 18.804 18.804 0 42 0 C 65.196 0 84 18.804 84 42 Z"></path></g></g></g>
        <rect id="ic-cc-8" fill="#33de7b1a" transform="matrix(1, 0, 0, -1, 924, 432)" width="48" height="48" rx="0" ry="0"></rect>
        <rect id="ic-cc-7" fill="#33de7b1a" transform="matrix(1, 0, 0, -1, 804, 252)" width="48" height="48" rx="0" ry="0"></rect>
        <rect id="ic-cc-6" fill="#33de7b1a" transform="matrix(1, 0, 0, -1, 684, 372)" width="48" height="48" rx="0" ry="0"></rect>
        <rect id="ic-cc-5" fill="#33de7b1a" transform="matrix(1, 0, 0, -1, 564, 312)" width="48" height="48" rx="0" ry="0"></rect>
        <rect id="ic-cc-4" fill="#33de7b1a" transform="matrix(1, 0, 0, -1, 444, 432)" width="48" height="48" rx="0" ry="0"></rect>
        <rect id="ic-cc-3" fill="#33de7b1a" transform="matrix(1, 0, 0, -1, 324, 252)" width="48" height="48" rx="0" ry="0"></rect>
        <rect id="ic-cc-2" fill="#33de7b1a" transform="matrix(1, 0, 0, -1, 204, 372)" width="48" height="48" rx="0" ry="0"></rect>
        <rect id="ic-cc-1" fill="#33de7b1a" transform="matrix(1, 0, 0, -1, 84, 312)" width="48" height="48" rx="0" ry="0"></rect>
        <rect id="tx-ct-8" fill="#ff00001a" transform="translate(852, 492)" width="192" height="72" rx="0" ry="0"></rect>
        <path id="tx-cb-7" transform="translate(732, 72)" fill="#ff00001a" d="M0 0 L192 0 L192 72 L0 72 L0 0 Z"></path>
        <path id="tx-ct-6" transform="translate(612, 432)" fill="#ff00001a" d="M0 0 L192 0 L192 72 L0 72 L0 0 Z"></path>
        <rect id="tx-cb-5" fill="#ff00001a" transform="translate(492, 132)" width="192" height="72" rx="0" ry="0"></rect>
        <rect id="tx-ct-4" fill="#ff00001a" transform="translate(372, 492)" width="192" height="72" rx="0" ry="0"></rect>
        <rect id="tx-cb-3" fill="#ff00001a" transform="translate(252, 72)" width="192" height="72" rx="0" ry="0"></rect>
        <rect id="tx-ct-2" fill="#ff00001a" transform="translate(132, 432)" width="192" height="72" rx="0" ry="0"></rect>
        <rect id="tx-cb-1" fill="#ff00001a" transform="translate(12, 132)" width="192" height="72" rx="0" ry="0"></rect>
        <rect id="tx-cb-title" fill="#ff00001a" transform="translate(228, 0)" width="600" height="48" rx="0" ry="0"></rect>
        <rect id="bt-cc-remove-8" fill="#1ac6ff33" transform="translate(936, 456)" width="24" height="24" rx="0" ry="0"></rect>
        <rect id="bt-cc-remove-7" fill="#1ac6ff33" transform="translate(816, 156)" width="24" height="24" rx="0" ry="0"></rect>
        <rect id="bt-cc-remove-6" fill="#1ac6ff33" transform="translate(696.04296875, 396)" width="24" height="24" rx="0" ry="0"></rect>
        <rect id="bt-cc-remove-5" fill="#1ac6ff33" transform="translate(576, 216)" width="24" height="24" rx="0" ry="0"></rect>
        <rect id="bt-cc-remove-4" fill="#1ac6ff33" transform="translate(455.998046875, 456)" width="24" height="24" rx="0" ry="0"></rect>
        <rect id="bt-cc-remove-3" fill="#1ac6ff33" transform="translate(336, 156)" width="24" height="24" rx="0" ry="0"></rect>
        <rect id="bt-cc-remove-2" fill="#1ac6ff33" transform="translate(216, 396)" width="24" height="24" rx="0" ry="0"></rect>
        <rect id="bt-cc-remove-1" fill="#1ac6ff33" transform="translate(95.998046875, 216)" width="24" height="24" rx="0" ry="0"></rect></g>
    <defs >        <marker id="disc" viewBox="-3 -3 6 6" refX="0" refY="0" markerWidth="6" markerHeight="6" markerUnits="strokeWidth" orient="auto-start-reverse">            <circle cx="0" cy="0" r="1.5" stroke="#666666" fill="#666666" stroke-width="2" stroke-linejoin="round" stroke-linecap="round"></circle></marker>
        <marker id="arrow" viewBox="-13 -13 26 26" refX="0" refY="0" markerWidth="13" markerHeight="13" markerUnits="strokeWidth" orient="auto-start-reverse">            <path d="M -8 -6.5 L -1.5 0 L -8 6.5" stroke="#666666" fill="none" stroke-width="2" stroke-linejoin="round" stroke-linecap="round"></path></marker></defs></svg>