<svg xmlns="http://www.w3.org/2000/svg" width="936" height="528">    <g id="sequence-mountain-v1--family--5" data-resize="horizontal:HUG;vertical:HUG" data-constraints="horizontal:MIN;vertical:MIN;layoutPositioning:AUTO;layoutGrow:0;layoutAlign:INHERIT" data-stack="layoutMode:VERTICAL;padding:0 0 0 0;gap:24;primary:MIN;counter:CENTER" data-position="x:0;y:0;w:0;h:0">        <path id="tx-cb-title" fill="#ff00001a" d="M0 0 L936 0 L936 24 L0 24 L0 0 Z" data-constraints="horizontal:MIN;vertical:MIN;layoutPositioning:AUTO;layoutGrow:0;layoutAlign:INHERIT" data-position="w:936;h:24" data-entity-classes="Title"></path>
        <g id="content-group" transform="translate(0, 48)" data-resize="horizontal:FIXED;vertical:HUG_ALL_CONTENT" data-position="w:936;h:0">            <g id="body" data-resize="horizontal:FIXED;vertical:HUG" data-constraints="horizontal:MIN;vertical:MIN;layoutPositioning:AUTO;layoutGrow:0;layoutAlign:INHERIT" data-stack="layoutMode:VERTICAL;padding:24 0 0 0;gap:0;primary:MIN;counter:CENTER" data-position="x:0;y:0;w:936;h:480">                <g id="Frame_651" data-resize="horizontal:HUG;vertical:HUG" data-constraints="horizontal:MIN;vertical:MIN;layoutPositioning:AUTO;layoutGrow:0;layoutAlign:INHERIT" data-stack="layoutMode:HORIZONTAL;padding:0 0 0 0;gap:24;primary:MIN;counter:MAX" data-position="x:60;y:24;w:816;h:312" transform="translate(60, 24)">                    <g id="Frame_650" data-resize="horizontal:FIXED;vertical:HUG" data-constraints="horizontal:MIN;vertical:MIN;layoutPositioning:AUTO;layoutGrow:0;layoutAlign:INHERIT" data-stack="layoutMode:VERTICAL;padding:0 0 0 0;gap:12;primary:MAX;counter:MIN" data-position="x:0;y:192;w:144;h:120" transform="translate(0, 192)">                        <g id="ic-cc-1"  data-constraints="horizontal:MIN;vertical:MIN;layoutPositioning:AUTO;layoutGrow:0;layoutAlign:INHERIT"  data-position="x:0;y:0;w:48;h:48">                            <path id="rect" transform="matrix(1, 1.7151245100058819e-15, -1.7151245100058819e-15, 1, 8.215650382226158e-14, 0)" fill="#33de7b1a" d="M0 0 L48 0 L48 48 L0 48 L0 0 Z"  data-constraints="horizontal:MIN;vertical:MIN;layoutPositioning:AUTO;layoutGrow:0;layoutAlign:INHERIT"  data-position="x:0.000;y:0;w:48;h:48"></path>
                            <g id="icon"  data-constraints="horizontal:MIN;vertical:MIN;layoutPositioning:AUTO;layoutGrow:0;layoutAlign:INHERIT"  data-position="x:5;y:5.000;w:38;h:38" transform="translate(5, 5.000081539154053)">                                <path id="icon_1" transform="translate(9.666748046875, 6.6669921875)" fill="none" stroke="#17aee1" stroke-width="2" stroke-linejoin="round" stroke-linecap="round" stroke-miterlimit="1.5"  d="M 0.0001 0 C 6.3411 3.7391 12.6667 7.5036 19 11.2554 C 15.3561 13.2891 9.4734 16.535 5.2183 18.8788 C 2.1996 20.5415 0 21.7503 0 21.7503 L 0.0001 0 Z M 19 11.2554 C 15.1014 15.3871 11.2746 19.5853 7.4122 23.75 C 6.6825 22.126 5.9786 20.489 5.2183 18.8788"  data-constraints="horizontal:CENTER;vertical:CENTER;layoutPositioning:AUTO;layoutGrow:0;layoutAlign:INHERIT"  data-position="x:9.667;y:6.667;w:19;h:23.750"></path></g></g>
                        <g id="tx-lc-1"  data-constraints="horizontal:MIN;vertical:MIN;layoutPositioning:AUTO;layoutGrow:0;layoutAlign:INHERIT"  data-position="x:0;y:60;w:144;h:24" transform="translate(0, 60)">                            <path id="rect_1" fill="#ff00001a" d="M0 0 L144 0 L144 24 L0 24 L0 0 Z"  data-constraints="horizontal:MIN;vertical:MIN;layoutPositioning:AUTO;layoutGrow:0;layoutAlign:INHERIT"  data-position="x:0;y:0;w:144;h:24"></path>
                            <text id="Label"  data-constraints="horizontal:CENTER;vertical:MIN;layoutPositioning:AUTO;layoutGrow:0;layoutAlign:INHERIT"  data-position="x:0;y:0;w:49;h:24" fill="#484848" font-size="20" font-family="Roboto" font-weight="700" data-align="horizontal:LEFT;vertical:TOP"></text></g>
                        <g id="tx-lt-1-desc"  data-constraints="horizontal:MIN;vertical:MIN;layoutPositioning:AUTO;layoutGrow:0;layoutAlign:INHERIT"  data-position="x:0;y:96;w:144;h:24" transform="translate(0, 96)">                            <path id="rect_2" fill="#ff00001a" d="M0 0 L144 0 L144 24 L0 24 L0 0 Z"  data-constraints="horizontal:MIN;vertical:MIN;layoutPositioning:AUTO;layoutGrow:0;layoutAlign:INHERIT"  data-position="x:0;y:0;w:144;h:24"></path>
                            <text id="Label_1"  data-constraints="horizontal:CENTER;vertical:MIN;layoutPositioning:AUTO;layoutGrow:0;layoutAlign:INHERIT"  data-position="x:0;y:0;w:144;h:24" fill="#484848" font-size="15" font-family="Roboto" font-weight="400" data-align="horizontal:LEFT;vertical:TOP"></text></g>
                        <rect id="bt-cc-remove-1"  data-constraints="horizontal:CENTER;vertical:MAX;layoutPositioning:ABSOLUTE;layoutGrow:0;layoutAlign:INHERIT"  data-position="x:60;y:120;w:24;h:24" fill="#1ac6ff33" transform="matrix(1, -5.551115123125783e-17, 5.551115123125783e-17, 1, 60, 120)" width="24" height="24" rx="0" ry="0"></rect></g>
                    <g id="Frame_649" data-resize="horizontal:FIXED;vertical:HUG" data-constraints="horizontal:MIN;vertical:MIN;layoutPositioning:AUTO;layoutGrow:0;layoutAlign:INHERIT" data-stack="layoutMode:VERTICAL;padding:0 0 48 0;gap:12;primary:MAX;counter:MIN" data-position="x:168;y:144;w:144;h:168" transform="translate(168, 144)">                        <g id="ic-cc-2"  data-constraints="horizontal:MIN;vertical:MIN;layoutPositioning:AUTO;layoutGrow:0;layoutAlign:INHERIT"  data-position="x:0;y:0;w:48;h:48">                            <path id="rect_3" transform="matrix(1, 1.7151245100058819e-15, -1.7151245100058819e-15, 1, 8.215650382226158e-14, 0)" fill="#33de7b1a" d="M0 0 L48 0 L48 48 L0 48 L0 0 Z"  data-constraints="horizontal:MIN;vertical:MIN;layoutPositioning:AUTO;layoutGrow:0;layoutAlign:INHERIT"  data-position="x:0.000;y:0;w:48;h:48"></path>
                            <g id="icon_2"  data-constraints="horizontal:MIN;vertical:MIN;layoutPositioning:AUTO;layoutGrow:0;layoutAlign:INHERIT"  data-position="x:5;y:5.000;w:38;h:38" transform="translate(5, 5.000081539154053)">                                <path id="icon_3" transform="translate(9.666748046875, 6.6669921875)" fill="none" stroke="#4987ec" stroke-width="2" stroke-linejoin="round" stroke-linecap="round" stroke-miterlimit="1.5"  d="M 0.0001 0 C 6.3411 3.7391 12.6667 7.5036 19 11.2554 C 15.3561 13.2891 9.4734 16.535 5.2183 18.8788 C 2.1996 20.5415 0 21.7503 0 21.7503 L 0.0001 0 Z M 19 11.2554 C 15.1014 15.3871 11.2746 19.5853 7.4122 23.75 C 6.6825 22.126 5.9786 20.489 5.2183 18.8788"  data-constraints="horizontal:CENTER;vertical:CENTER;layoutPositioning:AUTO;layoutGrow:0;layoutAlign:INHERIT"  data-position="x:9.667;y:6.667;w:19;h:23.750"></path></g></g>
                        <g id="tx-lc-2"  data-constraints="horizontal:MIN;vertical:MIN;layoutPositioning:AUTO;layoutGrow:0;layoutAlign:INHERIT"  data-position="x:0;y:60;w:144;h:24" transform="translate(0, 60)">                            <path id="rect_4" fill="#ff00001a" d="M0 0 L144 0 L144 24 L0 24 L0 0 Z"  data-constraints="horizontal:MIN;vertical:MIN;layoutPositioning:AUTO;layoutGrow:0;layoutAlign:INHERIT"  data-position="x:0;y:0;w:144;h:24"></path>
                            <text id="Label_2"  data-constraints="horizontal:CENTER;vertical:MIN;layoutPositioning:AUTO;layoutGrow:0;layoutAlign:INHERIT"  data-position="x:0;y:0;w:49;h:24" fill="#484848" font-size="20" font-family="Roboto" font-weight="700" data-align="horizontal:LEFT;vertical:TOP"></text></g>
                        <g id="tx-lt-2-desc"  data-constraints="horizontal:MIN;vertical:MIN;layoutPositioning:AUTO;layoutGrow:0;layoutAlign:INHERIT"  data-position="x:0;y:96;w:144;h:24" transform="translate(0, 96)">                            <path id="rect_5" fill="#ff00001a" d="M0 0 L144 0 L144 24 L0 24 L0 0 Z"  data-constraints="horizontal:MIN;vertical:MIN;layoutPositioning:AUTO;layoutGrow:0;layoutAlign:INHERIT"  data-position="x:0;y:0;w:144;h:24"></path>
                            <text id="Label_3"  data-constraints="horizontal:CENTER;vertical:MIN;layoutPositioning:AUTO;layoutGrow:0;layoutAlign:INHERIT"  data-position="x:0;y:0;w:144;h:24" fill="#484848" font-size="15" font-family="Roboto" font-weight="400" data-align="horizontal:LEFT;vertical:TOP"></text></g>
                        <rect id="bt-cc-remove-2"  data-constraints="horizontal:CENTER;vertical:MAX;layoutPositioning:ABSOLUTE;layoutGrow:0;layoutAlign:INHERIT"  data-position="x:60;y:120;w:24;h:24" fill="#1ac6ff33" transform="matrix(1, -5.551115123125783e-17, 5.551115123125783e-17, 1, 60, 120)" width="24" height="24" rx="0" ry="0"></rect></g>
                    <g id="Frame_648" data-resize="horizontal:FIXED;vertical:HUG" data-constraints="horizontal:MIN;vertical:MIN;layoutPositioning:AUTO;layoutGrow:0;layoutAlign:INHERIT" data-stack="layoutMode:VERTICAL;padding:0 0 96 0;gap:12;primary:MAX;counter:MIN" data-position="x:336;y:96;w:144;h:216" transform="translate(336, 96)">                        <g id="ic-cc-3"  data-constraints="horizontal:MIN;vertical:MIN;layoutPositioning:AUTO;layoutGrow:0;layoutAlign:INHERIT"  data-position="x:0;y:0;w:48;h:48">                            <path id="rect_6" transform="matrix(1, 1.7151245100058819e-15, -1.7151245100058819e-15, 1, 8.215650382226158e-14, 0)" fill="#33de7b1a" d="M0 0 L48 0 L48 48 L0 48 L0 0 Z"  data-constraints="horizontal:MIN;vertical:MIN;layoutPositioning:AUTO;layoutGrow:0;layoutAlign:INHERIT"  data-position="x:0.000;y:0;w:48;h:48"></path>
                            <g id="icon_4"  data-constraints="horizontal:MIN;vertical:MIN;layoutPositioning:AUTO;layoutGrow:0;layoutAlign:INHERIT"  data-position="x:5;y:5.000;w:38;h:38" transform="translate(5, 5.000081539154053)">                                <path id="icon_5" transform="translate(9.666748046875, 6.6669921875)" fill="none" stroke="#d95da7" stroke-width="2" stroke-linejoin="round" stroke-linecap="round" stroke-miterlimit="1.5"  d="M 0.0001 0 C 6.3411 3.7391 12.6667 7.5036 19 11.2554 C 15.3561 13.2891 9.4734 16.535 5.2183 18.8788 C 2.1996 20.5415 0 21.7503 0 21.7503 L 0.0001 0 Z M 19 11.2554 C 15.1014 15.3871 11.2746 19.5853 7.4122 23.75 C 6.6825 22.126 5.9786 20.489 5.2183 18.8788"  data-constraints="horizontal:CENTER;vertical:CENTER;layoutPositioning:AUTO;layoutGrow:0;layoutAlign:INHERIT"  data-position="x:9.667;y:6.667;w:19;h:23.750"></path></g></g>
                        <g id="tx-lc-3"  data-constraints="horizontal:MIN;vertical:MIN;layoutPositioning:AUTO;layoutGrow:0;layoutAlign:INHERIT"  data-position="x:0;y:60;w:144;h:24" transform="translate(0, 60)">                            <path id="rect_7" fill="#ff00001a" d="M0 0 L144 0 L144 24 L0 24 L0 0 Z"  data-constraints="horizontal:MIN;vertical:MIN;layoutPositioning:AUTO;layoutGrow:0;layoutAlign:INHERIT"  data-position="x:0;y:0;w:144;h:24"></path>
                            <text id="Label_4"  data-constraints="horizontal:CENTER;vertical:MIN;layoutPositioning:AUTO;layoutGrow:0;layoutAlign:INHERIT"  data-position="x:0;y:0;w:49;h:24" fill="#484848" font-size="20" font-family="Roboto" font-weight="700" data-align="horizontal:LEFT;vertical:TOP"></text></g>
                        <g id="tx-lt-3-desc"  data-constraints="horizontal:MIN;vertical:MIN;layoutPositioning:AUTO;layoutGrow:0;layoutAlign:INHERIT"  data-position="x:0;y:96;w:144;h:24" transform="translate(0, 96)">                            <path id="rect_8" fill="#ff00001a" d="M0 0 L144 0 L144 24 L0 24 L0 0 Z"  data-constraints="horizontal:MIN;vertical:MIN;layoutPositioning:AUTO;layoutGrow:0;layoutAlign:INHERIT"  data-position="x:0;y:0;w:144;h:24"></path>
                            <text id="Label_5"  data-constraints="horizontal:CENTER;vertical:MIN;layoutPositioning:AUTO;layoutGrow:0;layoutAlign:INHERIT"  data-position="x:0;y:0;w:144;h:24" fill="#484848" font-size="15" font-family="Roboto" font-weight="400" data-align="horizontal:LEFT;vertical:TOP"></text></g>
                        <rect id="bt-cc-remove-3"  data-constraints="horizontal:CENTER;vertical:MAX;layoutPositioning:ABSOLUTE;layoutGrow:0;layoutAlign:INHERIT"  data-position="x:60;y:120;w:24;h:24" fill="#1ac6ff33" transform="matrix(1, -5.551115123125783e-17, 5.551115123125783e-17, 1, 60, 120)" width="24" height="24" rx="0" ry="0"></rect></g>
                    <g id="Frame_647" data-resize="horizontal:FIXED;vertical:HUG" data-constraints="horizontal:MIN;vertical:MIN;layoutPositioning:AUTO;layoutGrow:0;layoutAlign:INHERIT" data-stack="layoutMode:VERTICAL;padding:0 0 144 0;gap:12;primary:MAX;counter:MIN" data-position="x:504;y:48;w:144;h:264" transform="translate(504, 48)">                        <g id="ic-cc-4"  data-constraints="horizontal:MIN;vertical:MIN;layoutPositioning:AUTO;layoutGrow:0;layoutAlign:INHERIT"  data-position="x:0;y:0;w:48;h:48">                            <path id="rect_9" transform="matrix(1, 1.7151245100058819e-15, -1.7151245100058819e-15, 1, 8.215650382226158e-14, 0)" fill="#33de7b1a" d="M0 0 L48 0 L48 48 L0 48 L0 0 Z"  data-constraints="horizontal:MIN;vertical:MIN;layoutPositioning:AUTO;layoutGrow:0;layoutAlign:INHERIT"  data-position="x:0.000;y:0;w:48;h:48"></path>
                            <g id="icon_6"  data-constraints="horizontal:MIN;vertical:MIN;layoutPositioning:AUTO;layoutGrow:0;layoutAlign:INHERIT"  data-position="x:5;y:5.000;w:38;h:38" transform="translate(5, 5.000081539154053)">                                <path id="icon_7" transform="translate(9.666748046875, 6.6669921875)" fill="none" stroke="#df5e59" stroke-width="2" stroke-linejoin="round" stroke-linecap="round" stroke-miterlimit="1.5"  d="M 0.0001 0 C 6.3411 3.7391 12.6667 7.5036 19 11.2554 C 15.3561 13.2891 9.4734 16.535 5.2183 18.8788 C 2.1996 20.5415 0 21.7503 0 21.7503 L 0.0001 0 Z M 19 11.2554 C 15.1014 15.3871 11.2746 19.5853 7.4122 23.75 C 6.6825 22.126 5.9786 20.489 5.2183 18.8788"  data-constraints="horizontal:CENTER;vertical:CENTER;layoutPositioning:AUTO;layoutGrow:0;layoutAlign:INHERIT"  data-position="x:9.667;y:6.667;w:19;h:23.750"></path></g></g>
                        <g id="tx-lc-4"  data-constraints="horizontal:MIN;vertical:MIN;layoutPositioning:AUTO;layoutGrow:0;layoutAlign:INHERIT"  data-position="x:0;y:60;w:144;h:24" transform="translate(0, 60)">                            <path id="rect_10" fill="#ff00001a" d="M0 0 L144 0 L144 24 L0 24 L0 0 Z"  data-constraints="horizontal:MIN;vertical:MIN;layoutPositioning:AUTO;layoutGrow:0;layoutAlign:INHERIT"  data-position="x:0;y:0;w:144;h:24"></path>
                            <text id="Label_6"  data-constraints="horizontal:CENTER;vertical:MIN;layoutPositioning:AUTO;layoutGrow:0;layoutAlign:INHERIT"  data-position="x:0;y:0;w:49;h:24" fill="#484848" font-size="20" font-family="Roboto" font-weight="700" data-align="horizontal:LEFT;vertical:TOP"></text></g>
                        <g id="tx-lt-4-desc"  data-constraints="horizontal:MIN;vertical:MIN;layoutPositioning:AUTO;layoutGrow:0;layoutAlign:INHERIT"  data-position="x:0;y:96;w:144;h:24" transform="translate(0, 96)">                            <path id="rect_11" fill="#ff00001a" d="M0 0 L144 0 L144 24 L0 24 L0 0 Z"  data-constraints="horizontal:MIN;vertical:MIN;layoutPositioning:AUTO;layoutGrow:0;layoutAlign:INHERIT"  data-position="x:0;y:0;w:144;h:24"></path>
                            <text id="Label_7"  data-constraints="horizontal:CENTER;vertical:MIN;layoutPositioning:AUTO;layoutGrow:0;layoutAlign:INHERIT"  data-position="x:0;y:0;w:144;h:24" fill="#484848" font-size="15" font-family="Roboto" font-weight="400" data-align="horizontal:LEFT;vertical:TOP"></text></g>
                        <rect id="bt-cc-remove-4"  data-constraints="horizontal:CENTER;vertical:MAX;layoutPositioning:ABSOLUTE;layoutGrow:0;layoutAlign:INHERIT"  data-position="x:60;y:120;w:24;h:24" fill="#1ac6ff33" transform="matrix(1, -5.551115123125783e-17, 5.551115123125783e-17, 1, 60, 120)" width="24" height="24" rx="0" ry="0"></rect></g>
                    <g id="Frame_646" data-resize="horizontal:FIXED;vertical:HUG" data-constraints="horizontal:MIN;vertical:MIN;layoutPositioning:AUTO;layoutGrow:0;layoutAlign:INHERIT" data-stack="layoutMode:VERTICAL;padding:0 0 192 0;gap:12;primary:MAX;counter:MIN" data-position="x:672;y:0;w:144;h:312" transform="translate(672, 0)">                        <g id="ic-cc-5"  data-constraints="horizontal:MIN;vertical:MIN;layoutPositioning:AUTO;layoutGrow:0;layoutAlign:INHERIT"  data-position="x:0;y:0;w:48;h:48">                            <path id="rect_12" transform="matrix(1, 1.7151245100058819e-15, -1.7151245100058819e-15, 1, 8.215650382226158e-14, 0)" fill="#33de7b1a" d="M0 0 L48 0 L48 48 L0 48 L0 0 Z"  data-constraints="horizontal:MIN;vertical:MIN;layoutPositioning:AUTO;layoutGrow:0;layoutAlign:INHERIT"  data-position="x:0.000;y:0;w:48;h:48"></path>
                            <g id="icon_8"  data-constraints="horizontal:MIN;vertical:MIN;layoutPositioning:AUTO;layoutGrow:0;layoutAlign:INHERIT"  data-position="x:5;y:5.000;w:38;h:38" transform="translate(5, 5.000081539154053)">                                <path id="icon_9" transform="translate(9.666748046875, 6.6669921875)" fill="none" stroke="#db8333" stroke-width="2" stroke-linejoin="round" stroke-linecap="round" stroke-miterlimit="1.5"  d="M 0.0001 0 C 6.3411 3.7391 12.6667 7.5036 19 11.2554 C 15.3561 13.2891 9.4734 16.535 5.2183 18.8788 C 2.1996 20.5415 0 21.7503 0 21.7503 L 0.0001 0 Z M 19 11.2554 C 15.1014 15.3871 11.2746 19.5853 7.4122 23.75 C 6.6825 22.126 5.9786 20.489 5.2183 18.8788"  data-constraints="horizontal:CENTER;vertical:CENTER;layoutPositioning:AUTO;layoutGrow:0;layoutAlign:INHERIT"  data-position="x:9.667;y:6.667;w:19;h:23.750"></path></g></g>
                        <g id="tx-lc-5"  data-constraints="horizontal:MIN;vertical:MIN;layoutPositioning:AUTO;layoutGrow:0;layoutAlign:INHERIT"  data-position="x:0;y:60;w:144;h:24" transform="translate(0, 60)">                            <path id="rect_13" fill="#ff00001a" d="M0 0 L144 0 L144 24 L0 24 L0 0 Z"  data-constraints="horizontal:MIN;vertical:MIN;layoutPositioning:AUTO;layoutGrow:0;layoutAlign:INHERIT"  data-position="x:0;y:0;w:144;h:24"></path>
                            <text id="Label_8"  data-constraints="horizontal:CENTER;vertical:MIN;layoutPositioning:AUTO;layoutGrow:0;layoutAlign:INHERIT"  data-position="x:0;y:0;w:49;h:24" fill="#484848" font-size="20" font-family="Roboto" font-weight="700" data-align="horizontal:LEFT;vertical:TOP"></text></g>
                        <g id="tx-lt-5-desc"  data-constraints="horizontal:MIN;vertical:MIN;layoutPositioning:AUTO;layoutGrow:0;layoutAlign:INHERIT"  data-position="x:0;y:96;w:144;h:24" transform="translate(0, 96)">                            <path id="rect_14" fill="#ff00001a" d="M0 0 L144 0 L144 24 L0 24 L0 0 Z"  data-constraints="horizontal:MIN;vertical:MIN;layoutPositioning:AUTO;layoutGrow:0;layoutAlign:INHERIT"  data-position="x:0;y:0;w:144;h:24"></path>
                            <text id="Label_9"  data-constraints="horizontal:CENTER;vertical:MIN;layoutPositioning:AUTO;layoutGrow:0;layoutAlign:INHERIT"  data-position="x:0;y:0;w:144;h:24" fill="#484848" font-size="15" font-family="Roboto" font-weight="400" data-align="horizontal:LEFT;vertical:TOP"></text></g>
                        <rect id="bt-cc-remove-5"  data-constraints="horizontal:CENTER;vertical:MAX;layoutPositioning:ABSOLUTE;layoutGrow:0;layoutAlign:INHERIT"  data-position="x:60;y:120;w:24;h:24" fill="#1ac6ff33" transform="matrix(1, -5.551115123125783e-17, 5.551115123125783e-17, 1, 60, 120)" width="24" height="24" rx="0" ry="0"></rect></g></g>
                <g id="lines" data-resize="horizontal:FILL;vertical:FIXED" data-constraints="horizontal:MIN;vertical:MIN;layoutPositioning:AUTO;layoutGrow:0;layoutAlign:STRETCH"  data-position="x:0;y:336;w:936;h:144" transform="translate(0, 336)">                    <g id="g-0f"  data-constraints="horizontal:MIN;vertical:MIN;layoutPositioning:AUTO;layoutGrow:0;layoutAlign:INHERIT"  data-position="x:84;y:-45;w:852;h:189.000" transform="translate(84, -45)">                        <g id="cu_Subtract"  data-constraints="horizontal:MIN;vertical:MIN;layoutPositioning:AUTO;layoutGrow:0;layoutAlign:INHERIT"  data-position="x:672;y:0;w:180;h:189" >                            <path id="Subtract" transform="translate(672, 0)" fill="#f2fae1" d="M45.5421 0.759 L35.9999 5 L17.9999 0 L0 9 L0 189 L46 189 L46.0003 180 L34 180 L39 168 L36 165 L41 156 L38 153 L43 144 L40 141 L45 132 L42 129 L48 117 L54 129 L51 132 L56 141 L53 144 L58 153 L55 156 L60 165 L57 168 L62 180 L50 180 L49.9997 189 L106 189 L106 183 L98 183 L103 174 L100 171 L105 162 L102 159 L108 147 L114 159 L111 162 L116 171 L113 174 L118 183 L110 183 L110 189 L180 189 L45.5421 0.759 Z"></path>
                            <path id="Subtract_1" transform="translate(672, 0)" fill="none" stroke="#93c332" stroke-width="2" stroke-linejoin="round" stroke-linecap="none" stroke-miterlimit="4"  d="M 45.5421 0.759 L 35.9999 5 L 17.9999 0 L 0 9 L 0 189 L 46 189 L 46.0003 180 L 34 180 L 39 168 L 36 165 L 41 156 L 38 153 L 43 144 L 40 141 L 45 132 L 42 129 L 48 117 L 54 129 L 51 132 L 56 141 L 53 144 L 58 153 L 55 156 L 60 165 L 57 168 L 62 180 L 50 180 L 49.9997 189 L 106 189 L 106.0003 183 L 98 183 L 103 174 L 100 171 L 105 162 L 102 159 L 108 147 L 114 159 L 111 162 L 116 171 L 113 174 L 118 183 L 110 183 L 109.9997 189 L 180 189 L 45.5421 0.759 Z"></path></g>
                        <g id="cu_Subtract_1"  data-constraints="horizontal:MIN;vertical:MIN;layoutPositioning:AUTO;layoutGrow:0;layoutAlign:INHERIT"  data-position="x:504;y:24;w:71.536;h:148.200" >                            <path id="Subtract_2" transform="translate(504, 24)" fill="#f2fae1" d="M71.5359 48.0497 L37.5402 0.9786 L30.0001 5 L15.0001 0 L0 9 L0 148.2 L71.5359 48.0497 Z"></path>
                            <path id="Subtract_3" transform="translate(504, 24)" fill="none" stroke="#93c332" stroke-width="2" stroke-linejoin="round" stroke-linecap="none" stroke-miterlimit="4"  d="M 71.5359 48.0497 L 37.5402 0.9786 L 30.0001 5 L 15.0001 0 L 0 9 L 0 148.2 L 71.5359 48.0497 Z"></path></g>
                        <g id="cu_Subtract_2"  data-constraints="horizontal:MIN;vertical:MIN;layoutPositioning:AUTO;layoutGrow:0;layoutAlign:INHERIT"  data-position="x:336;y:48;w:71.542;h:141" >                            <path id="Subtract_4" transform="translate(336, 48)" fill="#f2fae1" d="M71.542 58.5573 L32.079 4.7442 L15 0 L0 9 L0 141 L12 141 L71.542 58.5573 Z"></path>
                            <path id="Subtract_5" transform="translate(336, 48)" fill="none" stroke="#93c332" stroke-width="2" stroke-linejoin="round" stroke-linecap="none" stroke-miterlimit="4"  d="M 71.542 58.5573 L 32.079 4.7442 L 15 0 L 0 9 L 0 141 L 12 141 L 71.542 58.5573 Z"></path></g>
                        <g id="cu_Subtract_3"  data-constraints="horizontal:MIN;vertical:MIN;layoutPositioning:AUTO;layoutGrow:0;layoutAlign:INHERIT"  data-position="x:168;y:72;w:71.595;h:117" >                            <path id="Subtract_6" transform="translate(168, 72)" fill="#f2fae1" d="M71.5955 68.4607 L24 5 L12 0 L5.7846e-5 9 L0 117 L36 117 L71.5955 68.4607 Z"></path>
                            <path id="Subtract_7" transform="translate(168, 72)" fill="none" stroke="#93c332" stroke-width="2" stroke-linejoin="round" stroke-linecap="none" stroke-miterlimit="4"  d="M 71.5955 68.4607 L 24 5 L 12 0 L 0.0001 9 L 0 117 L 36 117 L 71.5955 68.4607 Z"></path></g>
                        <g id="cu_Subtract_4"  data-constraints="horizontal:MIN;vertical:MIN;layoutPositioning:AUTO;layoutGrow:0;layoutAlign:INHERIT"  data-position="x:0;y:96.158;w:71.782;h:92.842" >                            <path id="Subtract_8" transform="translate(0, 96.158203125)" fill="#f2fae1" d="M71.7817 77.1329 L60 92.8418 L25.9997 92.8418 L26 86.8418 L34 86.8418 L29 77.8418 L32 74.8418 L27 65.8418 L30 62.8418 L24 50.8418 L18 62.8418 L21 65.8418 L16 74.8418 L19 77.8418 L14 86.8418 L22.0003 86.8418 L22 92.8418 L0 92.8421 L0 8.842 L11.7895 0 L71.7817 77.1329 Z"></path>
                            <path id="Subtract_9" transform="translate(0, 96.158203125)" fill="none" stroke="#93c332" stroke-width="2" stroke-linejoin="round" stroke-linecap="none" stroke-miterlimit="4"  d="M 71.7817 77.1329 L 60 92.8418 L 25.9997 92.8418 L 26 86.8418 L 34 86.8418 L 29 77.8418 L 32 74.8418 L 27 65.8418 L 30 62.8418 L 24 50.8418 L 18 62.8418 L 21 65.8418 L 16 74.8418 L 19 77.8418 L 14 86.8418 L 22.0003 86.8418 L 22 92.8418 L 0 92.8421 L 0 8.842 L 11.7895 0 L 71.7817 77.1329 Z"></path></g></g>
                    <g id="g-0e"  data-constraints="horizontal:MIN;vertical:MIN;layoutPositioning:AUTO;layoutGrow:0;layoutAlign:INHERIT"  data-position="x:0;y:-45;w:756;h:189.000" transform="translate(0, -45)">                        <g id="cu_Subtract_5"  data-constraints="horizontal:MIN;vertical:MIN;layoutPositioning:AUTO;layoutGrow:0;layoutAlign:INHERIT"  data-position="x:432;y:0;w:324;h:189" >                            <path id="Subtract_10" transform="translate(432, 0)" fill="#e7fbf2" d="M306 0 L324 9.0001 L324 189 L134 189 L134 177 L144 177 L139 168 L142 165 L137 156 L140 153 L135 144 L138 141 L132 129 L126 141 L129 144 L124 153 L127 156 L122 165 L125 168 L120 177 L130 177 L130 189 L0 189 L118.46 24.9786 L126 29 L141 24 L156 33 L156 172.2 L278.458 0.759 L288 5 L306 0 Z"></path>
                            <path id="Subtract_11" transform="translate(432, 0)" fill="none" stroke="#3cc583" stroke-width="2" stroke-linejoin="round" stroke-linecap="none" stroke-miterlimit="4"  d="M 305.9999 0 L 323.9999 9.0001 L 324 189 L 134 189 L 134.0003 177 L 144 177 L 139 168 L 142 165 L 137 156 L 140 153 L 135 144 L 138 141 L 132 129 L 126 141 L 129 144 L 124 153 L 127 156 L 122 165 L 125 168 L 120 177 L 130.0003 177 L 130 189 L 0 189 L 118.46 24.9786 L 126.0001 29 L 141.0001 24 L 156 33 L 156 172.2 L 278.4578 0.759 L 287.9999 5 L 305.9999 0 Z"></path></g>
                        <g id="cu_Subtract_6"  data-constraints="horizontal:MIN;vertical:MIN;layoutPositioning:AUTO;layoutGrow:0;layoutAlign:INHERIT"  data-position="x:288;y:48;w:132;h:141" >                            <path id="Subtract_12" transform="translate(288, 48)" fill="#e7fbf2" d="M132 141 L132 9 L117 0 L99.9209 4.7442 L0 141 L82 141 L82.0003 135 L74 135 L79 126 L76 123 L81 114 L78 111 L84 99 L90 111 L87 114 L92 123 L89 126 L94 135 L86 135 L85.9997 141 L112 141 L112 132 L100 132 L105 120 L102 117 L107 108 L104 105 L109 96 L106 93 L111 84 L108 81 L114 69 L120 81 L117 84 L122 93 L119 96 L124 105 L121 108 L126 117 L123 120 L128 132 L116 132 L116 141 L132 141 Z"></path>
                            <path id="Subtract_13" transform="translate(288, 48)" fill="none" stroke="#3cc583" stroke-width="2" stroke-linejoin="round" stroke-linecap="none" stroke-miterlimit="4"  d="M 132 141 L 132 9 L 117 0 L 99.9209 4.7442 L 0 141 L 82 141 L 82.0003 135 L 74 135 L 79 126 L 76 123 L 81 114 L 78 111 L 84 99 L 90 111 L 87 114 L 92 123 L 89 126 L 94 135 L 86 135 L 85.9997 141 L 112 141 L 112.0003 132 L 100 132 L 105 120 L 102 117 L 107 108 L 104 105 L 109 96 L 106 93 L 111 84 L 108 81 L 114 69 L 120 81 L 117 84 L 122 93 L 119 96 L 124 105 L 121 108 L 126 117 L 123 120 L 128 132 L 116 132 L 115.9997 141 L 132 141 Z"></path></g>
                        <g id="cu_Subtract_7"  data-constraints="horizontal:MIN;vertical:MIN;layoutPositioning:AUTO;layoutGrow:0;layoutAlign:INHERIT"  data-position="x:144;y:72;w:108;h:117" >                            <path id="Subtract_14" transform="translate(144, 72)" fill="#e7fbf2" d="M84 5 L0 117 L108 117 L108 8.9999 L96 0 L84 5 Z"></path>
                            <path id="Subtract_15" transform="translate(144, 72)" fill="none" stroke="#3cc583" stroke-width="2" stroke-linejoin="round" stroke-linecap="none" stroke-miterlimit="4"  d="M 84 5 L 0 117 L 108 117 L 108 8.9999 L 96 0 L 84 5 Z"></path></g>
                        <g id="cu_Subtract_8"  data-constraints="horizontal:MIN;vertical:MIN;layoutPositioning:AUTO;layoutGrow:0;layoutAlign:INHERIT"  data-position="x:0;y:96;w:84;h:93" >                            <path id="Subtract_16" transform="translate(0, 96)" fill="#e7fbf2" d="M72.2105 0 L84 8.8571 L84 93 L13.9997 92.9997 L14 80.9793 L24 80.9793 L19 71.964 L22 68.9589 L20.6112 66.4548 L72.2105 0 Z M0 93 L9.3336 80.9793 L10.0003 80.9793 L10 92.9997 L0 93 Z"></path>
                            <path id="Subtract_17" transform="translate(0, 96)" fill="none" stroke="#3cc583" stroke-width="2" stroke-linejoin="round" stroke-linecap="none" stroke-miterlimit="4"  d="M 72.2105 0 L 84 8.8571 L 84 93 L 13.9997 92.9997 L 14 80.9793 L 24 80.9793 L 19 71.964 L 22 68.9589 L 20.6112 66.4548 L 72.2105 0 Z M 0 93 L 9.3336 80.9793 L 10.0003 80.9793 L 10 92.9997 L 0 93 Z"></path></g></g>
                    <g id="g-0d"  data-constraints="horizontal:MIN;vertical:MIN;layoutPositioning:AUTO;layoutGrow:0;layoutAlign:INHERIT"  data-position="x:10;y:132;w:856;h:12" transform="translate(10, 132)">                        <g id="cu_Vector"  data-constraints="horizontal:MIN;vertical:MIN;layoutPositioning:AUTO;layoutGrow:0;layoutAlign:INHERIT"  data-position="x:852;y:6;w:4;h:6" >                            <path id="Vector" transform="translate(852, 6)" fill="#fef2e6" d="M4 0 L0.0003 0 L1.5279e-5 6 L3.9997 6 L4 0 Z"></path>
                            <path id="Vector_1" transform="translate(852, 6)" fill="none" stroke="#db8333" stroke-width="2" stroke-linejoin="round" stroke-linecap="none" stroke-miterlimit="4"  d="M 4 0 L 0.0003 0 L 0 6 L 3.9997 6 L 4 0 Z"></path></g>
                        <g id="cu_Vector_1"  data-constraints="horizontal:MIN;vertical:MIN;layoutPositioning:AUTO;layoutGrow:0;layoutAlign:INHERIT"  data-position="x:792;y:3;w:4;h:9" >                            <path id="Vector_2" transform="translate(792, 3)" fill="#fef2e6" d="M4 0 L0.0003 0 L1.5279e-5 9 L3.9997 9 L4 0 Z"></path>
                            <path id="Vector_3" transform="translate(792, 3)" fill="none" stroke="#db8333" stroke-width="2" stroke-linejoin="round" stroke-linecap="none" stroke-miterlimit="4"  d="M 4 0 L 0.0003 0 L 0 9 L 3.9997 9 L 4 0 Z"></path></g>
                        <g id="cu_Vector_2"  data-constraints="horizontal:MIN;vertical:MIN;layoutPositioning:AUTO;layoutGrow:0;layoutAlign:INHERIT"  data-position="x:552;y:0;w:4.000;h:12" >                            <path id="Vector_4" transform="translate(552, 0)" fill="#fef2e6" d="M4.0003 0 L0.0003 0 L1.528e-5 12 L4 12 L4.0003 0 Z"></path>
                            <path id="Vector_5" transform="translate(552, 0)" fill="none" stroke="#db8333" stroke-width="2" stroke-linejoin="round" stroke-linecap="none" stroke-miterlimit="4"  d="M 4.0002 0 L 0.0003 0 L 0 12 L 4 12 L 4.0002 0 Z"></path></g>
                        <g id="cu_Vector_3"  data-constraints="horizontal:MIN;vertical:MIN;layoutPositioning:AUTO;layoutGrow:0;layoutAlign:INHERIT"  data-position="x:390;y:3;w:4;h:9" >                            <path id="Vector_6" transform="translate(390, 3)" fill="#fef2e6" d="M4 0 L0.0003 0 L1.5279e-5 9 L3.9997 9 L4 0 Z"></path>
                            <path id="Vector_7" transform="translate(390, 3)" fill="none" stroke="#db8333" stroke-width="2" stroke-linejoin="round" stroke-linecap="none" stroke-miterlimit="4"  d="M 4 0 L 0.0003 0 L 0 9 L 3.9997 9 L 4 0 Z"></path></g>
                        <g id="cu_Vector_4"  data-constraints="horizontal:MIN;vertical:MIN;layoutPositioning:AUTO;layoutGrow:0;layoutAlign:INHERIT"  data-position="x:360;y:6;w:4;h:6" >                            <path id="Vector_8" transform="translate(360, 6)" fill="#fef2e6" d="M4 0 L0.0003 0 L1.5279e-5 6 L3.9997 6 L4 0 Z"></path>
                            <path id="Vector_9" transform="translate(360, 6)" fill="none" stroke="#db8333" stroke-width="2" stroke-linejoin="round" stroke-linecap="none" stroke-miterlimit="4"  d="M 4 0 L 0.0003 0 L 0 6 L 3.9997 6 L 4 0 Z"></path></g>
                        <g id="cu_Vector_5"  data-constraints="horizontal:MIN;vertical:MIN;layoutPositioning:AUTO;layoutGrow:0;layoutAlign:INHERIT"  data-position="x:96;y:6;w:4;h:6" >                            <path id="Vector_10" transform="translate(96, 6)" fill="#fef2e6" d="M4 0 L0.0003 0 L1.5279e-5 6 L3.9997 6 L4 0 Z"></path>
                            <path id="Vector_11" transform="translate(96, 6)" fill="none" stroke="#db8333" stroke-width="2" stroke-linejoin="round" stroke-linecap="none" stroke-miterlimit="4"  d="M 4 0 L 0.0003 0 L 0 6 L 3.9997 6 L 4 0 Z"></path></g>
                        <g id="cu_Vector_6"  data-constraints="horizontal:MIN;vertical:MIN;layoutPositioning:AUTO;layoutGrow:0;layoutAlign:INHERIT"  data-position="x:0;y:0;w:4;h:12" >                            <path id="Vector_12" fill="#fef2e6" d="M4 0 L0.0003 0 L1.5279e-5 12 L3.9997 12 L4 0 Z"></path>
                            <path id="Vector_13" fill="none" stroke="#db8333" stroke-width="2" stroke-linejoin="round" stroke-linecap="none" stroke-miterlimit="4"  d="M 4 0 L 0.0003 0 L 0 12 L 3.9997 12 L 4 0 Z"></path></g></g>
                    <g id="g-0c"  data-constraints="horizontal:MIN;vertical:MIN;layoutPositioning:AUTO;layoutGrow:0;layoutAlign:INHERIT"  data-position="x:0;y:72;w:576.000;h:66" transform="translate(0, 72)">                        <g id="cu_Vector_7"  data-constraints="horizontal:MIN;vertical:MIN;layoutPositioning:AUTO;layoutGrow:0;layoutAlign:INHERIT"  data-position="x:552;y:12;w:24.000;h:48" >                            <path id="Vector_14" transform="translate(552, 12)" fill="#f2fae1" d="M6 12 L12 0 L18 12 L15 15 L20 24 L17 27 L22 36 L19 39 L24 48 L0 48 L5 39 L2 36 L7 27 L4 24 L9 15 L6 12 Z"></path>
                            <path id="Vector_15" transform="translate(552, 12)" fill="none" stroke="#93c332" stroke-width="2" stroke-linejoin="round" stroke-linecap="none" stroke-miterlimit="4"  d="M 6 12 L 12 0 L 18 12 L 15 15 L 20 24 L 17 27 L 22 36 L 19 39 L 24 48 L 0 48 L 5 39 L 2 36 L 7 27 L 4 24 L 9 15 L 6 12 Z"></path></g>
                        <g id="cu_Vector_8"  data-constraints="horizontal:MIN;vertical:MIN;layoutPositioning:AUTO;layoutGrow:0;layoutAlign:INHERIT"  data-position="x:388;y:0;w:28;h:63" >                            <path id="Vector_16" transform="translate(388, 0)" fill="#f2fae1" d="M8 12 L14 0 L20 12 L17 15 L22 24 L19 27 L24 36 L21 39 L26 48 L23 51 L28 63 L0 63 L5 51 L2 48 L7 39 L4 36 L9 27 L6 24 L11 15 L8 12 Z"></path>
                            <path id="Vector_17" transform="translate(388, 0)" fill="none" stroke="#93c332" stroke-width="2" stroke-linejoin="round" stroke-linecap="none" stroke-miterlimit="4"  d="M 8 12 L 14 0 L 20 12 L 17 15 L 22 24 L 19 27 L 24 36 L 21 39 L 26 48 L 23 51 L 28 63 L 0 63 L 5 51 L 2 48 L 7 39 L 4 36 L 9 27 L 6 24 L 11 15 L 8 12 Z"></path></g>
                        <g id="cu_Vector_9"  data-constraints="horizontal:MIN;vertical:MIN;layoutPositioning:AUTO;layoutGrow:0;layoutAlign:INHERIT"  data-position="x:362;y:30;w:20;h:36" >                            <path id="Vector_18" transform="translate(362, 30)" fill="#f2fae1" d="M4 12 L10 0 L16 12 L13 15 L18 24 L15 27 L20 36 L0 36 L5 27 L2 24 L7 15 L4 12 Z"></path>
                            <path id="Vector_19" transform="translate(362, 30)" fill="none" stroke="#93c332" stroke-width="2" stroke-linejoin="round" stroke-linecap="none" stroke-miterlimit="4"  d="M 4 12 L 10 0 L 16 12 L 13 15 L 18 24 L 15 27 L 20 36 L 0 36 L 5 27 L 2 24 L 7 15 L 4 12 Z"></path></g>
                        <g id="cu_Vector_10"  data-constraints="horizontal:MIN;vertical:MIN;layoutPositioning:AUTO;layoutGrow:0;layoutAlign:INHERIT"  data-position="x:0;y:12;w:24.000;h:48" >                            <path id="Vector_20" transform="translate(0, 12)" fill="#f2fae1" d="M6 12 L12 0 L18 12 L15 15 L20 24 L17 27 L22 36 L19 39 L24 48 L0 48 L5 39 L2 36 L7 27 L4 24 L9 15 L6 12 Z"></path>
                            <path id="Vector_21" transform="translate(0, 12)" fill="none" stroke="#93c332" stroke-width="2" stroke-linejoin="round" stroke-linecap="none" stroke-miterlimit="4"  d="M 6 12 L 12 0 L 18 12 L 15 15 L 20 24 L 17 27 L 22 36 L 19 39 L 24 48 L 0 48 L 5 39 L 2 36 L 7 27 L 4 24 L 9 15 L 6 12 Z"></path></g></g>
                    <g id="g-0b"  data-constraints="horizontal:MIN;vertical:MIN;layoutPositioning:AUTO;layoutGrow:0;layoutAlign:INHERIT"  data-position="x:98;y:72;w:776;h:66" transform="translate(98, 72)">                        <g id="cu_Vector_11"  data-constraints="horizontal:MIN;vertical:MIN;layoutPositioning:AUTO;layoutGrow:0;layoutAlign:INHERIT"  data-position="x:756;y:30;w:20;h:36" >                            <path id="Vector_22" transform="translate(756, 30)" fill="#e7fbf2" d="M4 12 L10 0 L16 12 L13 15 L18 24 L15 27 L20 36 L0 36 L5 27 L2 24 L7 15 L4 12 Z"></path>
                            <path id="Vector_23" transform="translate(756, 30)" fill="none" stroke="#3cc583" stroke-width="2" stroke-linejoin="round" stroke-linecap="none" stroke-miterlimit="4"  d="M 4 12 L 10 0 L 16 12 L 13 15 L 18 24 L 15 27 L 20 36 L 0 36 L 5 27 L 2 24 L 7 15 L 4 12 Z"></path></g>
                        <g id="cu_Vector_12"  data-constraints="horizontal:MIN;vertical:MIN;layoutPositioning:AUTO;layoutGrow:0;layoutAlign:INHERIT"  data-position="x:692;y:0;w:28;h:63" >                            <path id="Vector_24" transform="translate(692, 0)" fill="#e7fbf2" d="M8 12 L14 0 L20 12 L17 15 L22 24 L19 27 L24 36 L21 39 L26 48 L23 51 L28 63 L0 63 L5 51 L2 48 L7 39 L4 36 L9 27 L6 24 L11 15 L8 12 Z"></path>
                            <path id="Vector_25" transform="translate(692, 0)" fill="none" stroke="#3cc583" stroke-width="2" stroke-linejoin="round" stroke-linecap="none" stroke-miterlimit="4"  d="M 8 12 L 14 0 L 20 12 L 17 15 L 22 24 L 19 27 L 24 36 L 21 39 L 26 48 L 23 51 L 28 63 L 0 63 L 5 51 L 2 48 L 7 39 L 4 36 L 9 27 L 6 24 L 11 15 L 8 12 Z"></path></g>
                        <g id="cu_Vector_13"  data-constraints="horizontal:MIN;vertical:MIN;layoutPositioning:AUTO;layoutGrow:0;layoutAlign:INHERIT"  data-position="x:0;y:30;w:20;h:36" >                            <path id="Vector_26" transform="translate(0, 30)" fill="#e7fbf2" d="M4 12 L10 0 L16 12 L13 15 L18 24 L15 27 L20 36 L0 36 L5 27 L2 24 L7 15 L4 12 Z"></path>
                            <path id="Vector_27" transform="translate(0, 30)" fill="none" stroke="#3cc583" stroke-width="2" stroke-linejoin="round" stroke-linecap="none" stroke-miterlimit="4"  d="M 4 12 L 10 0 L 16 12 L 13 15 L 18 24 L 15 27 L 20 36 L 0 36 L 5 27 L 2 24 L 7 15 L 4 12 Z"></path></g></g>
                    <g id="g-0a"  data-constraints="horizontal:MIN;vertical:MIN;layoutPositioning:AUTO;layoutGrow:0;layoutAlign:INHERIT"  data-position="x:0;y:-132;w:936;h:276" transform="translate(0, -132)">                        <g id="cu"  data-constraints="horizontal:MIN;vertical:MIN;layoutPositioning:AUTO;layoutGrow:0;layoutAlign:INHERIT"  data-position="x:36;y:0;w:845.755;h:234" transform="translate(36, 0)">                            <path id="Vector_28" fill="none" stroke="#bcbcbc" stroke-width="2" stroke-linejoin="round" stroke-linecap="round" stroke-miterlimit="10"  d="M 0 204 L 48 144 L 120 234 L 216 108 L 288 204 L 384 72 L 456 168 L 552 36 L 624 138 L 720 0 L 792 96 L 834 48"  data-constraints="horizontal:MIN;vertical:MIN;layoutPositioning:AUTO;layoutGrow:0;layoutAlign:INHERIT"  data-position="x:0;y:0;w:834;h:234"></path>
                            <g id="cu_Polygon_3"  data-constraints="horizontal:MIN;vertical:MIN;layoutPositioning:AUTO;layoutGrow:0;layoutAlign:INHERIT"  data-position="x:829.010;y:40.607;w:11.475;h:11.895" >                                <path id="Polygon_3" transform="translate(829.0097045898438, 40.60712432861328)" fill="#d9d9d9" d="M11.4748 0 L9.1282 11.8951 L0 3.9153 L11.4748 0 Z"></path>
                                <path id="Polygon_3_1" transform="translate(829.0097045898438, 40.60712432861328)" fill="none" stroke="#bcbcbc" stroke-width="2" stroke-linejoin="miter" stroke-linecap="none" stroke-miterlimit="4"  d="M 11.4748 0 L 9.1282 11.8951 L 0 3.9153 L 11.4748 0 Z"></path></g></g></g>
                    <g id="g-5"  data-constraints="horizontal:MIN;vertical:MIN;layoutPositioning:AUTO;layoutGrow:0;layoutAlign:INHERIT"  data-position="x:710.458;y:-108;w:91.084;h:72.000" transform="translate(710.4580078125, -108)">                        <g id="cu_Intersect"  data-constraints="horizontal:MIN;vertical:MIN;layoutPositioning:AUTO;layoutGrow:0;layoutAlign:INHERIT"  data-position="x:0;y:0;w:91.084;h:72.000" >                            <path id="Intersect" fill="#fef2e6" d="M0 63.7585 L9.5422 67.9995 L27.5422 62.9995 L45.5421 71.9996 L63.5422 62.9995 L81.5422 67.9995 L91.0843 63.7585 L45.5432 0.0011 L45.5418 0 L0 63.7585 Z"></path>
                            <path id="Intersect_1" fill="none" stroke="#db8333" stroke-width="2" stroke-linejoin="round" stroke-linecap="none" stroke-miterlimit="4"  d="M 0 63.7585 L 9.5422 67.9995 L 27.5422 62.9995 L 45.5421 71.9996 L 63.5422 62.9995 L 81.5422 67.9995 L 91.0843 63.7585 L 45.5432 0.0011 L 45.5418 0 L 0 63.7585 Z"></path></g></g>
                    <g id="g-4"  data-constraints="horizontal:MIN;vertical:MIN;layoutPositioning:AUTO;layoutGrow:0;layoutAlign:INHERIT"  data-position="x:550.460;y:-72;w:75.080;h:60" transform="translate(550.4599609375, -72)">                        <g id="cu_Intersect_1"  data-constraints="horizontal:MIN;vertical:MIN;layoutPositioning:AUTO;layoutGrow:0;layoutAlign:INHERIT"  data-position="x:0;y:0;w:75.080;h:60" >                            <path id="Intersect_2" fill="#ffedeb" d="M0 51.9786 L7.5401 56 L22.5401 51 L37.5401 60 L52.5401 51 L67.5401 56 L75.0802 51.9786 L37.5401 0 L0 51.9786 Z"></path>
                            <path id="Intersect_3" fill="none" stroke="#df5e59" stroke-width="2" stroke-linejoin="round" stroke-linecap="none" stroke-miterlimit="4"  d="M 0 51.9786 L 7.5401 56 L 22.5401 51 L 37.5401 60 L 52.5401 51 L 67.5401 56 L 75.0802 51.9786 L 37.5401 0 L 0 51.9786 Z"></path></g></g>
                    <g id="g-3"  data-constraints="horizontal:MIN;vertical:MIN;layoutPositioning:AUTO;layoutGrow:0;layoutAlign:INHERIT"  data-position="x:387.921;y:-36;w:64.158;h:48" transform="translate(387.9208984375, -36)">                        <g id="cu_Intersect_2"  data-constraints="horizontal:MIN;vertical:MIN;layoutPositioning:AUTO;layoutGrow:0;layoutAlign:INHERIT"  data-position="x:0;y:0;w:64.158;h:48" >                            <path id="Intersect_4" fill="#ffedeb" d="M0 43.7442 L17.0791 39 L32.0791 48 L47.0791 39 L64.1581 43.7442 L32.0791 0 L0 43.7442 Z"></path>
                            <path id="Intersect_5" fill="none" stroke="#d95da7" stroke-width="2" stroke-linejoin="round" stroke-linecap="none" stroke-miterlimit="4"  d="M 0 43.7442 L 17.0791 39 L 32.0791 48 L 47.0791 39 L 64.1581 43.7442 L 32.0791 0 L 0 43.7442 Z"></path></g></g>
                    <g id="g-2"  data-constraints="horizontal:MIN;vertical:MIN;layoutPositioning:AUTO;layoutGrow:0;layoutAlign:INHERIT"  data-position="x:228;y:0;w:48;h:36" transform="translate(228, 0)">                        <g id="cu_Intersect_3"  data-constraints="horizontal:MIN;vertical:MIN;layoutPositioning:AUTO;layoutGrow:0;layoutAlign:INHERIT"  data-position="x:0;y:0;w:48;h:36" >                            <path id="Intersect_6" fill="#edf4ff" d="M0 32 L12 27 L24.0001 36 L36 27 L48 32 L24.0001 0 L0 32 Z"></path>
                            <path id="Intersect_7" fill="none" stroke="#4987ec" stroke-width="2" stroke-linejoin="round" stroke-linecap="none" stroke-miterlimit="4"  d="M 0 32 L 12 27 L 24.0001 36 L 36 27 L 48 32 L 24.0001 0 L 0 32 Z"></path></g></g>
                    <g id="g-1"  data-constraints="horizontal:MIN;vertical:MIN;layoutPositioning:AUTO;layoutGrow:0;layoutAlign:INHERIT"  data-position="x:72.210;y:36;w:23.579;h:24" transform="translate(72.21044921875, 36)">                        <g id="cu_Intersect_4"  data-constraints="horizontal:MIN;vertical:MIN;layoutPositioning:AUTO;layoutGrow:0;layoutAlign:INHERIT"  data-position="x:0;y:0;w:23.579;h:24" >                            <path id="Intersect_8" fill="#e8f9ff" d="M23.5789 15.1579 L11.7895 0 L0 15.1579 L11.7896 24 L23.5789 15.1579 Z"></path>
                            <path id="Intersect_9" fill="none" stroke="#17aee1" stroke-width="2" stroke-linejoin="round" stroke-linecap="none" stroke-miterlimit="4"  d="M 23.5789 15.1579 L 11.7895 0 L 0 15.1579 L 11.7896 24 L 23.5789 15.1579 Z"></path></g></g></g></g></g></g></svg>