<svg xmlns="http://www.w3.org/2000/svg" width="817" height="380">    <g id="converge-pins-v6--family--2">        <g id="tx-cb-title" data-entity-classes="Title">            <path id="rect" transform="translate(121, 0)" fill="#ff00001a" d="M0 0 L600 0 L600 48 L0 48 L0 0 Z"></path>
            <text id="Label" fill="#484848" transform="translate(372.7861328125, 16)" font-size="20" font-family="Roboto" font-weight="700" data-align="horizontal:CENTER;vertical:CENTER"></text></g>
        <g id="lines">            <g id="g-0">                <g id="cu">                    <path id="fill" transform="translate(294.3306579589844, 90)" fill="#f0f0f0" d="M228.782 157.229 C227.513 156.195 226.298 155.098 225.141 153.941 L191.2 120 L225.133 86.0669 L225.141 86.0592 C226.297 84.9026 227.513 83.8049 228.782 82.7707 C213.116 34.7214 167.947 0 114.669 0 C60.7455 0 15.1294 35.5669 0 84.5211 C0.5487 85.0214 1.0857 85.5342 1.6106 86.0592 L35.5518 120 L1.6104 153.941 C1.0855 154.466 0.5486 154.979 4.3129e-6 155.479 C15.1294 204.433 60.7455 240 114.669 240 C167.947 240 213.116 205.279 228.782 157.229 Z"></path>
                    <path id="stroke" transform="translate(294.33086860166986, 90)" fill="none" stroke="#bcbcbc" stroke-width="2" stroke-linejoin="miter" stroke-linecap="none" stroke-miterlimit="4"  d="M 228.7817 157.2293 C 213.1159 205.2786 167.9471 240 114.6687 240 C 60.7455 240 15.1294 204.4331 0 155.4789 M 0 84.5211 C 15.1294 35.5669 60.7455 0 114.6687 0 C 167.9471 0 213.1159 34.7214 228.7817 82.7707"></path></g></g>
            <g id="g-1">                <g id="cu_cu" >                    <path id="cu_1" transform="translate(485.82421875, 161.706298828125)" fill="#e8f9ff" d="M33.9411 14.0592 C42.6274 5.3727 54.6276 5.5866e-7 67.8825 0 C94.3922 -1.1173e-6 115.883 21.4903 115.883 48 C115.883 74.5097 94.3922 96 67.8825 96 C54.6277 96 42.6277 90.6274 33.9414 81.9411 L0 48.0003 L33.9333 14.0669 C33.9359 14.0644 33.9385 14.0618 33.9411 14.0592 Z"></path>
                    <path id="cu_2" transform="translate(485.82421875, 161.706298828125)" fill="none" stroke="#17aee1" stroke-width="2" stroke-linejoin="miter" stroke-linecap="none" stroke-miterlimit="4"  d="M 33.9411 81.9408 C 42.6274 90.6273 54.6276 96 67.8825 96 C 94.3922 96 115.8825 74.5097 115.8825 48 C 115.8825 21.4903 94.3922 0 67.8825 1.808e-13 C 54.6277 -0 42.6277 5.3726 33.9414 14.0589 L 0 47.9997 L 33.9333 81.9331 C 33.9359 81.9356 33.9385 81.9382 33.9411 81.9408 Z"></path></g></g>
            <g id="g-2">                <g id="cu_cu_1" >                    <path id="cu_3" transform="translate(214.29388427734375, 161.7060546875)" fill="#feeff8" d="M81.9414 14.0592 C73.2551 5.3727 61.255 -1.676e-6 48 9.095e-13 C21.4903 3.3519e-6 -3.3519e-6 21.4903 4.5475e-13 48 C3.3519e-6 74.5097 21.4903 96 48 96 C61.2548 96 73.2548 90.6274 81.9411 81.9411 L115.883 48.0003 L81.9492 14.0669 C81.9466 14.0643 81.944 14.0617 81.9414 14.0592 Z"></path>
                    <path id="cu_4" transform="translate(214.29388427734375, 161.7060546875)" fill="none" stroke="#de74b3" stroke-width="2" stroke-linejoin="miter" stroke-linecap="none" stroke-miterlimit="4"  d="M 81.9414 81.9408 C 73.2551 90.6273 61.255 96 48 96 C 21.4903 96 -0 74.5097 3.921e-13 48 C 0 21.4903 21.4903 -0 48 1.6786e-13 C 61.2548 0 73.2548 5.3726 81.9411 14.0589 L 115.8825 47.9997 L 81.9492 81.9331 C 81.9466 81.9357 81.944 81.9383 81.9414 81.9408 Z"></path></g></g></g>
        <path id="ic-cc-1" transform="matrix(1, 1.6653345369377348e-16, 1.6653345369377348e-16, -1, 528, 234)" fill="#33de7b1a" d="M0 0 L48 0 L48 48 L0 48 L0 0 Z"></path>
        <path id="ic-cc-2" transform="matrix(1, 5.551115123125783e-17, 5.551115123125783e-17, -1, 240, 234)" fill="#33de7b1a" d="M0 0 L48 0 L48 48 L0 48 L0 0 Z"></path>
        <path id="ic-cc-end" transform="matrix(1, -5.551115123125783e-17, 5.551115123125783e-17, 1, 360, 162)" fill="#33de7b1a" d="M0 0 L96 0 L96 96 L0 96 L0 0 Z"></path>
        <g id="tx-ct-2-desc" data-entity-classes="Description">            <path id="rect_1" transform="translate(24, 198)" fill="#ff00001a" d="M0 0 L168 0 L168 72 L0 72 L0 0 Z"></path>
            <text id="Label_1" fill="#484848" transform="translate(24, 198)" font-size="15" font-family="Roboto" font-weight="400" data-align="horizontal:CENTER;vertical:TOP"></text></g>
        <g id="tx-lt-1-desc" data-entity-classes="Description">            <path id="rect_2" transform="translate(624, 198)" fill="#ff00001a" d="M0 0 L168 0 L168 72 L0 72 L0 0 Z"></path>
            <text id="Label_2" fill="#484848" transform="translate(624, 198)" font-size="15" font-family="Roboto" font-weight="400" data-align="horizontal:LEFT;vertical:TOP"></text></g>
        <g id="tx-cb-2" data-entity-classes="DescTitle">            <path id="rect_3" transform="translate(24, 162)" fill="#ff00001a" d="M0 0 L168 0 L168 24 L0 24 L0 0 Z"></path>
            <text id="Label_3" fill="#de74b3" transform="translate(84, 162)" font-size="20" font-family="Roboto" font-weight="700" data-align="horizontal:LEFT;vertical:TOP"></text></g>
        <g id="tx-lb-1" data-entity-classes="DescTitle">            <path id="rect_4" transform="translate(624, 162)" fill="#ff00001a" d="M0 0 L168 0 L168 24 L0 24 L0 0 Z"></path>
            <text id="Label_4" fill="#17aee1" transform="translate(624, 162)" font-size="20" font-family="Roboto" font-weight="700" data-align="horizontal:LEFT;vertical:TOP"></text></g>
        <rect id="bt-cc-add-3" fill="#1ac6ff33" transform="matrix(1, -2.7755575615628914e-17, 2.7755575615628914e-17, 1, 384, 78)" width="24" height="24" rx="0" ry="0"></rect>
        <rect id="bt-cc-add-2" fill="#1ac6ff33" transform="matrix(1, -2.7755575615628914e-17, 2.7755575615628914e-17, 1, 397, 318)" width="24" height="24" rx="0" ry="0"></rect>
        <rect id="bt-cc-add-1" fill="#1ac6ff33" transform="matrix(1, -2.7755575615628914e-17, 2.7755575615628914e-17, 1, 408, 78)" width="24" height="24" rx="0" ry="0"></rect></g></svg>