<svg xmlns="http://www.w3.org/2000/svg" width="842" height="669">    <g id="converge-pins-v6--family--5">        <g id="tx-cb-title" data-entity-classes="Title">            <path id="rect" transform="translate(121, 0)" fill="#ff00001a" d="M0 0 L600 0 L600 48 L0 48 L0 0 Z"></path>
            <text id="Label" fill="#484848" transform="translate(372.7861328125, 16)" font-size="20" font-family="Roboto" font-weight="700" data-align="horizontal:CENTER;vertical:CENTER"></text></g>
        <g id="lines">            <g id="g-0">                <g id="cu">                    <path id="fill" transform="translate(290, 180.357666015625)" fill="#f0f0f0" d="M156.699 234.285 C155.529 232.803 154.274 231.391 152.941 230.058 L119 196.117 L85.0589 230.059 C83.8827 231.235 82.7673 232.472 81.7178 233.764 C56.0029 225.114 34.1819 207.99 19.5746 185.712 L40.0436 145.539 L0.1103 125.192 C0.037 123.471 0 121.74 0 120 C0 91.9785 9.6045 66.2003 25.7012 45.7778 L69.9467 52.7859 L77.0537 7.9135 C90.3881 2.8012 104.867 0 120 0 C134.245 0 147.91 2.4821 160.587 7.0375 L167.833 52.7859 L214.052 45.4652 C230.297 65.937 240 91.8354 240 120 C240 122.063 239.948 124.114 239.845 126.152 L199.833 146.539 L220.068 186.253 C205.162 208.722 182.891 225.88 156.699 234.285 Z"></path>
                    <path id="stroke" transform="translate(290, 180.357666015625)" fill="none" stroke="#bcbcbc" stroke-width="2" stroke-linejoin="miter" stroke-linecap="none" stroke-miterlimit="4"  d="M 81.7178 233.7642 C 56.0029 225.1144 34.1819 207.9903 19.5746 185.7116 M 0.1103 125.1924 C 0.037 123.4707 0 121.7397 0 120 C 0 91.9785 9.6045 66.2003 25.7012 45.7778 M 77.0537 7.9135 C 90.3881 2.8012 104.8669 0 120 0 C 134.2451 0 147.9105 2.4821 160.5872 7.0375 M 214.0516 45.4652 C 230.2971 65.937 240 91.8354 240 120 C 240 122.0633 239.9479 124.1144 239.845 126.1522 M 220.0683 186.2531 C 205.1623 208.7219 182.8911 225.8804 156.6988 234.2845"></path></g></g>
            <g id="g-5">                <g id="cu_3" >                    <path id="cu_1" transform="translate(271.0430908203125, 130.22216796875)" fill="#fef2e6" d="M95.4124 55.5126 C97.3342 43.3795 94.6273 30.5132 86.8362 19.7897 C71.2542 -1.6571 41.2365 -6.4114 19.7897 9.1706 C-1.6571 24.7526 -6.4114 54.7703 9.1706 76.2171 C16.9616 86.9405 28.3615 93.4908 40.4946 95.4124 L87.9035 102.922 L95.4107 55.5235 C95.4112 55.5199 95.4118 55.5163 95.4124 55.5126 Z"></path>
                    <path id="cu_2" transform="translate(271.0430908203125, 130.22216796875)" fill="none" stroke="#db8333" stroke-width="2" stroke-linejoin="miter" stroke-linecap="none" stroke-miterlimit="4"  d="M 95.4124 55.5126 C 97.3342 43.3795 94.6273 30.5132 86.8362 19.7897 C 71.2542 -1.6571 41.2365 -6.4114 19.7897 9.1706 C -1.6571 24.7526 -6.4114 54.7703 9.1706 76.2171 C 16.9616 86.9405 28.3615 93.4908 40.4946 95.4124 L 87.9035 102.9217 L 95.4107 55.5235 C 95.4112 55.5199 95.4118 55.5163 95.4124 55.5126 Z"></path></g></g>
            <g id="g-4">                <g id="cu_6" >                    <path id="cu_4" transform="translate(216.4705810546875, 298.86083984375)" fill="#f3f0ff" d="M90.7815 69.8041 C85.2045 80.7497 75.452 89.5677 62.8458 93.6637 C37.6336 101.856 10.5542 88.058 2.3623 62.8458 C-5.8297 37.6336 7.968 10.5542 33.1801 2.3623 C45.7862 -1.7337 58.8591 -0.3323 69.8045 5.2447 L112.573 27.0358 L90.7865 69.7943 C90.7848 69.7976 90.7831 69.8009 90.7815 69.8041 Z"></path>
                    <path id="cu_5" transform="translate(216.4705810546875, 298.86083984375)" fill="none" stroke="#7e62ec" stroke-width="2" stroke-linejoin="miter" stroke-linecap="none" stroke-miterlimit="4"  d="M 90.7815 69.8041 C 85.2045 80.7497 75.452 89.5677 62.8458 93.6637 C 37.6336 101.8556 10.5542 88.058 2.3622 62.8458 C -5.8297 37.6336 7.9679 10.5542 33.1801 2.3622 C 45.7862 -1.7337 58.8591 -0.3323 69.8045 5.2446 L 112.573 27.0358 L 90.7865 69.7943 C 90.7848 69.7976 90.7831 69.8009 90.7815 69.8041 Z"></path></g></g>
            <g id="g-3">                <g id="cu_9" >                    <path id="cu_7" transform="translate(360, 376.474853515625)" fill="#e7fbf2" d="M81.9408 33.9411 C90.6273 42.6274 96 54.6276 96 67.8825 C96 94.3922 74.5097 115.883 48 115.883 C21.4903 115.883 3.5416e-7 94.3922 0 67.8825 C-2.4096e-7 54.6277 5.3726 42.6277 14.0589 33.9414 L47.9997 0 L81.9331 33.9333 C81.9356 33.9359 81.9382 33.9385 81.9408 33.9411 Z"></path>
                    <path id="cu_8" transform="translate(360, 376.474853515625)" fill="none" stroke="#3cc583" stroke-width="2" stroke-linejoin="miter" stroke-linecap="none" stroke-miterlimit="4"  d="M 81.9408 33.9411 C 90.6273 42.6274 96 54.6276 96 67.8825 C 96 94.3922 74.5097 115.8825 48 115.8825 C 21.4903 115.8825 3.5416e-7 94.3922 8.1054e-15 67.8825 C -2.4096e-7 54.6277 5.3726 42.6277 14.0589 33.9414 L 47.9997 0 L 81.9331 33.9333 C 81.9356 33.9359 81.9382 33.9385 81.9408 33.9411 Z"></path></g></g>
            <g id="g-2">                <g id="cu_12" >                    <path id="cu_10" transform="translate(488.832763671875, 299.861083984375)" fill="#feeff8" d="M42.7683 5.2448 C53.7138 -0.3323 66.7868 -1.7338 79.393 2.3623 C104.605 10.5542 118.403 37.6336 110.211 62.8458 C102.019 88.058 74.9396 101.856 49.7274 93.6637 C37.1213 89.5677 27.3688 80.7499 21.7919 69.8045 L0 27.0364 L42.7585 5.2498 C42.7618 5.2482 42.765 5.2465 42.7683 5.2448 Z"></path>
                    <path id="cu_11" transform="translate(488.832763671875, 299.861083984375)" fill="none" stroke="#de74b3" stroke-width="2" stroke-linejoin="miter" stroke-linecap="none" stroke-miterlimit="4"  d="M 42.7683 5.2448 C 53.7138 -0.3323 66.7868 -1.7338 79.393 2.3622 C 104.6052 10.5542 118.4029 37.6336 110.2109 62.8458 C 102.019 88.058 74.9396 101.8556 49.7274 93.6637 C 37.1213 89.5677 27.3688 80.7499 21.7919 69.8045 L 0 27.0364 L 42.7585 5.2498 C 42.7618 5.2482 42.765 5.2465 42.7683 5.2448 Z"></path></g></g>
            <g id="g-1">                <g id="cu_15" >                    <path id="cu_13" transform="translate(448.72979736328125, 130.22216796875)" fill="#e8f9ff" d="M0.5944 55.5126 C-1.3274 43.3795 1.3795 30.5132 9.1706 19.7897 C24.7526 -1.6571 54.7703 -6.4114 76.2171 9.1706 C97.6639 24.7526 102.418 54.7703 86.8362 76.2171 C79.0452 86.9405 67.6453 93.4908 55.5123 95.4124 L8.1033 102.922 L0.5961 55.5235 C0.5956 55.5199 0.595 55.5163 0.5944 55.5126 Z"></path>
                    <path id="cu_14" transform="translate(448.72979736328125, 130.22216796875)" fill="none" stroke="#17aee1" stroke-width="2" stroke-linejoin="miter" stroke-linecap="none" stroke-miterlimit="4"  d="M 0.5944 55.5126 C -1.3274 43.3795 1.3795 30.5132 9.1706 19.7897 C 24.7526 -1.6571 54.7703 -6.4114 76.2171 9.1706 C 97.6639 24.7526 102.4182 54.7703 86.8362 76.2171 C 79.0452 86.9405 67.6453 93.4908 55.5123 95.4124 L 8.1033 102.9217 L 0.5961 55.5235 C 0.5956 55.5199 0.595 55.5163 0.5944 55.5126 Z"></path></g></g></g>
        <path id="ic-cc-5" transform="matrix(1, -5.551115123125783e-17, 5.551115123125783e-17, 1, 294, 156)" fill="#33de7b1a" d="M0 0 L48 0 L48 48 L0 48 L0 0 Z"></path>
        <path id="ic-cc-4" transform="matrix(0.9999999403953552, 1.1102230246251565e-16, -1.1102230246251565e-16, 0.9999999403953552, 240, 324)" fill="#33de7b1a" d="M0 0 L48 0 L48 48 L0 48 L0 0 Z"></path>
        <path id="ic-cc-3" transform="translate(384, 420)" fill="#33de7b1a" d="M0 0 L48 0 L48 48 L0 48 L0 0 Z"></path>
        <path id="ic-cc-2" transform="matrix(1, -1.6653345369377348e-16, 1.6653345369377348e-16, 1, 528, 324)" fill="#33de7b1a" d="M0 0 L48 0 L48 48 L0 48 L0 0 Z"></path>
        <path id="ic-cc-1" transform="matrix(1, -5.551115123125783e-17, 5.551115123125783e-17, 1, 475, 156)" fill="#33de7b1a" d="M0 0 L48 0 L48 48 L0 48 L0 0 Z"></path>
        <path id="ic-cc-end" transform="matrix(1, -5.551115123125783e-17, 5.551115123125783e-17, 1, 361, 252)" fill="#33de7b1a" d="M0 0 L96 0 L96 96 L0 96 L0 0 Z"></path>
        <rect id="bt-cc-remove-5" fill="#1ac6ff33" transform="matrix(0.9999999403953552, 0, 0, 0.9999999403953552, 270, 132)" width="24" height="24" rx="0" ry="0"></rect>
        <rect id="bt-cc-remove-4" fill="#1ac6ff33" transform="matrix(1, -5.652044392747053e-17, 5.451988114623143e-17, 1, 204, 336)" width="24" height="24" rx="0" ry="0"></rect>
        <rect id="bt-cc-remove-3" fill="#1ac6ff33" transform="matrix(0.9999999403953552, -5.551115123125783e-17, 5.551115123125783e-17, 0.9999999403953552, 396, 480)" width="24" height="24" rx="0" ry="0"></rect>
        <rect id="bt-cc-remove-2" fill="#1ac6ff33" transform="matrix(0.9999999403953552, -5.551115123125783e-17, 5.551115123125783e-17, 0.9999999403953552, 588, 336)" width="24" height="24" rx="0" ry="0"></rect>
        <rect id="bt-cc-remove-1" fill="#1ac6ff33" transform="matrix(0.9999999403953552, 0, 0, 0.9999999403953552, 523, 132)" width="24" height="24" rx="0" ry="0"></rect>
        <g id="tx-rt-5-desc" data-entity-classes="Description">            <path id="rect_1" transform="translate(84, 132)" fill="#ff00001a" d="M0 0 L168 0 L168 72 L0 72 L0 0 Z"></path>
            <text id="Label_1" fill="#484848" transform="translate(84, 132)" font-size="15" font-family="Roboto" font-weight="400" data-align="horizontal:RIGHT;vertical:TOP"></text></g>
        <g id="tx-rt-4-desc" data-entity-classes="Description">            <path id="rect_2" transform="translate(24, 336)" fill="#ff00001a" d="M0 0 L168 0 L168 72 L0 72 L0 0 Z"></path>
            <text id="Label_2" fill="#484848" transform="translate(24, 336)" font-size="15" font-family="Roboto" font-weight="400" data-align="horizontal:RIGHT;vertical:TOP"></text></g>
        <g id="tx-ct-3-desc" data-entity-classes="Description">            <path id="rect_3" transform="translate(325, 552)" fill="#ff00001a" d="M0 0 L168 0 L168 72 L0 72 L0 0 Z"></path>
            <text id="Label_3" fill="#484848" transform="translate(325, 552)" font-size="15" font-family="Roboto" font-weight="400" data-align="horizontal:CENTER;vertical:TOP"></text></g>
        <g id="tx-lt-2-desc" data-entity-classes="Description">            <path id="rect_4" transform="translate(624, 336)" fill="#ff00001a" d="M0 0 L168 0 L168 72 L0 72 L0 0 Z"></path>
            <text id="Label_4" fill="#484848" transform="translate(624, 336)" font-size="15" font-family="Roboto" font-weight="400" data-align="horizontal:LEFT;vertical:TOP"></text></g>
        <g id="tx-lt-1-desc" data-entity-classes="Description">            <path id="rect_5" transform="translate(564, 132)" fill="#ff00001a" d="M0 0 L168 0 L168 72 L0 72 L0 0 Z"></path>
            <text id="Label_5" fill="#484848" transform="translate(564, 132)" font-size="15" font-family="Roboto" font-weight="400" data-align="horizontal:LEFT;vertical:TOP"></text></g>
        <g id="tx-lb-2" data-entity-classes="DescTitle">            <path id="rect_6" transform="translate(624, 300)" fill="#ff00001a" d="M0 0 L168 0 L168 24 L0 24 L0 0 Z"></path>
            <text id="Label_6" fill="#de74b3" transform="translate(624, 300)" font-size="20" font-family="Roboto" font-weight="700" data-align="horizontal:LEFT;vertical:TOP"></text></g>
        <g id="tx-rb-4" data-entity-classes="DescTitle">            <path id="rect_7" transform="translate(24, 300)" fill="#ff00001a" d="M0 0 L168 0 L168 24 L0 24 L0 0 Z"></path>
            <text id="Label_7" fill="#9078ef" transform="translate(143, 300)" font-size="20" font-family="Roboto" font-weight="700" data-align="horizontal:LEFT;vertical:TOP"></text></g>
        <g id="tx-rb-5" data-entity-classes="DescTitle">            <path id="rect_8" transform="translate(84, 96)" fill="#ff00001a" d="M0 0 L168 0 L168 24 L0 24 L0 0 Z"></path>
            <text id="Label_8" fill="#db8333" transform="translate(203, 96)" font-size="20" font-family="Roboto" font-weight="700" data-align="horizontal:LEFT;vertical:TOP"></text></g>
        <g id="tx-cb-3" data-entity-classes="DescTitle">            <path id="rect_9" transform="translate(325, 516)" fill="#ff00001a" d="M0 0 L168 0 L168 24 L0 24 L0 0 Z"></path>
            <text id="Label_9" fill="#3cc583" transform="translate(385, 516)" font-size="20" font-family="Roboto" font-weight="700" data-align="horizontal:LEFT;vertical:TOP"></text></g>
        <g id="tx-lb-1" data-entity-classes="DescTitle">            <path id="rect_10" transform="translate(564, 96)" fill="#ff00001a" d="M0 0 L168 0 L168 24 L0 24 L0 0 Z"></path>
            <text id="Label_10" fill="#17aee1" transform="translate(564, 96)" font-size="20" font-family="Roboto" font-weight="700" data-align="horizontal:LEFT;vertical:TOP"></text></g>
        <rect id="bt-cc-add-6" fill="#1ac6ff33" transform="matrix(1, -2.7755575615628914e-17, 2.7755575615628914e-17, 1, 384, 168)" width="24" height="24" rx="0" ry="0"></rect>
        <rect id="bt-cc-add-5" fill="#1ac6ff33" transform="matrix(1, -2.7755575615628914e-17, 2.7755575615628914e-17, 1, 288, 252)" width="24" height="24" rx="0" ry="0"></rect>
        <rect id="bt-cc-add-4" fill="#1ac6ff33" transform="matrix(1, -2.7755575615628914e-17, 2.7755575615628914e-17, 1, 324, 384)" width="24" height="24" rx="0" ry="0"></rect>
        <rect id="bt-cc-add-3" fill="#1ac6ff33" transform="matrix(1, -2.7755575615628914e-17, 2.7755575615628914e-17, 1, 468, 384)" width="24" height="24" rx="0" ry="0"></rect>
        <rect id="bt-cc-add-2" fill="#1ac6ff33" transform="matrix(1, -2.7755575615628914e-17, 2.7755575615628914e-17, 1, 504, 252)" width="24" height="24" rx="0" ry="0"></rect>
        <rect id="bt-cc-add-1" fill="#1ac6ff33" transform="matrix(1, -2.7755575615628914e-17, 2.7755575615628914e-17, 1, 408, 168)" width="24" height="24" rx="0" ry="0"></rect></g></svg>