<svg xmlns="http://www.w3.org/2000/svg" width="842" height="598">    <g id="converge-pins-v6--family--6">        <g id="tx-cb-title" data-entity-classes="Title">            <path id="rect" transform="translate(121, 0)" fill="#ff00001a" d="M0 0 L600 0 L600 48 L0 48 L0 0 Z"></path>
            <text id="Label" fill="#484848" transform="translate(372.7861328125, 16)" font-size="20" font-family="Roboto" font-weight="700" data-align="horizontal:CENTER;vertical:CENTER"></text></g>
        <g id="lines">            <g id="g-0">                <g id="cu">                    <path id="fill" transform="translate(293.00885009765625, 192)" fill="#f0f0f0" d="M31.8313 34.4598 C16.76 49.2893 5.5897 68.0715 1.0994e-5 89.1266 L30.8737 120 L0 150.873 C5.625 172.062 16.9016 190.948 32.1177 205.821 L72.5012 195 L83.3555 235.509 C93.7319 238.435 104.679 240 115.991 240 C126.943 240 137.552 238.533 147.632 235.785 L158.561 195 L199.666 206.015 C214.605 191.48 225.77 173.087 231.554 152.445 L199.109 120 L231.554 87.5554 C225.807 67.0458 214.748 48.7566 199.954 34.266 L158.56 45.3574 L147.529 4.1873 C137.479 1.4571 126.905 0 115.991 0 C104.716 0 93.8049 1.5549 83.4592 4.462 L72.5017 45.3574 L31.8313 34.4598 Z"></path>
                    <path id="stroke" transform="translate(293.00885009765625, 192)" fill="none" stroke="#bcbcbc" stroke-width="2" stroke-linejoin="miter" stroke-linecap="none" stroke-miterlimit="4"  d="M 31.8313 34.4598 C 16.76 49.2893 5.5897 68.0715 0 89.1266 M 0 150.8734 C 5.625 172.0616 16.9016 190.9481 32.1177 205.8211 M 83.3555 235.5088 C 93.7319 238.4347 104.6787 240 115.9911 240 C 126.9428 240 137.5518 238.5329 147.6324 235.7846 M 199.6662 206.0146 C 214.6048 191.4798 225.7702 173.0868 231.5537 152.4445 M 231.5536 87.5554 C 225.8074 67.0458 214.748 48.7566 199.9536 34.266 M 147.5289 4.1873 C 137.4793 1.4571 126.9054 0 115.9911 0 C 104.7164 0 93.8049 1.5549 83.4592 4.462"></path></g></g>
            <g id="g-6">                <g id="cu_3" >                    <path id="cu_1" transform="translate(283.56103515625, 130.5615234375)" fill="#fefce0" d="M35.5851 94.3726 C23.7192 91.1932 13.0663 83.4872 6.4388 72.008 C-6.816 49.05 1.05 19.6936 24.008 6.4388 C46.9661 -6.816 76.3224 1.05 89.5772 24.008 C96.2047 35.487 97.5519 48.5656 94.3725 60.4313 L81.9495 106.796 L35.5957 94.3754 C35.5922 94.3745 35.5886 94.3735 35.5851 94.3726 Z"></path>
                    <path id="cu_2" transform="translate(283.56103515625, 130.5615234375)" fill="none" stroke="#d7c62b" stroke-width="2" stroke-linejoin="miter" stroke-linecap="none" stroke-miterlimit="4"  d="M 35.5851 94.3726 C 23.7192 91.1932 13.0663 83.4872 6.4388 72.008 C -6.816 49.05 1.05 19.6936 24.008 6.4388 C 46.9661 -6.816 76.3224 1.05 89.5772 24.008 C 96.2047 35.487 97.5519 48.5656 94.3725 60.4313 L 81.9495 106.7959 L 35.5957 94.3754 C 35.5922 94.3745 35.5886 94.3735 35.5851 94.3726 Z"></path></g></g>
            <g id="g-5">                <g id="cu_6" >                    <path id="cu_4" transform="translate(208, 264)" fill="#fef4e9" d="M81.9414 81.9408 C73.2551 90.6273 61.255 96 48 96 C21.4903 96 1.1588e-6 74.5097 4.6185e-14 48 C-1.1588e-6 21.4903 21.4903 1.1588e-6 48 0 C61.2548 -5.7939e-7 73.2548 5.3726 81.9411 14.0589 L115.883 47.9997 L81.9492 81.9331 C81.9466 81.9356 81.944 81.9382 81.9414 81.9408 Z"></path>
                    <path id="cu_5" transform="translate(208, 264)" fill="none" stroke="#e09450" stroke-width="2" stroke-linejoin="miter" stroke-linecap="none" stroke-miterlimit="4"  d="M 81.9414 81.9408 C 73.2551 90.6273 61.255 96 48 96 C 21.4903 96 0 74.5097 4.6861e-14 48 C -0 21.4903 21.4903 0 48 4.6861e-14 C 61.2548 -5.7939e-7 73.2548 5.3726 81.9411 14.0589 L 115.8825 47.9997 L 81.9492 81.9331 C 81.9466 81.9356 81.944 81.9382 81.9414 81.9408 Z"></path></g></g>
            <g id="g-4">                <g id="cu_9" >                    <path id="cu_7" transform="translate(283.56103515625, 387)" fill="#f5f2ff" d="M94.3724 46.3644 C97.5519 58.2302 96.2047 71.309 89.5772 82.7881 C76.3224 105.746 46.9661 113.612 24.008 100.357 C1.05 87.1025 -6.816 57.7462 6.4388 34.7881 C13.0662 23.3091 23.719 15.6031 35.5847 12.4237 L81.949 0 L94.3695 46.3538 C94.3704 46.3573 94.3714 46.3609 94.3724 46.3644 Z"></path>
                    <path id="cu_8" transform="translate(283.56103515625, 387)" fill="none" stroke="#9078ef" stroke-width="2" stroke-linejoin="miter" stroke-linecap="none" stroke-miterlimit="4"  d="M 94.3724 46.3644 C 97.5519 58.2302 96.2047 71.309 89.5772 82.7881 C 76.3224 105.7462 46.9661 113.6122 24.008 100.3574 C 1.05 87.1025 -6.816 57.7462 6.4388 34.7881 C 13.0662 23.3091 23.719 15.6031 35.5847 12.4237 L 81.949 0 L 94.3695 46.3538 C 94.3704 46.3573 94.3714 46.3609 94.3724 46.3644 Z"></path></g></g>
            <g id="g-3">                <g id="cu_12" >                    <path id="cu_10" transform="translate(437.50244140625, 387)" fill="#eafcf4" d="M1.6437 46.3644 C-1.5359 58.2302 -0.1887 71.309 6.4388 82.7881 C19.6936 105.746 49.05 113.612 72.008 100.357 C94.9661 87.1025 102.832 57.7462 89.5772 34.7881 C82.9498 23.3091 72.297 15.6031 60.4313 12.4237 L14.067 0 L1.6465 46.3538 C1.6456 46.3573 1.6446 46.3609 1.6437 46.3644 Z"></path>
                    <path id="cu_11" transform="translate(437.50244140625, 387)" fill="none" stroke="#57cd94" stroke-width="2" stroke-linejoin="miter" stroke-linecap="none" stroke-miterlimit="4"  d="M 1.6437 46.3644 C -1.5359 58.2302 -0.1887 71.309 6.4388 82.7881 C 19.6936 105.7462 49.05 113.6122 72.008 100.3574 C 94.9661 87.1025 102.8321 57.7462 89.5772 34.7881 C 82.9498 23.3091 72.297 15.6031 60.4313 12.4237 L 14.067 0 L 1.6465 46.3538 C 1.6456 46.3573 1.6446 46.3609 1.6437 46.3644 Z"></path></g></g>
            <g id="g-2">                <g id="cu_15" >                    <path id="cu_13" transform="translate(492.11767578125, 264)" fill="#feeff8" d="M33.9411 81.9408 C42.6274 90.6273 54.6276 96 67.8825 96 C94.3922 96 115.883 74.5097 115.883 48 C115.883 21.4903 94.3922 1.1588e-6 67.8825 0 C54.6277 -5.7939e-7 42.6277 5.3726 33.9414 14.0589 L0 47.9997 L33.9333 81.9331 C33.9359 81.9356 33.9385 81.9382 33.9411 81.9408 Z"></path>
                    <path id="cu_14" transform="translate(492.11767578125, 264)" fill="none" stroke="#de74b3" stroke-width="2" stroke-linejoin="miter" stroke-linecap="none" stroke-miterlimit="4"  d="M 33.9411 81.9408 C 42.6274 90.6273 54.6276 96 67.8825 96 C 94.3922 96 115.8825 74.5097 115.8825 48 C 115.8825 21.4903 94.3922 0 67.8825 4.6861e-14 C 54.6277 -5.7939e-7 42.6277 5.3726 33.9414 14.0589 L 0 47.9997 L 33.9333 81.9331 C 33.9359 81.9356 33.9385 81.9382 33.9411 81.9408 Z"></path></g></g>
            <g id="g-1">                <g id="cu_18" >                    <path id="cu_16" transform="translate(437.50244140625, 130.5615234375)" fill="#e8f9ff" d="M60.4309 94.3726 C72.2968 91.1932 82.9497 83.4872 89.5772 72.008 C102.832 49.05 94.9661 19.6936 72.008 6.4388 C49.05 -6.816 19.6936 1.05 6.4388 24.008 C-0.1886 35.487 -1.5358 48.5656 1.6436 60.4313 L14.0665 106.796 L60.4203 94.3754 C60.4238 94.3745 60.4274 94.3735 60.4309 94.3726 Z"></path>
                    <path id="cu_17" transform="translate(437.50244140625, 130.5615234375)" fill="none" stroke="#17aee1" stroke-width="2" stroke-linejoin="miter" stroke-linecap="none" stroke-miterlimit="4"  d="M 60.4309 94.3726 C 72.2968 91.1932 82.9497 83.4872 89.5772 72.008 C 102.8321 49.05 94.9661 19.6936 72.008 6.4388 C 49.05 -6.816 19.6936 1.05 6.4388 24.008 C -0.1886 35.487 -1.5358 48.5656 1.6436 60.4313 L 14.0665 106.7959 L 60.4203 94.3754 C 60.4238 94.3745 60.4274 94.3735 60.4309 94.3726 Z"></path></g></g></g>
        <path id="ic-cc-6" transform="matrix(1, -1.6653345369377348e-16, 1.6653345369377348e-16, 1, 306, 156)" fill="#33de7b1a" d="M0 0 L48 0 L48 48 L0 48 L0 0 Z"></path>
        <path id="ic-cc-5" transform="matrix(1, -5.551115123125783e-17, 5.551115123125783e-17, 1, 228, 288)" fill="#33de7b1a" d="M0 0 L48 0 L48 48 L0 48 L0 0 Z"></path>
        <path id="ic-cc-4" transform="matrix(0.9999999403953552, 1.1102230246251565e-16, -1.1102230246251565e-16, 0.9999999403953552, 306, 420)" fill="#33de7b1a" d="M0 0 L48 0 L48 48 L0 48 L0 0 Z"></path>
        <path id="ic-cc-3" transform="translate(462, 420)" fill="#33de7b1a" d="M0 0 L48 0 L48 48 L0 48 L0 0 Z"></path>
        <path id="ic-cc-2" transform="matrix(1, -1.6653345369377348e-16, 1.6653345369377348e-16, 1, 535, 288)" fill="#33de7b1a" d="M0 0 L48 0 L48 48 L0 48 L0 0 Z"></path>
        <path id="ic-cc-1" transform="matrix(1, -5.551115123125783e-17, 5.551115123125783e-17, 1, 462, 156)" fill="#33de7b1a" d="M0 0 L48 0 L48 48 L0 48 L0 0 Z"></path>
        <path id="ic-cc-end" transform="matrix(1, -5.551115123125783e-17, 5.551115123125783e-17, 1, 360, 264)" fill="#33de7b1a" d="M0 0 L96 0 L96 96 L0 96 L0 0 Z"></path>
        <rect id="bt-cc-remove-6" fill="#1ac6ff33" transform="matrix(0.9999999403953552, -5.551115123125783e-17, 5.551115123125783e-17, 0.9999999403953552, 282, 132)" width="24" height="24" rx="0" ry="0"></rect>
        <rect id="bt-cc-remove-5" fill="#1ac6ff33" transform="matrix(0.9999999403953552, 0, 0, 0.9999999403953552, 198, 300)" width="24" height="24" rx="0" ry="0"></rect>
        <rect id="bt-cc-remove-4" fill="#1ac6ff33" transform="matrix(1, -5.652044392747053e-17, 5.451988114623143e-17, 1, 282, 468)" width="24" height="24" rx="0" ry="0"></rect>
        <rect id="bt-cc-remove-3" fill="#1ac6ff33" transform="matrix(0.9999999403953552, -5.551115123125783e-17, 5.551115123125783e-17, 0.9999999403953552, 510, 468)" width="24" height="24" rx="0" ry="0"></rect>
        <rect id="bt-cc-remove-2" fill="#1ac6ff33" transform="matrix(0.9999999403953552, -5.551115123125783e-17, 5.551115123125783e-17, 0.9999999403953552, 594, 300)" width="24" height="24" rx="0" ry="0"></rect>
        <rect id="bt-cc-remove-1" fill="#1ac6ff33" transform="matrix(0.9999999403953552, 0, 0, 0.9999999403953552, 511, 132)" width="24" height="24" rx="0" ry="0"></rect>
        <g id="tx-rt-6-desc" data-entity-classes="Description">            <path id="rect_1" transform="translate(96, 132)" fill="#ff00001a" d="M0 0 L168 0 L168 72 L0 72 L0 0 Z"></path>
            <text id="Label_1" fill="#484848" transform="translate(96, 132)" font-size="15" font-family="Roboto" font-weight="400" data-align="horizontal:RIGHT;vertical:TOP"></text></g>
        <g id="tx-rt-5-desc" data-entity-classes="Description">            <path id="rect_2" transform="translate(18, 300)" fill="#ff00001a" d="M0 0 L168 0 L168 72 L0 72 L0 0 Z"></path>
            <text id="Label_2" fill="#484848" transform="translate(18, 300)" font-size="15" font-family="Roboto" font-weight="400" data-align="horizontal:RIGHT;vertical:TOP"></text></g>
        <g id="tx-rt-4-desc" data-entity-classes="Description">            <path id="rect_3" transform="translate(96, 468)" fill="#ff00001a" d="M0 0 L168 0 L168 72 L0 72 L0 0 Z"></path>
            <text id="Label_3" fill="#484848" transform="translate(96, 468)" font-size="15" font-family="Roboto" font-weight="400" data-align="horizontal:RIGHT;vertical:TOP"></text></g>
        <g id="tx-lt-3-desc" data-entity-classes="Description">            <path id="rect_4" transform="translate(552, 468)" fill="#ff00001a" d="M0 0 L168 0 L168 72 L0 72 L0 0 Z"></path>
            <text id="Label_4" fill="#484848" transform="translate(552, 468)" font-size="15" font-family="Roboto" font-weight="400" data-align="horizontal:LEFT;vertical:TOP"></text></g>
        <g id="tx-lt-2-desc" data-entity-classes="Description">            <path id="rect_5" transform="translate(630, 300)" fill="#ff00001a" d="M0 0 L168 0 L168 72 L0 72 L0 0 Z"></path>
            <text id="Label_5" fill="#484848" transform="translate(630, 300)" font-size="15" font-family="Roboto" font-weight="400" data-align="horizontal:LEFT;vertical:TOP"></text></g>
        <g id="tx-lt-1-desc" data-entity-classes="Description">            <path id="rect_6" transform="translate(552, 132)" fill="#ff00001a" d="M0 0 L168 0 L168 72 L0 72 L0 0 Z"></path>
            <text id="Label_6" fill="#484848" transform="translate(552, 132)" font-size="15" font-family="Roboto" font-weight="400" data-align="horizontal:LEFT;vertical:TOP"></text></g>
        <g id="tx-lb-2" data-entity-classes="DescTitle">            <path id="rect_7" transform="translate(630, 264)" fill="#ff00001a" d="M0 0 L168 0 L168 24 L0 24 L0 0 Z"></path>
            <text id="Label_7" fill="#de74b3" transform="translate(630, 264)" font-size="20" font-family="Roboto" font-weight="700" data-align="horizontal:LEFT;vertical:TOP"></text></g>
        <g id="tx-rb-4" data-entity-classes="DescTitle">            <path id="rect_8" transform="translate(96, 432)" fill="#ff00001a" d="M0 0 L168 0 L168 24 L0 24 L0 0 Z"></path>
            <text id="Label_8" fill="#9078ef" transform="translate(215, 432)" font-size="20" font-family="Roboto" font-weight="700" data-align="horizontal:LEFT;vertical:TOP"></text></g>
        <g id="tx-rb-5" data-entity-classes="DescTitle">            <path id="rect_9" transform="translate(18, 264)" fill="#ff00001a" d="M0 0 L168 0 L168 24 L0 24 L0 0 Z"></path>
            <text id="Label_9" fill="#db8333" transform="translate(137, 264)" font-size="20" font-family="Roboto" font-weight="700" data-align="horizontal:LEFT;vertical:TOP"></text></g>
        <g id="tx-rb-6" data-entity-classes="DescTitle">            <path id="rect_10" transform="translate(96, 96)" fill="#ff00001a" d="M0 0 L168 0 L168 24 L0 24 L0 0 Z"></path>
            <text id="Label_10" fill="#d1bd08" transform="translate(215, 96)" font-size="20" font-family="Roboto" font-weight="700" data-align="horizontal:LEFT;vertical:TOP"></text></g>
        <g id="tx-lb-3" data-entity-classes="DescTitle">            <path id="rect_11" transform="translate(552, 432)" fill="#ff00001a" d="M0 0 L168 0 L168 24 L0 24 L0 0 Z"></path>
            <text id="Label_11" fill="#3cc583" transform="translate(552, 432)" font-size="20" font-family="Roboto" font-weight="700" data-align="horizontal:LEFT;vertical:TOP"></text></g>
        <g id="tx-lb-1" data-entity-classes="DescTitle">            <path id="rect_12" transform="translate(552, 96)" fill="#ff00001a" d="M0 0 L168 0 L168 24 L0 24 L0 0 Z"></path>
            <text id="Label_12" fill="#17aee1" transform="translate(552, 96)" font-size="20" font-family="Roboto" font-weight="700" data-align="horizontal:LEFT;vertical:TOP"></text></g></g></svg>