<svg xmlns="http://www.w3.org/2000/svg" width="817" height="588">    <g id="converge-pins-v6--family--3">        <g id="tx-cb-title" data-entity-classes="Title">            <path id="rect" transform="translate(121, 0)" fill="#ff00001a" d="M0 0 L600 0 L600 48 L0 48 L0 0 Z"></path>
            <text id="Label" fill="#484848" transform="translate(372.7861328125, 16)" font-size="20" font-family="Roboto" font-weight="700" data-align="horizontal:CENTER;vertical:CENTER"></text></g>
        <g id="lines">            <g id="g-0">                <g id="cu">                    <path id="fill" transform="translate(289.999755859375, 113.99951171875)" fill="#f0f0f0" d="M87.0977 235.433 L119 203.53 L151.337 235.867 C202.414 222.087 240 175.433 240 120 C240 107.695 238.148 95.8231 234.708 84.647 L200 75.3476 L209.465 40.0235 C187.492 15.4599 155.551 0 120 0 C84.1819 0 52.0291 15.6927 30.0418 40.5779 L39.3565 75.3524 L5.3498 84.4612 C1.8726 95.6915 0 107.627 0 120 C0 174.865 36.8199 221.13 87.0977 235.433 Z"></path>
                    <path id="stroke" transform="translate(289.999755859375, 113.99951171875)" fill="none" stroke="#bcbcbc" stroke-width="2" stroke-linejoin="miter" stroke-linecap="none" stroke-miterlimit="4"  d="M 151.337 235.8671 C 202.4141 222.0866 240 175.4326 240 120 C 240 107.6953 238.148 95.8231 234.7076 84.647 M 209.4653 40.0235 C 187.4918 15.4599 155.5513 0 120 0 C 84.1819 0 52.0291 15.6927 30.0418 40.5779 M 5.3498 84.4612 C 1.8726 95.6915 0 107.627 0 120 C 0 174.8648 36.8199 221.1299 87.0977 235.4333"></path></g></g>
            <g id="g-3">                <g id="cu_cu" >                    <path id="cu_1" transform="translate(221.563232421875, 107.39794921875)" fill="#eafcf4" d="M94.3736 35.589 C91.1952 23.7228 83.4901 13.0692 72.0115 6.4408 C49.0545 -6.816 19.6975 1.0476 6.4408 24.0045 C-6.816 46.9615 1.0476 76.3185 24.0045 89.5752 C35.483 96.2036 48.5615 97.5519 60.4275 94.3735 L106.793 81.9544 L94.3764 35.5996 C94.3755 35.596 94.3745 35.5925 94.3736 35.589 Z"></path>
                    <path id="cu_2" transform="translate(221.563232421875, 107.39794921875)" fill="none" stroke="#3cc583" stroke-width="2" stroke-linejoin="miter" stroke-linecap="none" stroke-miterlimit="4"  d="M 94.3736 35.589 C 91.1952 23.7228 83.4901 13.0692 72.0115 6.4408 C 49.0545 -6.816 19.6975 1.0476 6.4408 24.0045 C -6.816 46.9615 1.0476 76.3185 24.0045 89.5752 C 35.483 96.2036 48.5615 97.5519 60.4275 94.3735 L 106.793 81.9544 L 94.3764 35.5996 C 94.3755 35.596 94.3745 35.5925 94.3736 35.589 Z"></path></g></g>
            <g id="g-2">                <g id="cu_cu_1" >                    <path id="cu_3" transform="translate(360.000244140625, 317.530517578125)" fill="#feeff8" d="M81.9408 33.9411 C90.6273 42.6274 96 54.6276 96 67.8825 C96 94.3922 74.5097 115.883 48 115.883 C21.4903 115.883 4.1476e-8 94.3922 0 67.8825 C-2.0738e-8 54.6277 5.3726 42.6277 14.0589 33.9414 L47.9997 0 L81.9331 33.9333 C81.9356 33.9359 81.9382 33.9385 81.9408 33.9411 Z"></path>
                    <path id="cu_4" transform="translate(360.000244140625, 317.530517578125)" fill="none" stroke="#de74b3" stroke-width="2" stroke-linejoin="miter" stroke-linecap="none" stroke-miterlimit="4"  d="M 81.9408 33.9411 C 90.6273 42.6274 96 54.6276 96 67.8825 C 96 94.3922 74.5097 115.8825 48 115.8825 C 21.4903 115.8825 4.1475e-8 94.3922 6.0035e-17 67.8825 C -2.0738e-8 54.6277 5.3726 42.6277 14.0589 33.9414 L 47.9997 0 L 81.9331 33.9333 C 81.9356 33.9359 81.9382 33.9385 81.9408 33.9411 Z"></path></g></g>
            <g id="g-1">                <g id="cu_cu_2" >                    <path id="cu_5" transform="translate(489, 107.39794921875)" fill="#e8f9ff" d="M12.4233 35.5851 C15.6027 23.7192 23.3087 13.0663 34.7879 6.4388 C57.7459 -6.816 87.1022 1.05 100.357 24.008 C113.612 46.9661 105.746 76.3224 82.7878 89.5772 C71.3088 96.2047 58.2302 97.5519 46.3645 94.3725 L0 81.9495 L12.4205 35.5957 C12.4214 35.5922 12.4224 35.5886 12.4233 35.5851 Z"></path>
                    <path id="cu_6" transform="translate(489, 107.39794921875)" fill="none" stroke="#17aee1" stroke-width="2" stroke-linejoin="miter" stroke-linecap="none" stroke-miterlimit="4"  d="M 12.4233 35.5851 C 15.6027 23.7192 23.3087 13.0663 34.7879 6.4388 C 57.7459 -6.816 87.1022 1.05 100.3571 24.008 C 113.6119 46.9661 105.7459 76.3224 82.7878 89.5772 C 71.3088 96.2047 58.2302 97.5519 46.3645 94.3725 L 0 81.9495 L 12.4205 35.5957 C 12.4214 35.5922 12.4224 35.5886 12.4233 35.5851 Z"></path></g></g></g>
        <path id="ic-cc-3" transform="matrix(1, 0, 0, -1, 246, 181.4140625)" fill="#33de7b1a" d="M0 0 L48 0 L48 48 L0 48 L0 0 Z"></path>
        <path id="ic-cc-1" transform="matrix(1, 1.6653345369377348e-16, 1.6653345369377348e-16, -1, 523, 181.4140625)" fill="#33de7b1a" d="M0 0 L48 0 L48 48 L0 48 L0 0 Z"></path>
        <path id="ic-cc-2" transform="matrix(1, 5.551115123125783e-17, 5.551115123125783e-17, -1, 385, 408)" fill="#33de7b1a" d="M0 0 L48 0 L48 48 L0 48 L0 0 Z"></path>
        <path id="ic-cc-end" transform="matrix(1, -5.551115123125783e-17, 5.551115123125783e-17, 1, 360, 186)" fill="#33de7b1a" d="M0 0 L96 0 L96 96 L0 96 L0 0 Z"></path>
        <rect id="bt-cc-remove-3" fill="#1ac6ff33" transform="matrix(0.9999999403953552, 5.551115123125783e-17, 5.551115123125783e-17, -0.9999999403953552, 210, 168.953125)" width="24" height="24" rx="0" ry="0"></rect>
        <rect id="bt-cc-remove-1" fill="#1ac6ff33" transform="matrix(0.9999999403953552, 5.551115123125783e-17, 5.551115123125783e-17, -0.9999999403953552, 583, 168.953125)" width="24" height="24" rx="0" ry="0"></rect>
        <rect id="bt-cc-remove-2" fill="#1ac6ff33" transform="matrix(0.9999999403953552, 0, 0, 0.9999999403953552, 396, 421)" width="24" height="24" rx="0" ry="0"></rect>
        <g id="tx-rt-3-desc" data-entity-classes="Description">            <path id="rect_1" transform="translate(30, 144)" fill="#ff00001a" d="M0 0 L168 0 L168 72 L0 72 L0 0 Z"></path>
            <text id="Label_1" fill="#484848" transform="translate(30, 144)" font-size="15" font-family="Roboto" font-weight="400" data-align="horizontal:RIGHT;vertical:TOP"></text></g>
        <g id="tx-ct-2-desc" data-entity-classes="Description">            <path id="rect_2" transform="translate(324, 504)" fill="#ff00001a" d="M0 0 L168 0 L168 72 L0 72 L0 0 Z"></path>
            <text id="Label_2" fill="#484848" transform="translate(324, 504)" font-size="15" font-family="Roboto" font-weight="400" data-align="horizontal:CENTER;vertical:TOP"></text></g>
        <g id="tx-lt-1-desc" data-entity-classes="Description">            <path id="rect_3" transform="translate(619, 144)" fill="#ff00001a" d="M0 0 L168 0 L168 72 L0 72 L0 0 Z"></path>
            <text id="Label_3" fill="#484848" transform="translate(619, 144)" font-size="15" font-family="Roboto" font-weight="400" data-align="horizontal:LEFT;vertical:TOP"></text></g>
        <g id="tx-cb-2" data-entity-classes="DescTitle">            <path id="rect_4" transform="translate(324, 468)" fill="#ff00001a" d="M0 0 L168 0 L168 24 L0 24 L0 0 Z"></path>
            <text id="Label_4" fill="#de74b3" transform="translate(384, 468)" font-size="20" font-family="Roboto" font-weight="700" data-align="horizontal:LEFT;vertical:TOP"></text></g>
        <g id="tx-rb-3" data-entity-classes="DescTitle">            <path id="rect_5" transform="translate(30, 108)" fill="#ff00001a" d="M0 0 L168 0 L168 24 L0 24 L0 0 Z"></path>
            <text id="Label_5" fill="#3cc583" transform="translate(149, 108)" font-size="20" font-family="Roboto" font-weight="700" data-align="horizontal:LEFT;vertical:TOP"></text></g>
        <g id="tx-lb-1" data-entity-classes="DescTitle">            <path id="rect_6" transform="translate(619, 108)" fill="#ff00001a" d="M0 0 L168 0 L168 24 L0 24 L0 0 Z"></path>
            <text id="Label_6" fill="#17aee1" transform="translate(619, 108)" font-size="20" font-family="Roboto" font-weight="700" data-align="horizontal:LEFT;vertical:TOP"></text></g>
        <rect id="bt-cc-add-4" fill="#1ac6ff33" transform="matrix(1, -2.7755575615628914e-17, 2.7755575615628914e-17, 1, 384, 102)" width="24" height="24" rx="0" ry="0"></rect>
        <rect id="bt-cc-add-3" fill="#1ac6ff33" transform="matrix(1, -2.7755575615628914e-17, 2.7755575615628914e-17, 1, 294, 282)" width="24" height="24" rx="0" ry="0"></rect>
        <rect id="bt-cc-add-2" fill="#1ac6ff33" transform="matrix(1, -2.7755575615628914e-17, 2.7755575615628914e-17, 1, 498, 282)" width="24" height="24" rx="0" ry="0"></rect>
        <rect id="bt-cc-add-1" fill="#1ac6ff33" transform="matrix(1, -2.7755575615628914e-17, 2.7755575615628914e-17, 1, 408, 102)" width="24" height="24" rx="0" ry="0"></rect></g></svg>