<svg xmlns="http://www.w3.org/2000/svg" width="842" height="598">    <g id="converge-pins-v6--family--4">        <g id="tx-cb-title" data-entity-classes="Title">            <path id="rect" transform="translate(121, 0)" fill="#ff00001a" d="M0 0 L600 0 L600 48 L0 48 L0 0 Z"></path>
            <text id="Label" fill="#484848" transform="translate(372.7861328125, 16)" font-size="20" font-family="Roboto" font-weight="700" data-align="horizontal:CENTER;vertical:CENTER"></text></g>
        <g id="lines">            <g id="g-0">                <g id="cu">                    <path id="fill" transform="translate(289.0000457763672, 143.9996795654297)" fill="#f0f0f0" d="M15.7548 60.52 L59.5204 60.52 L59.52 16.333 C77.2784 5.9502 97.9443 0 120 0 C141.233 0 161.177 5.5145 178.48 15.1894 L178.48 60.5201 L224.245 60.5201 C234.27 78.0525 240 98.3571 240 120 C240 141.643 234.27 161.948 224.245 179.48 L178.481 179.48 L178.481 224.81 C161.178 234.485 141.233 240 120 240 C97.9443 240 77.2784 234.05 59.5199 223.667 L59.5199 179.48 L15.7551 179.48 C5.7297 161.948 0 141.643 0 120 C0 98.3571 5.7296 78.0524 15.7548 60.52 Z"></path>
                    <path id="stroke" transform="translate(289.0000457763672, 143.9996795654297)" fill="none" stroke="#bcbcbc" stroke-width="2" stroke-linejoin="miter" stroke-linecap="none" stroke-miterlimit="4"  d="M 59.52 16.333 C 77.2784 5.9502 97.9443 0 120 0 C 141.2327 0 161.1774 5.5145 178.4801 15.1894 M 224.2453 60.5201 C 234.2704 78.0525 240 98.3571 240 120 C 240 141.6431 234.2703 161.948 224.2449 179.4805 M 178.4805 224.8104 C 161.1778 234.4854 141.2329 240 120 240 C 97.9443 240 77.2784 234.0497 59.5199 223.6669 M 15.7551 179.4805 C 5.7297 161.948 0 141.6431 0 120 C 0 98.3571 5.7296 78.0524 15.7548 60.52"></path></g></g>
            <g id="g-4">                <g id="cu_3" >                    <path id="cu_1" transform="translate(252.5199432373047, 108.51994323730469)" fill="#f5f2ff" d="M48.0004 96 C35.716 96.0001 23.4316 91.3138 14.0589 81.9411 C-4.6863 63.196 -4.6863 32.804 14.0589 14.0589 C32.804 -4.6863 63.196 -4.6863 81.9411 14.0589 C91.3137 23.4315 96 35.7157 96 48 L96.0004 96 L48.0114 96 C48.0077 96 48.0041 96 48.0004 96 Z"></path>
                    <path id="cu_2" transform="translate(252.5199432373047, 108.51994323730469)" fill="none" stroke="#7e62ec" stroke-width="2" stroke-linejoin="miter" stroke-linecap="none" stroke-miterlimit="4"  d="M 48.0004 96 C 35.716 96.0001 23.4316 91.3138 14.0589 81.9411 C -4.6863 63.196 -4.6863 32.804 14.0589 14.0589 C 32.804 -4.6863 63.196 -4.6863 81.9411 14.0589 C 91.3137 23.4315 96 35.7157 96 48 L 96.0004 96 L 48.0114 96 C 48.0077 96 48.0041 96 48.0004 96 Z"></path></g></g>
            <g id="g-3">                <g id="cu_6" >                    <path id="cu_4" transform="translate(252.5199432373047, 323.4799041748047)" fill="#eafcf4" d="M96 48 C96.0001 60.2844 91.3138 72.5688 81.9411 81.9415 C63.196 100.687 32.804 100.687 14.0589 81.9415 C-4.6863 63.1964 -4.6863 32.8044 14.0589 14.0593 C23.4315 4.6867 35.7157 0.0004 48 0.0004 L96 0 L96 47.989 C96 47.9927 96 47.9963 96 48 Z"></path>
                    <path id="cu_5" transform="translate(252.5199432373047, 323.4799041748047)" fill="none" stroke="#3cc583" stroke-width="2" stroke-linejoin="miter" stroke-linecap="none" stroke-miterlimit="4"  d="M 96 48 C 96.0001 60.2844 91.3138 72.5688 81.9411 81.9415 C 63.196 100.6867 32.804 100.6867 14.0589 81.9415 C -4.6863 63.1964 -4.6863 32.8044 14.0589 14.0593 C 23.4315 4.6867 35.7157 0.0004 48 0.0004 L 96 0 L 96 47.989 C 96 47.9927 96 47.9963 96 48 Z"></path></g></g>
            <g id="g-2">                <g id="cu_9" >                    <path id="cu_7" transform="translate(467.4805145263672, 323.4801483154297)" fill="#feeff8" d="M1.5093e-9 48 C-9.7105e-5 60.2844 4.6862 72.5688 14.0589 81.9415 C32.804 100.687 63.1959 100.687 81.9411 81.9415 C100.686 63.1964 100.686 32.8044 81.9411 14.0593 C72.5685 4.6867 60.2843 0.0004 48 0.0004 L2.6989e-6 0 L1.5093e-9 47.989 C1.5093e-9 47.9927 1.5093e-9 47.9963 1.5093e-9 48 Z"></path>
                    <path id="cu_8" transform="translate(467.4805145263672, 323.4801483154297)" fill="none" stroke="#de74b3" stroke-width="2" stroke-linejoin="miter" stroke-linecap="none" stroke-miterlimit="4"  d="M 1.5091e-9 48 C -0.0001 60.2844 4.6862 72.5688 14.0589 81.9415 C 32.804 100.6867 63.1959 100.6867 81.9411 81.9415 C 100.6863 63.1964 100.6863 32.8044 81.9411 14.0593 C 72.5685 4.6867 60.2843 0.0004 48 0.0004 L 0 0 L 1.5091e-9 47.989 C 1.5091e-9 47.9927 1.5091e-9 47.9963 1.5091e-9 48 Z"></path></g></g>
            <g id="g-1">                <g id="cu_12" >                    <path id="cu_10" transform="translate(467.4797821044922, 108.52018737792969)" fill="#e8f9ff" d="M48 96 C60.2844 96.0001 72.5688 91.3138 81.9415 81.9411 C100.687 63.196 100.687 32.804 81.9415 14.0589 C63.1964 -4.6863 32.8044 -4.6863 14.0593 14.0589 C4.6867 23.4315 0.0004 35.7157 0.0004 48 L0 96 L47.989 96 C47.9927 96 47.9963 96 48 96 Z"></path>
                    <path id="cu_11" transform="translate(467.4797821044922, 108.52018737792969)" fill="none" stroke="#17aee1" stroke-width="2" stroke-linejoin="miter" stroke-linecap="none" stroke-miterlimit="4"  d="M 48 96 C 60.2844 96.0001 72.5688 91.3138 81.9415 81.9411 C 100.6867 63.196 100.6867 32.804 81.9415 14.0589 C 63.1964 -4.6863 32.8044 -4.6863 14.0593 14.0589 C 4.6867 23.4315 0.0004 35.7157 0.0004 48 L 0 96 L 47.989 96 C 47.9927 96 47.9963 96 48 96 Z"></path></g></g></g>
        <path id="ic-cc-4" transform="matrix(0.9999999403953552, 1.1102230246251565e-16, -1.1102230246251565e-16, 0.9999999403953552, 276, 132)" fill="#33de7b1a" d="M0 0 L48 0 L48 48 L0 48 L0 0 Z"></path>
        <path id="ic-cc-3" transform="translate(276, 348)" fill="#33de7b1a" d="M0 0 L48 0 L48 48 L0 48 L0 0 Z"></path>
        <path id="ic-cc-2" transform="matrix(1, -1.6653345369377348e-16, 1.6653345369377348e-16, 1, 492, 348)" fill="#33de7b1a" d="M0 0 L48 0 L48 48 L0 48 L0 0 Z"></path>
        <path id="ic-cc-1" transform="matrix(1, -5.551115123125783e-17, 5.551115123125783e-17, 1, 492, 132)" fill="#33de7b1a" d="M0 0 L48 0 L48 48 L0 48 L0 0 Z"></path>
        <path id="ic-cc-end" transform="matrix(1, -5.551115123125783e-17, 5.551115123125783e-17, 1, 360, 216)" fill="#33de7b1a" d="M0 0 L96 0 L96 96 L0 96 L0 0 Z"></path>
        <rect id="bt-cc-remove-4" fill="#1ac6ff33" transform="matrix(1, -5.652044392747053e-17, 5.451988114623143e-17, 1, 240, 144)" width="24" height="24" rx="0" ry="0"></rect>
        <rect id="bt-cc-remove-3" fill="#1ac6ff33" transform="matrix(0.9999999403953552, -5.551115123125783e-17, 5.551115123125783e-17, 0.9999999403953552, 240, 360)" width="24" height="24" rx="0" ry="0"></rect>
        <rect id="bt-cc-remove-2" fill="#1ac6ff33" transform="matrix(0.9999999403953552, -5.551115123125783e-17, 5.551115123125783e-17, 0.9999999403953552, 552, 360)" width="24" height="24" rx="0" ry="0"></rect>
        <rect id="bt-cc-remove-1" fill="#1ac6ff33" transform="matrix(0.9999999403953552, 0, 0, 0.9999999403953552, 552, 144)" width="24" height="24" rx="0" ry="0"></rect>
        <g id="tx-rt-4-desc" data-entity-classes="Description">            <path id="rect_1" transform="translate(60, 144)" fill="#ff00001a" d="M0 0 L168 0 L168 72 L0 72 L0 0 Z"></path>
            <text id="Label_1" fill="#484848" transform="translate(60, 144)" font-size="15" font-family="Roboto" font-weight="400" data-align="horizontal:RIGHT;vertical:TOP"></text></g>
        <g id="tx-rt-3-desc" data-entity-classes="Description">            <path id="rect_2" transform="translate(60, 360)" fill="#ff00001a" d="M0 0 L168 0 L168 72 L0 72 L0 0 Z"></path>
            <text id="Label_2" fill="#484848" transform="translate(60, 360)" font-size="15" font-family="Roboto" font-weight="400" data-align="horizontal:RIGHT;vertical:TOP"></text></g>
        <g id="tx-lt-2-desc" data-entity-classes="Description">            <path id="rect_3" transform="translate(588, 360)" fill="#ff00001a" d="M0 0 L168 0 L168 72 L0 72 L0 0 Z"></path>
            <text id="Label_3" fill="#484848" transform="translate(588, 360)" font-size="15" font-family="Roboto" font-weight="400" data-align="horizontal:LEFT;vertical:TOP"></text></g>
        <g id="tx-lt-1-desc" data-entity-classes="Description">            <path id="rect_4" transform="translate(588, 144)" fill="#ff00001a" d="M0 0 L168 0 L168 72 L0 72 L0 0 Z"></path>
            <text id="Label_4" fill="#484848" transform="translate(588, 144)" font-size="15" font-family="Roboto" font-weight="400" data-align="horizontal:LEFT;vertical:TOP"></text></g>
        <g id="tx-lb-2" data-entity-classes="DescTitle">            <path id="rect_5" transform="translate(588, 324)" fill="#ff00001a" d="M0 0 L168 0 L168 24 L0 24 L0 0 Z"></path>
            <text id="Label_5" fill="#de74b3" transform="translate(588, 324)" font-size="20" font-family="Roboto" font-weight="700" data-align="horizontal:LEFT;vertical:TOP"></text></g>
        <g id="tx-rb-4" data-entity-classes="DescTitle">            <path id="rect_6" transform="translate(60, 108)" fill="#ff00001a" d="M0 0 L168 0 L168 24 L0 24 L0 0 Z"></path>
            <text id="Label_6" fill="#9078ef" transform="translate(179, 108)" font-size="20" font-family="Roboto" font-weight="700" data-align="horizontal:LEFT;vertical:TOP"></text></g>
        <g id="tx-rb-3" data-entity-classes="DescTitle">            <path id="rect_7" transform="translate(60, 324)" fill="#ff00001a" d="M0 0 L168 0 L168 24 L0 24 L0 0 Z"></path>
            <text id="Label_7" fill="#3cc583" transform="translate(179, 324)" font-size="20" font-family="Roboto" font-weight="700" data-align="horizontal:LEFT;vertical:TOP"></text></g>
        <g id="tx-lb-1" data-entity-classes="DescTitle">            <path id="rect_8" transform="translate(588, 108)" fill="#ff00001a" d="M0 0 L168 0 L168 24 L0 24 L0 0 Z"></path>
            <text id="Label_8" fill="#17aee1" transform="translate(588, 108)" font-size="20" font-family="Roboto" font-weight="700" data-align="horizontal:LEFT;vertical:TOP"></text></g>
        <rect id="bt-cc-add-5" fill="#1ac6ff33" transform="matrix(1, -2.7755575615628914e-17, 2.7755575615628914e-17, 1, 384, 132)" width="24" height="24" rx="0" ry="0"></rect>
        <rect id="bt-cc-add-4" fill="#1ac6ff33" transform="matrix(1, -2.7755575615628914e-17, 2.7755575615628914e-17, 1, 276, 252)" width="24" height="24" rx="0" ry="0"></rect>
        <rect id="bt-cc-add-3" fill="#1ac6ff33" transform="matrix(1, -2.7755575615628914e-17, 2.7755575615628914e-17, 1, 396, 372)" width="24" height="24" rx="0" ry="0"></rect>
        <rect id="bt-cc-add-2" fill="#1ac6ff33" transform="matrix(1, -2.7755575615628914e-17, 2.7755575615628914e-17, 1, 516, 252)" width="24" height="24" rx="0" ry="0"></rect>
        <rect id="bt-cc-add-1" fill="#1ac6ff33" transform="matrix(1, -2.7755575615628914e-17, 2.7755575615628914e-17, 1, 408, 132)" width="24" height="24" rx="0" ry="0"></rect></g></svg>