<svg xmlns="http://www.w3.org/2000/svg" viewBox="0 0 24 24"><g transform="matrix(1,0,0,1,0,0)"><defs><style>.a{fill:none;stroke:#000000;stroke-linecap:round;stroke-linejoin:round;}</style></defs><path class="a" d="M4.375,16.861l-.7.451v2.354a1.25,1.25,0,0,1-2.5,0V16.631a1.25,1.25,0,0,1,.573-1.051L3.1,14.708"></path><path class="a" d="M14.962,18.8l.454,2.31a1.25,1.25,0,0,1-2.453.482l-.585-2.979"></path><path class="a" d="M18.358,9.929h.4a3.034,3.034,0,0,1,2.852,2l1.3,3.566"></path><path class="a" d="M13.746,13.082a3.929,3.929,0,0,0,2.293,3.429s.968,3.49,1.07,3.686l1.224,2.337a1.251,1.251,0,0,0,1.346.648,1.285,1.285,0,0,0,.341-.12,1.25,1.25,0,0,0,.528-1.688L19.48,19.336s.161-4.144.142-4.241"></path><path class="a" d="M19.622,15.1V13.6c0-2.024-1.011-5.058-4.552-4.046s-4.552,0-4.552,0L9.384,4.475a2.872,2.872,0,0,0-1.2-1.757h0l-.79-2A.291.291,0,0,0,6.88.7L5.525,2.947l-3.842,2a1.013,1.013,0,0,0-.521,1.3l.263.657a1.013,1.013,0,0,0,1.35.549l.932-.44A1.766,1.766,0,0,0,5.965,7.2l-1.2,5.37a3.93,3.93,0,0,0,1.592,3.805l-.566,3a1.265,1.265,0,0,0,.017.652l.753,2.528a1.251,1.251,0,0,0,1.2.894,1.276,1.276,0,0,0,.358-.052,1.249,1.249,0,0,0,.841-1.555L8.3,19.633s.375-1.294.645-2.251a1.38,1.38,0,0,1,1.33-1.007h5.282"></path></g></svg>