<svg viewBox="0 0 24 24" xmlns="http://www.w3.org/2000/svg"><g transform="matrix(1,0,0,1,0,0)"><path d="M4.000 12.500 A8.000 8.000 0 1 0 20.000 12.500 A8.000 8.000 0 1 0 4.000 12.500 Z" fill="none" stroke="#000000" stroke-linecap="round" stroke-linejoin="round"></path><path d="M12,7a5.5,5.5,0,0,1,5.5,5.5" fill="none" stroke="#000000" stroke-linecap="round" stroke-linejoin="round"></path><path d="M15.869,19.5H22.5a1,1,0,0,0,1-1V6.5a1,1,0,0,0-1-1H15.873" fill="none" stroke="#000000" stroke-linecap="round" stroke-linejoin="round"></path><path d="M8.131,5.5H1.5a1,1,0,0,0-1,1v12a1,1,0,0,0,1,1H8.127" fill="none" stroke="#000000" stroke-linecap="round" stroke-linejoin="round"></path><path d="M1.5 3.5H5.5V5.5H1.5z" fill="none" stroke="#000000" stroke-linecap="round" stroke-linejoin="round"></path></g></svg>