<svg xmlns="http://www.w3.org/2000/svg" width="937" height="648">    <g id="sequence-roadmap-v4--family--4">        <g id="lines">            <g id="g-0">                <g id="cu">                    <path id="Subtract" transform="translate(257.00390625, 204.1943359375)" fill="#f0f0f0" d="M137.408 4.4789 C132.49 10.1896 126.996 14.0555 126.996 14.0555 C126.996 14.0555 123.708 11.742 119.942 8.0507 C112.748 10.0888 108.138 12.4824 106.922 15.1948 C102.272 25.5648 138.802 33.0948 209.752 35.7848 C250.672 37.3348 287.292 41.0548 289.182 49.3448 C291.182 58.1448 249.262 62.5051 203.522 63.8051 C111.252 66.4275 77.3269 79.3051 74.8021 94.0348 C72.2772 108.765 88.7522 126.465 202.422 131.805 C259.002 134.463 309.172 143.225 311.622 155.015 C316.172 168.225 276.752 179.018 203.522 181.865 C144.442 184.162 99.1081 189.806 66.4025 198.325 C69.3269 203.573 70.9949 209.629 70.9949 216.079 L70.996 216.079 C70.996 242.618 34.996 267.806 34.996 267.806 C34.996 267.806 13.7576 252.946 3.9066 234.028 C2.3345 236.98 1.2698 240.037 0.7021 243.195 C-7.4971 288.805 55.996 316.805 197.472 329.905 C274.961 337.08 349.152 352.805 356.252 383.975 C361.921 408.867 335.236 428.904 286.996 441.755 L430.096 441.755 C446.267 423.863 452.999 403.649 448.753 381.945 C446.241 369.109 440.795 357.395 431.712 346.861 C419.703 361.582 404.996 371.805 404.996 371.805 C404.996 371.805 362.996 342.611 362.996 311.849 L362.997 311.849 C362.997 310.352 363.075 308.872 363.228 307.415 C324.706 295.278 271.345 287.159 199.202 283.395 C120.052 279.265 67.0291 264.525 70.1121 245.165 C73.1951 225.805 115.192 213.305 202.422 207.785 C323.482 200.124 367.894 181.865 363.512 154.995 C359.975 133.305 319.996 116.305 206.472 112.715 C135.273 110.463 112.182 103.205 115.192 94.0248 C118.182 85.2148 158.592 78.7448 208.002 76.8248 C290.062 73.6348 328.352 62.7448 323.482 49.3448 C322.508 46.6646 320.063 44.2077 316.07 41.9754 C311.545 46.8545 306.996 50.0555 306.996 50.0555 C306.996 50.0555 297.315 43.2438 292.153 34.3476 C273.59 30.6331 246.556 28.0803 210.142 26.7048 C168.502 25.1348 139.362 22.0148 141.492 15.1948 C143.517 8.7313 174.554 0.0441 210.845 0 C182.739 0.0187 156.521 1.5905 137.408 4.4789 Z"></path>
                    <path id="Vector" transform="translate(257.00390625, 204.1943359375)" fill="none" stroke="#484848" stroke-width="2" stroke-linejoin="round" stroke-linecap="none" stroke-miterlimit="10"  d="M 211.1222 0 C 211.0296 0 210.9371 0.0001 210.8446 0.0002 C 211.0137 0.0001 211.183 0 211.3522 0 L 211.1222 0 Z M 286.996 441.7548 C 335.2355 428.9047 361.9214 408.867 356.2518 383.975 C 349.1522 352.8052 274.961 337.0797 197.4722 329.905 C 55.996 316.8057 -7.4971 288.8052 0.7021 243.195 C 1.2701 240.0354 2.3355 236.9769 3.9088 234.0239 M 430.0963 441.7548 C 446.2672 423.8635 452.9994 403.6489 448.7525 381.945 C 446.2365 369.0869 440.7755 357.3536 431.6639 346.8057 M 119.996 8.0357 C 112.7707 10.0772 108.1413 12.4759 106.9221 15.195 C 102.2721 25.565 138.8022 33.095 209.7522 35.785 C 250.6722 37.335 287.2922 41.055 289.1822 49.345 C 291.1822 58.145 249.2623 62.5052 203.5222 63.8052 C 111.2522 66.4277 77.3269 79.3052 74.8021 94.035 C 72.2772 108.7648 88.7522 126.4649 202.4222 131.8052 C 259.0022 134.4634 309.1722 143.225 311.6222 155.015 C 316.1722 168.225 276.7522 179.018 203.5222 181.865 C 144.4985 184.1597 99.1945 189.7951 66.496 198.3008 M 137.2596 4.5015 C 156.3849 1.5989 182.6664 0.0189 210.8446 0.0002 C 174.5538 0.0443 143.5169 8.7315 141.4921 15.195 C 139.3621 22.015 168.5023 25.135 210.1422 26.705 C 246.5877 28.0816 273.6369 30.6377 292.2004 34.3574 M 315.996 41.9345 C 320.0331 44.1777 322.502 46.6483 323.4822 49.345 C 328.3522 62.745 290.0622 73.635 208.0022 76.825 C 158.5923 78.745 118.1821 85.215 115.1921 94.025 C 112.1821 103.205 135.2734 110.463 206.4722 112.715 C 319.996 116.3057 359.9752 133.3052 363.5122 154.995 C 367.894 181.865 323.4822 200.1239 202.4222 207.785 C 115.1922 213.3052 73.1951 225.8052 70.1121 245.165 C 67.0291 264.5248 120.0522 279.265 199.2022 283.395 C 271.3297 287.1586 324.6833 295.2749 363.2029 307.4071"></path>
                    <path id="Vector_1" transform="translate(303.365234375, 206.509765625)" fill="none" stroke="#484848" stroke-width="2" stroke-linejoin="round" stroke-linecap="round" stroke-miterlimit="10"  d="M 355.97 406.15 C 354.33 410.28 351.99 414.41 349 418.42 M 357.89 381.77 C 358.84 385.77 359.17 389.83 358.87 393.86 M 345.4 359.01 C 348.57 362.59 351.24 366.32 353.32 370.09 M 320.66 340.18 C 325.67 343.19 330.3 346.38 334.4 349.66 M 286.28 325.15 C 292.68 327.48 298.81 330 304.51 332.66 M 244.87 313.43 C 252.22 315 259.43 316.78 266.3 318.73 M 198.8 306.4904 C 206.73 307.2704 214.62 308.13 222.28 309.3 M 150.38 302.4904 C 150.38 302.4904 166.6379 303.3914 174.76 303.7704 M 101.73 298.53 C 109.5 299.35 117.57 299.99 125.71 300.42 M 59.12 291.37 C 65.74 292.9 72.77 294.29 80.02 295.48 M 23.38 281.49 C 28.28 283.55 33.68 285.52 39.45 287.33 M 0 268.07 C 2.86 270.45 6.28 272.79 10.17 275.02 M 54.91 203.42 C 49.48 204.79 44.25 206.29 39.35 207.87 M 89.8 196.61 C 83.66 197.5 77.61 198.52 71.81 199.65 M 128.04 192.8 C 121.51 193.18 114.98 193.69 108.63 194.32 M 167.36 190.87 L 147.75 192.06 M 205.2 188.52 C 199.17 189.16 192.91 189.68 186.61 190.07 M 238.77 183.38 C 233.69 184.44 228.29 185.42 222.72 186.27 M 266.32 176 C 262.59 177.38 257.47 178.7 253.06 179.93 M 283 168.11 C 280.86 169.67 278.29 171.22 275.35 172.69 M 290.88 158.5 C 290.39 160.12 289.49 161.75 288.19 163.35 M 289.07 148.93 C 289.91 150.16 290.53 151.42 290.9 152.68 C 291 153.01 291.08 153.34 291.14 153.66 M 278.39 140.06 C 280.85 141.45 283 142.9 284.78 144.37 M 260.04 132.42 C 263.65 133.57 267.03 134.79 270.08 136.06 M 235.62 126.38 C 240.1 127.23 244.43 128.17 248.49 129.18 M 206.8 122.23 C 211.86 122.75 216.86 123.37 221.65 124.06 M 175.3 120.14 C 180.67 120.31 186.04 120.57 191.27 120.92 M 142.65 119.61 C 148.05 119.8 153.58 119.89 159.09 119.9 M 111.32 117.44 C 116.25 117.97 121.39 118.42 126.6 118.78 M 84.32 113.36 C 88.33 114.18 92.65 114.94 97.14 115.62 M 63.7 107.77 C 66.51 108.8 69.68 109.79 73.1 110.72 M 50.87 101.21 C 52.32 102.36 54.13 103.49 56.26 104.58 M 46.45 94.22 C 46.49 95.39 46.87 96.58 47.6 97.73 M 50.2 87.33 C 48.93 88.44 47.97 89.58 47.35 90.73 M 61.41 81.02 C 58.97 82 56.79 83.03 54.93 84.08 M 78.96 75.65 C 75.59 76.45 72.39 77.3 69.48 78.19 M 101.45 71.51 C 97.39 72.08 93.43 72.73 89.68 73.41 M 127.39 68.79 C 122.87 69.12 118.4 69.51 114.08 69.96 M 155.24 67.62 C 150.54 67.68 145.81 67.81 141.19 68.01 M 182.99 67.13 C 178.48 67.33 173.86 67.46 169.24 67.53 M 208.9 65.2 C 204.86 65.64 200.62 66.02 196.31 66.34 M 230.93 61.95 C 227.68 62.59 224.18 63.18 220.52 63.72 M 247.43 57.68 C 245.21 58.45 242.7 59.21 239.95 59.92 M 257.31 52.77 C 256.25 53.62 254.88 54.47 253.24 55.28 M 260.1 47.61 C 260.22 48.47 260.05 49.34 259.59 50.19 M 245.68 38.05 C 247.88 38.75 249.87 39.49 251.59 40.25 M 229.99 34.24 C 232.98 34.8 235.82 35.4 238.43 36.04 M 210.18 31.38 C 213.74 31.77 217.22 32.21 220.52 32.68 M 187.53 29.61 C 191.46 29.81 195.36 30.06 199.13 30.35 M 163.43 29.02 L 163.58 29.02 C 167.59 29.02 171.62 29.07 175.57 29.16 M 139.05 28.41 C 142.98 28.61 147.03 28.76 151.1 28.87 M 116.78 26.64 C 120.21 27.02 123.82 27.37 127.53 27.66 M 98.4 23.87 C 101.06 24.4 103.95 24.9 107.01 25.36 M 85.23 20.37 C 86.93 21 88.91 21.61 91.1 22.19 M 78.13 16.43 C 78.78 17.11 79.71 17.78 80.89 18.44 M 77.38 12.35 C 77.28 12.52 77.2 12.69 77.13 12.87 C 76.94 13.37 76.88 13.88 76.97 14.39 M 93.44 4.95 C 91.23 5.49 89.21 6.05 87.42 6.63 M 108.76 2.08 C 105.9 2.5 103.15 2.95 100.6 3.42 M 127.5 0 C 124.17 0.27 120.89 0.59 117.77 0.94 M 337.9 430.4 C 334.407 433.512 330.4601 436.5736 326.1345 439.5247"></path></g></g>
            <g id="g-1">                <g id="cu_1" >                    <path id="Vector_2" transform="translate(620, 474)" fill="#e7fbf2" d="M0.0012 42.0439 C0.0012 18.8235 18.7764 0 41.9373 0 L42.0627 0 C65.2236 0 83.9988 18.8235 83.9988 42.0439 L84 42.0439 C84 72.8058 42 102 42 102 C42 102 0 72.8058 0 42.0439 L0.0012 42.0439 Z"></path>
                    <path id="Vector_3" transform="translate(620, 474)" fill="none" stroke="#3cc583" stroke-width="2" stroke-linejoin="miter" stroke-linecap="none" stroke-miterlimit="4"  d="M 0.0012 42.0439 C 0.0012 18.8235 18.7764 0 41.9373 0 L 42.0627 0 C 65.2236 0 83.9988 18.8235 83.9988 42.0439 L 84 42.0439 C 84 72.8058 42 102 42 102 C 42 102 0 72.8058 0 42.0439 L 0.0012 42.0439 Z"></path></g></g>
            <g id="g-2">                <g id="cu_2" >                    <path id="Vector_4" transform="translate(256, 384)" fill="#e8f9ff" d="M0.0011 36.2732 C0.0011 16.2399 16.0941 0 35.9463 0 L36.0537 0 C55.9059 0 71.9989 16.2399 71.9989 36.2732 L72 36.2732 C72 62.8129 36 88 36 88 C36 88 0 62.8129 0 36.2732 L0.0011 36.2732 Z"></path>
                    <path id="Vector_5" transform="translate(256, 384)" fill="none" stroke="#17aee1" stroke-width="2" stroke-linejoin="miter" stroke-linecap="none" stroke-miterlimit="4"  d="M 0.0011 36.2732 C 0.0011 16.2399 16.0941 0 35.9463 0 L 36.0537 0 C 55.9059 0 71.9989 16.2399 71.9989 36.2732 L 72 36.2732 C 72 62.8129 36 88 36 88 C 36 88 0 62.8129 0 36.2732 L 0.0011 36.2732 Z"></path></g></g>
            <g id="g-3">                <g id="cu_3" >                    <path id="Vector_6" transform="translate(546, 210)" fill="#edf4ff" d="M0.0005 18.2396 C0.0005 8.1661 8.047 0 17.9731 0 L18.0269 0 C27.953 0 35.9995 8.1661 35.9995 18.2396 L36 18.2396 C36 31.5849 18 44.25 18 44.25 C18 44.25 0 31.5849 0 18.2396 L0.0005 18.2396 Z"></path>
                    <path id="Vector_7" transform="translate(546, 210)" fill="none" stroke="#4987ec" stroke-width="2" stroke-linejoin="miter" stroke-linecap="none" stroke-miterlimit="4"  d="M 0 18.2396 C 0 8.1661 8.0465 0 17.9726 0 L 18.0263 0 C 27.9524 0 35.9989 8.1661 35.9989 18.2396 C 35.9989 31.5849 17.9995 44.25 17.9995 44.25 C 17.9995 44.25 0 31.5849 0 18.2396 Z"></path></g></g>
            <g id="g-4">                <g id="cu_4" >                    <path id="Vector_8" transform="translate(366, 174)" fill="#f3f0ff" d="M0.0005 18.2396 C0.0005 8.1661 8.047 0 17.9731 0 L18.0269 0 C27.953 0 35.9995 8.1661 35.9995 18.2396 L36 18.2396 C36 31.5849 18 44.25 18 44.25 C18 44.25 0 31.5849 0 18.2396 L0.0005 18.2396 Z"></path>
                    <path id="Vector_9" transform="translate(366, 174)" fill="none" stroke="#7e62ec" stroke-width="2" stroke-linejoin="miter" stroke-linecap="none" stroke-miterlimit="4"  d="M 0 18.2396 C 0 8.1661 8.0465 0 17.9726 0 L 18.0263 0 C 27.9524 0 35.9989 8.1661 35.9989 18.2396 C 35.9989 31.5849 17.9995 44.25 17.9995 44.25 C 17.9995 44.25 0 31.5849 0 18.2396 Z"></path></g></g></g>
        <path id="tx-lt-1-desc" data-entity-classes="Description" transform="translate(744, 456)" fill="#ff00001a" d="M0 0 L192 0 L192 72 L0 72 L0 0 Z"></path>
        <rect id="tx-rt-2-desc" data-entity-classes="Description" fill="#ff00001a" transform="translate(24, 360)" width="192" height="72" rx="0" ry="0"></rect>
        <rect id="tx-lt-3-desc" data-entity-classes="Description" fill="#ff00001a" transform="translate(612, 168)" width="192" height="72" rx="0" ry="0"></rect>
        <rect id="tx-rt-4-desc" data-entity-classes="Description" fill="#ff00001a" transform="translate(144, 132)" width="192" height="72" rx="0" ry="0"></rect>
        <g id="tx-lb-1" data-entity-classes="DescTitle">            <path id="rect" transform="translate(744, 396)" fill="#ff00001a" d="M0 0 L192 0 L192 48 L0 48 L0 0 Z"></path>
            <text id="Label" fill="#3cc583" transform="translate(744, 420)" font-size="20" font-family="Roboto" font-weight="700" data-align="horizontal:LEFT;vertical:TOP"></text></g>
        <g id="tx-rb-2" data-entity-classes="DescTitle">            <path id="rect_1" transform="translate(24, 300)" fill="#ff00001a" d="M0 0 L192 0 L192 48 L0 48 L0 0 Z"></path>
            <text id="Label_1" fill="#17aee1" transform="translate(167, 324)" font-size="20" font-family="Roboto" font-weight="700" data-align="horizontal:LEFT;vertical:TOP"></text></g>
        <g id="tx-lb-3" data-entity-classes="DescTitle">            <path id="rect_2" transform="translate(612, 108)" fill="#ff00001a" d="M0 0 L192 0 L192 48 L0 48 L0 0 Z"></path>
            <text id="Label_2" fill="#4987ec" transform="translate(612, 132)" font-size="20" font-family="Roboto" font-weight="700" data-align="horizontal:LEFT;vertical:TOP"></text></g>
        <g id="tx-rb-4" data-entity-classes="DescTitle">            <path id="rect_3" transform="translate(144, 72)" fill="#ff00001a" d="M0 0 L192 0 L192 48 L0 48 L0 0 Z"></path>
            <text id="Label_3" fill="#7e62ec" transform="translate(280, 96)" font-size="20" font-family="Roboto" font-weight="700" data-align="horizontal:LEFT;vertical:TOP"></text></g>
        <rect id="tx-cb-title" data-entity-classes="Title" fill="#ff00001a" transform="translate(168, 0)" width="600" height="48" rx="0" ry="0"></rect>
        <path id="bt-cc-remove-1" transform="translate(720, 504)" fill="#1ac6ff33" d="M0 0 L24 0 L24 24 L0 24 L0 0 Z"></path>
        <rect id="bt-cc-remove-2" fill="#1ac6ff33" transform="translate(216, 408)" width="24" height="24" rx="0" ry="0"></rect>
        <rect id="bt-cc-remove-3" fill="#1ac6ff33" transform="translate(588, 216)" width="24" height="24" rx="0" ry="0"></rect>
        <rect id="bt-cc-remove-4" fill="#1ac6ff33" transform="translate(336, 180)" width="24" height="24" rx="0" ry="0"></rect>
        <g id="ic-cc-1">            <path id="rect_4" transform="matrix(1, 1.7151245100058819e-15, -1.7151245100058819e-15, 1, 636.0000000000001, 492)" fill="#33de7b1a" d="M0 0 L54 0 L54 54 L0 54 L0 0 Z"></path>
            <g id="icon" transform="translate(641.625, 497.625)">                <path id="icon_1" transform="translate(7.125, 3.5625)" fill="none" stroke="#3cc583" stroke-width="2" stroke-linejoin="round" stroke-linecap="round" stroke-miterlimit="1.5"  d="M 0.0002 0 C 9.5116 5.6087 19.0001 11.2554 28.5 16.8832 C 23.0342 19.9337 14.2101 24.8024 7.8274 28.3182 C 3.2994 30.8123 0 32.6255 0 32.6255 L 0.0002 0 Z M 28.5 16.8832 C 22.6521 23.0807 16.9119 29.378 11.1182 35.625 C 10.0237 33.189 8.9679 30.7336 7.8274 28.3182"></path></g></g>
        <g id="ic-cc-0">            <g id="icon_2" transform="translate(439.5, 127.5)"></g></g>
        <g id="ic-cc-2">            <path id="rect_5" transform="matrix(1, 1.7151245100058819e-15, -1.7151245100058819e-15, 1, 268.0000000000001, 396)" fill="#33de7b1a" d="M0 0 L48 0 L48 48 L0 48 L0 0 Z"></path>
            <g id="icon_3" transform="translate(273, 401)">                <path id="icon_4" transform="translate(6.3330078125, 3.1669921875)" fill="none" stroke="#17aee1" stroke-width="2" stroke-linejoin="round" stroke-linecap="round" stroke-miterlimit="1.5"  d="M 0.0002 0 C 8.4548 4.9855 16.889 10.0048 25.3333 15.0072 C 20.4749 17.7188 12.6312 22.0466 6.9577 25.1717 C 2.9328 27.3887 0 29.0004 0 29.0004 L 0.0002 0 Z M 25.3333 15.0072 C 20.1352 20.5161 15.0328 26.1138 9.8829 31.6667 C 8.91 29.5014 7.9714 27.3187 6.9577 25.1717"></path></g></g>
        <g id="ic-cc-3">            <path id="rect_6" transform="matrix(1, 1.7151245100058819e-15, -1.7151245100058819e-15, 1, 552.0000000000001, 216)" fill="#33de7b1a" d="M0 0 L24 0 L24 24 L0 24 L0 0 Z"></path>
            <g id="icon_5" transform="translate(554.5, 218.5)">                <path id="icon_6" transform="translate(3.1669921875, 1.5830078125)" fill="none" stroke="#4987ec" stroke-width="2" stroke-linejoin="round" stroke-linecap="round" stroke-miterlimit="1.5"  d="M 0.0001 0 C 4.2274 2.4927 8.4445 5.0024 12.6667 7.5036 C 10.2374 8.8594 6.3156 11.0233 3.4789 12.5859 C 1.4664 13.6944 0 14.5002 0 14.5002 L 0.0001 0 Z M 12.6667 7.5036 C 10.0676 10.2581 7.5164 13.0569 4.9414 15.8333 C 4.455 14.7507 3.9857 13.6594 3.4789 12.5859"></path></g></g>
        <g id="ic-cc-4">            <path id="rect_7" transform="matrix(1, 1.7151245100058819e-15, -1.7151245100058819e-15, 1, 372.0000000000001, 180)" fill="#33de7b1a" d="M0 0 L24 0 L24 24 L0 24 L0 0 Z"></path>
            <g id="icon_7" transform="translate(374.5, 182.5)">                <path id="icon_8" transform="translate(3.1669921875, 1.5830078125)" fill="none" stroke="#7e62ec" stroke-width="2" stroke-linejoin="round" stroke-linecap="round" stroke-miterlimit="1.5"  d="M 0.0001 0 C 4.2274 2.4927 8.4445 5.0024 12.6667 7.5036 C 10.2374 8.8594 6.3156 11.0233 3.4789 12.5859 C 1.4664 13.6944 0 14.5002 0 14.5002 L 0.0001 0 Z M 12.6667 7.5036 C 10.0676 10.2581 7.5164 13.0569 4.9414 15.8333 C 4.455 14.7507 3.9857 13.6594 3.4789 12.5859"></path></g></g>
        <rect id="bt-cc-add-1" fill="#1ac6ff33" transform="matrix(1, -1.6081230200044232e-16, 1.6081230200044232e-16, 1, 456, 624)" width="24" height="24" rx="0" ry="0"></rect>
        <rect id="bt-cc-add-2" fill="#1ac6ff33" transform="matrix(1, -1.6081230200044232e-16, 1.6081230200044232e-16, 1, 456, 498)" width="24" height="24" rx="0" ry="0"></rect>
        <rect id="bt-cc-add-3" fill="#1ac6ff33" transform="matrix(1, -1.6081230200044232e-16, 1.6081230200044232e-16, 1, 456, 318)" width="24" height="24" rx="0" ry="0"></rect>
        <rect id="bt-cc-add-4" fill="#1ac6ff33" transform="matrix(1, -1.6081230200044232e-16, 1.6081230200044232e-16, 1, 456, 222)" width="24" height="24" rx="0" ry="0"></rect>
        <rect id="bt-cc-add-5" fill="#1ac6ff33" transform="matrix(1, -1.6081230200044232e-16, 1.6081230200044232e-16, 1, 456, 192)" width="24" height="24" rx="0" ry="0"></rect></g></svg>