<svg xmlns="http://www.w3.org/2000/svg" width="744" height="612">    <g id="sector-puzzle-v6--family--4">        <g id="lines">            <g id="g-0">                <ellipse id="cr-big" stroke="#bcbcbc" fill="#f6f6f6" stroke-width="2" stroke-linejoin="miter"  transform="translate(312, 264)" cx="60" cy="60" rx="60" ry="60"></ellipse></g>
            <g id="g-4">                <g id="cu_2" >                    <path id="cu" transform="translate(228.00769042969205, 180.0075683593708)" fill="#e8f9ff" d="M142.489 84.006 C143.317 83.9853 143.992 83.3157 143.992 82.4875 L143.992 53.5932 C143.992 52.1081 141.729 51.2847 140.481 52.0887 C138.61 53.2934 136.383 53.9924 133.992 53.9924 C127.365 53.9924 121.992 48.6198 121.992 41.9924 C121.992 35.365 127.365 29.9924 133.992 29.9924 C136.383 29.9924 138.61 30.6914 140.481 31.8961 C141.729 32.7001 143.992 31.8767 143.992 30.3916 L143.992 1.4924 C143.992 0.6639 143.314 -0.0084 142.485 7.959e-5 C64.1522 0.8032 0.8032 64.1522 7.9589e-5 142.485 C-0.0084 143.314 0.6639 143.992 1.4924 143.992 L30.5231 143.992 C31.9907 143.992 32.8023 146.176 32.0156 147.415 C30.8362 149.273 30.1532 151.476 30.1532 153.839 C30.1532 160.467 35.5258 165.839 42.1532 165.839 C48.7806 165.839 54.1532 160.467 54.1532 153.839 C54.1532 151.476 53.4702 149.273 52.2908 147.415 C51.5041 146.176 52.3157 143.992 53.7833 143.992 L84.013 143.992 C84.0161 143.992 84.0186 143.99 84.0186 143.987 C84.0186 111.361 110.059 84.8176 142.489 84.006 Z"></path>
                    <path id="cu_1" transform="translate(228.00769042969205, 180.0075683593708)" fill="none" stroke="#17aee1" stroke-width="2" stroke-linejoin="miter" stroke-linecap="none" stroke-miterlimit="4"  d="M 142.4887 84.006 C 143.3166 83.9853 143.9924 83.3157 143.9924 82.4875 L 143.9924 53.5932 C 143.9924 52.1081 141.7293 51.2847 140.4807 52.0887 C 138.61 53.2934 136.3828 53.9924 133.9923 53.9924 C 127.3649 53.9924 121.9923 48.6198 121.9923 41.9924 C 121.9923 35.365 127.3649 29.9924 133.9923 29.9924 C 136.3828 29.9924 138.61 30.6914 140.4807 31.8961 C 141.7293 32.7001 143.9924 31.8767 143.9924 30.3916 L 143.9924 1.4924 C 143.9924 0.6639 143.3138 -0.0084 142.4854 0.0001 C 64.1522 0.8032 0.8032 64.1522 0.0001 142.4854 C -0.0084 143.3138 0.6639 143.9924 1.4924 143.9924 L 30.5231 143.9924 C 31.9907 143.9924 32.8023 146.1763 32.0156 147.4152 C 30.8362 149.2725 30.1532 151.476 30.1532 153.8391 C 30.1532 160.4665 35.5258 165.8391 42.1532 165.8391 C 48.7806 165.8391 54.1532 160.4665 54.1532 153.8391 C 54.1532 151.476 53.4702 149.2725 52.2908 147.4152 C 51.5041 146.1763 52.3157 143.9924 53.7833 143.9924 L 84.013 143.9924 C 84.0161 143.9924 84.0186 143.9899 84.0186 143.9869 C 84.0186 111.3612 110.0586 84.8176 142.4887 84.006 Z"></path></g></g>
            <g id="g-3">                <g id="cu_5" >                    <path id="cu_3" transform="translate(228.00781250000773, 324)" fill="#ffedeb" d="M53.9924 10 C53.9924 16.6275 48.6198 22 41.9924 22 C35.365 22 29.9924 16.6275 29.9924 10 C29.9924 7.6096 30.6914 5.3824 31.8961 3.5117 C32.7001 2.2631 31.8767 6.1299e-5 30.3916 6.3112e-5 L1.4924 9.8396e-5 C0.6639 9.9407e-5 -0.0084 0.6787 7.9586e-5 1.507 C0.8032 79.8402 64.1522 143.189 142.485 143.992 C143.314 144.001 143.992 143.329 143.992 142.5 L143.992 113.636 C143.992 112.147 146.279 111.319 147.53 112.128 C149.404 113.339 151.637 114.042 154.034 114.042 C160.662 114.042 166.034 108.669 166.034 102.042 C166.034 95.4144 160.662 90.0418 154.034 90.0418 C151.637 90.0418 149.404 90.7447 147.53 91.9556 C146.279 92.7642 143.992 91.9371 143.992 90.4471 L143.992 61.4857 C143.992 60.6573 143.316 59.9877 142.488 59.9672 C110.555 59.1772 84.8125 33.4369 84.0195 1.504 C83.9989 0.676 83.3293 -9.9882e-7 82.501 1.1369e-12 L53.5932 3.4859e-5 C52.1081 3.665e-5 51.2847 2.2631 52.0887 3.5117 C53.2934 5.3824 53.9924 7.6096 53.9924 10 Z"></path>
                    <path id="cu_4" transform="translate(228.00781250000773, 324)" fill="none" stroke="#df5e59" stroke-width="2" stroke-linejoin="miter" stroke-linecap="none" stroke-miterlimit="4"  d="M 53.9924 10 C 53.9924 16.6275 48.6198 22 41.9924 22 C 35.365 22 29.9924 16.6275 29.9924 10 C 29.9924 7.6096 30.6914 5.3824 31.8961 3.5117 C 32.7001 2.2631 31.8767 0.0001 30.3916 0.0001 L 1.4924 0.0001 C 0.6639 0.0001 -0.0084 0.6787 0.0001 1.507 C 0.8032 79.8402 64.1522 143.1893 142.4854 143.9924 C 143.3138 144.0009 143.9924 143.3285 143.9924 142.5001 L 143.9924 113.6365 C 143.9924 112.1465 146.2787 111.3194 147.5301 112.1281 C 149.404 113.3389 151.637 114.0418 154.0341 114.0418 C 160.6615 114.0418 166.0341 108.6692 166.0341 102.0418 C 166.0341 95.4144 160.6615 90.0418 154.0341 90.0418 C 151.637 90.0418 149.404 90.7447 147.5301 91.9556 C 146.2787 92.7642 143.9924 91.9371 143.9924 90.4471 L 143.9924 61.4857 C 143.9924 60.6573 143.3164 59.9877 142.4883 59.9672 C 110.5546 59.1772 84.8125 33.4369 84.0195 1.504 C 83.9989 0.676 83.3293 -9.9882e-7 82.501 1.1369e-12 L 53.5932 0 C 52.1081 0 51.2847 2.2631 52.0887 3.5117 C 53.2934 5.3824 53.9924 7.6096 53.9924 10 Z"></path></g></g>
            <g id="g-2">                <g id="cu_8" >                    <path id="cu_6" transform="translate(371.9993896484377, 302.1610107421875)" fill="#e7fbf2" d="M113.868 21.843 C112.401 21.843 111.59 19.6609 112.376 18.4222 C113.555 16.5652 114.238 14.3623 114.238 12 C114.238 5.3726 108.865 0 102.238 0 C95.6102 0 90.2376 5.3726 90.2376 12 C90.2376 14.3623 90.9202 16.5653 92.099 18.4222 C92.8852 19.6609 92.0739 21.843 90.6067 21.843 L61.4999 21.8431 C60.6715 21.8431 60.0018 22.5192 59.9814 23.3474 C59.1953 55.2893 33.4463 81.0384 1.5044 81.8246 C0.6762 81.845 5.2744e-5 82.5146 5.221e-5 83.3431 L3.3554e-5 112.286 C3.2594e-5 113.776 2.2867 114.603 3.5382 113.795 C5.4122 112.584 7.6453 111.881 10.0425 111.881 C16.6699 111.881 22.0425 117.253 22.0425 123.881 C22.0425 130.508 16.6699 135.881 10.0425 135.881 C7.6453 135.881 5.4122 135.178 3.5382 133.967 C2.2867 133.158 1.9568e-5 133.985 1.8607e-5 135.475 L0 164.343 C-5.3398e-7 165.171 0.6786 165.844 1.5069 165.835 C79.8401 165.032 143.189 101.683 143.992 23.3499 C144.001 22.5215 143.328 21.843 142.5 21.843 L113.868 21.843 Z"></path>
                    <path id="cu_7" transform="translate(371.9993896484377, 302.1610107421875)" fill="none" stroke="#3cc583" stroke-width="2" stroke-linejoin="miter" stroke-linecap="none" stroke-miterlimit="4"  d="M 113.8685 21.843 C 112.4013 21.843 111.5899 19.6609 112.3762 18.4222 C 113.555 16.5652 114.2376 14.3623 114.2376 12 C 114.2376 5.3726 108.865 0 102.2376 0 C 95.6102 0 90.2376 5.3726 90.2376 12 C 90.2376 14.3623 90.9202 16.5653 92.099 18.4222 C 92.8852 19.6609 92.0739 21.843 90.6067 21.843 L 61.4999 21.8431 C 60.6715 21.8431 60.0018 22.5192 59.9814 23.3474 C 59.1953 55.2893 33.4463 81.0384 1.5044 81.8246 C 0.6762 81.845 0.0001 82.5146 0.0001 83.3431 L 0 112.2862 C 0 113.7762 2.2867 114.6034 3.5382 113.7947 C 5.4122 112.5837 7.6453 111.8808 10.0425 111.8808 C 16.6699 111.8808 22.0425 117.2533 22.0425 123.8808 C 22.0425 130.5082 16.6699 135.8808 10.0425 135.8808 C 7.6453 135.8808 5.4122 135.1778 3.5382 133.9668 C 2.2867 133.1581 0 133.9853 0 135.4753 L 0 164.343 C -5.3398e-7 165.1714 0.6785 165.8438 1.5069 165.8353 C 79.8401 165.0321 143.1891 101.6831 143.9923 23.3499 C 144.0008 22.5215 143.3284 21.843 142.5 21.843 L 113.8685 21.843 Z"></path></g></g>
            <g id="g-1">                <g id="cu_11" >                    <path id="cu_9" transform="translate(349.9580078125, 180.00769042967363)" fill="#fefbdb" d="M82.0406 142.488 C82.0612 143.316 82.7308 143.992 83.5591 143.992 L112.647 143.992 C114.114 143.992 114.925 141.812 114.139 140.574 C112.961 138.717 112.279 136.515 112.279 134.153 C112.279 127.526 117.651 122.153 124.279 122.153 C130.906 122.153 136.279 127.526 136.279 134.153 C136.279 136.515 135.597 138.717 134.419 140.574 C133.633 141.812 134.444 143.992 135.911 143.992 L164.542 143.992 C165.37 143.992 166.043 143.314 166.034 142.485 C165.231 64.1522 101.882 0.8032 23.5489 7.9588e-5 C22.7206 -0.0084 22.042 0.6639 22.042 1.4924 L22.042 30.4395 C22.042 31.9295 19.7556 32.7566 18.5041 31.9479 C16.6301 30.737 14.3972 30.0341 12 30.0341 C5.3726 30.0341 0 35.4067 0 42.0341 C0 48.6615 5.3726 54.0341 12 54.0341 C14.3972 54.0341 16.6301 53.3312 18.5041 52.1203 C19.7556 51.3116 22.042 52.1388 22.042 53.6288 L22.042 83.9876 C22.042 83.9972 22.0498 84.005 22.0594 84.005 C54.6894 84.005 81.2358 110.052 82.0406 142.488 Z"></path>
                    <path id="cu_10" transform="translate(349.9580078125, 180.00769042967363)" fill="none" stroke="#d1bd08" stroke-width="2" stroke-linejoin="miter" stroke-linecap="none" stroke-miterlimit="4"  d="M 82.0406 142.4883 C 82.0612 143.3163 82.7308 143.9923 83.5591 143.9923 L 112.647 143.9923 C 114.1137 143.9923 114.9248 141.8121 114.139 140.5737 C 112.9609 138.7171 112.2788 136.5149 112.2788 134.1533 C 112.2788 127.5259 117.6514 122.1533 124.2788 122.1533 C 130.9062 122.1533 136.2788 127.5259 136.2788 134.1533 C 136.2788 136.5149 135.5966 138.7171 134.4185 140.5737 C 133.6327 141.8122 134.4438 143.9923 135.9106 143.9923 L 164.542 143.9924 C 165.3704 143.9924 166.0428 143.3138 166.0343 142.4854 C 165.2311 64.1522 101.8821 0.8032 23.5489 0.0001 C 22.7206 -0.0084 22.042 0.6639 22.042 1.4924 L 22.042 30.4395 C 22.042 31.9295 19.7556 32.7566 18.5041 31.9479 C 16.6301 30.737 14.3972 30.0341 12 30.0341 C 5.3726 30.0341 0 35.4067 0 42.0341 C 0 48.6615 5.3726 54.0341 12 54.0341 C 14.3972 54.0341 16.6301 53.3312 18.5041 52.1203 C 19.7556 51.3116 22.042 52.1388 22.042 53.6288 L 22.042 83.9876 C 22.042 83.9972 22.0498 84.005 22.0594 84.005 C 54.6894 84.005 81.2358 110.0521 82.0406 142.4883 Z"></path></g></g></g>
        <path id="tx-cb-title" transform="matrix(1, -1.6081230200044232e-16, 1.6081230200044232e-16, 1, 72, 60)" fill="#ff00001a" d="M0 0 L600 0 L600 48 L0 48 L0 0 Z"></path>
        <path id="ic-cc-0" transform="matrix(1, -5.551115123125783e-17, 5.551115123125783e-17, 1, 336, 287.99609375)" fill="#33de7b1a" d="M0 0 L72 0 L72 72 L0 72 L0 0 Z"></path>
        <rect id="bt-cc-remove-4" fill="#1ac6ff33" transform="translate(252, 204)" width="24" height="24" rx="0" ry="0"></rect>
        <rect id="bt-cc-remove-3" fill="#1ac6ff33" transform="matrix(0.9999999403953552, 5.551115123125783e-17, -5.551115123125783e-17, 0.9999999403953552, 252, 420)" width="24" height="24" rx="0" ry="0"></rect>
        <rect id="bt-cc-remove-2" fill="#1ac6ff33" transform="translate(468, 420)" width="24" height="24" rx="0" ry="0"></rect>
        <rect id="bt-cc-remove-1" fill="#1ac6ff33" transform="matrix(0.9999999403953552, 5.551115123125783e-17, -5.551115123125783e-17, 0.9999999403953552, 468, 204)" width="24" height="24" rx="0" ry="0"></rect>
        <rect id="bt-cc-add-5" fill="#1ac6ff33" transform="translate(350, 210)" width="24" height="24" rx="0" ry="0"></rect>
        <rect id="bt-cc-add-4" fill="#1ac6ff33" transform="translate(258, 322)" width="24" height="24" rx="0" ry="0"></rect>
        <rect id="bt-cc-add-3" fill="#1ac6ff33" transform="translate(370, 414)" width="24" height="24" rx="0" ry="0"></rect>
        <rect id="bt-cc-add-2" fill="#1ac6ff33" transform="translate(462, 302)" width="24" height="24" rx="0" ry="0"></rect>
        <path id="ic-cc-4" transform="matrix(1, -1.6081230200044232e-16, 1.6081230200044232e-16, 1, 275.93701171875, 227.81341552734375)" fill="#33de7b1a" d="M0 0 L48 0 L48 48 L0 48 L0 0 Z"></path>
        <path id="ic-cc-3" transform="matrix(1, -1.6081230200044232e-16, 1.6081230200044232e-16, 1, 275.813232421875, 372.06298828125)" fill="#33de7b1a" d="M0 0 L48 0 L48 48 L0 48 L0 0 Z"></path>
        <path id="ic-cc-2" transform="matrix(1, -1.6081230200044232e-16, 1.6081230200044232e-16, 1, 420.063232421875, 372.186767578125)" fill="#33de7b1a" d="M0 0 L48 0 L48 48 L0 48 L0 0 Z"></path>
        <path id="ic-cc-1" transform="matrix(1, -1.6081230200044232e-16, 1.6081230200044232e-16, 1, 420.186767578125, 227.93682861328125)" fill="#33de7b1a" d="M0 0 L48 0 L48 48 L0 48 L0 0 Z"></path>
        <path id="tx-rb-4" transform="matrix(1, -5.551115123125783e-17, 5.551115123125783e-17, 1, 84, 132)" fill="#ff00001a" d="M0 0 L168 0 L168 72 L0 72 L0 0 Z"></path>
        <path id="tx-rt-3" transform="matrix(1, -5.551115123125783e-17, 5.551115123125783e-17, 1, 84, 444)" fill="#ff00001a" d="M0 0 L168 0 L168 72 L0 72 L0 0 Z"></path>
        <path id="tx-lt-2" transform="matrix(1, -5.551115123125783e-17, 5.551115123125783e-17, 1, 492, 444)" fill="#ff00001a" d="M0 0 L168 0 L168 72 L0 72 L0 0 Z"></path>
        <path id="tx-lb-1" transform="matrix(1, -5.551115123125783e-17, 5.551115123125783e-17, 1, 492, 132)" fill="#ff00001a" d="M0 0 L168 0 L168 72 L0 72 L0 0 Z"></path></g></svg>