<svg xmlns="http://www.w3.org/2000/svg" width="744" height="612">    <g id="sector-puzzle-v6--family--6">        <g id="lines">            <g id="g-0">                <ellipse id="cr-big" stroke="#bcbcbc" fill="#f6f6f6" stroke-width="2" stroke-linejoin="miter"  transform="translate(312, 264.0000305175781)" cx="60" cy="60" rx="60" ry="60"></ellipse></g>
            <g id="g-6">                <g id="cu_2" >                    <path id="cu" transform="translate(247.8473053035565, 180.00952911377544)" fill="#f2fae1" d="M0.2084 70.6906 C-0.2155 71.4039 0.0285 72.3271 0.7471 72.742 L25.7717 87.1899 C27.0578 87.9325 26.6393 90.3041 25.3187 90.9834 C23.34 92.0012 21.621 93.5805 20.4258 95.6507 C17.1121 101.39 19.0786 108.729 24.8181 112.043 C30.5576 115.357 37.8967 113.39 41.2104 107.651 C42.4056 105.581 42.9139 103.302 42.8059 101.08 C42.7339 99.5964 44.5786 98.0481 45.8647 98.7907 L70.8919 113.24 C71.6093 113.654 72.5259 113.406 72.9576 112.699 C83.9274 94.7327 102.937 84.5117 122.654 84.0005 C123.482 83.979 124.153 83.3096 124.153 82.4817 L124.153 53.5912 C124.153 52.1062 121.89 51.2827 120.641 52.0868 C118.77 53.2915 116.543 53.9905 114.153 53.9905 C107.525 53.9905 102.153 48.6179 102.153 41.9905 C102.153 35.3631 107.525 29.9905 114.153 29.9905 C116.543 29.9905 118.77 30.6895 120.641 31.8942 C121.89 32.6982 124.153 31.8748 124.153 30.3897 L124.153 1.4922 C124.153 0.663 123.479 -0.0097 122.65 0.0001 C74.044 0.572 26.7633 25.9987 0.2084 70.6906 Z"></path>
                    <path id="cu_1" transform="translate(247.8473053035565, 180.00952911377544)" fill="none" stroke="#93c332" stroke-width="2" stroke-linejoin="miter" stroke-linecap="none" stroke-miterlimit="4"  d="M 0.2084 70.6906 C -0.2155 71.4039 0.0285 72.3271 0.7471 72.742 L 25.7717 87.1899 C 27.0578 87.9325 26.6393 90.3041 25.3187 90.9834 C 23.34 92.0012 21.621 93.5805 20.4258 95.6507 C 17.1121 101.3902 19.0786 108.7293 24.8181 112.043 C 30.5576 115.3568 37.8967 113.3902 41.2104 107.6507 C 42.4056 105.5805 42.9139 103.3022 42.8059 101.0797 C 42.7339 99.5964 44.5786 98.0481 45.8647 98.7907 L 70.8919 113.2401 C 71.6093 113.6543 72.5259 113.406 72.9576 112.699 C 83.9274 94.7327 102.9369 84.5117 122.654 84.0005 C 123.4816 83.979 124.1527 83.3096 124.1527 82.4817 L 124.1527 53.5912 C 124.1527 52.1062 121.8896 51.2827 120.6411 52.0868 C 118.7703 53.2915 116.5431 53.9905 114.1527 53.9905 C 107.5253 53.9905 102.1527 48.6179 102.1527 41.9905 C 102.1527 35.3631 107.5253 29.9905 114.1527 29.9905 C 116.5431 29.9905 118.7704 30.6895 120.6411 31.8942 C 121.8897 32.6982 124.1528 31.8748 124.1528 30.3897 L 124.1528 1.4922 C 124.1528 0.663 123.4793 -0.0097 122.6502 0.0001 C 74.044 0.572 26.7633 25.9987 0.2084 70.6906 Z"></path></g></g>
            <g id="g-5">                <g id="cu_5" >                    <path id="cu_3" transform="translate(228.08094861027246, 252.54971313718488)" fill="#fef2e6" d="M18.4674 142.139 C18.8733 142.863 19.7948 143.113 20.5134 142.698 L45.5379 128.25 C46.824 127.508 48.6687 129.056 48.5967 130.539 C48.4887 132.762 48.997 135.04 50.1922 137.11 C53.5059 142.85 60.845 144.816 66.5845 141.503 C72.3241 138.189 74.2906 130.85 70.9769 125.11 C69.7816 123.04 68.0627 121.461 66.0839 120.443 C64.7633 119.764 64.3448 117.392 65.631 116.65 L90.6582 102.2 C91.3756 101.786 91.6189 100.868 91.2224 100.141 C81.148 81.6574 81.8011 60.0843 91.2169 42.7531 C91.6121 42.0257 91.368 41.1097 90.651 40.6958 L65.6311 26.2506 C64.345 25.508 62.5004 27.0562 62.5724 28.5395 C62.6804 30.762 62.1721 33.0403 60.9769 35.1105 C57.6632 40.85 50.3241 42.8165 44.5845 39.5028 C38.845 36.1891 36.8785 28.85 40.1922 23.1105 C41.3875 21.0403 43.1064 19.4609 45.0851 18.4432 C46.4057 17.7639 46.8242 15.3923 45.538 14.6498 L20.512 0.201 C19.794 -0.2136 18.8747 0.0333 18.4686 0.7562 C-5.3393 43.1364 -6.9594 96.796 18.4674 142.139 Z"></path>
                    <path id="cu_4" transform="translate(228.08094861027246, 252.54971313718488)" fill="none" stroke="#db8333" stroke-width="2" stroke-linejoin="miter" stroke-linecap="none" stroke-miterlimit="4"  d="M 18.4674 142.1392 C 18.8733 142.8629 19.7948 143.1132 20.5134 142.6983 L 45.5379 128.2504 C 46.824 127.5079 48.6687 129.0561 48.5967 130.5394 C 48.4887 132.7619 48.997 135.0403 50.1922 137.1105 C 53.5059 142.85 60.845 144.8165 66.5845 141.5028 C 72.3241 138.1891 74.2906 130.85 70.9769 125.1105 C 69.7816 123.0403 68.0627 121.4609 66.0839 120.4432 C 64.7633 119.7639 64.3448 117.3922 65.631 116.6497 L 90.6582 102.2002 C 91.3756 101.786 91.6189 100.8681 91.2224 100.1407 C 81.148 81.6574 81.8011 60.0843 91.2169 42.7531 C 91.6121 42.0257 91.368 41.1097 90.651 40.6958 L 65.6311 26.2506 C 64.345 25.508 62.5004 27.0562 62.5724 28.5395 C 62.6804 30.762 62.1721 33.0403 60.9769 35.1105 C 57.6632 40.85 50.3241 42.8165 44.5845 39.5028 C 38.845 36.1891 36.8785 28.85 40.1922 23.1105 C 41.3875 21.0403 43.1064 19.4609 45.0851 18.4432 C 46.4057 17.7639 46.8242 15.3923 45.538 14.6498 L 20.512 0.201 C 19.794 -0.2136 18.8747 0.0333 18.4686 0.7562 C -5.3392 43.1364 -6.9594 96.796 18.4674 142.1392 Z"></path></g></g>
            <g id="g-4">                <g id="cu_8" >                    <path id="cu_6" transform="translate(247.84455109005148, 354.5529174740368)" fill="#e8f9ff" d="M122.648 113.436 C123.478 113.446 124.155 112.773 124.155 111.944 L124.155 83.0476 C124.155 81.5625 126.418 80.7391 127.667 81.5432 C129.538 82.7479 131.765 83.4469 134.155 83.4469 C140.783 83.4469 146.155 78.0743 146.155 71.4469 C146.155 64.8195 140.783 59.4469 134.155 59.4469 C131.765 59.4469 129.538 60.1459 127.667 61.3506 C126.418 62.1547 124.155 61.3313 124.155 59.8462 L124.155 30.9473 C124.155 30.1188 123.482 29.4492 122.654 29.4288 C101.61 28.9119 83.2532 17.5598 72.9519 0.7398 C72.5195 0.0338 71.6042 -0.2127 70.8872 0.2012 L45.8674 14.6465 C44.5812 15.389 44.9997 17.7606 46.3203 18.4399 C48.299 19.4576 50.0179 21.037 51.2132 23.1072 C54.5269 28.8467 52.5604 36.1858 46.8208 39.4995 C41.0813 42.8132 33.7422 40.8467 30.4285 35.1072 C29.2333 33.037 28.725 30.7586 28.833 28.5362 C28.905 27.0529 27.0604 25.5047 25.7743 26.2472 L0.7482 40.696 C0.0302 41.1106 -0.2157 42.0301 0.2073 42.7433 C25.0058 84.5516 70.6662 112.784 122.648 113.436 Z"></path>
                    <path id="cu_7" transform="translate(247.84455109005148, 354.5529174740368)" fill="none" stroke="#17aee1" stroke-width="2" stroke-linejoin="miter" stroke-linecap="none" stroke-miterlimit="4"  d="M 122.648 113.4358 C 123.4777 113.4462 124.1552 112.7733 124.1552 111.9435 L 124.1552 83.0476 C 124.1552 81.5625 126.4184 80.7391 127.667 81.5432 C 129.5377 82.7479 131.765 83.4469 134.1554 83.4469 C 140.7829 83.4469 146.1554 78.0743 146.1554 71.4469 C 146.1555 64.8195 140.7828 59.4469 134.1554 59.4469 C 131.765 59.4469 129.5377 60.1459 127.667 61.3506 C 126.4184 62.1547 124.1552 61.3313 124.1552 59.8462 L 124.1552 30.9473 C 124.1552 30.1188 123.4819 29.4492 122.6537 29.4288 C 101.6096 28.9119 83.2532 17.5598 72.9519 0.7398 C 72.5195 0.0338 71.6042 -0.2127 70.8872 0.2012 L 45.8674 14.6465 C 44.5812 15.389 44.9997 17.7606 46.3203 18.4399 C 48.299 19.4576 50.0179 21.037 51.2132 23.1072 C 54.5269 28.8467 52.5604 36.1858 46.8208 39.4995 C 41.0813 42.8132 33.7422 40.8467 30.4285 35.1072 C 29.2333 33.037 28.725 30.7586 28.833 28.5362 C 28.905 27.0529 27.0604 25.5047 25.7743 26.2472 L 0.7482 40.696 C 0.0302 41.1106 -0.2157 42.0301 0.2073 42.7433 C 25.0058 84.5516 70.6662 112.7845 122.648 113.4358 Z"></path></g></g>
            <g id="g-3">                <g id="cu_11" >                    <path id="cu_9" transform="translate(371.9997253417969, 354.33737186672533)" fill="#ffedeb" d="M123.944 42.9622 C124.368 42.2488 124.124 41.3256 123.406 40.9107 L98.3811 26.4628 C97.095 25.7203 97.5134 23.3486 98.8341 22.6693 C100.813 21.6516 102.532 20.0722 103.727 18.002 C107.041 12.2625 105.074 4.9234 99.3347 1.6097 C93.5952 -1.704 86.2561 0.2625 82.9424 6.002 C81.7471 8.0722 81.2389 10.3506 81.3468 12.573 C81.4189 14.0564 79.5742 15.6046 78.2881 14.8621 L53.2609 0.4126 C52.5434 -0.0016 51.6268 0.2467 51.1951 0.9537 C40.2254 18.92 21.2159 29.1411 1.4988 29.6523 C0.6712 29.6737 3.767e-5 30.3431 3.7598e-5 31.171 L3.5072e-5 60.0615 C3.4942e-5 61.5466 2.2631 62.37 3.5117 61.5659 C5.3824 60.3612 7.6096 59.6622 10.0001 59.6622 C16.6275 59.6622 22.0001 65.0348 22.0001 71.6622 C22.0001 78.2897 16.6275 83.6622 10.0001 83.6622 C7.6096 83.6622 5.3824 82.9633 3.5117 81.7586 C2.2631 80.9545 2.6561e-6 81.7779 2.5263e-6 83.263 L0 112.161 C-7.2486e-8 112.99 0.6735 113.662 1.5025 113.653 C50.1088 113.081 97.3895 87.654 123.944 42.9622 Z"></path>
                    <path id="cu_10" transform="translate(371.9997253417969, 354.33737186672533)" fill="none" stroke="#df5e59" stroke-width="2" stroke-linejoin="miter" stroke-linecap="none" stroke-miterlimit="4"  d="M 123.9444 42.9622 C 124.3682 42.2488 124.1242 41.3256 123.4057 40.9107 L 98.3811 26.4628 C 97.095 25.7203 97.5134 23.3486 98.8341 22.6693 C 100.8128 21.6516 102.5317 20.0722 103.727 18.002 C 107.0407 12.2625 105.0742 4.9234 99.3347 1.6097 C 93.5952 -1.704 86.2561 0.2625 82.9424 6.002 C 81.7471 8.0722 81.2389 10.3506 81.3468 12.573 C 81.4189 14.0564 79.5742 15.6046 78.2881 14.8621 L 53.2609 0.4126 C 52.5434 -0.0016 51.6268 0.2467 51.1951 0.9537 C 40.2254 18.92 21.2159 29.1411 1.4988 29.6523 C 0.6712 29.6737 0 30.3431 0 31.171 L 0 60.0615 C 0 61.5466 2.2631 62.37 3.5117 61.5659 C 5.3824 60.3612 7.6096 59.6622 10.0001 59.6622 C 16.6275 59.6622 22.0001 65.0348 22.0001 71.6622 C 22.0001 78.2897 16.6275 83.6622 10.0001 83.6622 C 7.6096 83.6622 5.3824 82.9633 3.5117 81.7586 C 2.2631 80.9545 0 81.7779 0 83.263 L 0 112.1606 C -7.2486e-8 112.9897 0.6735 113.6624 1.5025 113.6526 C 50.1088 113.0807 97.3895 87.654 123.9444 42.9622 Z"></path></g></g>
            <g id="g-2">                <g id="cu_14" >                    <path id="cu_12" transform="translate(424.5068969562484, 252.33764654742117)" fill="#e7fbf2" d="M72.9445 0.9733 C72.5387 0.2496 71.6172 -0.0007 70.8986 0.4141 L45.874 14.8621 C44.5879 15.6046 42.7432 14.0564 42.8153 12.5731 C42.9232 10.3506 42.4149 8.0722 41.2197 6.002 C37.906 0.2625 30.5669 -1.704 24.8274 1.6097 C19.0879 4.9234 17.1214 12.2625 20.4351 18.002 C21.6303 20.0722 23.3493 21.6516 25.328 22.6693 C26.6486 23.3486 27.0671 25.7203 25.781 26.4628 L0.7538 40.9123 C0.0363 41.3265 -0.2069 42.2444 0.1895 42.9718 C10.2639 61.455 9.6108 83.0282 0.195 100.359 C-0.2002 101.087 0.0439 102.003 0.7609 102.417 L25.7808 116.862 C27.0669 117.604 28.9116 116.056 28.8395 114.573 C28.7316 112.351 29.2398 110.072 30.4351 108.002 C33.7488 102.262 41.0879 100.296 46.8274 103.61 C52.5669 106.923 54.5334 114.262 51.2197 120.002 C50.0244 122.072 48.3055 123.652 46.3268 124.669 C45.0062 125.349 44.5878 127.72 45.8739 128.463 L70.8999 142.911 C71.618 143.326 72.5372 143.079 72.9433 142.356 C96.7512 99.9761 98.3714 46.3165 72.9445 0.9733 Z"></path>
                    <path id="cu_13" transform="translate(424.5068969562484, 252.33764654742117)" fill="none" stroke="#3cc583" stroke-width="2" stroke-linejoin="miter" stroke-linecap="none" stroke-miterlimit="4"  d="M 72.9445 0.9733 C 72.5387 0.2496 71.6172 -0.0007 70.8986 0.4141 L 45.874 14.8621 C 44.5879 15.6046 42.7432 14.0564 42.8153 12.5731 C 42.9232 10.3506 42.4149 8.0722 41.2197 6.002 C 37.906 0.2625 30.5669 -1.704 24.8274 1.6097 C 19.0879 4.9234 17.1214 12.2625 20.4351 18.002 C 21.6303 20.0722 23.3493 21.6516 25.328 22.6693 C 26.6486 23.3486 27.0671 25.7203 25.781 26.4628 L 0.7538 40.9123 C 0.0363 41.3265 -0.2069 42.2444 0.1895 42.9718 C 10.2639 61.455 9.6109 83.0282 0.195 100.3594 C -0.2002 101.0868 0.0439 102.0027 0.7609 102.4167 L 25.7808 116.8619 C 27.0669 117.6045 28.9116 116.0563 28.8395 114.573 C 28.7316 112.3505 29.2398 110.0722 30.4351 108.002 C 33.7488 102.2625 41.0879 100.296 46.8274 103.6097 C 52.5669 106.9234 54.5334 114.2625 51.2197 120.002 C 50.0244 122.0722 48.3055 123.6515 46.3268 124.6693 C 45.0062 125.3486 44.5878 127.7202 45.8739 128.4627 L 70.8999 142.9115 C 71.618 143.326 72.5372 143.0792 72.9433 142.3563 C 96.7512 99.9761 98.3714 46.3165 72.9445 0.9733 Z"></path></g></g>
            <g id="g-1">                <g id="cu_17" >                    <path id="cu_15" transform="translate(349.9998092651367, 180.00009155273438)" fill="#fefbdb" d="M22.3317 0 C22.1486 9.7793e-8 22.0002 0.1484 22.0002 0.3315 L22.0002 30.3993 C22.0002 31.8843 19.7371 32.7078 18.4885 31.9037 C16.6177 30.699 14.3905 30 12 30 C5.3726 30 1.5651e-5 35.3726 3.422e-11 42 C-1.565e-5 48.6274 5.3726 54 12 54 C14.3905 54 16.6177 53.301 18.4885 52.0963 C19.737 51.2922 22.0002 52.1156 22.0002 53.6007 L22.0002 82.4996 C22.0002 83.3281 22.6735 83.9977 23.5017 84.0181 C44.5458 84.535 62.9022 95.8872 73.2035 112.707 C73.6359 113.413 74.5512 113.66 75.2682 113.246 L100.288 98.8004 C101.574 98.0579 101.156 95.6863 99.8351 95.007 C97.8564 93.9893 96.1375 92.4099 94.9423 90.3397 C91.6286 84.6002 93.5951 77.2611 99.3346 73.9474 C105.074 70.6337 112.413 72.6002 115.727 78.3397 C116.922 80.4099 117.43 82.6883 117.322 84.9107 C117.25 86.3941 119.095 87.9422 120.381 87.1997 L145.407 72.7509 C146.125 72.3363 146.371 71.4167 145.948 70.7035 C120.917 28.4917 74.9371 0.1186 22.3317 0 Z"></path>
                    <path id="cu_16" transform="translate(349.9998092651367, 180.00009155273438)" fill="none" stroke="#d1bd08" stroke-width="2" stroke-linejoin="miter" stroke-linecap="none" stroke-miterlimit="4"  d="M 22.3317 0 C 22.1486 9.7793e-8 22.0002 0.1484 22.0002 0.3315 L 22.0002 30.3993 C 22.0002 31.8843 19.7371 32.7078 18.4885 31.9037 C 16.6177 30.699 14.3905 30 12 30 C 5.3726 30 0 35.3726 3.422e-11 42 C -0 48.6274 5.3726 54 12 54 C 14.3905 54 16.6177 53.301 18.4885 52.0963 C 19.737 51.2922 22.0002 52.1156 22.0002 53.6007 L 22.0002 82.4996 C 22.0002 83.3281 22.6735 83.9977 23.5017 84.0181 C 44.5458 84.535 62.9022 95.8872 73.2035 112.7071 C 73.6359 113.4131 74.5512 113.6596 75.2682 113.2457 L 100.2881 98.8004 C 101.5742 98.0579 101.1557 95.6863 99.8351 95.007 C 97.8564 93.9893 96.1375 92.4099 94.9423 90.3397 C 91.6286 84.6002 93.5951 77.2611 99.3346 73.9474 C 105.0741 70.6337 112.4132 72.6002 115.7269 78.3397 C 116.9221 80.4099 117.4304 82.6883 117.3224 84.9107 C 117.2504 86.3941 119.0951 87.9422 120.3812 87.1997 L 145.4072 72.7509 C 146.1253 72.3363 146.371 71.4167 145.9481 70.7035 C 120.9168 28.4917 74.9371 0.1186 22.3317 0 Z"></path></g></g></g>
        <path id="tx-rb-6" transform="matrix(1, -5.551115123125783e-17, 5.551115123125783e-17, 1, 132, 120)" fill="#ff00001a" d="M0 0 L168 0 L168 72 L0 72 L0 0 Z"></path>
        <path id="tx-rc-5" transform="matrix(1, -5.551115123125783e-17, 5.551115123125783e-17, 1, 48, 288)" fill="#ff00001a" d="M0 0 L168 0 L168 72 L0 72 L0 0 Z"></path>
        <path id="tx-rt-4" transform="matrix(1, -5.551115123125783e-17, 5.551115123125783e-17, 1, 132, 456)" fill="#ff00001a" d="M0 0 L168 0 L168 72 L0 72 L0 0 Z"></path>
        <path id="tx-lt-3" transform="matrix(1, -5.551115123125783e-17, 5.551115123125783e-17, 1, 444, 456)" fill="#ff00001a" d="M0 0 L168 0 L168 72 L0 72 L0 0 Z"></path>
        <path id="tx-lc-2" transform="translate(528, 288)" fill="#ff00001a" d="M0 0 L168 0 L168 72 L0 72 L0 0 Z"></path>
        <path id="tx-lb-1" transform="matrix(1, -5.551115123125783e-17, 5.551115123125783e-17, 1, 444, 120)" fill="#ff00001a" d="M0 0 L168 0 L168 72 L0 72 L0 0 Z"></path>
        <path id="tx-cb-title" transform="matrix(1, -1.6081230200044232e-16, 1.6081230200044232e-16, 1, 72, 48)" fill="#ff00001a" d="M0 0 L600 0 L600 48 L0 48 L0 0 Z"></path>
        <rect id="bt-cc-remove-6" fill="#1ac6ff33" transform="matrix(1, 1.1102230246251565e-16, -1.1102230246251565e-16, 1, 288, 188)" width="24" height="24" rx="0" ry="0"></rect>
        <rect id="bt-cc-remove-5" fill="#1ac6ff33" transform="matrix(1, 5.551115123125783e-17, -5.551115123125783e-17, 1, 216, 312)" width="24" height="24" rx="0" ry="0"></rect>
        <rect id="bt-cc-remove-4" fill="#1ac6ff33" transform="matrix(1, -5.551115123125783e-17, 5.551115123125783e-17, 1, 288, 436)" width="24" height="24" rx="0" ry="0"></rect>
        <rect id="bt-cc-remove-3" fill="#1ac6ff33" transform="matrix(1, 1.1102230246251565e-16, -1.1102230246251565e-16, 1, 432, 436)" width="24" height="24" rx="0" ry="0"></rect>
        <rect id="bt-cc-remove-2" fill="#1ac6ff33" transform="matrix(1, 5.551115123125783e-17, -5.551115123125783e-17, 1, 504, 312)" width="24" height="24" rx="0" ry="0"></rect>
        <rect id="bt-cc-remove-1" fill="#1ac6ff33" transform="matrix(1, -5.551115123125783e-17, 5.551115123125783e-17, 1, 432, 188)" width="24" height="24" rx="0" ry="0"></rect>
        <rect id="bt-cc-add-7" fill="#1ac6ff33" transform="translate(350.1967468261719, 210.4722137451172)" width="24" height="24" rx="0" ry="0"></rect>
        <path id="bt-cc-add-6" transform="translate(267.0977783203125, 269.0977783203125)" fill="#1ac6ff33" d="M0 0 L24 0 L24 24 L0 24 L0 0 Z"></path>
        <rect id="bt-cc-add-5" fill="#1ac6ff33" transform="translate(276.0977783203125, 372.0977478027344)" width="24" height="24" rx="0" ry="0"></rect>
        <rect id="bt-cc-add-4" fill="#1ac6ff33" transform="translate(369.80328369140625, 413.5278015136719)" width="24" height="24" rx="0" ry="0"></rect>
        <rect id="bt-cc-add-3" fill="#1ac6ff33" transform="translate(453.0977783203125, 355.0977783203125)" width="24" height="24" rx="0" ry="0"></rect>
        <rect id="bt-cc-add-2" fill="#1ac6ff33" transform="translate(444.0977783203125, 252.09776306152344)" width="24" height="24" rx="0" ry="0"></rect>
        <path id="ic-cc-0" transform="matrix(1, -5.551115123125783e-17, 5.551115123125783e-17, 1, 336, 287.99609375)" fill="#33de7b1a" d="M0 0 L72 0 L72 72 L0 72 L0 0 Z"></path>
        <path id="ic-cc-6" transform="matrix(1, 1.3877787807814457e-17, -1.3877787807814457e-17, 1, 293.500732421875, 223.87911987304688)" fill="#33de7b1a" d="M0 0 L36 0 L36 36 L0 36 L0 0 Z"></path>
        <path id="ic-cc-5" transform="matrix(1, 1.3877787807814457e-17, -1.3877787807814457e-17, 1, 252.63160705566406, 317.3334655761719)" fill="#33de7b1a" d="M0 0 L36 0 L36 36 L0 36 L0 0 Z"></path>
        <path id="ic-cc-4" transform="matrix(1, 1.3877787807814457e-17, -1.3877787807814457e-17, 1, 313.1308288574219, 399.4543151855469)" fill="#33de7b1a" d="M0 0 L36 0 L36 36 L0 36 L0 0 Z"></path>
        <path id="ic-cc-3" transform="matrix(1, 1.3877787807814457e-17, -1.3877787807814457e-17, 1, 414.4992370605469, 388.1209411621094)" fill="#33de7b1a" d="M0 0 L36 0 L36 36 L0 36 L0 0 Z"></path>
        <path id="ic-cc-2" transform="matrix(1, 1.3877787807814457e-17, -1.3877787807814457e-17, 1, 455.3683776855469, 294.6665954589844)" fill="#33de7b1a" d="M0 0 L36 0 L36 36 L0 36 L0 0 Z"></path>
        <path id="ic-cc-1" transform="matrix(1, 1.3877787807814457e-17, -1.3877787807814457e-17, 1, 394.869140625, 212.54562377929688)" fill="#33de7b1a" d="M0 0 L36 0 L36 36 L0 36 L0 0 Z"></path></g></svg>