<svg xmlns="http://www.w3.org/2000/svg" width="744" height="612">    <g id="sector-puzzle-v6--family--5">        <g id="lines">            <g id="g-0">                <ellipse id="cr-big" stroke="#bcbcbc" fill="#f6f6f6" stroke-width="2" stroke-linejoin="miter"  transform="translate(312.00000762939453, 264.00000762939453)" cx="60" cy="60" rx="60" ry="60"></ellipse></g>
            <g id="g-5">                <g id="cu_2" >                    <path id="cu" transform="translate(235.1601529121399, 179.9353790283203)" fill="#fef2e6" d="M135.322 84.034 C136.15 84.0133 136.823 83.3436 136.823 82.5151 L136.824 53.717 C136.824 52.2731 134.739 51.4744 133.512 52.2354 C131.666 53.3805 129.487 54.0384 127.154 54.0302 C120.527 54.0071 115.173 48.6158 115.196 41.9884 C115.219 35.361 120.611 30.0072 127.238 30.0303 C129.541 30.0384 131.69 30.6945 133.513 31.8254 C134.74 32.5865 136.825 31.788 136.825 30.3441 L136.826 1.4922 C136.826 0.6639 136.152 -0.0085 135.324 8.0351e-5 C75.3726 0.6179 19.7934 38.9299 0.0252 99.0552 C-0.0615 99.319 0.083 99.6026 0.3471 99.6884 L28.704 108.902 C30.0813 109.35 30.1932 111.597 29.0849 112.529 C27.4369 113.915 26.1417 115.762 25.4196 117.958 C23.3497 124.254 26.7754 131.036 33.0713 133.106 C39.3671 135.176 46.149 131.75 48.219 125.454 C48.9504 123.23 48.9956 120.944 48.4706 118.828 C48.122 117.422 49.5333 115.67 50.9107 116.118 L78.3313 125.027 C79.1192 125.283 79.9645 124.849 80.2398 124.067 C88.7104 100.024 111.075 84.6399 135.322 84.034 Z"></path>
                    <path id="cu_1" transform="translate(235.1601529121399, 179.9353790283203)" fill="none" stroke="#db8333" stroke-width="2" stroke-linejoin="miter" stroke-linecap="none" stroke-miterlimit="4"  d="M 135.3219 84.034 C 136.1502 84.0133 136.8233 83.3436 136.8233 82.5151 L 136.8242 53.717 C 136.8243 52.2731 134.7392 51.4744 133.5122 52.2354 C 131.666 53.3805 129.4866 54.0384 127.1541 54.0302 C 120.5267 54.0071 115.1729 48.6158 115.1961 41.9884 C 115.2192 35.361 120.6105 30.0072 127.2379 30.0303 C 129.5406 30.0384 131.6896 30.6945 133.5127 31.8254 C 134.7397 32.5865 136.8249 31.788 136.825 30.3441 L 136.8259 1.4922 C 136.8259 0.6639 136.1521 -0.0085 135.3239 0.0001 C 75.3726 0.6179 19.7934 38.9299 0.0252 99.0552 C -0.0615 99.319 0.083 99.6026 0.3471 99.6884 L 28.704 108.9021 C 30.0813 109.3497 30.1932 111.5969 29.0849 112.5291 C 27.4369 113.9154 26.1417 115.7622 25.4196 117.9582 C 23.3497 124.254 26.7754 131.0359 33.0713 133.1059 C 39.3672 135.1758 46.149 131.7501 48.219 125.4542 C 48.9504 123.2297 48.9956 120.9445 48.4706 118.8279 C 48.122 117.4223 49.5333 115.67 50.9107 116.1175 L 78.3313 125.0271 C 79.1192 125.2831 79.9645 124.8485 80.2398 124.0672 C 88.7105 100.0242 111.0747 84.6399 135.3219 84.034 Z"></path></g></g>
            <g id="g-4">                <g id="cu_5" >                    <path id="cu_3" transform="translate(227.95281986981354, 279.88230895931883)" fill="#e8f9ff" d="M86.4855 27.0108 C86.7218 26.2166 86.2929 25.3695 85.5049 25.1135 L58.1166 16.2135 C56.7434 15.7673 55.3394 17.5035 55.684 18.9057 C56.2026 21.0153 56.1548 23.2914 55.4263 25.5072 C53.3563 31.8031 46.5744 35.2289 40.2786 33.1589 C33.9827 31.0889 30.557 24.3071 32.6269 18.0112 C33.3462 15.8236 34.6343 13.9825 36.2732 12.5981 C37.3763 11.6664 37.2611 9.4364 35.8879 8.9902 L8.4484 0.0736 C7.6606 -0.1824 6.813 0.2507 6.5651 1.041 C-11.3733 58.249 7.8887 122.947 58.9626 160.327 C59.1866 160.491 59.501 160.442 59.6642 160.217 L77.1898 136.095 C78.041 134.923 80.2128 135.512 80.757 136.854 C81.5661 138.849 82.9223 140.652 84.7877 142.017 C90.1357 145.931 97.6443 144.769 101.558 139.421 C105.473 134.073 104.31 126.564 98.9622 122.65 C97.0726 121.267 94.9132 120.518 92.738 120.363 C91.2934 120.26 90.063 118.377 90.9143 117.205 L107.861 93.8796 C108.348 93.2094 108.196 92.2712 107.538 91.7679 C87.2894 76.2822 79.569 50.2585 86.4855 27.0108 Z"></path>
                    <path id="cu_4" transform="translate(227.95281986981354, 279.88230895931883)" fill="none" stroke="#17aee1" stroke-width="2" stroke-linejoin="miter" stroke-linecap="none" stroke-miterlimit="4"  d="M 86.4855 27.0108 C 86.7218 26.2166 86.2929 25.3695 85.5049 25.1135 L 58.1166 16.2135 C 56.7434 15.7673 55.3394 17.5035 55.684 18.9057 C 56.2026 21.0153 56.1548 23.2914 55.4263 25.5072 C 53.3563 31.8031 46.5744 35.2289 40.2786 33.1589 C 33.9827 31.0889 30.557 24.3071 32.6269 18.0112 C 33.3462 15.8236 34.6343 13.9825 36.2732 12.5981 C 37.3763 11.6664 37.2611 9.4364 35.8879 8.9902 L 8.4484 0.0736 C 7.6606 -0.1824 6.813 0.2507 6.5651 1.041 C -11.3733 58.249 7.8887 122.947 58.9626 160.3274 C 59.1866 160.4914 59.501 160.4416 59.6642 160.217 L 77.1898 136.0951 C 78.041 134.9235 80.2128 135.5115 80.757 136.8537 C 81.5661 138.8493 82.9223 140.6519 84.7877 142.0172 C 90.1357 145.9314 97.6443 144.769 101.5585 139.4209 C 105.4727 134.0729 104.3103 126.5643 98.9622 122.6502 C 97.0726 121.2671 94.9132 120.5179 92.738 120.3632 C 91.2934 120.2604 90.063 118.3766 90.9143 117.205 L 107.8612 93.8796 C 108.3481 93.2094 108.1961 92.2712 107.538 91.7679 C 87.2894 76.2822 79.569 50.2585 86.4855 27.0108 Z"></path></g></g>
            <g id="g-3">                <g id="cu_8" >                    <path id="cu_6" transform="translate(287.92340087890625, 373.172119140625)" fill="#ffedeb" d="M50.0193 0.2858 C49.3371 -0.1843 48.3989 -0.0382 47.9119 0.6321 L30.984 23.9298 C30.1353 25.0979 31.3527 26.9697 32.7927 27.0752 C34.9594 27.234 37.1093 27.9828 38.9916 29.3604 C44.3397 33.2746 45.502 40.7831 41.5878 46.1312 C37.6737 51.4793 30.1651 52.6416 24.8171 48.7274 C22.9588 47.3674 21.6059 45.5734 20.7957 43.5869 C20.2504 42.2499 18.094 41.6702 17.2452 42.8384 L0.2858 66.1795 C-0.2011 66.8496 -0.0512 67.7896 0.6239 68.2695 C49.4886 103.008 116.972 104.682 168.306 67.6588 C168.531 67.4964 168.581 67.182 168.418 66.9574 L150.892 42.8355 C150.041 41.6639 151.271 39.7801 152.716 39.6773 C154.864 39.5245 156.997 38.7917 158.872 37.4395 C164.248 33.5627 165.462 26.0625 161.586 20.6872 C157.709 15.312 150.209 14.0972 144.833 17.974 C142.934 19.3438 141.554 21.1659 140.735 23.1869 C140.191 24.529 138.019 25.117 137.168 23.9453 L120.221 0.62 C119.734 -0.0502 118.795 -0.1956 118.113 0.2748 C97.1276 14.747 69.9919 14.0478 50.0193 0.2858 Z"></path>
                    <path id="cu_7" transform="translate(287.92340087890625, 373.172119140625)" fill="none" stroke="#df5e59" stroke-width="2" stroke-linejoin="miter" stroke-linecap="none" stroke-miterlimit="4"  d="M 50.0193 0.2858 C 49.3371 -0.1843 48.3989 -0.0382 47.9119 0.6321 L 30.984 23.9298 C 30.1353 25.0979 31.3527 26.9697 32.7927 27.0752 C 34.9594 27.234 37.1093 27.9828 38.9916 29.3604 C 44.3397 33.2746 45.502 40.7831 41.5878 46.1312 C 37.6737 51.4793 30.1651 52.6416 24.8171 48.7274 C 22.9588 47.3674 21.6059 45.5734 20.7957 43.5869 C 20.2504 42.2499 18.094 41.6702 17.2452 42.8384 L 0.2858 66.1795 C -0.2011 66.8496 -0.0512 67.7896 0.6239 68.2695 C 49.4886 103.0082 116.9724 104.6817 168.306 67.6588 C 168.5311 67.4964 168.5809 67.182 168.4177 66.9574 L 150.8922 42.8355 C 150.0409 41.6639 151.2713 39.7801 152.7159 39.6773 C 154.864 39.5245 156.9974 38.7917 158.8723 37.4395 C 164.2476 33.5627 165.4623 26.0625 161.5856 20.6872 C 157.7088 15.312 150.2086 14.0972 144.8333 17.974 C 142.9341 19.3437 141.5542 21.1659 140.7348 23.1869 C 140.1907 24.529 138.0189 25.117 137.1677 23.9453 L 120.2209 0.62 C 119.7339 -0.0502 118.7946 -0.1956 118.1126 0.2748 C 97.1276 14.747 69.9919 14.0478 50.0193 0.2858 Z"></path></g></g>
            <g id="g-2">                <g id="cu_11" >                    <path id="cu_9" transform="translate(407.9045715343491, 271.29463198160374)" fill="#e7fbf2" d="M0.6085 100.379 C-0.0495 100.883 -0.2004 101.82 0.2866 102.49 L17.2129 125.789 C18.0616 126.957 20.218 126.378 20.7633 125.041 C21.5838 123.029 22.9603 121.216 24.8522 119.852 C30.2274 115.975 37.7277 117.19 41.6044 122.565 C45.4812 127.94 44.2664 135.44 38.8911 139.317 C37.0234 140.664 34.8992 141.397 32.7595 141.553 C31.3195 141.659 30.1019 143.53 30.9506 144.699 L47.9086 168.041 C48.3954 168.711 49.3357 168.859 50.0008 168.365 C98.1392 132.627 120.585 68.963 101.237 8.7012 C101.152 8.4369 100.868 8.2924 100.604 8.3782 L72.2471 17.5919 C70.8697 18.0394 69.4584 16.2871 69.807 14.8815 C70.3254 12.7913 70.2878 10.5359 69.5811 8.3349 C67.5552 2.0247 60.7974 -1.4483 54.4872 0.5777 C48.1771 2.6037 44.704 9.3614 46.73 15.6716 C47.4459 17.9012 48.7524 19.7765 50.4213 21.1803 C51.5296 22.1126 51.4177 24.3597 50.0403 24.8073 L22.6197 33.7167 C21.8318 33.9727 21.4034 34.8211 21.6399 35.6151 C28.9191 60.0452 19.8687 85.6367 0.6085 100.379 Z"></path>
                    <path id="cu_10" transform="translate(407.9045715343491, 271.29463198160374)" fill="none" stroke="#3cc583" stroke-width="2" stroke-linejoin="miter" stroke-linecap="none" stroke-miterlimit="4"  d="M 0.6085 100.3791 C -0.0495 100.8827 -0.2004 101.8201 0.2866 102.4904 L 17.2129 125.7891 C 18.0616 126.9572 20.218 126.3778 20.7633 125.0409 C 21.5838 123.0294 22.9603 121.2161 24.8522 119.8516 C 30.2274 115.9749 37.7277 117.1897 41.6044 122.5649 C 45.4812 127.9402 44.2664 135.4404 38.8911 139.3172 C 37.0234 140.6642 34.8992 141.3965 32.7595 141.5532 C 31.3195 141.6587 30.1019 143.5304 30.9506 144.6985 L 47.9086 168.0408 C 48.3954 168.7109 49.3357 168.8588 50.0008 168.3651 C 98.1392 132.6268 120.5845 68.963 101.2365 8.7012 C 101.1517 8.4369 100.868 8.2924 100.604 8.3782 L 72.2471 17.5919 C 70.8697 18.0394 69.4584 16.2871 69.807 14.8815 C 70.3254 12.7913 70.2878 10.5359 69.5811 8.3349 C 67.5552 2.0247 60.7974 -1.4483 54.4872 0.5777 C 48.1771 2.6036 44.704 9.3614 46.73 15.6716 C 47.4459 17.9012 48.7524 19.7765 50.4213 21.1803 C 51.5296 22.1126 51.4177 24.3597 50.0403 24.8073 L 22.6197 33.7167 C 21.8318 33.9727 21.4034 34.8211 21.6399 35.6151 C 28.9191 60.0452 19.8687 85.6367 0.6085 100.3791 Z"></path></g></g>
            <g id="g-1">                <g id="cu_14" >                    <path id="cu_12" transform="translate(350.3561019897552, 179.97298431396484)" fill="#fefbdb" d="M78.2674 124.033 C78.5431 124.814 79.388 125.248 80.176 124.992 L107.565 116.093 C108.938 115.647 109.053 113.417 107.95 112.486 C106.291 111.084 104.992 109.214 104.279 106.993 C102.253 100.683 105.726 93.9253 112.036 91.8993 C118.346 89.8734 125.104 93.3464 127.13 99.6566 C127.834 101.849 127.874 104.096 127.361 106.179 C127.017 107.581 128.421 109.318 129.794 108.871 L157.234 99.9566 C158.022 99.7006 158.453 98.8521 158.189 98.067 C139.076 41.2408 85.4637 0.2209 22.1724 3.1413e-6 C21.8948 -0.001 21.6697 0.2242 21.6697 0.5018 L21.6697 30.318 C21.6697 31.7663 19.567 32.5671 18.3379 31.8011 C16.5103 30.6622 14.3535 30.001 12.0419 29.9929 C5.4145 29.9698 0.0232 35.3236 7.4691e-5 41.9509 C-0.0231 48.5783 5.3307 53.9696 11.9581 53.9928 C14.2998 54.0009 16.4872 53.3378 18.3379 52.1844 C19.567 51.4185 21.6697 52.2193 21.6697 53.6675 L21.6696 82.4993 C21.6696 83.3277 22.3441 83.9974 23.1723 84.0177 C48.6561 84.6441 70.1984 101.16 78.2674 124.033 Z"></path>
                    <path id="cu_13" transform="translate(350.3561019897552, 179.97298431396484)" fill="none" stroke="#d1bd08" stroke-width="2" stroke-linejoin="miter" stroke-linecap="none" stroke-miterlimit="4"  d="M 78.2674 124.033 C 78.5431 124.8144 79.388 125.2476 80.176 124.9916 L 107.5648 116.0934 C 108.938 115.6472 109.0533 113.4173 107.9503 112.4855 C 106.2908 111.0836 104.9916 109.2141 104.2786 106.9932 C 102.2526 100.6831 105.7256 93.9253 112.0358 91.8993 C 118.3459 89.8734 125.1037 93.3464 127.1297 99.6566 C 127.8336 101.8491 127.8737 104.0957 127.3615 106.1791 C 127.0168 107.5812 128.4206 109.3176 129.7939 108.8715 L 157.2341 99.9566 C 158.0219 99.7006 158.4531 98.8521 158.189 98.067 C 139.0755 41.2408 85.4637 0.2209 22.1724 0 C 21.8948 -0.001 21.6697 0.2242 21.6697 0.5018 L 21.6697 30.318 C 21.6697 31.7663 19.567 32.5671 18.3379 31.8011 C 16.5103 30.6622 14.3535 30.001 12.0419 29.9929 C 5.4145 29.9698 0.0232 35.3236 0.0001 41.9509 C -0.0231 48.5783 5.3307 53.9696 11.9581 53.9928 C 14.2998 54.0009 16.4872 53.3378 18.3379 52.1844 C 19.567 51.4185 21.6697 52.2193 21.6697 53.6675 L 21.6696 82.4993 C 21.6696 83.3277 22.3441 83.9974 23.1723 84.0177 C 48.6561 84.6441 70.1984 101.1598 78.2674 124.033 Z"></path></g></g></g>
        <path id="tx-cb-title" transform="matrix(1, -1.6081230200044232e-16, 1.6081230200044232e-16, 1, 72, 48)" fill="#ff00001a" d="M0 0 L600 0 L600 48 L0 48 L0 0 Z"></path>
        <path id="ic-cc-0" transform="matrix(1, -5.551115123125783e-17, 5.551115123125783e-17, 1, 336, 287.99609375)" fill="#33de7b1a" d="M0 0 L72 0 L72 72 L0 72 L0 0 Z"></path>
        <rect id="bt-cc-add-6" fill="#1ac6ff33" transform="matrix(0.9953447580337524, -0.09637821465730667, 0.09637821465730667, 0.9953447580337524, 349.0687561035156, 211.68724060058594)" width="24" height="24" rx="0" ry="0"></rect>
        <rect id="bt-cc-add-5" fill="#1ac6ff33" transform="matrix(0.9953447580337524, -0.09637821465730667, 0.09637821465730667, 0.9953447580337524, 259.3052978515625, 291.1888427734375)" width="24" height="24" rx="0" ry="0"></rect>
        <rect id="bt-cc-add-4" fill="#1ac6ff33" transform="matrix(0.9953447580337524, -0.09637821465730667, 0.09637821465730667, 0.9953447580337524, 307.17742919921875, 401.1263122558594)" width="24" height="24" rx="0" ry="0"></rect>
        <rect id="bt-cc-add-3" fill="#1ac6ff33" transform="matrix(0.9953447580337524, -0.09637821465730667, 0.09637821465730667, 0.9953447580337524, 426.5274353027344, 389.56976318359375)" width="24" height="24" rx="0" ry="0"></rect>
        <rect id="bt-cc-add-2" fill="#1ac6ff33" transform="matrix(0.9953447580337524, -0.09637821465730667, 0.09637821465730667, 0.9953447580337524, 452.41766357421875, 272.49005126953125)" width="24" height="24" rx="0" ry="0"></rect>
        <path id="ic-cc-5" transform="matrix(0.9999999403953552, 1.3877787807814457e-17, -1.3877787807814457e-17, 0.9999999403953552, 280.80694580078125, 223.2596435546875)" fill="#33de7b1a" d="M0 0 L48 0 L48 48 L0 48 L0 0 Z"></path>
        <path id="ic-cc-4" transform="matrix(0.9999999403953552, 1.3877787807814457e-17, -1.3877787807814457e-17, 0.9999999403953552, 254.2518310546875, 340.1904296875)" fill="#33de7b1a" d="M0 0 L48 0 L48 48 L0 48 L0 0 Z"></path>
        <path id="ic-cc-3" transform="matrix(0.9999999403953552, 1.3877787807814457e-17, -1.3877787807814457e-17, 0.9999999403953552, 357.2535400390625, 401.579345703125)" fill="#33de7b1a" d="M0 0 L48 0 L48 48 L0 48 L0 0 Z"></path>
        <path id="ic-cc-2" transform="matrix(0.9999999403953552, 1.3877787807814457e-17, -1.3877787807814457e-17, 0.9999999403953552, 447.46728515625, 322.5889892578125)" fill="#33de7b1a" d="M0 0 L48 0 L48 48 L0 48 L0 0 Z"></path>
        <path id="ic-cc-1" transform="matrix(0.9999999403953552, 1.3877787807814457e-17, -1.3877787807814457e-17, 0.9999999403953552, 400.2205810546875, 212.3814697265625)" fill="#33de7b1a" d="M0 0 L48 0 L48 48 L0 48 L0 0 Z"></path>
        <rect id="bt-cc-remove-5" fill="#1ac6ff33" transform="matrix(1, 1.1102230246251565e-16, -1.1102230246251565e-16, 1, 275.3590087890625, 195.5015869140625)" width="24" height="24" rx="0" ry="0"></rect>
        <rect id="bt-cc-remove-4" fill="#1ac6ff33" transform="translate(223.0478515625, 356.4984130859375)" width="24" height="24" rx="0" ry="0"></rect>
        <rect id="bt-cc-remove-3" fill="#1ac6ff33" transform="matrix(1, 1.2246468525851679e-16, -1.2246468525851679e-16, 1, 359.99993896484375, 456.00006103515625)" width="24" height="24" rx="0" ry="0"></rect>
        <rect id="bt-cc-remove-2" fill="#1ac6ff33" transform="translate(496.9521789550781, 356.49853515625)" width="24" height="24" rx="0" ry="0"></rect>
        <rect id="bt-cc-remove-1" fill="#1ac6ff33" transform="matrix(1, -5.551115123125783e-17, 5.551115123125783e-17, 1, 444.64111328125, 195.5015869140625)" width="24" height="24" rx="0" ry="0"></rect>
        <path id="tx-rb-5" transform="matrix(1, -5.551115123125783e-17, 5.551115123125783e-17, 1, 108, 120)" fill="#ff00001a" d="M0 0 L168 0 L168 72 L0 72 L0 0 Z"></path>
        <path id="tx-rc-4" transform="matrix(1, -5.551115123125783e-17, 5.551115123125783e-17, 1, 36, 324)" fill="#ff00001a" d="M0 0 L168 0 L168 72 L0 72 L0 0 Z"></path>
        <path id="tx-ct-3" transform="matrix(1, -5.551115123125783e-17, 5.551115123125783e-17, 1, 288, 492)" fill="#ff00001a" d="M0 0 L168 0 L168 72 L0 72 L0 0 Z"></path>
        <path id="tx-lc-2" transform="translate(540, 324)" fill="#ff00001a" d="M0 0 L168 0 L168 72 L0 72 L0 0 Z"></path>
        <path id="tx-lb-1" transform="matrix(1, -5.551115123125783e-17, 5.551115123125783e-17, 1, 468, 120)" fill="#ff00001a" d="M0 0 L168 0 L168 72 L0 72 L0 0 Z"></path></g></svg>