<svg xmlns="http://www.w3.org/2000/svg" width="744" height="612">    <g id="sector-puzzle-v6--family--7">        <g id="lines">            <g id="g-0">                <ellipse id="cr-big" stroke="#bcbcbc" fill="#f6f6f6" stroke-width="2" stroke-linejoin="miter"  transform="translate(312, 263.99998474121094)" cx="60" cy="60" rx="60" ry="60"></ellipse></g>
            <g id="g-7">                <g id="cu_2" >                    <path id="cu" transform="translate(260.09667971573504, 179.97529602050054)" fill="#feecf7" d="M63.8644 105.627 C64.5116 106.144 65.4535 106.037 65.9864 105.403 C76.6933 92.6709 92.5958 84.4529 110.428 84.0152 C111.256 83.9949 111.929 83.3252 111.929 82.4968 L111.929 53.6651 C111.929 52.2169 109.826 51.4161 108.597 52.1821 C106.746 53.3354 104.559 53.9985 102.217 53.9903 C95.5901 53.9672 90.2363 48.5759 90.2594 41.9485 C90.2826 35.3211 95.6739 29.9673 102.301 29.9905 C104.613 29.9985 106.77 30.6597 108.597 31.7986 C109.826 32.5646 111.929 31.7638 111.929 30.3155 L111.929 1.4923 C111.929 0.6635 111.256 -0.009 110.428 9.1809e-5 C69.1434 0.4547 28.3883 18.5725 0.3337 52.988 C-0.1897 53.6301 -0.0853 54.577 0.5621 55.0939 L23.1498 73.1254 C24.3139 74.0546 23.5351 76.3555 22.1229 76.8291 C20.008 77.5383 18.0662 78.8447 16.5711 80.7176 C12.4364 85.8971 13.2833 93.4477 18.4628 97.5824 C23.6423 101.717 31.1929 100.87 35.3276 95.6907 C36.8227 93.8178 37.6665 91.6348 37.8895 89.4154 C38.0385 87.9334 40.1096 86.6641 41.2736 87.5934 L63.8644 105.627 Z"></path>
                    <path id="cu_1" transform="translate(260.09667971573504, 179.97529602050054)" fill="none" stroke="#d95da7" stroke-width="2" stroke-linejoin="miter" stroke-linecap="none" stroke-miterlimit="4"  d="M 63.8644 105.6274 C 64.5116 106.144 65.4535 106.0371 65.9864 105.4034 C 76.6933 92.6709 92.5958 84.4529 110.4282 84.0152 C 111.2564 83.9949 111.9289 83.3252 111.9289 82.4968 L 111.9289 53.6651 C 111.9289 52.2169 109.8263 51.4161 108.5972 52.1821 C 106.7465 53.3354 104.5591 53.9985 102.2175 53.9903 C 95.5901 53.9672 90.2363 48.5759 90.2594 41.9485 C 90.2826 35.3211 95.6739 29.9673 102.3013 29.9905 C 104.6129 29.9985 106.7695 30.6597 108.5972 31.7986 C 109.8263 32.5646 111.9289 31.7638 111.9289 30.3155 L 111.9289 1.4923 C 111.9289 0.6635 111.2564 -0.009 110.4277 0.0001 C 69.1434 0.4547 28.3883 18.5725 0.3337 52.988 C -0.1897 53.6301 -0.0853 54.577 0.5621 55.0939 L 23.1498 73.1254 C 24.3139 74.0546 23.5351 76.3555 22.1229 76.8291 C 20.008 77.5383 18.0662 78.8447 16.5711 80.7176 C 12.4364 85.8971 13.2833 93.4477 18.4628 97.5824 C 23.6423 101.7171 31.1929 100.8702 35.3276 95.6907 C 36.8227 93.8178 37.6665 91.6348 37.8895 89.4154 C 38.0385 87.9334 40.1096 86.6641 41.2736 87.5934 L 63.8644 105.6274 Z"></path></g></g>
            <g id="g-6">                <g id="cu_5" >                    <path id="cu_3" transform="translate(227.99414035547625, 234.73895261605867)" fill="#f2fae1" d="M95.9656 50.8625 C96.6133 51.3796 96.7173 52.3228 96.2161 52.9829 C88.5696 63.0533 84.0315 75.6133 84.0315 89.2332 C84.0315 93.2828 84.4327 97.2387 85.1974 101.063 C85.3598 101.875 84.8557 102.678 84.0483 102.861 L55.845 109.269 C54.3944 109.598 54.0936 111.999 55.157 113.04 C56.7497 114.598 57.9274 116.618 58.4578 118.952 C59.9261 125.415 55.8773 131.844 49.4146 133.312 C42.9518 134.781 36.5225 130.732 35.0542 124.269 C34.5238 121.935 34.7133 119.605 35.4764 117.511 C35.9858 116.113 34.677 114.078 33.2264 114.407 L5.0727 120.804 C4.2649 120.987 3.4597 120.478 3.2844 119.669 C-6.1093 76.2721 5.1576 33.1179 30.5587 0.5697 C31.0686 -0.0836 32.0137 -0.1896 32.6614 0.3275 L55.2524 18.3616 C56.4165 19.2909 55.6376 21.5918 54.2254 22.0654 C52.1106 22.7746 50.1688 24.081 48.6736 25.9539 C44.5389 31.1334 45.3858 38.684 50.5653 42.8187 C55.7448 46.9534 63.2954 46.1065 67.4301 40.927 C68.9252 39.0541 69.769 36.8711 69.992 34.6517 C70.141 33.1697 72.2121 31.9004 73.3762 32.8297 L95.9656 50.8625 Z"></path>
                    <path id="cu_4" transform="translate(227.99414035547625, 234.73895261605867)" fill="none" stroke="#93c332" stroke-width="2" stroke-linejoin="miter" stroke-linecap="none" stroke-miterlimit="4"  d="M 95.9656 50.8625 C 96.6133 51.3796 96.7173 52.3228 96.2161 52.9829 C 88.5696 63.0533 84.0315 75.6133 84.0315 89.2332 C 84.0315 93.2828 84.4327 97.2387 85.1974 101.0633 C 85.3598 101.8751 84.8557 102.6775 84.0483 102.8609 L 55.845 109.2686 C 54.3944 109.5982 54.0936 111.9995 55.157 113.0398 C 56.7497 114.598 57.9274 116.6175 58.4578 118.952 C 59.9261 125.4147 55.8773 131.8441 49.4146 133.3124 C 42.9518 134.7807 36.5225 130.7319 35.0542 124.2692 C 34.5238 121.9347 34.7133 119.6046 35.4764 117.5111 C 35.9858 116.1134 34.677 114.0778 33.2264 114.4074 L 5.0727 120.8038 C 4.2649 120.9873 3.4597 120.4782 3.2844 119.6685 C -6.1093 76.2721 5.1576 33.1179 30.5587 0.5697 C 31.0686 -0.0836 32.0137 -0.1896 32.6614 0.3275 L 55.2524 18.3616 C 56.4165 19.2909 55.6376 21.5918 54.2254 22.0654 C 52.1106 22.7746 50.1688 24.081 48.6736 25.9539 C 44.5389 31.1334 45.3858 38.684 50.5653 42.8187 C 55.7448 46.9534 63.2954 46.1065 67.4301 40.927 C 68.9252 39.0541 69.769 36.8711 69.992 34.6517 C 70.141 33.1697 72.2121 31.9004 73.3762 32.8297 L 95.9656 50.8625 Z"></path></g></g>
            <g id="g-5">                <g id="cu_8" >                    <path id="cu_6" transform="translate(231.89916992314352, 337.5628204305576)" fill="#fef2e6" d="M94.4772 88.8923 C93.7032 87.6264 91.3131 87.3845 90.6673 88.7204 L78.1061 114.705 C77.7455 115.451 76.8453 115.762 76.1032 115.394 C36.3274 95.6612 9.6307 59.9329 0.0408 19.7753 C-0.1517 18.9691 0.3552 18.1644 1.1634 17.9808 L29.3215 11.5834 C30.7721 11.2538 32.081 13.2895 31.5715 14.6872 C30.8084 16.7807 30.6189 19.1108 31.1493 21.4453 C32.6176 27.908 39.047 31.9568 45.5097 30.4885 C51.9724 29.0202 56.0212 22.5908 54.5529 16.1281 C54.0225 13.7936 52.8448 11.7741 51.252 10.2159 C50.1887 9.1755 50.4895 6.7742 51.9401 6.4446 L80.1407 0.0376 C80.9491 -0.1461 81.7514 0.3617 81.9546 1.1654 C86.2099 17.9925 97.5745 31.9884 112.666 39.7704 C113.402 40.1499 113.715 41.0447 113.354 41.7902 L100.767 67.8285 C100.121 69.1644 101.795 70.8873 103.268 70.7076 C105.475 70.4383 107.783 70.7786 109.933 71.8182 C115.9 74.7027 118.399 81.8781 115.514 87.8448 C112.63 93.8116 105.454 96.3103 99.4877 93.4259 C97.3372 92.3863 95.6371 90.7893 94.4772 88.8923 Z"></path>
                    <path id="cu_7" transform="translate(231.89916992314352, 337.5628204305576)" fill="none" stroke="#db8333" stroke-width="2" stroke-linejoin="miter" stroke-linecap="none" stroke-miterlimit="4"  d="M 94.4772 88.8923 C 93.7032 87.6264 91.3131 87.3845 90.6673 88.7204 L 78.1061 114.7047 C 77.7455 115.4505 76.8453 115.7621 76.1032 115.394 C 36.3274 95.6612 9.6307 59.9329 0.0408 19.7753 C -0.1517 18.9691 0.3552 18.1644 1.1634 17.9808 L 29.3215 11.5834 C 30.7721 11.2538 32.081 13.2895 31.5715 14.6872 C 30.8084 16.7807 30.6189 19.1108 31.1493 21.4453 C 32.6176 27.908 39.047 31.9568 45.5097 30.4885 C 51.9724 29.0202 56.0212 22.5908 54.5529 16.1281 C 54.0225 13.7936 52.8448 11.7741 51.252 10.2159 C 50.1887 9.1755 50.4895 6.7742 51.9401 6.4446 L 80.1407 0.0376 C 80.9491 -0.1461 81.7514 0.3617 81.9546 1.1654 C 86.2099 17.9925 97.5745 31.9884 112.6657 39.7704 C 113.4017 40.1499 113.7146 41.0447 113.3542 41.7902 L 100.7668 67.8285 C 100.121 69.1644 101.7952 70.8873 103.2681 70.7076 C 105.4752 70.4383 107.7827 70.7786 109.9333 71.8182 C 115.9 74.7027 118.3988 81.8781 115.5143 87.8448 C 112.6298 93.8116 105.4545 96.3103 99.4877 93.4259 C 97.3372 92.3863 95.6371 90.7893 94.4772 88.8923 Z"></path></g></g>
            <g id="g-4">                <g id="cu_11" >                    <path id="cu_9" transform="translate(309.8535156391631, 378.5018920960865)" fill="#e8f9ff" d="M113.765 45.0751 C112.295 44.892 110.626 46.6015 111.266 47.9371 L123.744 73.9813 C124.102 74.7284 123.784 75.6263 123.034 75.9766 C82.7968 94.7514 38.2188 93.3252 0.8519 75.7663 C0.1018 75.4138 -0.2109 74.5157 0.1498 73.7695 L12.713 47.7814 C13.3587 46.4455 15.7488 46.6873 16.5228 47.9532 C17.6827 49.8501 19.3827 51.4471 21.5333 52.4868 C27.5001 55.3712 34.6754 52.8725 37.5599 46.9057 C40.4443 40.9389 37.9456 33.7636 31.9788 30.8791 C29.8283 29.8395 27.5208 29.4992 25.3137 29.7685 C23.8408 29.9482 22.1667 28.2253 22.8125 26.8894 L35.3989 0.8531 C35.7597 0.1069 36.6565 -0.2035 37.4113 0.1389 C44.9599 3.5633 53.3433 5.4702 62.1721 5.4702 C70.9266 5.4702 79.2431 3.5953 86.7421 0.2251 C87.4981 -0.1147 88.3938 0.1988 88.7519 0.9463 L101.236 27.0026 C101.876 28.3382 104.254 28.1085 105.032 26.8485 C106.199 24.9599 107.902 23.3726 110.052 22.3423 C116.029 19.4787 123.196 22.0024 126.059 27.9792 C128.923 33.9561 126.399 41.1226 120.423 43.9863 C118.272 45.0166 115.968 45.3495 113.765 45.0751 Z"></path>
                    <path id="cu_10" transform="translate(309.8535156391631, 378.5018920960865)" fill="none" stroke="#17aee1" stroke-width="2" stroke-linejoin="miter" stroke-linecap="none" stroke-miterlimit="4"  d="M 113.765 45.0751 C 112.2954 44.892 110.6263 46.6015 111.2662 47.9371 L 123.7445 73.9813 C 124.1024 74.7284 123.7843 75.6263 123.0336 75.9766 C 82.7968 94.7514 38.2188 93.3252 0.8519 75.7663 C 0.1018 75.4138 -0.2109 74.5157 0.1498 73.7695 L 12.713 47.7814 C 13.3587 46.4455 15.7488 46.6873 16.5228 47.9532 C 17.6827 49.8501 19.3827 51.4471 21.5333 52.4868 C 27.5001 55.3712 34.6754 52.8725 37.5599 46.9057 C 40.4443 40.9389 37.9456 33.7636 31.9788 30.8791 C 29.8283 29.8395 27.5208 29.4992 25.3137 29.7685 C 23.8408 29.9482 22.1667 28.2253 22.8125 26.8894 L 35.3989 0.8531 C 35.7597 0.1069 36.6565 -0.2035 37.4113 0.1389 C 44.9599 3.5633 53.3433 5.4702 62.1721 5.4702 C 70.9266 5.4702 79.2431 3.5953 86.7421 0.2251 C 87.4981 -0.1147 88.3938 0.1988 88.7519 0.9463 L 101.236 27.0026 C 101.8759 28.3382 104.2541 28.1085 105.0323 26.8485 C 106.1986 24.9599 107.902 23.3726 110.0525 22.3423 C 116.0293 19.4787 123.1959 22.0024 126.0595 27.9792 C 128.9231 33.9561 126.3994 41.1226 120.4225 43.9863 C 118.2721 45.0166 115.9676 45.3495 113.765 45.0751 Z"></path></g></g>
            <g id="g-3">                <g id="cu_14" >                    <path id="cu_12" transform="translate(398.4570312619164, 325.1986694095467)" fill="#ffedeb" d="M61.6274 19.1033 C63.0707 19.4365 64.3754 17.4334 63.8759 16.039 C63.1273 13.949 62.9493 11.627 63.4858 9.3033 C64.9767 2.8457 71.4201 -1.1806 77.8777 0.3102 C84.3352 1.8011 88.3615 8.2445 86.8707 14.7021 C86.3342 17.0259 85.1564 19.0348 83.5674 20.5851 C82.5071 21.6195 82.8017 23.9917 84.245 24.3249 L112.417 30.8288 C113.224 31.0152 113.727 31.824 113.532 32.6292 C103.102 75.7883 74.1765 109.737 37.1415 127.986 C36.398 128.352 35.501 128.036 35.1429 127.288 L22.6627 101.24 C22.0228 99.9047 23.692 98.1952 25.1616 98.3783 C27.3642 98.6527 29.6686 98.3198 31.8191 97.2895 C37.7959 94.4259 40.3197 87.2593 37.456 81.2825 C34.5924 75.3057 27.4258 72.7819 21.449 75.6455 C19.2986 76.6758 17.5952 78.2632 16.4288 80.1517 C15.6507 81.4118 13.2725 81.6414 12.6326 80.3059 L0.1476 54.2477 C-0.2102 53.5009 0.1059 52.6072 0.8432 52.2303 C15.9663 44.4988 27.3761 30.5383 31.6889 13.7325 C31.895 12.9296 32.699 12.4246 33.5067 12.6111 L61.6274 19.1033 Z"></path>
                    <path id="cu_13" transform="translate(398.4570312619164, 325.1986694095467)" fill="none" stroke="#df5e59" stroke-width="2" stroke-linejoin="miter" stroke-linecap="none" stroke-miterlimit="4"  d="M 61.6274 19.1033 C 63.0707 19.4365 64.3754 17.4334 63.8759 16.039 C 63.1273 13.949 62.9493 11.627 63.4858 9.3032 C 64.9767 2.8457 71.4201 -1.1806 77.8777 0.3102 C 84.3352 1.8011 88.3615 8.2445 86.8707 14.7021 C 86.3342 17.0259 85.1564 19.0348 83.5674 20.5851 C 82.5071 21.6195 82.8017 23.9917 84.245 24.3249 L 112.4166 30.8288 C 113.2238 31.0152 113.7271 31.824 113.5325 32.6292 C 103.1024 75.7883 74.1765 109.7372 37.1415 127.9855 C 36.398 128.3519 35.501 128.0359 35.1429 127.2885 L 22.6627 101.2403 C 22.0228 99.9047 23.692 98.1952 25.1616 98.3783 C 27.3642 98.6527 29.6686 98.3198 31.8191 97.2895 C 37.7959 94.4259 40.3197 87.2593 37.456 81.2825 C 34.5924 75.3057 27.4258 72.7819 21.449 75.6455 C 19.2986 76.6758 17.5952 78.2632 16.4288 80.1517 C 15.6507 81.4118 13.2725 81.6414 12.6326 80.3059 L 0.1476 54.2477 C -0.2102 53.5009 0.1059 52.6072 0.8432 52.2303 C 15.9663 44.4988 27.3761 30.5383 31.6889 13.7325 C 31.895 12.9296 32.699 12.4246 33.5067 12.6111 L 61.6274 19.1033 Z"></path></g></g>
            <g id="g-2">                <g id="cu_17" >                    <path id="cu_15" transform="translate(419.6549072042503, 235.13513182086172)" fill="#e7fbf2" d="M11.1633 100.872 C10.9982 101.684 11.4995 102.488 12.3062 102.674 L40.4295 109.167 C41.8727 109.5 43.1774 107.497 42.678 106.103 C41.9293 104.013 41.7514 101.691 42.2879 99.3668 C43.7787 92.9092 50.2222 88.8829 56.6797 90.3738 C63.1373 91.8646 67.1636 98.3081 65.6728 104.766 C65.1363 107.089 63.9584 109.098 62.3694 110.649 C61.3091 111.683 61.6037 114.055 63.047 114.389 L91.2228 120.893 C92.0304 121.08 92.837 120.576 93.0145 119.766 C101.858 79.438 93.373 35.6518 66.1504 0.5744 C65.6425 -0.08 64.6964 -0.1913 64.0472 0.3233 L41.3704 18.2967 C40.2071 19.2188 38.1585 17.9589 38.0128 16.4817 C37.7945 14.2683 36.9589 12.0897 35.4747 10.2171 C31.3581 5.0232 23.8104 4.1499 18.6166 8.2665 C13.4227 12.3831 12.5494 19.9307 16.666 25.1246 C18.1503 26.9972 20.0805 28.3082 22.1856 29.0262 C23.5905 29.5053 24.3493 31.7875 23.186 32.7095 L0.5705 50.6343 C-0.079 51.1491 -0.1864 52.092 0.3125 52.7538 C7.8827 62.796 12.3708 75.2924 12.3708 88.837 C12.3708 92.9591 11.9551 96.9841 11.1633 100.872 Z"></path>
                    <path id="cu_16" transform="translate(419.6549072042503, 235.13513182086172)" fill="none" stroke="#3cc583" stroke-width="2" stroke-linejoin="miter" stroke-linecap="none" stroke-miterlimit="4"  d="M 11.1633 100.8724 C 10.9982 101.6837 11.4995 102.4879 12.3062 102.6741 L 40.4295 109.1669 C 41.8727 109.5001 43.1774 107.497 42.678 106.1026 C 41.9293 104.0125 41.7514 101.6906 42.2879 99.3668 C 43.7787 92.9092 50.2222 88.8829 56.6797 90.3738 C 63.1373 91.8646 67.1636 98.3081 65.6728 104.7656 C 65.1363 107.0894 63.9584 109.0984 62.3694 110.6487 C 61.3091 111.6831 61.6037 114.0554 63.047 114.3886 L 91.2228 120.8935 C 92.0304 121.0799 92.837 120.576 93.0145 119.7664 C 101.8584 79.438 93.373 35.6518 66.1504 0.5744 C 65.6425 -0.08 64.6964 -0.1913 64.0472 0.3233 L 41.3704 18.2967 C 40.2071 19.2188 38.1585 17.9589 38.0128 16.4817 C 37.7945 14.2683 36.9589 12.0897 35.4747 10.2171 C 31.3581 5.0232 23.8104 4.1499 18.6166 8.2665 C 13.4227 12.3831 12.5494 19.9307 16.666 25.1246 C 18.1503 26.9972 20.0805 28.3082 22.1856 29.0262 C 23.5905 29.5053 24.3493 31.7875 23.186 32.7095 L 0.5705 50.6343 C -0.079 51.1491 -0.1864 52.092 0.3125 52.7538 C 7.8827 62.796 12.3708 75.2924 12.3708 88.837 C 12.3708 92.9591 11.9551 96.9841 11.1633 100.8724 Z"></path></g></g>
            <g id="g-1">                <g id="cu_20" >                    <path id="cu_18" transform="translate(350.3560791015634, 179.97288513183594)" fill="#fefbdb" d="M67.7466 105.566 C68.2773 106.202 69.2189 106.312 69.8678 105.798 L92.4848 87.8718 C93.6481 86.9498 92.8893 84.6676 91.4844 84.1884 C89.3793 83.4704 87.449 82.1595 85.9648 80.2868 C81.8482 75.093 82.7215 67.5453 87.9154 63.4287 C93.1092 59.3121 100.657 60.1854 104.773 65.3793 C106.258 67.2519 107.093 69.4305 107.312 71.644 C107.457 73.1212 109.506 74.3811 110.669 73.4591 L133.349 55.4829 C133.999 54.9681 134.108 54.0234 133.586 53.3795 C107.293 20.9462 67.1803 0.1571 22.1723 3.142e-6 C21.8947 -0.001 21.6697 0.2241 21.6697 0.5017 L21.6697 30.318 C21.6697 31.7663 19.567 32.5671 18.3378 31.8011 C16.5102 30.6621 14.3535 30.001 12.0419 29.9929 C5.4145 29.9698 0.0232 35.3236 7.4691e-5 41.9509 C-0.0231 48.5783 5.3307 53.9696 11.9581 53.9928 C14.2998 54.0009 16.4871 53.3378 18.3379 52.1844 C19.567 51.4185 21.6697 52.2193 21.6697 53.6675 L21.6696 82.4993 C21.6696 83.3277 22.3421 83.9973 23.1703 84.0177 C41.0775 84.4573 57.0387 92.7426 67.7466 105.566 Z"></path>
                    <path id="cu_19" transform="translate(350.3560791015634, 179.97288513183594)" fill="none" stroke="#d1bd08" stroke-width="2" stroke-linejoin="miter" stroke-linecap="none" stroke-miterlimit="4"  d="M 67.7466 105.5664 C 68.2773 106.202 69.2189 106.3122 69.8678 105.7978 L 92.4848 87.8718 C 93.6481 86.9498 92.8893 84.6676 91.4844 84.1884 C 89.3793 83.4704 87.449 82.1595 85.9648 80.2868 C 81.8482 75.093 82.7215 67.5453 87.9154 63.4287 C 93.1092 59.3121 100.6568 60.1854 104.7734 65.3793 C 106.2577 67.2519 107.0932 69.4305 107.3115 71.644 C 107.4572 73.1212 109.5059 74.3811 110.6692 73.4591 L 133.3494 55.4829 C 133.999 54.9681 134.1083 54.0234 133.5864 53.3795 C 107.2934 20.9462 67.1803 0.1571 22.1723 0 C 21.8947 -0.001 21.6697 0.2241 21.6697 0.5017 L 21.6697 30.318 C 21.6697 31.7663 19.567 32.5671 18.3378 31.8011 C 16.5102 30.6621 14.3535 30.001 12.0419 29.9929 C 5.4145 29.9698 0.0232 35.3236 0.0001 41.9509 C -0.0231 48.5783 5.3307 53.9696 11.9581 53.9928 C 14.2998 54.0009 16.4871 53.3378 18.3379 52.1844 C 19.567 51.4185 21.6697 52.2193 21.6697 53.6675 L 21.6696 82.4993 C 21.6696 83.3277 22.3421 83.9973 23.1703 84.0177 C 41.0775 84.4573 57.0387 92.7426 67.7466 105.5664 Z"></path></g></g></g>
        <path id="tx-rb-7" transform="translate(132, 108)" fill="#ff00001a" d="M0 0 L168 0 L168 72 L0 72 L0 0 Z"></path>
        <path id="tx-rc-6" transform="matrix(1, -5.551115123125783e-17, 5.551115123125783e-17, 1, 48, 252)" fill="#ff00001a" d="M0 0 L168 0 L168 72 L0 72 L0 0 Z"></path>
        <path id="tx-rt-5" transform="matrix(1, -5.551115123125783e-17, 5.551115123125783e-17, 1, 84, 420)" fill="#ff00001a" d="M0 0 L168 0 L168 72 L0 72 L0 0 Z"></path>
        <path id="tx-ct-4" transform="matrix(1, -5.551115123125783e-17, 5.551115123125783e-17, 1, 288, 480)" fill="#ff00001a" d="M0 0 L168 0 L168 72 L0 72 L0 0 Z"></path>
        <path id="tx-lt-3" transform="matrix(1, -5.551115123125783e-17, 5.551115123125783e-17, 1, 492, 420)" fill="#ff00001a" d="M0 0 L168 0 L168 72 L0 72 L0 0 Z"></path>
        <path id="tx-lc-2" transform="translate(528, 252)" fill="#ff00001a" d="M0 0 L168 0 L168 72 L0 72 L0 0 Z"></path>
        <path id="tx-lb-1" transform="matrix(1, -5.551115123125783e-17, 5.551115123125783e-17, 1, 444, 108)" fill="#ff00001a" d="M0 0 L168 0 L168 72 L0 72 L0 0 Z"></path>
        <path id="tx-cb-title" transform="matrix(1, -1.6081230200044232e-16, 1.6081230200044232e-16, 1, 72, 36)" fill="#ff00001a" d="M0 0 L600 0 L600 48 L0 48 L0 0 Z"></path>
        <rect id="bt-cc-add-8" fill="#1ac6ff33" transform="matrix(1, 1.6653345369377348e-16, -1.6653345369377348e-16, 1, 351.4837646484375, 210.1400146484375)" width="24" height="24" rx="0" ry="0"></rect>
        <rect id="bt-cc-add-7" fill="#1ac6ff33" transform="matrix(1, 5.551115123125783e-17, -5.551115123125783e-17, 1, 275.0811767578125, 255.10723876953125)" width="24" height="24" rx="0" ry="0"></rect>
        <rect id="bt-cc-add-6" fill="#1ac6ff33" transform="translate(262.5579833984375, 342.87164306640625)" width="24" height="24" rx="0" ry="0"></rect>
        <rect id="bt-cc-add-5" fill="#1ac6ff33" transform="matrix(1, -5.551115123125783e-17, 5.551115123125783e-17, 1, 323.334716796875, 407.4130859375)" width="24" height="24" rx="0" ry="0"></rect>
        <rect id="bt-cc-add-4" fill="#1ac6ff33" transform="matrix(1, 5.551115123125783e-17, -5.551115123125783e-17, 1, 412, 400)" width="24" height="24" rx="0" ry="0"></rect>
        <rect id="bt-cc-add-3" fill="#1ac6ff33" transform="matrix(1, -5.551115123125783e-17, 5.551115123125783e-17, 1, 461.215576171875, 326.2623291015625)" width="24" height="24" rx="0" ry="0"></rect>
        <rect id="bt-cc-add-2" fill="#1ac6ff33" transform="matrix(1, 8.326672684688674e-17, -8.326672684688674e-17, 1, 434.292724609375, 241.7960205078125)" width="24" height="24" rx="0" ry="0"></rect>
        <rect id="bt-cc-remove-7" fill="#1ac6ff33" transform="matrix(1, 5.551115123125783e-17, -5.551115123125783e-17, 1, 297.7796630859375, 182.13616943359375)" width="24" height="24" rx="0" ry="0"></rect>
        <rect id="bt-cc-remove-6" fill="#1ac6ff33" transform="translate(219.69073486328125, 279.607177734375)" width="24" height="24" rx="0" ry="0"></rect>
        <rect id="bt-cc-remove-5" fill="#1ac6ff33" transform="matrix(1, -5.551115123125783e-17, 5.551115123125783e-17, 1, 247.148193359375, 401.4453125)" width="24" height="24" rx="0" ry="0"></rect>
        <rect id="bt-cc-remove-4" fill="#1ac6ff33" transform="matrix(1, -5.551115123125783e-17, 5.551115123125783e-17, 1, 360, 456)" width="24" height="24" rx="0" ry="0"></rect>
        <rect id="bt-cc-remove-3" fill="#1ac6ff33" transform="matrix(1, -5.551115123125783e-17, 5.551115123125783e-17, 1, 472.5390625, 401.838623046875)" width="24" height="24" rx="0" ry="0"></rect>
        <rect id="bt-cc-remove-2" fill="#1ac6ff33" transform="matrix(1, 8.326672684688674e-17, -8.326672684688674e-17, 1, 500.4215087890625, 280.0970458984375)" width="24" height="24" rx="0" ry="0"></rect>
        <rect id="bt-cc-remove-1" fill="#1ac6ff33" transform="matrix(1, 1.6653345369377348e-16, -1.6653345369377348e-16, 1, 422.67333984375, 182.3541259765625)" width="24" height="24" rx="0" ry="0"></rect>
        <path id="ic-cc-7" transform="matrix(1, -1.3877787807814457e-17, 1.3877787807814457e-17, 1, 303.325927734375, 222.05702209472656)" fill="#33de7b1a" d="M0 0 L30 0 L30 30 L0 30 L0 0 Z"></path>
        <path id="ic-cc-6" transform="matrix(1, -1.3877787807814457e-17, 1.3877787807814457e-17, 1, 255.5660400390625, 296.70538330078125)" fill="#33de7b1a" d="M0 0 L30 0 L30 30 L0 30 L0 0 Z"></path>
        <path id="ic-cc-5" transform="matrix(0.9999999403953552, 0, 0, 0.9999999403953552, 284.109130859375, 380.60235595703125)" fill="#33de7b1a" d="M0 0 L30 0 L30 30 L0 30 L0 0 Z"></path>
        <path id="ic-cc-4" transform="matrix(0.9999999403953552, 0, 0, 0.9999999403953552, 367.838134765625, 410.59991455078125)" fill="#33de7b1a" d="M0 0 L30 0 L30 30 L0 30 L0 0 Z"></path>
        <path id="ic-cc-3" transform="matrix(0.9999999403953552, 0, 0, 0.9999999403953552, 443.1640625, 363.91583251953125)" fill="#33de7b1a" d="M0 0 L30 0 L30 30 L0 30 L0 0 Z"></path>
        <path id="ic-cc-2" transform="matrix(1, -1.3877787807814457e-17, 1.3877787807814457e-17, 1, 453.6739501953125, 275.92193603515625)" fill="#33de7b1a" d="M0 0 L30 0 L30 30 L0 30 L0 0 Z"></path>
        <path id="ic-cc-1" transform="matrix(0.9999999403953552, 0, 0, 0.9999999403953552, 391.461669921875, 212.81068420410156)" fill="#33de7b1a" d="M0 0 L30 0 L30 30 L0 30 L0 0 Z"></path>
        <path id="ic-cc-0" transform="matrix(1, -5.551115123125783e-17, 5.551115123125783e-17, 1, 336, 287.99609375)" fill="#33de7b1a" d="M0 0 L72 0 L72 72 L0 72 L0 0 Z"></path></g></svg>