<svg xmlns="http://www.w3.org/2000/svg" width="744" height="612">    <g id="sector-puzzle-v6--family--8">        <g id="lines">            <g id="g-0">                <ellipse id="cr-big" stroke="#bcbcbc" fill="#f6f6f6" stroke-width="2" stroke-linejoin="miter"  transform="translate(312, 264)" cx="60" cy="60" rx="60" ry="60"></ellipse></g>
            <g id="g-8">                <g id="cu_2" >                    <path id="cu" transform="translate(270.79150390014775, 180.00866699218352)" fill="#edf4ff" d="M57.7372 100.519 C58.3231 101.105 59.2716 101.103 59.8716 100.532 C70.2986 90.6065 84.2928 84.3941 99.7339 84.0152 C100.562 83.9948 101.234 83.3252 101.234 82.4968 L101.234 53.6318 C101.234 52.1836 99.1314 51.3828 97.9023 52.1487 C96.0515 53.3021 93.8642 53.9652 91.5225 53.957 C84.8952 53.9339 79.5414 48.5426 79.5645 41.9152 C79.5876 35.2878 84.9789 29.934 91.6063 29.9572 C93.9179 29.9652 96.0746 30.6264 97.9022 31.7653 C99.1313 32.5313 101.234 31.7305 101.234 30.2822 L101.234 1.4923 C101.234 0.6635 100.562 -0.009 99.7328 9.1802e-5 C63.4816 0.3993 27.6383 14.4174 0.4436 41.1302 C-0.1469 41.7102 -0.147 42.661 0.4384 43.2462 L20.8984 63.697 C21.9247 64.7229 20.9974 66.7855 19.5835 67.1121 C17.481 67.5977 15.4836 68.6562 13.8399 70.2884 C9.1373 74.9583 9.1108 82.5563 13.7807 87.2589 C18.4506 91.9615 26.0485 91.988 30.7511 87.3181 C32.4175 85.6633 33.4967 83.6409 33.9879 81.5099 C34.3138 80.0959 36.376 79.1677 37.4023 80.1936 L57.7372 100.519 Z"></path>
                    <path id="cu_1" transform="translate(270.79150390014775, 180.00866699218352)" fill="none" stroke="#4987ec" stroke-width="2" stroke-linejoin="miter" stroke-linecap="none" stroke-miterlimit="4"  d="M 57.7372 100.5194 C 58.3231 101.1051 59.2716 101.1034 59.8716 100.5322 C 70.2986 90.6065 84.2928 84.3941 99.7339 84.0152 C 100.5621 83.9948 101.2339 83.3252 101.2339 82.4968 L 101.2339 53.6318 C 101.2339 52.1836 99.1314 51.3828 97.9023 52.1487 C 96.0515 53.3021 93.8642 53.9652 91.5225 53.957 C 84.8952 53.9339 79.5414 48.5426 79.5645 41.9152 C 79.5876 35.2878 84.9789 29.934 91.6063 29.9572 C 93.9179 29.9652 96.0746 30.6264 97.9022 31.7653 C 99.1313 32.5313 101.2339 31.7305 101.2339 30.2822 L 101.2339 1.4923 C 101.2339 0.6635 100.5615 -0.009 99.7328 0.0001 C 63.4816 0.3993 27.6383 14.4174 0.4436 41.1302 C -0.1469 41.7102 -0.147 42.661 0.4384 43.2462 L 20.8984 63.697 C 21.9247 64.7229 20.9974 66.7855 19.5835 67.1121 C 17.481 67.5977 15.4836 68.6562 13.8399 70.2884 C 9.1373 74.9583 9.1108 82.5563 13.7807 87.2589 C 18.4506 91.9615 26.0485 91.988 30.7511 87.3181 C 32.4175 85.6633 33.4967 83.6409 33.9879 81.5099 C 34.3138 80.0959 36.376 79.1677 37.4023 80.1936 L 57.7372 100.5194 Z"></path></g></g>
            <g id="g-7">                <g id="cu_5" >                    <path id="cu_3" transform="translate(228.0187988281259, 222.7898559660989)" fill="#feecf7" d="M82.5073 101.218 C83.3357 101.218 84.0052 100.546 84.0256 99.7181 C84.38 85.3267 89.8826 71.0384 100.533 59.8519 C101.104 59.252 101.106 58.3034 100.52 57.7176 L80.1907 37.3881 C79.1623 36.3597 77.089 37.2958 76.7642 38.7135 C76.2746 40.8501 75.1942 42.8782 73.5239 44.5369 C68.8213 49.2068 61.2233 49.1803 56.5534 44.4777 C51.8835 39.775 51.9101 32.1771 56.6127 27.5072 C58.2617 25.8697 60.2667 24.8096 62.3767 24.3261 C63.7944 24.0013 64.7306 21.928 63.7022 20.8996 L43.2414 0.4388 C42.6553 -0.1473 41.7043 -0.1474 41.1248 0.4451 C15.7736 26.3609 0.3409 61.6182 6.052e-5 99.7366 C-0.0073 100.564 0.6649 101.237 1.4926 101.236 L30.5058 101.23 C31.9715 101.23 32.7824 103.405 31.998 104.643 C30.8299 106.487 30.1503 108.671 30.1421 111.015 C30.119 117.642 35.4728 123.034 42.1002 123.057 C48.7276 123.08 54.1189 117.726 54.142 111.099 C54.1503 108.723 53.4677 106.506 52.2831 104.639 C51.4982 103.401 52.3082 101.225 53.7738 101.225 L82.5073 101.218 Z"></path>
                    <path id="cu_4" transform="translate(228.0187988281259, 222.7898559660989)" fill="none" stroke="#d95da7" stroke-width="2" stroke-linejoin="miter" stroke-linecap="none" stroke-miterlimit="4"  d="M 82.5073 101.2184 C 83.3357 101.2182 84.0052 100.5463 84.0256 99.7181 C 84.38 85.3267 89.8826 71.0384 100.5332 59.8519 C 101.1044 59.252 101.106 58.3034 100.5202 57.7176 L 80.1907 37.3881 C 79.1623 36.3597 77.089 37.2958 76.7642 38.7135 C 76.2746 40.8501 75.1942 42.8782 73.5239 44.5369 C 68.8213 49.2068 61.2233 49.1803 56.5534 44.4777 C 51.8835 39.775 51.9101 32.1771 56.6127 27.5072 C 58.2617 25.8697 60.2667 24.8096 62.3767 24.3261 C 63.7944 24.0013 64.7306 21.928 63.7022 20.8996 L 43.2414 0.4388 C 42.6553 -0.1473 41.7043 -0.1474 41.1248 0.4451 C 15.7736 26.3609 0.3409 61.6182 0.0001 99.7366 C -0.0073 100.5643 0.6649 101.2366 1.4926 101.2365 L 30.5058 101.23 C 31.9715 101.2296 32.7824 103.405 31.998 104.6431 C 30.8299 106.4868 30.1503 108.6712 30.1421 111.0149 C 30.119 117.6423 35.4728 123.0336 42.1002 123.0567 C 48.7276 123.0799 54.1189 117.7261 54.142 111.0987 C 54.1503 108.723 53.4677 106.5062 52.2831 104.6385 C 51.4982 103.4008 52.3082 101.2251 53.7738 101.2248 L 82.5073 101.2184 Z"></path></g></g>
            <g id="g-6">                <g id="cu_8" >                    <path id="cu_6" transform="translate(228.0222167968809, 323.9864501953125)" fill="#f2fae1" d="M9.1803e-5 1.5012 C-0.009 0.6724 0.6635 -1.4887e-7 1.4923 0 L30.5116 5.2126e-6 C31.9807 5.4765e-6 32.7932 2.1905 32.005 3.4303 C30.8305 5.2773 30.147 7.4677 30.1388 9.8183 C30.1157 16.4457 35.4695 21.837 42.0968 21.8601 C48.7242 21.8833 54.1155 16.5295 54.1387 9.9021 C54.147 7.5215 53.4615 5.3003 52.2724 3.4302 C51.4841 2.1905 52.2967 9.1258e-6 53.7658 9.3897e-6 L82.4968 1.4551e-5 C83.3252 1.4699e-5 83.9948 0.6719 84.0152 1.5 C84.3941 16.9412 90.6065 30.9354 100.532 41.3623 C101.103 41.9623 101.105 42.9108 100.519 43.4967 L80.1467 63.8785 C79.1002 64.9256 80.1056 67.0901 81.552 67.4054 C83.7342 67.881 85.8089 68.9707 87.4998 70.6734 C92.1697 75.376 92.1431 82.974 87.4405 87.6439 C82.7379 92.3138 75.14 92.2873 70.4701 87.5846 C68.8017 85.9046 67.7328 83.855 67.2623 81.7014 C66.9464 80.2552 64.7815 79.2506 63.7349 80.2977 L43.2462 100.796 C42.661 101.381 41.7102 101.381 41.1302 100.79 C14.4174 73.5956 0.3993 37.7524 9.1803e-5 1.5012 Z"></path>
                    <path id="cu_7" transform="translate(228.0222167968809, 323.9864501953125)" fill="none" stroke="#93c332" stroke-width="2" stroke-linejoin="miter" stroke-linecap="none" stroke-miterlimit="4"  d="M 0.0001 1.5012 C -0.009 0.6724 0.6635 -1.4887e-7 1.4923 0 L 30.5116 0 C 31.9807 0 32.7932 2.1905 32.005 3.4302 C 30.8305 5.2773 30.147 7.4677 30.1388 9.8183 C 30.1157 16.4457 35.4695 21.837 42.0968 21.8601 C 48.7242 21.8833 54.1155 16.5295 54.1387 9.9021 C 54.147 7.5215 53.4615 5.3003 52.2724 3.4302 C 51.4841 2.1905 52.2967 0 53.7658 0 L 82.4968 0 C 83.3252 0 83.9948 0.6719 84.0152 1.5 C 84.3941 16.9412 90.6065 30.9354 100.5322 41.3623 C 101.1034 41.9623 101.1051 42.9108 100.5194 43.4967 L 80.1467 63.8785 C 79.1002 64.9256 80.1056 67.0901 81.552 67.4054 C 83.7342 67.881 85.8089 68.9707 87.4998 70.6734 C 92.1697 75.376 92.1431 82.974 87.4405 87.6439 C 82.7379 92.3138 75.14 92.2873 70.4701 87.5846 C 68.8017 85.9046 67.7328 83.855 67.2623 81.7014 C 66.9464 80.2552 64.7815 79.2506 63.7349 80.2977 L 43.2462 100.7956 C 42.661 101.381 41.7102 101.3809 41.1302 100.7904 C 14.4174 73.5956 0.3993 37.7524 0.0001 1.5012 Z"></path></g></g>
            <g id="g-5">                <g id="cu_11" >                    <path id="cu_9" transform="translate(270.8034668064147, 367.0324707160041)" fill="#fef2e6" d="M101.218 18.4533 C101.218 17.6249 100.546 16.9554 99.7181 16.935 C85.3267 16.5805 71.0384 11.078 59.8519 0.4274 C59.252 -0.1438 58.3034 -0.1454 57.7176 0.4404 L37.3434 20.8146 C36.2941 21.8639 37.3089 24.0421 38.7592 24.3568 C40.9456 24.8311 43.0247 25.9216 44.7185 27.6274 C49.3885 32.33 49.3619 39.9279 44.6593 44.5978 C39.9567 49.2677 32.3588 49.2412 27.6888 44.5386 C26.0161 42.8542 24.946 40.7983 24.4774 38.6385 C24.1628 37.1883 21.9846 36.1734 20.9353 37.2227 L0.4388 57.7192 C-0.1473 58.3052 -0.1474 59.2562 0.4451 59.8358 C26.3609 85.187 61.6182 100.62 99.7366 100.961 C100.564 100.968 101.237 100.296 101.236 99.468 L101.23 70.6107 C101.23 69.1243 103.499 68.2995 104.748 69.1045 C106.608 70.3025 108.82 71.0009 111.196 71.0092 C117.824 71.0324 123.215 65.6786 123.238 59.0512 C123.261 52.4238 117.908 47.0325 111.28 47.0094 C108.872 47.001 106.627 47.7025 104.744 48.9172 C103.494 49.7227 101.225 48.8988 101.225 47.4125 L101.218 18.4533 Z"></path>
                    <path id="cu_10" transform="translate(270.8034668064147, 367.0324707160041)" fill="none" stroke="#db8333" stroke-width="2" stroke-linejoin="miter" stroke-linecap="none" stroke-miterlimit="4"  d="M 101.2184 18.4533 C 101.2182 17.6249 100.5463 16.9554 99.7181 16.935 C 85.3267 16.5805 71.0384 11.078 59.8519 0.4274 C 59.252 -0.1438 58.3034 -0.1454 57.7176 0.4404 L 37.3434 20.8146 C 36.2941 21.8639 37.3089 24.0421 38.7592 24.3568 C 40.9456 24.8311 43.0247 25.9216 44.7185 27.6274 C 49.3885 32.33 49.3619 39.9279 44.6593 44.5978 C 39.9567 49.2677 32.3588 49.2412 27.6888 44.5386 C 26.0161 42.8542 24.946 40.7983 24.4774 38.6385 C 24.1628 37.1883 21.9846 36.1734 20.9353 37.2227 L 0.4388 57.7192 C -0.1473 58.3052 -0.1474 59.2562 0.4451 59.8358 C 26.3609 85.187 61.6182 100.6197 99.7366 100.9605 C 100.5643 100.9679 101.2366 100.2957 101.2365 99.468 L 101.23 70.6107 C 101.2297 69.1243 103.4986 68.2995 104.748 69.1045 C 106.6077 70.3025 108.8202 71.0009 111.1964 71.0092 C 117.8238 71.0324 123.2151 65.6786 123.2383 59.0512 C 123.2614 52.4238 117.9076 47.0325 111.2802 47.0094 C 108.872 47.001 106.627 47.7025 104.7435 48.9172 C 103.4944 49.7227 101.2252 48.8988 101.2248 47.4125 L 101.2184 18.4533 Z"></path></g></g>
            <g id="g-4">                <g id="cu_14" >                    <path id="cu_12" transform="translate(372, 367.03027341679604)" fill="#e8f9ff" d="M43.4967 0.4402 C42.9108 -0.1454 41.9624 -0.1438 41.3623 0.4274 C30.9354 10.3531 16.9412 16.5656 1.5 16.9445 C0.6719 16.9648 1.8276e-5 17.6344 1.8091e-5 18.4629 L1.1625e-5 47.4169 C1.1292e-5 48.9069 2.2863 49.734 3.5378 48.9254 C5.4232 47.7071 7.6716 47.0032 10.0837 47.0117 C16.711 47.0348 22.0648 52.4261 22.0417 59.0535 C22.0186 65.6808 16.6273 71.0346 9.9999 71.0115 C7.6178 71.0032 5.4002 70.3014 3.5378 69.0979 C2.2863 68.2892 6.7785e-6 69.1163 6.4458e-6 70.6063 L0 99.4673 C-1.851e-7 100.296 0.6724 100.969 1.5012 100.96 C37.7524 100.56 73.5956 86.5422 100.79 59.8294 C101.381 59.2494 101.381 58.2986 100.796 57.7135 L80.4847 37.4116 C79.4382 36.3656 80.4407 34.2034 81.8861 33.8873 C84.0386 33.4165 86.087 32.3478 87.7663 30.6802 C92.4689 26.0103 92.4954 18.4124 87.8255 13.7097 C83.1556 9.0071 75.5577 8.9806 70.8551 13.6505 C69.1531 15.3406 68.0637 17.4142 67.5877 19.5952 C67.2721 21.0408 65.1104 22.0442 64.0639 20.9982 L43.4967 0.4402 Z"></path>
                    <path id="cu_13" transform="translate(372, 367.03027341679604)" fill="none" stroke="#17aee1" stroke-width="2" stroke-linejoin="miter" stroke-linecap="none" stroke-miterlimit="4"  d="M 43.4967 0.4402 C 42.9108 -0.1454 41.9624 -0.1438 41.3623 0.4274 C 30.9354 10.3531 16.9412 16.5656 1.5 16.9445 C 0.6719 16.9648 0 17.6344 0 18.4629 L 0 47.4169 C 0 48.9069 2.2863 49.734 3.5378 48.9254 C 5.4232 47.7071 7.6715 47.0032 10.0837 47.0117 C 16.711 47.0348 22.0648 52.4261 22.0417 59.0535 C 22.0186 65.6808 16.6273 71.0346 9.9999 71.0115 C 7.6178 71.0032 5.4002 70.3014 3.5378 69.0979 C 2.2863 68.2892 0 69.1163 0 70.6063 L 0 99.4673 C -1.851e-7 100.2961 0.6724 100.9687 1.5012 100.9595 C 37.7524 100.5603 73.5956 86.5422 100.7904 59.8294 C 101.3809 59.2494 101.381 58.2986 100.7956 57.7135 L 80.4847 37.4116 C 79.4382 36.3656 80.4407 34.2034 81.8861 33.8873 C 84.0386 33.4165 86.087 32.3478 87.7663 30.6802 C 92.4689 26.0103 92.4954 18.4124 87.8255 13.7097 C 83.1556 9.0071 75.5577 8.9806 70.8551 13.6505 C 69.1531 15.3406 68.0637 17.4142 67.5877 19.5952 C 67.2721 21.0408 65.1104 22.0442 64.0639 20.9982 L 43.4967 0.4402 Z"></path></g></g>
            <g id="g-3">                <g id="cu_17" >                    <path id="cu_15" transform="translate(415.0461425849503, 302.1610107422006)" fill="#ffedeb" d="M71.1908 12.0419 C71.2139 5.4145 65.8601 0.0232 59.2327 7.4689e-5 C52.6053 -0.0231 47.214 5.3307 47.1909 11.9581 C47.1826 14.332 47.8642 16.5473 49.0471 18.4141 C49.831 19.6512 49.0216 21.8226 47.557 21.8229 L18.4533 21.8294 C17.6249 21.8296 16.9554 22.5014 16.935 23.3296 C16.5805 37.7211 11.078 52.0093 0.4274 63.1958 C-0.1438 63.7958 -0.1454 64.7443 0.4404 65.3301 L21 85.8897 C22.0488 86.9385 24.2242 85.9257 24.539 84.4763 C25.0137 82.2909 26.104 80.2129 27.809 78.5198 C32.5116 73.8499 40.1096 73.8764 44.7795 78.579 C49.4494 83.2817 49.4228 90.8796 44.7202 95.5495 C43.0365 97.2215 40.9817 98.2914 38.8231 98.7603 C37.3736 99.0751 36.3608 101.251 37.4096 102.299 L57.7192 122.609 C58.3052 123.195 59.2562 123.195 59.8358 122.603 C85.187 96.6868 100.62 61.4295 100.961 23.3111 C100.968 22.4835 100.296 21.8111 99.468 21.8113 L70.8292 21.8177 C69.3645 21.818 68.5542 19.647 69.3376 18.4095 C70.5041 16.5667 71.1826 14.3838 71.1908 12.0419 Z"></path>
                    <path id="cu_16" transform="translate(415.0461425849503, 302.1610107422006)" fill="none" stroke="#df5e59" stroke-width="2" stroke-linejoin="miter" stroke-linecap="none" stroke-miterlimit="4"  d="M 71.1908 12.0419 C 71.2139 5.4145 65.8601 0.0232 59.2327 0.0001 C 52.6053 -0.0231 47.214 5.3307 47.1909 11.9581 C 47.1826 14.332 47.8642 16.5473 49.0471 18.4141 C 49.831 19.6512 49.0216 21.8226 47.557 21.8229 L 18.4533 21.8294 C 17.6249 21.8296 16.9554 22.5014 16.935 23.3296 C 16.5805 37.7211 11.078 52.0093 0.4274 63.1958 C -0.1438 63.7958 -0.1454 64.7443 0.4404 65.3301 L 21 85.8897 C 22.0488 86.9385 24.2242 85.9257 24.539 84.4763 C 25.0137 82.2909 26.104 80.2129 27.809 78.5198 C 32.5116 73.8499 40.1096 73.8764 44.7795 78.579 C 49.4494 83.2817 49.4228 90.8796 44.7202 95.5495 C 43.0365 97.2215 40.9817 98.2914 38.8231 98.7603 C 37.3736 99.0751 36.3608 101.2505 37.4096 102.2993 L 57.7192 122.6089 C 58.3052 123.195 59.2562 123.1951 59.8358 122.6026 C 85.187 96.6868 100.6197 61.4295 100.9605 23.3111 C 100.9679 22.4835 100.2957 21.8111 99.468 21.8113 L 70.8292 21.8177 C 69.3645 21.818 68.5542 19.647 69.3376 18.4095 C 70.5041 16.5667 71.1826 14.3838 71.1908 12.0419 Z"></path></g></g>
            <g id="g-2">                <g id="cu_20" >                    <path id="cu_18" transform="translate(415.04370117967164, 222.77813720079587)" fill="#e7fbf2" d="M0.4402 57.7372 C-0.1454 58.3231 -0.1438 59.2716 0.4274 59.8716 C10.3531 70.2986 16.5656 84.2928 16.9445 99.7339 C16.9648 100.562 17.6344 101.234 18.4629 101.234 L47.564 101.234 C49.0321 101.234 49.844 99.0479 49.0568 97.8087 C47.8693 95.9395 47.1849 93.7198 47.1932 91.341 C47.2163 84.7136 52.6076 79.3598 59.235 79.3829 C65.8624 79.406 71.2162 84.7973 71.193 91.4247 C71.1848 93.7736 70.5023 95.9625 69.3295 97.8087 C68.5423 99.0479 69.3542 101.234 70.8222 101.234 L99.4673 101.234 C100.296 101.234 100.969 100.562 100.96 99.7328 C100.56 63.4815 86.5422 27.6383 59.8294 0.4436 C59.2494 -0.1469 58.2986 -0.147 57.7135 0.4384 L37.4499 20.711 C36.4245 21.7368 34.3642 20.8113 34.0373 19.3982 C33.5513 17.2971 32.4931 15.3011 30.8618 13.6583 C26.1919 8.9557 18.594 8.9292 13.8914 13.5991 C9.1888 18.269 9.1622 25.8669 13.8321 30.5696 C15.4859 32.2349 17.507 33.3139 19.6366 33.8055 C21.0498 34.1317 21.9763 36.1916 20.9509 37.2174 L0.4402 57.7372 Z"></path>
                    <path id="cu_19" transform="translate(415.04370117967164, 222.77813720079587)" fill="none" stroke="#3cc583" stroke-width="2" stroke-linejoin="miter" stroke-linecap="none" stroke-miterlimit="4"  d="M 0.4402 57.7372 C -0.1454 58.3231 -0.1438 59.2716 0.4274 59.8716 C 10.3531 70.2986 16.5656 84.2928 16.9445 99.7339 C 16.9648 100.5621 17.6344 101.2339 18.4629 101.2339 L 47.564 101.2339 C 49.0321 101.2339 49.844 99.0479 49.0568 97.8087 C 47.8693 95.9395 47.1849 93.7198 47.1932 91.341 C 47.2163 84.7136 52.6076 79.3598 59.235 79.3829 C 65.8624 79.406 71.2162 84.7973 71.193 91.4247 C 71.1848 93.7736 70.5023 95.9625 69.3295 97.8087 C 68.5423 99.0479 69.3542 101.2339 70.8222 101.2339 L 99.4673 101.2339 C 100.2961 101.2339 100.9687 100.5615 100.9595 99.7328 C 100.5603 63.4815 86.5422 27.6383 59.8294 0.4436 C 59.2494 -0.1469 58.2986 -0.147 57.7135 0.4384 L 37.4499 20.711 C 36.4245 21.7368 34.3642 20.8113 34.0373 19.3982 C 33.5513 17.2971 32.4931 15.3011 30.8618 13.6583 C 26.1919 8.9557 18.594 8.9292 13.8914 13.5991 C 9.1888 18.269 9.1622 25.8669 13.8321 30.5696 C 15.4859 32.2349 17.507 33.3139 19.6366 33.8055 C 21.0498 34.1317 21.9763 36.1916 20.9509 37.2174 L 0.4402 57.7372 Z"></path></g></g>
            <g id="g-1">                <g id="cu_23" >                    <path id="cu_21" transform="translate(350.3559570312523, 180.00549316405863)" fill="#fefbdb" d="M21.6477 82.5073 C21.6479 83.3357 22.3197 84.0052 23.1479 84.0256 C37.5394 84.38 51.8276 89.8826 63.0141 100.533 C63.6141 101.104 64.5626 101.106 65.1484 100.52 L85.6629 80.0057 C86.6909 78.9778 85.7565 76.9068 84.3396 76.5817 C82.2044 76.0917 80.1776 75.0116 78.5199 73.3423 C73.85 68.6396 73.8765 61.0417 78.5791 56.3718 C83.2817 51.7019 90.8797 51.7284 95.5496 56.431 C97.1862 58.0791 98.2459 60.0828 98.7298 62.1914 C99.0549 63.6083 101.126 64.5427 102.154 63.5148 L122.427 43.2414 C123.013 42.6554 123.013 41.7043 122.421 41.1248 C96.5051 15.7736 61.2478 0.3409 23.1294 6.052e-5 C22.3018 -0.0073 21.6294 0.6649 21.6296 1.4926 L21.636 30.2745 C21.6363 31.7195 19.5471 32.5191 18.3194 31.7571 C16.4957 30.6252 14.3458 29.9684 12.0419 29.9604 C5.4145 29.9372 0.0232 35.291 7.4691e-5 41.9184 C-0.0231 48.5458 5.3307 53.9371 11.9581 53.9602 C14.2939 53.9684 16.4762 53.3086 18.324 52.1605 C19.5514 51.398 21.6409 52.1967 21.6412 53.6416 L21.6477 82.5073 Z"></path>
                    <path id="cu_22" transform="translate(350.3559570312523, 180.00549316405863)" fill="none" stroke="#d1bd08" stroke-width="2" stroke-linejoin="miter" stroke-linecap="none" stroke-miterlimit="4"  d="M 21.6477 82.5073 C 21.6479 83.3357 22.3197 84.0052 23.1479 84.0256 C 37.5394 84.38 51.8276 89.8826 63.0141 100.5332 C 63.6141 101.1044 64.5626 101.106 65.1484 100.5202 L 85.6629 80.0057 C 86.6909 78.9778 85.7565 76.9068 84.3396 76.5817 C 82.2044 76.0917 80.1776 75.0116 78.5199 73.3423 C 73.85 68.6396 73.8765 61.0417 78.5791 56.3718 C 83.2817 51.7019 90.8797 51.7284 95.5496 56.431 C 97.1862 58.0791 98.2459 60.0828 98.7298 62.1914 C 99.0549 63.6083 101.1259 64.5427 102.1539 63.5148 L 122.4272 43.2414 C 123.0133 42.6554 123.0134 41.7043 122.4209 41.1248 C 96.5051 15.7736 61.2478 0.3409 23.1294 0.0001 C 22.3018 -0.0073 21.6294 0.6649 21.6296 1.4926 L 21.636 30.2745 C 21.6363 31.7195 19.5471 32.5191 18.3194 31.7571 C 16.4957 30.6252 14.3458 29.9684 12.0419 29.9604 C 5.4145 29.9372 0.0232 35.291 0.0001 41.9184 C -0.0231 48.5458 5.3307 53.9371 11.9581 53.9602 C 14.2939 53.9684 16.4762 53.3086 18.324 52.1605 C 19.5514 51.398 21.6409 52.1967 21.6412 53.6416 L 21.6477 82.5073 Z"></path></g></g></g>
        <path id="tx-cb-title" transform="matrix(1, -1.6081230200044232e-16, 1.6081230200044232e-16, 1, 72, 36)" fill="#ff00001a" d="M0 0 L600 0 L600 48 L0 48 L0 0 Z"></path>
        <path id="ic-cc-0" transform="matrix(1, -5.551115123125783e-17, 5.551115123125783e-17, 1, 336, 287.99609375)" fill="#33de7b1a" d="M0 0 L72 0 L72 72 L0 72 L0 0 Z"></path>
        <rect id="bt-cc-remove-8" fill="#1ac6ff33" transform="matrix(1, -5.551115123125783e-17, 5.551115123125783e-17, 1, 304.8935852050781, 178.96133422851562)" width="24" height="24" rx="0" ry="0"></rect>
        <rect id="bt-cc-remove-7" fill="#1ac6ff33" transform="matrix(0.9999999403953552, -5.551115123125783e-17, 5.551115123125783e-17, 0.9999999403953552, 226.96142578125, 256.8935546875)" width="24" height="24" rx="0" ry="0"></rect>
        <rect id="bt-cc-remove-6" fill="#1ac6ff33" transform="matrix(0.9999999403953552, -5.551115123125783e-17, 5.551115123125783e-17, 0.9999999403953552, 226.96133422851562, 367.1063537597656)" width="24" height="24" rx="0" ry="0"></rect>
        <rect id="bt-cc-remove-5" fill="#1ac6ff33" transform="matrix(0.9999999403953552, 0, 0, 0.9999999403953552, 304.8935546875, 445.03857421875)" width="24" height="24" rx="0" ry="0"></rect>
        <rect id="bt-cc-remove-4" fill="#1ac6ff33" transform="matrix(1, -5.551115123125783e-17, 5.551115123125783e-17, 1, 415.1063232421875, 445.0386962890625)" width="24" height="24" rx="0" ry="0"></rect>
        <rect id="bt-cc-remove-3" fill="#1ac6ff33" transform="matrix(0.9999999403953552, -5.551115123125783e-17, 5.551115123125783e-17, 0.9999999403953552, 493.03857421875, 367.1064453125)" width="24" height="24" rx="0" ry="0"></rect>
        <rect id="bt-cc-remove-2" fill="#1ac6ff33" transform="matrix(0.9999999403953552, -5.551115123125783e-17, 5.551115123125783e-17, 0.9999999403953552, 493.03857421875, 256.8935546875)" width="24" height="24" rx="0" ry="0"></rect>
        <rect id="bt-cc-remove-1" fill="#1ac6ff33" transform="matrix(0.9999999403953552, 0, 0, 0.9999999403953552, 415.1065673828125, 178.9613037109375)" width="24" height="24" rx="0" ry="0"></rect>
        <rect id="bt-cc-add-9" fill="#1ac6ff33" transform="translate(349.7615966796875, 210.51513671875)" width="24" height="24" rx="0" ry="0"></rect>
        <rect id="bt-cc-add-8" fill="#1ac6ff33" transform="matrix(1, 5.551115123125783e-17, -5.551115123125783e-17, 1, 280.999755859375, 247.47900390625)" width="24" height="24" rx="0" ry="0"></rect>
        <rect id="bt-cc-add-7" fill="#1ac6ff33" transform="matrix(1, -8.326672684688674e-17, 8.326672684688674e-17, 1, 258.51513671875, 322.23828125)" width="24" height="24" rx="0" ry="0"></rect>
        <rect id="bt-cc-add-6" fill="#1ac6ff33" transform="matrix(1, 5.551115123125783e-17, -5.551115123125783e-17, 1, 295.47900390625, 391.000244140625)" width="24" height="24" rx="0" ry="0"></rect>
        <rect id="bt-cc-add-5" fill="#1ac6ff33" transform="translate(370.2384033203125, 413.48486328125)" width="24" height="24" rx="0" ry="0"></rect>
        <rect id="bt-cc-add-4" fill="#1ac6ff33" transform="matrix(1, 5.551115123125783e-17, -5.551115123125783e-17, 1, 439.0001220703125, 376.52099609375)" width="24" height="24" rx="0" ry="0"></rect>
        <rect id="bt-cc-add-3" fill="#1ac6ff33" transform="matrix(1, -8.326672684688674e-17, 8.326672684688674e-17, 1, 461.48486328125, 301.7615966796875)" width="24" height="24" rx="0" ry="0"></rect>
        <rect id="bt-cc-add-2" fill="#1ac6ff33" transform="matrix(1, 5.551115123125783e-17, -5.551115123125783e-17, 1, 424.52099609375, 232.999755859375)" width="24" height="24" rx="0" ry="0"></rect>
        <path id="ic-cc-8" transform="matrix(0.9999999403953552, 1.1102230246251565e-16, -1.1102230246251565e-16, 0.9999999403953552, 309.580078125, 218.6929931640625)" fill="#33de7b1a" d="M0 0 L30 0 L30 30 L0 30 L0 0 Z"></path>
        <path id="ic-cc-7" transform="translate(259.612548828125, 278.674072265625)" fill="#33de7b1a" d="M0 0 L30 0 L30 30 L0 30 L0 0 Z"></path>
        <path id="ic-cc-6" transform="matrix(1, -1.6653345369377348e-16, 1.6653345369377348e-16, 1, 266.69287109375, 356.419677734375)" fill="#33de7b1a" d="M0 0 L30 0 L30 30 L0 30 L0 0 Z"></path>
        <path id="ic-cc-5" transform="matrix(1, -5.551115123125783e-17, 5.551115123125783e-17, 1, 326.674072265625, 406.387451171875)" fill="#33de7b1a" d="M0 0 L30 0 L30 30 L0 30 L0 0 Z"></path>
        <path id="ic-cc-4" transform="matrix(0.9999999403953552, 1.1102230246251565e-16, -1.1102230246251565e-16, 0.9999999403953552, 404.419677734375, 399.3070068359375)" fill="#33de7b1a" d="M0 0 L30 0 L30 30 L0 30 L0 0 Z"></path>
        <path id="ic-cc-3" transform="translate(454.3876953125, 339.32586669921875)" fill="#33de7b1a" d="M0 0 L30 0 L30 30 L0 30 L0 0 Z"></path>
        <path id="ic-cc-2" transform="matrix(1, -1.6653345369377348e-16, 1.6653345369377348e-16, 1, 447.30712890625, 261.5802001953125)" fill="#33de7b1a" d="M0 0 L30 0 L30 30 L0 30 L0 0 Z"></path>
        <path id="ic-cc-1" transform="matrix(1, -5.551115123125783e-17, 5.551115123125783e-17, 1, 387.325927734375, 211.6123046875)" fill="#33de7b1a" d="M0 0 L30 0 L30 30 L0 30 L0 0 Z"></path>
        <path id="tx-rb-8" transform="matrix(1, -5.551115123125783e-17, 5.551115123125783e-17, 1, 144, 108)" fill="#ff00001a" d="M0 0 L168 0 L168 72 L0 72 L0 0 Z"></path>
        <path id="tx-rc-7" transform="translate(48, 228)" fill="#ff00001a" d="M0 0 L168 0 L168 72 L0 72 L0 0 Z"></path>
        <path id="tx-rc-6" transform="matrix(1, -5.551115123125783e-17, 5.551115123125783e-17, 1, 48, 348)" fill="#ff00001a" d="M0 0 L168 0 L168 72 L0 72 L0 0 Z"></path>
        <path id="tx-rt-5" transform="matrix(1, -5.551115123125783e-17, 5.551115123125783e-17, 1, 144, 468)" fill="#ff00001a" d="M0 0 L168 0 L168 72 L0 72 L0 0 Z"></path>
        <path id="tx-lt-4" transform="matrix(1, -5.551115123125783e-17, 5.551115123125783e-17, 1, 432, 468)" fill="#ff00001a" d="M0 0 L168 0 L168 72 L0 72 L0 0 Z"></path>
        <path id="tx-lc-3" transform="matrix(1, -5.551115123125783e-17, 5.551115123125783e-17, 1, 528, 348)" fill="#ff00001a" d="M0 0 L168 0 L168 72 L0 72 L0 0 Z"></path>
        <path id="tx-lc-2" transform="translate(528, 228)" fill="#ff00001a" d="M0 0 L168 0 L168 72 L0 72 L0 0 Z"></path>
        <path id="tx-lb-1" transform="matrix(1, -5.551115123125783e-17, 5.551115123125783e-17, 1, 432, 108)" fill="#ff00001a" d="M0 0 L168 0 L168 72 L0 72 L0 0 Z"></path></g></svg>