
<svg width="128" height="84" viewBox="0 0 128 84" style="fill:none;stroke:none;fill-rule:evenodd;clip-rule:evenodd;stroke-linecap:round;stroke-linejoin:round;stroke-miterlimit:1.5;" version="1.1" xmlns="http://www.w3.org/2000/svg" xmlns:xlink="http://www.w3.org/1999/xlink"><g id="g-tf_m98bty4r6adj" transform="matrix(0.12999999523162842, 0, 0, 0.12999999523162842, 64.55428314208984, 7.800000190734863)" data-item-order="-503712"><g id="g-root-tf_m98bty4r6adj-stroke-fill" data-item-order="-503712" transform="translate(-406, -58)"></g></g><g id="g--1.cu_sy_htendy4rep6w" transform="matrix(0.12999999523162842, 0, 0, 0.12999999523162842, 64.55428314208984, 7.800000190734863)" data-item-order="-151404"><g id="g-root--1.cu_sy_htendy4rep6w-stroke-fill" data-item-order="-151404" transform="translate(-119, 194.00003051757812)"><g id="-1.cu_sy_htendy4rep6w-fill" stroke="none" fill="none"><g><path d="M 125 34L 101 10L 10 166L 34 190L 125 34ZM 125 34L 34 190L 216 190L 125 34Z"></path></g></g><g id="-1.cu_sy_htendy4rep6w-stroke" fill="none" stroke-linecap="round" stroke-linejoin="round" stroke-miterlimit="4" stroke="#484848" stroke-width="2"><g><path d="M 125 34L 101 10L 10 166L 34 190L 125 34ZM 125 34L 34 190L 216 190L 125 34Z"></path></g></g></g></g><g id="g-0.line-start_sy_ddl59i4repz5" transform="matrix(0.12999999523162842, 0, 0, 0.12999999523162842, 64.55428314208984, 7.800000190734863)" data-item-order="-151399"><g id="g-root-0.line-start_sy_ddl59i4repz5-stroke-fill" data-item-order="-151399" transform="translate(-160, 296)"><g id="0.line-start_sy_ddl59i4repz5-stroke" fill="none" stroke-linecap="round" stroke-linejoin="round" stroke-miterlimit="4" stroke="#808080" stroke-width="2"><g><path d="M 10 10L 120.5 10"></path></g></g></g></g><g id="g-6.line_sy_ddl59i4repz6" transform="matrix(0.12999999523162842, 0, 0, 0.12999999523162842, 64.55428314208984, 7.800000190734863)" data-item-order="-151393"><g id="g-root-6.line_sy_ddl59i4repz6-stroke-fill" data-item-order="-151393" transform="translate(-49.5, 296)"><g id="6.line_sy_ddl59i4repz6-stroke" fill="none" stroke-linecap="round" stroke-linejoin="round" stroke-miterlimit="4" stroke="#e55753" stroke-width="2"><g><path d="M 258.27 218.43L 118.5 40.25L 10 10"></path><path d="M 249.4 217.7L 258.6 218.8L 259.7 209.7" stroke-dasharray="none"></path></g></g></g></g><g id="g-5.line_sy_ddl59i4repz7" transform="matrix(0.12999999523162842, 0, 0, 0.12999999523162842, 64.55428314208984, 7.800000190734863)" data-item-order="-151387"><g id="g-root-5.line_sy_ddl59i4repz7-stroke-fill" data-item-order="-151387" transform="translate(-49.5, 296)"><g id="5.line_sy_ddl59i4repz7-stroke" fill="none" stroke-linecap="round" stroke-linejoin="round" stroke-miterlimit="4" stroke="#de8431" stroke-width="2"><g><path d="M 257.89 134.82L 112 28.25L 10 10"></path><path d="M 249.2 136.5L 258.3 135.1L 256.9 126" stroke-dasharray="none"></path></g></g></g></g><g id="g-4.line_sy_4hy50m4reqrw" transform="matrix(0.12999999523162842, 0, 0, 0.12999999523162842, 64.55428314208984, 7.800000190734863)" data-item-order="-151381"><g id="g-root-4.line_sy_4hy50m4reqrw-stroke-fill" data-item-order="-151381" transform="translate(-49.5, 296)"><g id="4.line_sy_4hy50m4reqrw-stroke" fill="none" stroke-linecap="round" stroke-linejoin="round" stroke-miterlimit="4" stroke="#e0cb15" stroke-width="2"><g><path d="M 257.55 52.04L 105 16L 10 10"></path><path d="M 250.2 57L 258 52.2L 253.2 44.3" stroke-dasharray="none"></path></g></g></g></g><g id="g-3.line_sy_4hy50m4reqrx" transform="matrix(0.12999999523162842, 0, 0, 0.12999999523162842, 64.55428314208984, 7.800000190734863)" data-item-order="-151375"><g id="g-root-3.line_sy_4hy50m4reqrx-stroke-fill" data-item-order="-151375" transform="translate(-49, 253.99996948242188)"><g id="3.line_sy_4hy50m4reqrx-stroke" fill="none" stroke-linecap="round" stroke-linejoin="round" stroke-miterlimit="4" stroke="#92bd39" stroke-width="2"><g><path d="M 257.55 10.430031L 97.75 45.750031L 10 52.000031"></path><path d="M 253.1 18.100031L 258 10.300031L 250.3 5.400031" stroke-dasharray="none"></path></g></g></g></g><g id="g-2.line_sy_4hy50m4reqry" transform="matrix(0.12999999523162842, 0, 0, 0.12999999523162842, 64.55428314208984, 7.800000190734863)" data-item-order="-151369"><g id="g-root-2.line_sy_4hy50m4reqry-stroke-fill" data-item-order="-151369" transform="translate(-49.5, 170.00003051757812)"><g id="2.line_sy_4hy50m4reqry-stroke" fill="none" stroke-linecap="round" stroke-linejoin="round" stroke-miterlimit="4" stroke="#3cc583" stroke-width="2"><g><path d="M 257.82 11.079969L 90.75 117.999969L 10 135.999969"></path><path d="M 256.3 19.799969L 258.2 10.799969L 249.3 8.799969" stroke-dasharray="none"></path></g></g></g></g><g id="g-1.line_sy_4hy50m4reqrz" transform="matrix(0.12999999523162842, 0, 0, 0.12999999523162842, 64.55428314208984, 7.800000190734863)" data-item-order="-151363"><g id="g-root-1.line_sy_4hy50m4reqrz-stroke-fill" data-item-order="-151363" transform="translate(-49.5, 86)"><g id="1.line_sy_4hy50m4reqrz-stroke" fill="none" stroke-linecap="round" stroke-linejoin="round" stroke-miterlimit="4" stroke="#1eabda" stroke-width="2"><g><path d="M 10 220L 83.5 190L 258.1 11.43"></path><path d="M 258.6 20.3L 258.5 11.1L 249.3 11.2" stroke-dasharray="none"></path></g></g></g></g><g id="g-grap_24mw64rerk8" transform="matrix(0.13, 0,0, 0.13, 41.15428314208984, 47.580000190734864)" data-item-order="0"><circle id="" cx="0" cy="0" r="24" fill="#484848" fill-opacity="30%"></circle></g><g id="g-1_5vkkm4r2232" transform="matrix(0.13, 0,0, 0.13, 97.31428314208983, 74.88000019073486)" data-item-order="0"><circle id="" cx="0" cy="0" r="24" fill="#e55753" fill-opacity="30%"></circle></g><g id="g-cryi_1d30hd24raj9j" transform="matrix(0.13, 0,0, 0.13, 97.31428314208983, 63.96000019073487)" data-item-order="0"><circle id="" cx="0" cy="0" r="24" fill="#de8431" fill-opacity="30%"></circle></g><g id="g-stac_1hgyk864rhkox" transform="matrix(0.13, 0,0, 0.13, 97.31428314208983, 53.040000190734865)" data-item-order="0"><circle id="" cx="0" cy="0" r="24" fill="#e0cb15" fill-opacity="30%"></circle></g><g id="g-lapt_1cw59eu4rlrt2" transform="matrix(0.13, 0,0, 0.13, 97.31428314208983, 42.120000190734864)" data-item-order="0"><circle id="" cx="0" cy="0" r="24" fill="#92bd39" fill-opacity="30%"></circle></g><g id="g-3_18lbjza4rls01" transform="matrix(0.13, 0,0, 0.13, 97.31428314208983, 31.200000190734865)" data-item-order="0"><circle id="" cx="0" cy="0" r="24" fill="#3cc583" fill-opacity="30%"></circle></g><g id="g-func_1um6ew64r4wzk" transform="matrix(0.13, 0,0, 0.13, 97.31428314208983, 20.280000190734864)" data-item-order="0"><circle id="" cx="0" cy="0" r="24" fill="#1eabda" fill-opacity="30%"></circle></g><g id="tx_ai_dbpwbq4r6c5j" transform="matrix(0.13, 0,0, 0.13, 35.95428314208984, 47.580000190734864)"><path id="" d="M-130.5,0l121.5,0" stroke-linecap="round" stroke="#484848" stroke-opacity="30%" stroke-width="22px"></path></g><g id="tx__vv1i4r6akp" transform="matrix(0.13, 0,0, 0.13, 101.99428314208984, 74.88000019073486)"><path id="" d="M13,0l58,0" stroke-linecap="round" stroke="#484848" stroke-opacity="30%" stroke-width="22px"></path></g><g id="tx__1um6ew64r6b5v" transform="matrix(0.13, 0,0, 0.13, 101.99428314208984, 63.96000019073487)"><path id="" d="M13,0l58,0" stroke-linecap="round" stroke="#484848" stroke-opacity="30%" stroke-width="22px"></path></g><g id="tx__1lqjena4r6byl" transform="matrix(0.13, 0,0, 0.13, 101.99428314208984, 53.040000190734865)"><path id="" d="M13,0l58,0" stroke-linecap="round" stroke="#484848" stroke-opacity="30%" stroke-width="22px"></path></g><g id="tx__1hbcdly4r69l3" transform="matrix(0.13, 0,0, 0.13, 101.99428314208984, 42.120000190734864)"><path id="" d="M13,0l58,0" stroke-linecap="round" stroke="#484848" stroke-opacity="30%" stroke-width="22px"></path></g><g id="tx__1cvivhi4r6add" transform="matrix(0.13, 0,0, 0.13, 101.99428314208984, 31.200000190734865)"><path id="" d="M13,0l18,0" stroke-linecap="round" stroke="#484848" stroke-opacity="30%" stroke-width="22px"></path></g><g id="tx__1cvivhi4r6adf" transform="matrix(0.13, 0,0, 0.13, 101.99428314208984, 20.280000190734864)"><path id="" d="M13,0l18,0" stroke-linecap="round" stroke="#484848" stroke-opacity="30%" stroke-width="22px"></path></g><g id="tx_ai_13zvv8m4r6b65" transform="matrix(0.13, 0,0, 0.13, 68.97428314208985, 9.360000190734864)"><path id="" d="M-91.2,0l186.4,0" stroke-linecap="round" stroke="#484848" stroke-opacity="30%" stroke-width="22px"></path></g></svg>