<svg width="744" height="612" viewBox="0 0 744 612" fill="none" xmlns="http://www.w3.org/2000/svg">
<g id="converge2-v1--family--9">
<g id="lines">
<g id="g-9">
<path id="Vector" d="M347.873 220.016L340.534 237.548L323.643 228.835L330.386 226.38L321.452 201.832C304.384 205.13 286.97 195.64 280.836 178.785C274.035 160.102 283.669 139.443 302.352 132.643C321.035 125.843 341.693 135.476 348.493 154.16C354.62 170.991 347.408 189.426 332.257 197.887L341.196 222.446L347.873 220.016Z" fill="#FAF0FF" stroke="#B960E2" stroke-width="2"/>
</g>
<g id="g-8">
<path id="Vector_2" d="M286.678 259.852L292.326 278L273.785 282.182L277.373 275.967L254.75 262.906C243.795 276.402 224.355 280.326 208.822 271.358C191.603 261.417 185.703 239.4 195.645 222.181C205.586 204.963 227.603 199.063 244.822 209.004C260.334 217.96 266.659 236.718 260.491 252.938L283.125 266.005L286.678 259.852Z" fill="#EDF4FF" stroke="#4987EC" stroke-width="2"/>
</g>
<g id="g-7">
<path id="Vector_3" d="M265.406 329.704L281.398 339.975L269.883 355.097L268.637 348.03L242.91 352.566C243.194 369.947 230.825 385.448 213.16 388.563C193.58 392.015 174.908 378.941 171.456 359.361C168.003 339.781 181.077 321.109 200.658 317.657C218.298 314.546 235.2 324.85 240.901 341.239L266.639 336.701L265.406 329.704Z" fill="#FEECF7" stroke="#D95DA7" stroke-width="2"/>
</g>
<g id="g-6">
<path id="Vector_4" d="M294.01 396.887L312.863 394.476L313.763 413.461L308.265 408.848L291.473 428.86C302.863 441.992 303.352 461.818 291.822 475.558C279.042 490.789 256.335 492.776 241.104 479.996C225.873 467.215 223.887 444.508 236.667 429.278C248.18 415.556 267.751 412.584 282.654 421.475L299.453 401.454L294.01 396.887Z" fill="#F2FAE1" stroke="#93C332" stroke-width="2"/>
</g>
<g id="g-5">
<path id="Vector_5" d="M384.893 430.265L372 416.299L359.108 430.265L366.284 430.265L366.284 456.451C349.118 459.19 336 474.063 336 492C336 511.882 352.118 528 372 528C391.882 528 408 511.882 408 492C408 474.088 394.918 459.231 377.788 456.463L377.788 430.265L384.893 430.265Z" fill="#FEF2E6" stroke="#DB8333" stroke-width="2"/>
</g>
<g id="g-4">
<path id="Vector_6" d="M450.182 397.116L431.329 394.705L430.43 413.691L435.927 409.078L452.759 429.138C441.37 442.27 440.881 462.095 452.411 475.836C465.191 491.066 487.898 493.053 503.129 480.273C518.359 467.493 520.346 444.786 507.566 429.555C496.052 415.834 476.481 412.862 461.579 421.752L444.739 401.684L450.182 397.116Z" fill="#E8F9FF" stroke="#17AEE1" stroke-width="2"/>
</g>
<g id="g-3">
<path id="Vector_7" d="M478.889 329.756L462.897 340.028L474.412 355.149L475.658 348.082L501.446 352.629C501.163 370.01 513.532 385.511 531.196 388.626C550.777 392.078 569.448 379.004 572.901 359.424C576.353 339.844 563.279 321.172 543.699 317.72C526.059 314.609 509.156 324.913 503.455 341.302L477.656 336.753L478.889 329.756Z" fill="#FFEDEB" stroke="#DF5E59" stroke-width="2"/>
</g>
<g id="g-2">
<path id="Vector_8" d="M470.215 282.183L451.674 278L457.322 259.852L460.91 266.067L483.534 253.005C477.323 236.77 483.644 217.973 499.178 209.004C516.397 199.063 538.414 204.963 548.355 222.181C558.296 239.4 552.397 261.417 535.178 271.358C519.666 280.314 500.259 276.413 489.296 262.962L466.662 276.029L470.215 282.183Z" fill="#E7FBF2" stroke="#3CC583" stroke-width="2"/>
</g>
<g id="g-1">
<path id="Vector_9" d="M420.357 228.835L403.466 237.548L396.127 220.016L402.871 222.47L411.805 197.922C396.612 189.478 389.371 171.015 395.506 154.159C402.306 135.476 422.965 125.843 441.648 132.643C460.331 139.443 469.964 160.102 463.164 178.785C457.038 195.617 439.664 205.103 422.619 201.846L413.68 226.405L420.357 228.835Z" fill="#FEFBDB" stroke="#D1BD08" stroke-width="2"/>
</g>
<g id="g-0">
<path id="cr-big" d="M444 323.996C444 284.232 411.765 251.996 372 251.996V251.996C332.236 251.996 300 284.232 300 323.996V323.996C300 363.761 332.236 395.996 372 395.996V395.996C411.764 395.996 444 363.761 444 323.996V323.996Z" fill="#F6F6F6" stroke="#BCBCBC" stroke-width="2"/>
</g>
</g>
<path id="tx-cb-title" d="M72 24L672 24V72L72 72L72 24Z" fill="#FF0000" fill-opacity="0.1"/>
<path id="ic-cc-end" d="M336 287.996H408V359.996H336V287.996Z" fill="#33DE7B" fill-opacity="0.1"/>
<path id="tx-rb-9" d="M108 96L264 96L264 168L108 168L108 96Z" fill="#FF0000" fill-opacity="0.1"/>
<path id="ic-cc-9" d="M290.629 141.632H338.629V189.632H290.629V141.632Z" fill="#33DE7B" fill-opacity="0.1"/>
<rect id="bt-cc-remove-9" x="288.199" y="114.532" width="24" height="24" fill="#1AC6FF" fill-opacity="0.2"/>
<path id="tx-rc-8" d="M24 204H180V276H24V204Z" fill="#FF0000" fill-opacity="0.1"/>
<path id="ic-cc-8" d="M202 216H250V264H202V216Z" fill="#33DE7B" fill-opacity="0.1"/>
<rect id="bt-cc-remove-8" x="178" y="207" width="24" height="24" fill="#1AC6FF" fill-opacity="0.2"/>
<path id="tx-rc-7" d="M6 319H162V391H6V319Z" fill="#FF0000" fill-opacity="0.1"/>
<path id="ic-cc-7" d="M182.163 329.499H230.163V377.499H182.163V329.499Z" fill="#33DE7B" fill-opacity="0.1"/>
<rect id="bt-cc-remove-7" opacity="0.7" x="153.087" y="348.553" width="24" height="24" fill="#1AC6FF" fill-opacity="0.2"/>
<path id="tx-rc-6" d="M60 432H216V504H60V432Z" fill="#FF0000" fill-opacity="0.1"/>
<path id="ic-cc-6" d="M239.924 429.195H287.924V477.195H239.924V429.195Z" fill="#33DE7B" fill-opacity="0.1"/>
<rect id="bt-cc-remove-6" x="224.991" y="473.002" width="24" height="24" fill="#1AC6FF" fill-opacity="0.2"/>
<path id="tx-ct-5" d="M288 540H456V612H288V540Z" fill="#FF0000" fill-opacity="0.1"/>
<path id="ic-cc-5" d="M348 468H396V516H348V468Z" fill="#33DE7B" fill-opacity="0.1"/>
<rect id="bt-cc-remove-5" x="360" y="522" width="24" height="24" fill="#1AC6FF" fill-opacity="0.2"/>
<path id="tx-lc-4" d="M528 432H684V504H528V432Z" fill="#FF0000" fill-opacity="0.1"/>
<path id="ic-cc-4" d="M455.988 428.695H503.988V476.695H455.988V428.695Z" fill="#33DE7B" fill-opacity="0.1"/>
<rect id="bt-cc-remove-4" x="494.985" y="472.869" width="24" height="24" fill="#1AC6FF" fill-opacity="0.2"/>
<path id="tx-lc-3" d="M582 319H738V391H582V319Z" fill="#FF0000" fill-opacity="0.1"/>
<path id="ic-cc-3" d="M513.448 329.173H561.448V377.173H513.448V329.173Z" fill="#33DE7B" fill-opacity="0.1"/>
<rect id="bt-cc-remove-3" x="566.81" y="348.466" width="24" height="24" fill="#1AC6FF" fill-opacity="0.2"/>
<path id="tx-lc-2" d="M564 204H720V276H564V204Z" fill="#FF0000" fill-opacity="0.1"/>
<path id="ic-cc-2" d="M494 216H542V264H494V216Z" fill="#33DE7B" fill-opacity="0.1"/>
<rect id="bt-cc-remove-2" x="542" y="207" width="24" height="24" fill="#1AC6FF" fill-opacity="0.2"/>
<path id="tx-lb-1" d="M480 96H636V168H480V96Z" fill="#FF0000" fill-opacity="0.1"/>
<path id="ic-cc-1" d="M405.848 141.805H453.848V189.805H405.848V141.805Z" fill="#33DE7B" fill-opacity="0.1"/>
<rect id="bt-cc-remove-1" x="431.927" y="114.578" width="24" height="24" fill="#1AC6FF" fill-opacity="0.2"/>
<rect id="bt-cc-add-10" x="360.239" y="148.514" width="24" height="24" fill="#1AC6FF" fill-opacity="0.2"/>
<rect id="bt-cc-add-9" x="252.984" y="183" width="24" height="24" fill="#1AC6FF" fill-opacity="0.2"/>
<rect id="bt-cc-add-8" x="200.991" y="282" width="24" height="24" fill="#1AC6FF" fill-opacity="0.2"/>
<rect id="bt-cc-add-7" x="218.163" y="392.299" width="24" height="24" fill="#1AC6FF" fill-opacity="0.2"/>
<rect id="bt-cc-add-6" x="305.962" y="461.002" width="24" height="24" fill="#1AC6FF" fill-opacity="0.2"/>
<rect id="bt-cc-add-5" x="413.994" y="465.195" width="24" height="24" fill="#1AC6FF" fill-opacity="0.2"/>
<rect id="bt-cc-add-4" x="504" y="396" width="24" height="24" fill="#1AC6FF" fill-opacity="0.2"/>
<rect id="bt-cc-add-3" x="516" y="282" width="24" height="24" fill="#1AC6FF" fill-opacity="0.2"/>
<rect id="bt-cc-add-2" x="463.477" y="185.096" width="24" height="24" fill="#1AC6FF" fill-opacity="0.2"/>
</g>
</svg>
