<svg xmlns="http://www.w3.org/2000/svg" width="816" height="504">    <g id="prism-rays-v1--family--4">        <g id="lines">            <g id="g-0">                <g id="cu" >                    <path id="Vector" transform="translate(12, 180)" fill="#f0f0f0" d="M240 120 C240 186.274 186.274 240 120 240 C53.7258 240 0 186.274 0 120 C0 53.7258 53.7258 0 120 0 C186.274 0 240 53.7258 240 120 Z"></path>
                    <path id="Vector_1" transform="translate(12, 180)" fill="none" stroke="#484848" stroke-width="2" stroke-linejoin="miter" stroke-linecap="none" stroke-miterlimit="4"  d="M 240 120 C 240 186.2742 186.2742 240 120 240 C 53.7258 240 0 186.2742 0 120 C 0 53.7258 53.7258 0 120 0 C 186.2742 0 240 53.7258 240 120 Z"></path></g></g>
            <g id="g-4">                <g id="cu_1" >                    <path id="Vector_2" transform="translate(228.0087890625, 336)" fill="#fef2e6" d="M575.991 60 L155.991 60 L18.4976 0 C14.3791 13.1129 8.0703 25.2558 0 36 L155.991 156 L575.991 156 L575.991 60 Z"></path>
                    <path id="Vector_3" transform="translate(228.0087890625, 336)" fill="none" stroke="#db8333" stroke-width="2" stroke-linejoin="miter" stroke-linecap="none" stroke-miterlimit="4"  d="M 575.9912 60 L 155.9912 60 L 18.4976 0 C 14.3791 13.1129 8.0703 25.2558 0 36 L 155.9912 156 L 575.9912 156 L 575.9912 60 Z"></path></g></g>
            <g id="g-3">                <g id="cu_2" >                    <path id="Vector_4" transform="translate(246.50634765625, 300)" fill="#faf0ff" d="M557.494 0 L137.494 0 L5.4936 0 C5.4936 12.5425 3.5694 24.6355 0 36 L137.494 96 L557.494 96 L557.494 0 Z"></path>
                    <path id="Vector_5" transform="translate(246.50634765625, 300)" fill="none" stroke="#b960e2" stroke-width="2" stroke-linejoin="miter" stroke-linecap="none" stroke-miterlimit="4"  d="M 557.4937 0 L 137.4936 0 L 5.4936 0 C 5.4936 12.5425 3.5694 24.6355 0 36 L 137.4936 96 L 557.4937 96 L 557.4937 0 Z"></path></g></g>
            <g id="g-2">                <g id="cu_3" >                    <path id="Vector_6" transform="translate(246.50634765625, 204)" fill="#f2fae1" d="M557.494 0 L137.494 0 L0 60 C3.5694 71.3645 5.4936 83.4575 5.4936 96 L137.494 96 L557.494 96 L557.494 0 Z"></path>
                    <path id="Vector_7" transform="translate(246.50634765625, 204)" fill="none" stroke="#93c332" stroke-width="2" stroke-linejoin="miter" stroke-linecap="none" stroke-miterlimit="4"  d="M 557.4937 0 L 137.4936 0 L 0 60 C 3.5694 71.3645 5.4936 83.4575 5.4936 96 L 137.4936 96 L 557.4937 96 L 557.4937 0 Z"></path></g></g>
            <g id="g-1">                <g id="cu_4" >                    <path id="Vector_8" transform="translate(228.0087890625, 108)" fill="#e8f9ff" d="M575.991 0 L155.991 0 L0 120 C8.0703 130.744 14.3791 142.887 18.4976 156 L155.991 96 L575.991 96 L575.991 0 Z"></path>
                    <path id="Vector_9" transform="translate(228.0087890625, 108)" fill="none" stroke="#17aee1" stroke-width="2" stroke-linejoin="miter" stroke-linecap="none" stroke-miterlimit="4"  d="M 575.9912 0 L 155.9912 0 L 0 120 C 8.0703 130.7442 14.3791 142.8871 18.4976 156 L 155.9912 96 L 575.9912 96 L 575.9912 0 Z"></path></g></g></g>
        <path id="tx-cb-title" transform="matrix(1, -1.6081230200044232e-16, 1.6081230200044232e-16, 1, 108, 0)" fill="#ff00001a" d="M0 0 L600 0 L600 48 L0 48 L0 0 Z"></path>
        <g id="tx-cc-start">            <path id="rect" transform="translate(48, 240)" fill="#ff00001a" d="M0 0 L168 0 L168 120 L0 120 L0 0 Z"></path>
            <text id="Label" fill="#484848" transform="translate(93.5, 292)" font-size="20" font-family="Roboto" font-weight="700" data-align="horizontal:CENTER;vertical:CENTER"></text></g>
        <path id="tx-lc-1" transform="matrix(1, 0, 0, -1, 480, 192)" fill="#ff00001a" d="M0 0 L288 0 L288 72 L0 72 L0 0 Z"></path>
        <path id="tx-lc-2" transform="matrix(1, 0, 0, -1, 480, 288)" fill="#ff00001a" d="M0 0 L288 0 L288 72 L0 72 L0 0 Z"></path>
        <path id="tx-lc-3" transform="matrix(1, 5.551115123125783e-17, 5.551115123125783e-17, -1, 480, 384)" fill="#ff00001a" d="M0 0 L288 0 L288 72 L0 72 L0 0 Z"></path>
        <path id="tx-lc-4" transform="matrix(1, 5.551115123125783e-17, 5.551115123125783e-17, -1, 480, 480)" fill="#ff00001a" d="M0 0 L288 0 L288 72 L0 72 L0 0 Z"></path>
        <path id="ic-cc-1" transform="matrix(1, 5.551115123125783e-17, 5.551115123125783e-17, -1, 420, 180)" fill="#33de7b1a" d="M0 0 L48 0 L48 48 L0 48 L0 0 Z"></path>
        <path id="ic-cc-2" transform="matrix(1, 5.551115123125783e-17, 5.551115123125783e-17, -1, 420, 276)" fill="#33de7b1a" d="M0 0 L48 0 L48 48 L0 48 L0 0 Z"></path>
        <path id="ic-cc-3" transform="matrix(1, 5.551115123125783e-17, 5.551115123125783e-17, -1, 420, 372)" fill="#33de7b1a" d="M0 0 L48 0 L48 48 L0 48 L0 0 Z"></path>
        <path id="ic-cc-4" transform="matrix(1, 5.551115123125783e-17, 5.551115123125783e-17, -1, 420, 468)" fill="#33de7b1a" d="M0 0 L48 0 L48 48 L0 48 L0 0 Z"></path>
        <rect id="bt-cc-remove-1" fill="#1ac6ff33" transform="matrix(1, 5.551115123125783e-17, 5.551115123125783e-17, -1, 396, 168)" width="24" height="24" rx="0" ry="0"></rect>
        <rect id="bt-cc-remove-2" fill="#1ac6ff33" transform="matrix(1, 5.551115123125783e-17, 5.551115123125783e-17, -1, 396, 264)" width="24" height="24" rx="0" ry="0"></rect>
        <rect id="bt-cc-remove-3" fill="#1ac6ff33" transform="matrix(1, 5.551115123125783e-17, 5.551115123125783e-17, -1, 396, 360)" width="24" height="24" rx="0" ry="0"></rect>
        <rect id="bt-cc-remove-4" fill="#1ac6ff33" transform="matrix(1, 5.551115123125783e-17, 5.551115123125783e-17, -1, 396, 456)" width="24" height="24" rx="0" ry="0"></rect>
        <rect id="bt-cc-add-5" fill="#1ac6ff33" transform="matrix(-4.371138828673793e-8, 1, -1, -4.371138828673793e-8, 636, 480)" width="24" height="24" rx="0" ry="0"></rect>
        <rect id="bt-cc-add-4" fill="#1ac6ff33" transform="matrix(-4.371138828673793e-8, 1, -1, -4.371138828673793e-8, 636, 384)" width="24" height="24" rx="0" ry="0"></rect>
        <rect id="bt-cc-add-3" fill="#1ac6ff33" transform="matrix(-4.371138828673793e-8, 1, -1, -4.371138828673793e-8, 636, 288)" width="24" height="24" rx="0" ry="0"></rect>
        <rect id="bt-cc-add-2" fill="#1ac6ff33" transform="matrix(-4.371138828673793e-8, 1, -1, -4.371138828673793e-8, 636, 192)" width="24" height="24" rx="0" ry="0"></rect>
        <rect id="bt-cc-add-1" fill="#1ac6ff33" transform="matrix(-4.371138828673793e-8, 1, -1, -4.371138828673793e-8, 636, 96)" width="24" height="24" rx="0" ry="0"></rect></g></svg>