<svg xmlns="http://www.w3.org/2000/svg" width="744" height="612">    <g id="sector-color2-v7--family--4">        <g id="lines">            <g id="g-0">                <ellipse id="cr-big" stroke="#bcbcbc" fill="#f6f6f6" stroke-width="2" stroke-linejoin="miter"  transform="translate(312.0000686645508, 263.99991607666016)" cx="60" cy="60" rx="60" ry="60"></ellipse></g>
            <g id="g-4">                <g id="cu_2" >                    <path id="cu" transform="translate(228.00005722045898, 147.60028076171875)" fill="#e8f9ff" d="M84.0017 176.403 L8.4294e-7 176.403 L0 176.4 C-1.1801e-6 89.3166 61.8402 16.6771 144.002 0 L144.002 116.403 C110.865 116.403 84.0017 143.266 84.0017 176.403 Z"></path>
                    <path id="cu_1" transform="translate(228.00005722045898, 147.60028076171875)" fill="none" stroke="#17aee1" stroke-width="2" stroke-linejoin="miter" stroke-linecap="none" stroke-miterlimit="4"  d="M 84.0017 176.403 L 8.4294e-7 176.4031 L 1.689e-14 176.3997 C -0 89.3166 61.8402 16.6771 144.0016 0 L 144.0016 116.403 C 110.8646 116.403 84.0017 143.2659 84.0017 176.403 Z"></path></g></g>
            <g id="g-3">                <g id="cu_5" >                    <path id="cu_3" transform="translate(195.60040283203125, 323.99993896484375)" fill="#ffedeb" d="M176.401 60 L176.401 144 L176.399 144 C89.3168 144 16.6777 82.1608 0 1.3487e-5 L116.401 0 C116.401 33.1371 143.264 60 176.401 60 Z"></path>
                    <path id="cu_4" transform="translate(195.60040283203125, 323.99993896484375)" fill="none" stroke="#df5e59" stroke-width="2" stroke-linejoin="miter" stroke-linecap="none" stroke-miterlimit="4"  d="M 176.4012 60 L 176.4013 144.0002 L 176.3994 144.0002 C 89.3168 144.0002 16.6777 82.1607 0 0 L 116.4012 0 C 116.4012 33.1371 143.2641 60 176.4012 60 Z"></path></g></g>
            <g id="g-2">                <g id="cu_8" >                    <path id="cu_6" transform="translate(371.99835205078125, 323.9999542236328)" fill="#e7fbf2" d="M60.0001 0 L144.002 5.2937e-5 C144.002 87.0832 82.1615 159.723 0 176.4 L7.8595e-5 60 C33.1372 60 60.0001 33.1371 60.0001 0 Z"></path>
                    <path id="cu_7" transform="translate(371.99835205078125, 323.9999542236328)" fill="none" stroke="#3cc583" stroke-width="2" stroke-linejoin="miter" stroke-linecap="none" stroke-miterlimit="4"  d="M 60.0001 0 L 144.0018 0.0001 C 144.0018 87.0832 82.1615 159.7227 0 176.3998 L 0.0001 60 C 33.1372 60 60.0001 33.1371 60.0001 0 Z"></path></g></g>
            <g id="g-1">                <g id="cu_11" >                    <path id="cu_9" transform="translate(371.9986267089844, 180)" fill="#fefbdb" d="M0 84.0033 L1.6862e-6 0 L0.0016 4.0415e-7 C87.0853 7.3407e-6 159.725 61.8411 176.402 144.003 L60 144.003 C60 110.866 33.1371 84.0033 0 84.0033 Z"></path>
                    <path id="cu_10" transform="translate(371.9986267089844, 180)" fill="none" stroke="#d1bd08" stroke-width="2" stroke-linejoin="miter" stroke-linecap="none" stroke-miterlimit="4"  d="M 0 84.0033 L 0 0 L 0.0016 4.0415e-7 C 87.0853 0 159.7252 61.8411 176.4016 144.0034 L 60 144.0034 C 60 110.8663 33.1371 84.0033 0 84.0033 Z"></path></g></g></g>
        <path id="tx-cb-title" transform="matrix(1, -1.6081230200044232e-16, 1.6081230200044232e-16, 1, 72, 60)" fill="#ff00001a" d="M0 0 L600 0 L600 48 L0 48 L0 0 Z"></path>
        <path id="ic-cc-0" transform="matrix(1, -5.551115123125783e-17, 5.551115123125783e-17, 1, 336, 287.99609375)" fill="#33de7b1a" d="M0 0 L72 0 L72 72 L0 72 L0 0 Z"></path>
        <rect id="bt-cc-remove-4" fill="#1ac6ff33" transform="translate(252, 204)" width="24" height="24" rx="0" ry="0"></rect>
        <rect id="bt-cc-remove-3" fill="#1ac6ff33" transform="matrix(0.9999999403953552, 5.551115123125783e-17, -5.551115123125783e-17, 0.9999999403953552, 252, 420)" width="24" height="24" rx="0" ry="0"></rect>
        <rect id="bt-cc-remove-2" fill="#1ac6ff33" transform="translate(468, 420)" width="24" height="24" rx="0" ry="0"></rect>
        <rect id="bt-cc-remove-1" fill="#1ac6ff33" transform="matrix(0.9999999403953552, 5.551115123125783e-17, -5.551115123125783e-17, 0.9999999403953552, 468, 204)" width="24" height="24" rx="0" ry="0"></rect>
        <rect id="bt-cc-add-5" fill="#1ac6ff33" transform="translate(360, 210)" width="24" height="24" rx="0" ry="0"></rect>
        <rect id="bt-cc-add-4" fill="#1ac6ff33" transform="translate(258, 312)" width="24" height="24" rx="0" ry="0"></rect>
        <rect id="bt-cc-add-3" fill="#1ac6ff33" transform="translate(360, 414)" width="24" height="24" rx="0" ry="0"></rect>
        <rect id="bt-cc-add-2" fill="#1ac6ff33" transform="translate(462, 312)" width="24" height="24" rx="0" ry="0"></rect>
        <path id="ic-cc-4" transform="matrix(1, -1.6081230200044232e-16, 1.6081230200044232e-16, 1, 282, 222)" fill="#33de7b1a" d="M0 0 L48 0 L48 48 L0 48 L0 0 Z"></path>
        <path id="ic-cc-3" transform="matrix(1, -1.6081230200044232e-16, 1.6081230200044232e-16, 1, 270, 366)" fill="#33de7b1a" d="M0 0 L48 0 L48 48 L0 48 L0 0 Z"></path>
        <path id="ic-cc-2" transform="matrix(1, -1.6081230200044232e-16, 1.6081230200044232e-16, 1, 414, 378)" fill="#33de7b1a" d="M0 0 L48 0 L48 48 L0 48 L0 0 Z"></path>
        <path id="ic-cc-1" transform="matrix(1, -1.6081230200044232e-16, 1.6081230200044232e-16, 1, 426, 234)" fill="#33de7b1a" d="M0 0 L48 0 L48 48 L0 48 L0 0 Z"></path>
        <path id="tx-rb-4" transform="matrix(1, -5.551115123125783e-17, 5.551115123125783e-17, 1, 72, 132)" fill="#ff00001a" d="M0 0 L168 0 L168 72 L0 72 L0 0 Z"></path>
        <path id="tx-rt-3" transform="matrix(1, -5.551115123125783e-17, 5.551115123125783e-17, 1, 72, 444)" fill="#ff00001a" d="M0 0 L168 0 L168 72 L0 72 L0 0 Z"></path>
        <path id="tx-lt-2" transform="matrix(1, -5.551115123125783e-17, 5.551115123125783e-17, 1, 504, 444)" fill="#ff00001a" d="M0 0 L168 0 L168 72 L0 72 L0 0 Z"></path>
        <path id="tx-lb-1" transform="matrix(1, -5.551115123125783e-17, 5.551115123125783e-17, 1, 504, 132)" fill="#ff00001a" d="M0 0 L168 0 L168 72 L0 72 L0 0 Z"></path></g></svg>