<svg xmlns="http://www.w3.org/2000/svg" width="744" height="612">    <g id="sector-color2-v7--family--5">        <g id="lines">            <g id="g-0">                <g id="Group_4">                    <ellipse id="cr-big" stroke="#bcbcbc" fill="#f6f6f6" stroke-width="2" stroke-linejoin="miter"  transform="translate(312.00000762939453, 263.99999237060547)" cx="60" cy="60" rx="60" ry="60"></ellipse></g></g>
            <g id="g-5">                <g id="cu_2" >                    <path id="cu" transform="translate(235.05579376220703, 149.44033813476562)" fill="#fef2e6" d="M79.8887 155.994 L0 130.037 C21.4915 63.9212 74.472 16.839 136.941 0 L136.931 114.543 C111.647 114.544 88.1342 130.653 79.8887 155.994 Z"></path>
                    <path id="cu_1" transform="translate(235.05579376220703, 149.44033813476562)" fill="none" stroke="#db8333" stroke-width="2" stroke-linejoin="miter" stroke-linecap="none" stroke-miterlimit="4"  d="M 79.8887 155.9942 L 0 130.0368 C 21.4915 63.9212 74.472 16.839 136.9408 0 L 136.9309 114.5434 C 111.6473 114.5439 88.1342 130.6532 79.8887 155.9942 Z"></path></g></g>
            <g id="g-4">                <g id="cu_5" >                    <path id="cu_3" transform="translate(205.72628784179688, 270.06131744384766)" fill="#e8f9ff" d="M130.986 102.465 L81.6118 170.422 C25.3734 129.552 -3.0325 64.6149 0.2565 0 L109.191 35.4053 C101.378 59.4515 109.433 86.7919 130.986 102.465 Z"></path>
                    <path id="cu_4" transform="translate(205.72628784179688, 270.06131744384766)" fill="none" stroke="#17aee1" stroke-width="2" stroke-linejoin="miter" stroke-linecap="none" stroke-miterlimit="4"  d="M 130.9857 102.4647 L 81.6118 170.422 C 25.3734 129.5516 -3.0325 64.6149 0.2565 0 L 109.1907 35.4053 C 101.3781 59.4515 109.433 86.7919 130.9857 102.4647 Z"></path></g></g>
            <g id="g-3">                <g id="cu_8" >                    <path id="cu_6" transform="translate(269.3990707397461, 372.5561981201172)" fill="#ffedeb" d="M137.847 0 L187.221 67.9574 C130.972 108.814 60.436 115.763 0 92.6675 L67.335 0.0058 C87.7901 14.8667 116.281 15.6547 137.847 0 Z"></path>
                    <path id="cu_7" transform="translate(269.3990707397461, 372.5561981201172)" fill="none" stroke="#df5e59" stroke-width="2" stroke-linejoin="miter" stroke-linecap="none" stroke-miterlimit="4"  d="M 137.8472 0 L 187.2211 67.9574 C 130.9724 108.8135 60.436 115.7627 0 92.6675 L 67.335 0.0058 C 87.7901 14.8667 116.2814 15.6547 137.8472 0 Z"></path></g></g>
            <g id="g-2">                <g id="cu_11" >                    <path id="cu_9" transform="translate(407.287353515625, 279.5260009765625)" fill="#e7fbf2" d="M21.784 25.9574 L101.673 0 C123.147 66.121 107.96 135.352 67.3189 185.694 L0 93.0203 C20.4546 78.1587 30.0083 51.3053 21.784 25.9574 Z"></path>
                    <path id="cu_10" transform="translate(407.287353515625, 279.5260009765625)" fill="none" stroke="#3cc583" stroke-width="2" stroke-linejoin="miter" stroke-linecap="none" stroke-miterlimit="4"  d="M 21.784 25.9574 L 101.6727 0 C 123.1474 66.121 107.9595 135.3525 67.3189 185.6938 L 0 93.0203 C 20.4546 78.1587 30.0083 51.3053 21.784 25.9574 Z"></path></g></g>
            <g id="g-1">                <g id="cu_14" >                    <path id="cu_12" transform="translate(372.02569580078125, 180.00000190734863)" fill="#fefbdb" d="M0 83.9999 L0 0 C69.5208 0.0088 130.671 35.8471 165.989 90.0549 L57.049 125.441 C49.2355 101.395 26.6487 84.0111 0 83.9999 Z"></path>
                    <path id="cu_13" transform="translate(372.02569580078125, 180.00000190734863)" fill="none" stroke="#d1bd08" stroke-width="2" stroke-linejoin="miter" stroke-linecap="none" stroke-miterlimit="4"  d="M 0 83.9999 L 0 0 C 69.5208 0.0088 130.6706 35.8471 165.9893 90.0549 L 57.049 125.4413 C 49.2355 101.3954 26.6487 84.0111 0 83.9999 Z"></path></g></g></g>
        <path id="ic-cc-0" transform="matrix(1, -5.551115123125783e-17, 5.551115123125783e-17, 1, 336, 287.99609375)" fill="#33de7b1a" d="M0 0 L72 0 L72 72 L0 72 L0 0 Z"></path>
        <rect id="bt-cc-add-6" fill="#1ac6ff33" transform="matrix(1, -2.7755575615628914e-17, 2.7755575615628914e-17, 1, 360, 210)" width="24" height="24" rx="0" ry="0"></rect>
        <rect id="bt-cc-add-5" fill="#1ac6ff33" transform="matrix(1, 1.1102230246251565e-16, -1.1102230246251565e-16, 1, 262.9921875, 280.48028564453125)" width="24" height="24" rx="0" ry="0"></rect>
        <rect id="bt-cc-add-4" fill="#1ac6ff33" transform="matrix(1, -2.7755575615628914e-16, 2.7755575615628914e-16, 1, 300.0458984375, 394.519775390625)" width="24" height="24" rx="0" ry="0"></rect>
        <rect id="bt-cc-add-3" fill="#1ac6ff33" transform="matrix(1, 2.7755575615628914e-16, -2.7755575615628914e-16, 1, 419.9541015625, 394.519775390625)" width="24" height="24" rx="0" ry="0"></rect>
        <rect id="bt-cc-add-2" fill="#1ac6ff33" transform="matrix(1, -1.1102230246251565e-16, 1.1102230246251565e-16, 1, 457.00775146484375, 280.4803466796875)" width="24" height="24" rx="0" ry="0"></rect>
        <path id="ic-cc-5" transform="matrix(0.9999999403953552, 0, 0, 0.9999999403953552, 288.0667724609375, 217.4652099609375)" fill="#33de7b1a" d="M0 0 L48 0 L48 48 L0 48 L0 0 Z"></path>
        <path id="ic-cc-4" transform="matrix(0.9999999403953552, 1.6653345369377348e-16, -1.6653345369377348e-16, 0.9999999403953552, 250.98431396484375, 331.495361328125)" fill="#33de7b1a" d="M0 0 L48 0 L48 48 L0 48 L0 0 Z"></path>
        <path id="ic-cc-3" transform="matrix(0.9999999403953552, 2.194192395399064e-16, -2.194192395399064e-16, 0.9999999403953552, 347.97430419921875, 402.00006103515625)" fill="#33de7b1a" d="M0 0 L48 0 L48 48 L0 48 L0 0 Z"></path>
        <path id="ic-cc-2" transform="matrix(0.9999999403953552, -2.220446049250313e-16, 2.220446049250313e-16, 0.9999999403953552, 444.9998779296875, 331.54412841796875)" fill="#33de7b1a" d="M0 0 L48 0 L48 48 L0 48 L0 0 Z"></path>
        <path id="ic-cc-1" transform="matrix(0.9999999403953552, -5.551115123125783e-17, 5.551115123125783e-17, 0.9999999403953552, 407.974853515625, 217.495361328125)" fill="#33de7b1a" d="M0 0 L48 0 L48 48 L0 48 L0 0 Z"></path>
        <rect id="bt-cc-remove-5" fill="#1ac6ff33" transform="matrix(1, 1.1102230246251565e-16, -1.1102230246251565e-16, 1, 275.3590087890625, 195.5015869140625)" width="24" height="24" rx="0" ry="0"></rect>
        <rect id="bt-cc-remove-4" fill="#1ac6ff33" transform="translate(223.0478515625, 356.4984130859375)" width="24" height="24" rx="0" ry="0"></rect>
        <rect id="bt-cc-remove-3" fill="#1ac6ff33" transform="matrix(1, 1.2246468525851679e-16, -1.2246468525851679e-16, 1, 359.99993896484375, 456.00006103515625)" width="24" height="24" rx="0" ry="0"></rect>
        <rect id="bt-cc-remove-2" fill="#1ac6ff33" transform="translate(496.9521789550781, 356.49853515625)" width="24" height="24" rx="0" ry="0"></rect>
        <rect id="bt-cc-remove-1" fill="#1ac6ff33" transform="matrix(1, -5.551115123125783e-17, 5.551115123125783e-17, 1, 444.64111328125, 195.5015869140625)" width="24" height="24" rx="0" ry="0"></rect>
        <path id="tx-cb-title" transform="matrix(1, -1.6081230200044232e-16, 1.6081230200044232e-16, 1, 72, 36)" fill="#ff00001a" d="M0 0 L600 0 L600 48 L0 48 L0 0 Z"></path>
        <path id="tx-rb-5" transform="matrix(1, -5.551115123125783e-17, 5.551115123125783e-17, 1, 96, 108)" fill="#ff00001a" d="M0 0 L168 0 L168 72 L0 72 L0 0 Z"></path>
        <path id="tx-rc-4" transform="matrix(1, -5.551115123125783e-17, 5.551115123125783e-17, 1, 24, 324)" fill="#ff00001a" d="M0 0 L168 0 L168 72 L0 72 L0 0 Z"></path>
        <path id="tx-ct-3" transform="matrix(1, -5.551115123125783e-17, 5.551115123125783e-17, 1, 288, 504)" fill="#ff00001a" d="M0 0 L168 0 L168 72 L0 72 L0 0 Z"></path>
        <path id="tx-lc-2" transform="translate(552, 324)" fill="#ff00001a" d="M0 0 L168 0 L168 72 L0 72 L0 0 Z"></path>
        <path id="tx-lb-1" transform="matrix(1, -5.551115123125783e-17, 5.551115123125783e-17, 1, 480, 108)" fill="#ff00001a" d="M0 0 L168 0 L168 72 L0 72 L0 0 Z"></path></g></svg>