<svg xmlns="http://www.w3.org/2000/svg" width="744" height="612">    <g id="sector-color2-v7--family--6">        <g id="lines">            <g id="g-0">                <ellipse id="cr-big" stroke="#bcbcbc" fill="#f6f6f6" stroke-width="2" stroke-linejoin="miter"  transform="translate(312, 264.00003814697266)" cx="60" cy="60" rx="60" ry="60"></ellipse></g>
            <g id="g-6">                <g id="cu_2" >                    <path id="cu" transform="translate(247.29230499267578, 149.9473114013672)" fill="#f2fae1" d="M72.7375 144.048 C83.097 126.143 102.443 114.089 124.608 114.053 L124.608 0 C73.8556 17.0903 28.8811 52.0292 0 102.053 L72.7375 144.048 Z"></path>
                    <path id="cu_1" transform="translate(247.29230499267578, 149.9473114013672)" fill="none" stroke="#93c332" stroke-width="2" stroke-linejoin="round" stroke-linecap="none" stroke-miterlimit="4"  d="M 72.7375 144.0477 C 83.097 126.1433 102.4431 114.0889 124.6077 114.0528 L 124.6077 0 C 73.8556 17.0903 28.8811 52.0292 0 102.0526 L 72.7375 144.0477 Z"></path></g></g>
            <g id="g-5">                <g id="cu_5" >                    <path id="cu_3" transform="translate(216.70811446930017, 237.0602264404297)" fill="#fef2e6" d="M103.322 116.945 C98.2148 108.118 95.2919 97.8705 95.2919 86.9398 C95.2919 76.0448 98.1958 65.8281 103.272 57.0213 L4.508 0 C-6.0675 52.4977 1.7032 108.916 30.5843 158.94 L103.322 116.945 Z"></path>
                    <path id="cu_4" transform="translate(216.70811446930017, 237.0602264404297)" fill="none" stroke="#db8333" stroke-width="2" stroke-linejoin="round" stroke-linecap="none" stroke-miterlimit="4"  d="M 103.3217 116.9448 C 98.2148 108.1184 95.2919 97.8705 95.2919 86.9398 C 95.2919 76.0448 98.1958 65.8281 103.2718 57.0213 L 4.508 0 C -6.0675 52.4977 1.7032 108.9163 30.5843 158.9397 L 103.3217 116.9448 Z"></path></g></g>
            <g id="g-4">                <g id="cu_8" >                    <path id="cu_6" transform="translate(221.31603347340888, 354.0914782872313)" fill="#e8f9ff" d="M150.684 29.9085 C128.513 29.9085 109.151 17.8836 98.7639 0 L0 57.0214 C40.1767 92.4289 92.9219 113.909 150.684 113.909 L150.684 29.9085 Z"></path>
                    <path id="cu_7" transform="translate(221.31603347340888, 354.0914782872313)" fill="none" stroke="#17aee1" stroke-width="2" stroke-linejoin="round" stroke-linecap="none" stroke-miterlimit="4"  d="M 150.684 29.9085 C 128.5133 29.9085 109.1512 17.8836 98.7639 0 L 0 57.0214 C 40.1767 92.4289 92.9219 113.9085 150.684 113.9085 L 150.684 29.9085 Z"></path></g></g>
            <g id="g-3">                <g id="cu_11" >                    <path id="cu_9" transform="translate(372.0999450683594, 354.0049743652344)" fill="#ffedeb" d="M51.8703 0 C41.5108 17.9044 22.1647 29.9588 0 29.995 L1.0896e-5 144.048 C50.7521 126.957 95.7267 92.0184 124.608 41.995 L51.8703 0 Z"></path>
                    <path id="cu_10" transform="translate(372.0999450683594, 354.0049743652344)" fill="none" stroke="#df5e59" stroke-width="2" stroke-linejoin="round" stroke-linecap="none" stroke-miterlimit="4"  d="M 51.8703 0 C 41.5108 17.9044 22.1647 29.9588 0 29.995 L 0 144.0476 C 50.7521 126.9574 95.7267 92.0184 124.6077 41.995 L 51.8703 0 Z"></path></g></g>
            <g id="g-2">                <g id="cu_14" >                    <path id="cu_12" transform="translate(423.9701232910156, 251.9999771118164)" fill="#e7fbf2" d="M0 41.9949 C5.1069 50.8213 8.0299 61.0693 8.0299 72 C8.0299 82.895 5.126 93.1117 0.05 101.919 L98.8137 158.94 C109.389 106.442 101.618 50.0234 72.7374 0 L0 41.9949 Z"></path>
                    <path id="cu_13" transform="translate(423.9701232910156, 251.9999771118164)" fill="none" stroke="#3cc583" stroke-width="2" stroke-linejoin="round" stroke-linecap="none" stroke-miterlimit="4"  d="M 0 41.9949 C 5.1069 50.8213 8.0299 61.0693 8.0299 72 C 8.0299 82.895 5.126 93.1117 0.05 101.9185 L 98.8137 158.9397 C 109.3891 106.442 101.6184 50.0234 72.7374 0 L 0 41.9949 Z"></path></g></g>
            <g id="g-1">                <g id="cu_17" >                    <path id="cu_15" transform="translate(371.9999868443265, 179.99997796006755)" fill="#fefbdb" d="M0 84 C22.1707 84 41.5328 96.025 51.92 113.909 L150.684 56.8871 C110.507 21.4796 57.7621 4.0617e-6 2.1166e-5 0 L0 84 Z"></path>
                    <path id="cu_16" transform="translate(371.9999868443265, 179.99997796006755)" fill="none" stroke="#d1bd08" stroke-width="2" stroke-linejoin="round" stroke-linecap="none" stroke-miterlimit="4"  d="M 0 84 C 22.1707 84 41.5328 96.025 51.92 113.9085 L 150.684 56.8871 C 110.5074 21.4796 57.7621 0 0 0 L 0 84 Z"></path></g></g></g>
        <path id="tx-rb-6" transform="matrix(1, -5.551115123125783e-17, 5.551115123125783e-17, 1, 120, 108)" fill="#ff00001a" d="M0 0 L168 0 L168 72 L0 72 L0 0 Z"></path>
        <path id="tx-rc-5" transform="matrix(1, -5.551115123125783e-17, 5.551115123125783e-17, 1, 36, 288)" fill="#ff00001a" d="M0 0 L168 0 L168 72 L0 72 L0 0 Z"></path>
        <path id="tx-rt-4" transform="matrix(1, -5.551115123125783e-17, 5.551115123125783e-17, 1, 120, 468)" fill="#ff00001a" d="M0 0 L168 0 L168 72 L0 72 L0 0 Z"></path>
        <path id="tx-lt-3" transform="matrix(1, -5.551115123125783e-17, 5.551115123125783e-17, 1, 456, 468)" fill="#ff00001a" d="M0 0 L168 0 L168 72 L0 72 L0 0 Z"></path>
        <path id="tx-lc-2" transform="translate(540, 288)" fill="#ff00001a" d="M0 0 L168 0 L168 72 L0 72 L0 0 Z"></path>
        <path id="tx-lb-1" transform="matrix(1, -5.551115123125783e-17, 5.551115123125783e-17, 1, 456, 108)" fill="#ff00001a" d="M0 0 L168 0 L168 72 L0 72 L0 0 Z"></path>
        <path id="tx-cb-title" transform="matrix(1, -1.6081230200044232e-16, 1.6081230200044232e-16, 1, 72, 36)" fill="#ff00001a" d="M0 0 L600 0 L600 48 L0 48 L0 0 Z"></path>
        <rect id="bt-cc-remove-6" fill="#1ac6ff33" transform="matrix(1, 1.1102230246251565e-16, -1.1102230246251565e-16, 1, 281, 184)" width="24" height="24" rx="0" ry="0"></rect>
        <rect id="bt-cc-remove-5" fill="#1ac6ff33" transform="matrix(1, 5.551115123125783e-17, -5.551115123125783e-17, 1, 209, 312)" width="24" height="24" rx="0" ry="0"></rect>
        <rect id="bt-cc-remove-4" fill="#1ac6ff33" transform="matrix(1, -5.551115123125783e-17, 5.551115123125783e-17, 1, 280, 440)" width="24" height="24" rx="0" ry="0"></rect>
        <rect id="bt-cc-remove-3" fill="#1ac6ff33" transform="matrix(1, 1.1102230246251565e-16, -1.1102230246251565e-16, 1, 438, 441)" width="24" height="24" rx="0" ry="0"></rect>
        <rect id="bt-cc-remove-2" fill="#1ac6ff33" transform="matrix(1, 5.551115123125783e-17, -5.551115123125783e-17, 1, 511, 312)" width="24" height="24" rx="0" ry="0"></rect>
        <rect id="bt-cc-remove-1" fill="#1ac6ff33" transform="matrix(1, -5.551115123125783e-17, 5.551115123125783e-17, 1, 440, 185)" width="24" height="24" rx="0" ry="0"></rect>
        <rect id="bt-cc-add-7" fill="#1ac6ff33" transform="translate(360, 210)" width="24" height="24" rx="0" ry="0"></rect>
        <path id="bt-cc-add-6" transform="translate(276, 264)" fill="#1ac6ff33" d="M0 0 L24 0 L24 24 L0 24 L0 0 Z"></path>
        <rect id="bt-cc-add-5" fill="#1ac6ff33" transform="matrix(1, 5.551115123125783e-17, -5.551115123125783e-17, 1, 276, 360)" width="24" height="24" rx="0" ry="0"></rect>
        <rect id="bt-cc-add-4" fill="#1ac6ff33" transform="translate(360, 414)" width="24" height="24" rx="0" ry="0"></rect>
        <rect id="bt-cc-add-3" fill="#1ac6ff33" transform="translate(444, 360)" width="24" height="24" rx="0" ry="0"></rect>
        <rect id="bt-cc-add-2" fill="#1ac6ff33" transform="matrix(1, 5.551115123125783e-17, -5.551115123125783e-17, 1, 444, 264)" width="24" height="24" rx="0" ry="0"></rect>
        <path id="ic-cc-0" transform="matrix(1, -5.551115123125783e-17, 5.551115123125783e-17, 1, 336, 287.99609375)" fill="#33de7b1a" d="M0 0 L72 0 L72 72 L0 72 L0 0 Z"></path>
        <path id="ic-cc-6" transform="matrix(1, 1.1102230246251565e-16, -1.1102230246251565e-16, 1, 297, 211.6654052734375)" fill="#33de7b1a" d="M0 0 L48 0 L48 48 L0 48 L0 0 Z"></path>
        <path id="ic-cc-5" transform="matrix(1, 5.551115123125783e-17, -5.551115123125783e-17, 1, 246, 300)" fill="#33de7b1a" d="M0 0 L48 0 L48 48 L0 48 L0 0 Z"></path>
        <path id="ic-cc-4" transform="translate(297, 388.3345642089844)" fill="#33de7b1a" d="M0 0 L48 0 L48 48 L0 48 L0 0 Z"></path>
        <path id="ic-cc-3" transform="matrix(1, 1.1102230246251565e-16, -1.1102230246251565e-16, 1, 399, 388.3345642089844)" fill="#33de7b1a" d="M0 0 L48 0 L48 48 L0 48 L0 0 Z"></path>
        <path id="ic-cc-2" transform="matrix(1, 5.551115123125783e-17, -5.551115123125783e-17, 1, 450, 300)" fill="#33de7b1a" d="M0 0 L48 0 L48 48 L0 48 L0 0 Z"></path>
        <path id="ic-cc-1" transform="translate(399, 211.66539001464844)" fill="#33de7b1a" d="M0 0 L48 0 L48 48 L0 48 L0 0 Z"></path></g></svg>