<svg xmlns="http://www.w3.org/2000/svg" width="744" height="612">    <g id="sector-color2-v7--family--8">        <g id="lines">            <g id="g-0">                <ellipse id="cr-big" stroke="#bcbcbc" fill="#f6f6f6" stroke-width="2" stroke-linejoin="miter"  transform="translate(312, 264)" cx="60" cy="60" rx="60" ry="60"></ellipse></g>
            <g id="g-8">                <g id="cu_2" >                    <path id="cu" transform="translate(270.1767578125, 161.63917541503906)" fill="#edf4ff" d="M59.397 119.939 L0 60.5417 C29.4074 31.1342 64.5477 10.9537 101.823 0 L101.823 102.365 C86.4681 102.365 71.1127 108.223 59.397 119.939 Z"></path>
                    <path id="cu_1" transform="translate(270.1767578125, 161.63917541503906)" fill="none" stroke="#4987ec" stroke-width="2" stroke-linejoin="miter" stroke-linecap="none" stroke-miterlimit="4"  d="M 59.397 119.9386 L 0 60.5417 C 29.4074 31.1342 64.5477 10.9537 101.8234 0 L 101.8234 102.365 C 86.4681 102.365 71.1127 108.2228 59.397 119.9386 Z"></path></g></g>
            <g id="g-7">                <g id="cu_5" >                    <path id="cu_3" transform="translate(228.00189208984375, 209.19409561157227)" fill="#feecf7" d="M84 114.809 L4.5475e-13 114.809 C-1.3487e-6 73.221 10.5781 34.1033 29.1906 0 L101.574 72.383 C90.7157 83.2408 84 98.2408 84 114.809 Z"></path>
                    <path id="cu_4" transform="translate(228.00189208984375, 209.19409561157227)" fill="none" stroke="#d95da7" stroke-width="2" stroke-linejoin="miter" stroke-linecap="none" stroke-miterlimit="4"  d="M 84 114.8093 L 1.2897e-13 114.8094 C -0 73.221 10.5781 34.1033 29.1906 0 L 101.5735 72.383 C 90.7157 83.2408 84 98.2408 84 114.8093 Z"></path></g></g>
            <g id="g-6">                <g id="cu_8" >                    <path id="cu_6" transform="translate(209.63745238610682, 324.00169494627596)" fill="#f2fae1" d="M119.939 42.4263 L60.5417 101.823 C31.1342 72.4159 10.9537 37.2757 0 6.4087e-6 L102.365 0 C102.365 15.3553 108.223 30.7106 119.939 42.4263 Z"></path>
                    <path id="cu_7" transform="translate(209.63745238610682, 324.00169494627596)" fill="none" stroke="#93c332" stroke-width="2" stroke-linejoin="miter" stroke-linecap="none" stroke-miterlimit="4"  d="M 119.9386 42.4263 L 60.5417 101.8234 C 31.1342 72.4159 10.9537 37.2757 0 0 L 102.365 0 C 102.365 15.3553 108.2228 30.7106 119.9386 42.4263 Z"></path></g></g>
            <g id="g-5">                <g id="cu_11" >                    <path id="cu_9" transform="translate(257.19237518310547, 366.4263458251953)" fill="#fef2e6" d="M114.809 17.5736 L114.809 101.574 C73.221 101.574 34.1033 90.9954 0 72.383 L72.383 0 C83.2408 10.8578 98.2408 17.5736 114.809 17.5736 Z"></path>
                    <path id="cu_10" transform="translate(257.19237518310547, 366.4263458251953)" fill="none" stroke="#db8333" stroke-width="2" stroke-linejoin="miter" stroke-linecap="none" stroke-miterlimit="4"  d="M 114.8093 17.5736 L 114.8094 101.5735 C 73.221 101.5735 34.1033 90.9954 0 72.383 L 72.383 0 C 83.2408 10.8578 98.2408 17.5736 114.8093 17.5736 Z"></path></g></g>
            <g id="g-4">                <g id="cu_14" >                    <path id="cu_12" transform="translate(372.0001907348633, 366.4256234694558)" fill="#e8f9ff" d="M42.4264 0 L101.823 59.3969 C72.4159 88.8043 37.2757 108.985 0 119.939 L1.3196e-6 17.5736 C15.3553 17.5736 30.7106 11.7157 42.4264 0 Z"></path>
                    <path id="cu_13" transform="translate(372.0001907348633, 366.4256234694558)" fill="none" stroke="#17aee1" stroke-width="2" stroke-linejoin="miter" stroke-linecap="none" stroke-miterlimit="4"  d="M 42.4264 0 L 101.8234 59.3969 C 72.4159 88.8043 37.2757 108.9849 0 119.9386 L 0 17.5736 C 15.3553 17.5736 30.7106 11.7157 42.4264 0 Z"></path></g></g>
            <g id="g-3">                <g id="cu_17" >                    <path id="cu_15" transform="translate(414.4246063232422, 323.9998779296875)" fill="#ffedeb" d="M17.5736 9.0026e-5 L101.574 0 C101.574 41.5884 90.9954 80.7061 72.383 114.809 L0 42.4265 C10.8578 31.5686 17.5736 16.5686 17.5736 9.0026e-5 Z"></path>
                    <path id="cu_16" transform="translate(414.4246063232422, 323.9998779296875)" fill="none" stroke="#df5e59" stroke-width="2" stroke-linejoin="miter" stroke-linecap="none" stroke-miterlimit="4"  d="M 17.5736 0.0001 L 101.5736 0 C 101.5736 41.5884 90.9954 80.7061 72.383 114.8094 L 0 42.4265 C 10.8578 31.5686 17.5736 16.5686 17.5736 0.0001 Z"></path></g></g>
            <g id="g-2">                <g id="cu_20" >                    <path id="cu_18" transform="translate(414.4238985179909, 222.17824763067983)" fill="#e7fbf2" d="M0 59.397 L59.3969 0 C88.8043 29.4074 108.985 64.5477 119.939 101.823 L17.5736 101.823 C17.5736 86.4681 11.7157 71.1127 0 59.397 Z"></path>
                    <path id="cu_19" transform="translate(414.4238985179909, 222.17824763067983)" fill="none" stroke="#3cc583" stroke-width="2" stroke-linejoin="miter" stroke-linecap="none" stroke-miterlimit="4"  d="M 0 59.397 L 59.3969 0 C 88.8043 29.4074 108.9849 64.5477 119.9386 101.8234 L 17.5736 101.8234 C 17.5736 86.4681 11.7157 71.1127 0 59.397 Z"></path></g></g>
            <g id="g-1">                <g id="cu_23" >                    <path id="cu_21" transform="translate(371.9982452392578, 180.0034294128418)" fill="#fefbdb" d="M9.0026e-5 84 L0 0 C41.5884 2.1569e-6 80.7061 10.5781 114.809 29.1906 L42.4265 101.574 C31.5686 90.7157 16.5686 84 9.0026e-5 84 Z"></path>
                    <path id="cu_22" transform="translate(371.9982452392578, 180.0034294128418)" fill="none" stroke="#d1bd08" stroke-width="2" stroke-linejoin="miter" stroke-linecap="none" stroke-miterlimit="4"  d="M 0.0001 84 L 0 0 C 41.5884 0 80.7061 10.5781 114.8094 29.1906 L 42.4265 101.5736 C 31.5686 90.7157 16.5686 84 0.0001 84 Z"></path></g></g></g>
        <path id="tx-cb-title" transform="matrix(1, -1.6081230200044232e-16, 1.6081230200044232e-16, 1, 72, 25)" fill="#ff00001a" d="M0 0 L600 0 L600 48 L0 48 L0 0 Z"></path>
        <path id="ic-cc-0" transform="matrix(1, -5.551115123125783e-17, 5.551115123125783e-17, 1, 336, 287.99609375)" fill="#33de7b1a" d="M0 0 L72 0 L72 72 L0 72 L0 0 Z"></path>
        <rect id="bt-cc-remove-8" fill="#1ac6ff33" transform="matrix(1, -5.551115123125783e-17, 5.551115123125783e-17, 1, 304.8935546875, 178.9613037109375)" width="24" height="24" rx="0" ry="0"></rect>
        <rect id="bt-cc-remove-7" fill="#1ac6ff33" transform="matrix(0.9999999403953552, -5.551115123125783e-17, 5.551115123125783e-17, 0.9999999403953552, 226.96142578125, 256.8935546875)" width="24" height="24" rx="0" ry="0"></rect>
        <rect id="bt-cc-remove-6" fill="#1ac6ff33" transform="matrix(0.9999999403953552, -5.551115123125783e-17, 5.551115123125783e-17, 0.9999999403953552, 226.9613037109375, 367.1063232421875)" width="24" height="24" rx="0" ry="0"></rect>
        <rect id="bt-cc-remove-5" fill="#1ac6ff33" transform="matrix(0.9999999403953552, 0, 0, 0.9999999403953552, 304.8935546875, 445.03857421875)" width="24" height="24" rx="0" ry="0"></rect>
        <rect id="bt-cc-remove-4" fill="#1ac6ff33" transform="matrix(1, -5.551115123125783e-17, 5.551115123125783e-17, 1, 415.1063232421875, 445.0386962890625)" width="24" height="24" rx="0" ry="0"></rect>
        <rect id="bt-cc-remove-3" fill="#1ac6ff33" transform="matrix(0.9999999403953552, -5.551115123125783e-17, 5.551115123125783e-17, 0.9999999403953552, 493.03857421875, 367.1064453125)" width="24" height="24" rx="0" ry="0"></rect>
        <rect id="bt-cc-remove-2" fill="#1ac6ff33" transform="matrix(0.9999999403953552, -5.551115123125783e-17, 5.551115123125783e-17, 0.9999999403953552, 493.03857421875, 256.8935546875)" width="24" height="24" rx="0" ry="0"></rect>
        <rect id="bt-cc-remove-1" fill="#1ac6ff33" transform="matrix(0.9999999403953552, 0, 0, 0.9999999403953552, 415.1065673828125, 178.9613037109375)" width="24" height="24" rx="0" ry="0"></rect>
        <rect id="bt-cc-add-9" fill="#1ac6ff33" transform="matrix(1, 1.3877787807814457e-17, -1.3877787807814457e-17, 1, 360.22998046875, 210.00025939941406)" width="24" height="24" rx="0" ry="0"></rect>
        <rect id="bt-cc-add-8" fill="#1ac6ff33" transform="matrix(1, 1.3877787807814457e-17, -1.3877787807814457e-17, 1, 288.0379638671875, 239.71266174316406)" width="24" height="24" rx="0" ry="0"></rect>
        <rect id="bt-cc-add-7" fill="#1ac6ff33" transform="matrix(1, 1.3877787807814457e-17, -1.3877787807814457e-17, 1, 258.000244140625, 311.7698974609375)" width="24" height="24" rx="0" ry="0"></rect>
        <rect id="bt-cc-add-6" fill="#1ac6ff33" transform="matrix(1, 1.3877787807814457e-17, -1.3877787807814457e-17, 1, 287.712646484375, 383.9620666503906)" width="24" height="24" rx="0" ry="0"></rect>
        <rect id="bt-cc-add-5" fill="#1ac6ff33" transform="matrix(1, 1.3877787807814457e-17, -1.3877787807814457e-17, 1, 359.77001953125, 413.999755859375)" width="24" height="24" rx="0" ry="0"></rect>
        <rect id="bt-cc-add-4" fill="#1ac6ff33" transform="matrix(1, 1.3877787807814457e-17, -1.3877787807814457e-17, 1, 431.9619140625, 384.2873229980469)" width="24" height="24" rx="0" ry="0"></rect>
        <rect id="bt-cc-add-3" fill="#1ac6ff33" transform="matrix(1, 1.3877787807814457e-17, -1.3877787807814457e-17, 1, 461.9996337890625, 312.22998046875)" width="24" height="24" rx="0" ry="0"></rect>
        <rect id="bt-cc-add-2" fill="#1ac6ff33" transform="matrix(1, 1.3877787807814457e-17, -1.3877787807814457e-17, 1, 432.287353515625, 240.03794860839844)" width="24" height="24" rx="0" ry="0"></rect>
        <path id="ic-cc-8" transform="matrix(1, -5.551115123125783e-17, 5.551115123125783e-17, 1, 314.97216796875, 211.76187133789062)" fill="#33de7b1a" d="M0 0 L36 0 L36 36 L0 36 L0 0 Z"></path>
        <path id="ic-cc-7" transform="matrix(0.9999998807907104, 0, 0, 0.9999998807907104, 259.76678466796875, 266.96051025390625)" fill="#33de7b1a" d="M0 0 L36 0 L36 36 L0 36 L0 0 Z"></path>
        <path id="ic-cc-6" transform="matrix(1, -5.551115123125783e-17, 5.551115123125783e-17, 1, 259.76190185546875, 345.0276184082031)" fill="#33de7b1a" d="M0 0 L36 0 L36 36 L0 36 L0 0 Z"></path>
        <path id="ic-cc-5" transform="matrix(1, -5.551115123125783e-17, 5.551115123125783e-17, 1, 314.96038818359375, 400.233154296875)" fill="#33de7b1a" d="M0 0 L36 0 L36 36 L0 36 L0 0 Z"></path>
        <path id="ic-cc-4" transform="matrix(1, -5.551115123125783e-17, 5.551115123125783e-17, 1, 393.02764892578125, 400.2382507324219)" fill="#33de7b1a" d="M0 0 L36 0 L36 36 L0 36 L0 0 Z"></path>
        <path id="ic-cc-3" transform="matrix(0.9999998807907104, 0, 0, 0.9999998807907104, 448.23297119140625, 345.0398254394531)" fill="#33de7b1a" d="M0 0 L36 0 L36 36 L0 36 L0 0 Z"></path>
        <path id="ic-cc-2" transform="matrix(1, -5.551115123125783e-17, 5.551115123125783e-17, 1, 448.23834228515625, 266.9721984863281)" fill="#33de7b1a" d="M0 0 L36 0 L36 36 L0 36 L0 0 Z"></path>
        <path id="ic-cc-1" transform="matrix(1, -5.551115123125783e-17, 5.551115123125783e-17, 1, 393.03985595703125, 211.7667694091797)" fill="#33de7b1a" d="M0 0 L36 0 L36 36 L0 36 L0 0 Z"></path>
        <path id="tx-rb-8" transform="matrix(1, -5.551115123125783e-17, 5.551115123125783e-17, 1, 144, 96)" fill="#ff00001a" d="M0 0 L168 0 L168 72 L0 72 L0 0 Z"></path>
        <path id="tx-rc-7" transform="translate(36, 228)" fill="#ff00001a" d="M0 0 L168 0 L168 72 L0 72 L0 0 Z"></path>
        <path id="tx-rc-6" transform="matrix(1, -5.551115123125783e-17, 5.551115123125783e-17, 1, 36, 348)" fill="#ff00001a" d="M0 0 L168 0 L168 72 L0 72 L0 0 Z"></path>
        <path id="tx-rt-5" transform="matrix(1, -5.551115123125783e-17, 5.551115123125783e-17, 1, 144, 480)" fill="#ff00001a" d="M0 0 L168 0 L168 72 L0 72 L0 0 Z"></path>
        <path id="tx-lt-4" transform="matrix(1, -5.551115123125783e-17, 5.551115123125783e-17, 1, 432, 480)" fill="#ff00001a" d="M0 0 L168 0 L168 72 L0 72 L0 0 Z"></path>
        <path id="tx-lc-3" transform="matrix(1, -5.551115123125783e-17, 5.551115123125783e-17, 1, 540, 348)" fill="#ff00001a" d="M0 0 L168 0 L168 72 L0 72 L0 0 Z"></path>
        <path id="tx-lc-2" transform="translate(540, 228)" fill="#ff00001a" d="M0 0 L168 0 L168 72 L0 72 L0 0 Z"></path>
        <path id="tx-lb-1" transform="matrix(1, -5.551115123125783e-17, 5.551115123125783e-17, 1, 432, 96)" fill="#ff00001a" d="M0 0 L168 0 L168 72 L0 72 L0 0 Z"></path></g></svg>