<svg xmlns="http://www.w3.org/2000/svg" width="744" height="612">    <g id="sector-color2-v7--family--7">        <g id="lines">            <g id="g-0">                <ellipse id="cr-big" stroke="#bcbcbc" fill="#f6f6f6" stroke-width="2" stroke-linejoin="miter"  transform="translate(312, 264)" cx="60" cy="60" rx="60" ry="60"></ellipse></g>
            <g id="g-7">                <g id="cu_2" >                    <path id="cu" transform="translate(259.4610595703125, 155.89194107055664)" fill="#feecf7" d="M65.646 130.674 L0 78.2694 C30.2568 40.3675 69.6596 14.0657 112.539 0 L112.539 108.108 C112.539 108.108 112.539 108.108 112.539 108.108 C93.5609 108.108 76.6405 116.919 65.646 130.674 Z"></path>
                    <path id="cu_1" transform="translate(259.4610595703125, 155.89194107055664)" fill="none" stroke="#d95da7" stroke-width="2" stroke-linejoin="miter" stroke-linecap="none" stroke-miterlimit="4"  d="M 65.646 130.6739 L 0 78.2694 C 30.2568 40.3675 69.6596 14.0657 112.539 0 L 112.539 108.1081 L 112.539 108.1081 C 93.5609 108.1081 76.6405 116.9192 65.646 130.6739 Z"></path></g></g>
            <g id="g-6">                <g id="cu_5" >                    <path id="cu_3" transform="translate(225.5617676361726, 219.12080764770508)" fill="#f2fae1" d="M87.9165 118.175 L6.0166 136.782 C-4.728 89.4897 -0.7008 42.2865 15.0582 0 L99.5452 67.445 C91.3426 77.7069 86.4382 90.7203 86.4382 104.879 C86.4382 109.448 86.9489 113.898 87.9165 118.175 Z"></path>
                    <path id="cu_4" transform="translate(225.5617676361726, 219.12080764770508)" fill="none" stroke="#93c332" stroke-width="2" stroke-linejoin="miter" stroke-linecap="none" stroke-miterlimit="4"  d="M 87.9165 118.175 L 6.0166 136.7823 C -4.728 89.4897 -0.7008 42.2865 15.0582 0 L 99.5452 67.445 C 91.3426 77.7069 86.4382 90.7203 86.4382 104.8792 C 86.4382 109.4484 86.9489 113.8984 87.9165 118.175 Z"></path></g></g>
            <g id="g-5">                <g id="cu_8" >                    <path id="cu_6" transform="translate(208.0693359375, 337.2958984375)" fill="#fef2e6" d="M105.409 0 L0 23.9483 C23.216 62.646 57.5938 95.2425 101.257 116.35 L137.811 40.7356 C121.612 32.8906 109.476 17.9759 105.409 0 Z"></path>
                    <path id="cu_7" transform="translate(208.0693359375, 337.2958984375)" fill="none" stroke="#db8333" stroke-width="2" stroke-linejoin="miter" stroke-linecap="none" stroke-miterlimit="4"  d="M 105.4089 0 L 0 23.9483 C 23.216 62.646 57.5938 95.2425 101.2572 116.3502 L 137.8107 40.7356 C 121.6124 32.8906 109.4756 17.9759 105.4089 0 Z"></path></g></g>
            <g id="g-4">                <g id="cu_11" >                    <path id="cu_9" transform="translate(298.833984375, 378.03143310546875)" fill="#e8f9ff" d="M99.097 0.0911 C91.2485 3.8583 82.4537 5.9686 73.1661 5.9686 C63.8038 5.9686 54.9424 3.8243 47.0461 0 L0 97.3196 C44.727 103.319 91.6494 96.7878 135.386 75.8326 L99.097 0.0911 Z"></path>
                    <path id="cu_10" transform="translate(298.833984375, 378.03143310546875)" fill="none" stroke="#17aee1" stroke-width="2" stroke-linejoin="miter" stroke-linecap="none" stroke-miterlimit="4"  d="M 99.097 0.0911 C 91.2485 3.8583 82.4537 5.9686 73.1661 5.9686 C 63.8038 5.9686 54.9424 3.8243 47.0461 0 L 0 97.3196 C 44.727 103.3185 91.6494 96.7878 135.3863 75.8326 L 99.097 0.0911 Z"></path></g></g>
            <g id="g-3">                <g id="cu_14" >                    <path id="cu_12" transform="translate(397.9310302734375, 337.50018310546875)" fill="#ffedeb" d="M32.5441 0 C28.4158 17.9543 16.2313 32.8315 0 40.6223 L46.706 138.105 C79.2986 106.893 103.469 66.1477 114.378 18.8929 L32.5441 0 Z"></path>
                    <path id="cu_13" transform="translate(397.9310302734375, 337.50018310546875)" fill="none" stroke="#df5e59" stroke-width="2" stroke-linejoin="miter" stroke-linecap="none" stroke-miterlimit="4"  d="M 32.5441 0 C 28.4158 17.9543 16.2313 32.8315 0 40.6223 L 46.706 138.1053 C 79.2986 106.8928 103.4687 66.1477 114.3783 18.8929 L 32.5441 0 Z"></path></g></g>
            <g id="g-2">                <g id="cu_17" >                    <path id="cu_15" transform="translate(419.0235595703125, 234.5548095703125)" fill="#e7fbf2" d="M0 52.175 L65.8284 0 C95.9526 38.0074 112.717 82.3169 116.776 127.261 L11.4515 102.945 C12.4493 98.6062 12.9764 94.0873 12.9764 89.4452 C12.9764 75.3616 8.1241 62.4113 0 52.175 Z"></path>
                    <path id="cu_16" transform="translate(419.0235595703125, 234.5548095703125)" fill="none" stroke="#3cc583" stroke-width="2" stroke-linejoin="miter" stroke-linecap="none" stroke-miterlimit="4"  d="M 0 52.175 L 65.8284 0 C 95.9526 38.0074 112.7166 82.3169 116.776 127.2615 L 11.4515 102.9454 C 12.4493 98.6062 12.9764 94.0873 12.9764 89.4452 C 12.9764 75.3616 8.1241 62.4113 0 52.175 Z"></path></g></g>
            <g id="g-1">                <g id="cu_20" >                    <path id="cu_18" transform="translate(372, 179.9996681213379)" fill="#fefbdb" d="M6.2469e-5 0 L0 84.0003 C19.0534 84.0004 36.0324 92.8815 47.0233 106.73 L131.745 39.5804 C94.0874 14.7129 49 0.1705 0.5025 0.0012 C0.335 0.0007 0.1675 0.0002 6.2469e-5 0 Z"></path>
                    <path id="cu_19" transform="translate(372, 179.9996681213379)" fill="none" stroke="#d1bd08" stroke-width="2" stroke-linejoin="miter" stroke-linecap="none" stroke-miterlimit="4"  d="M 0.0001 0 L 0 84.0003 C 19.0534 84.0004 36.0324 92.8815 47.0233 106.73 L 131.745 39.5804 C 94.0874 14.7129 49 0.1705 0.5025 0.0012 C 0.335 0.0007 0.1675 0.0002 0.0001 0 Z"></path></g></g></g>
        <rect id="bt-cc-add-8" fill="#1ac6ff33" transform="matrix(1, -2.7755575615628914e-17, 2.7755575615628914e-17, 1, 360.0737609863281, 209.78465270996094)" width="24" height="24" rx="0" ry="0"></rect>
        <rect id="bt-cc-add-7" fill="#1ac6ff33" transform="matrix(1, -2.7755575615628914e-17, 2.7755575615628914e-17, 1, 280.1626281738281, 248.17227172851562)" width="24" height="24" rx="0" ry="0"></rect>
        <rect id="bt-cc-add-6" fill="#1ac6ff33" transform="matrix(1, -2.7755575615628914e-17, 2.7755575615628914e-17, 1, 260.3083801269531, 334.5738220214844)" width="24" height="24" rx="0" ry="0"></rect>
        <rect id="bt-cc-add-5" fill="#1ac6ff33" transform="matrix(1, -2.7755575615628914e-17, 2.7755575615628914e-17, 1, 315.4463195800781, 403.994384765625)" width="24" height="24" rx="0" ry="0"></rect>
        <rect id="bt-cc-add-4" fill="#1ac6ff33" transform="matrix(1, -2.7755575615628914e-17, 2.7755575615628914e-17, 1, 404.4209289550781, 404.0585632324219)" width="24" height="24" rx="0" ry="0"></rect>
        <rect id="bt-cc-add-3" fill="#1ac6ff33" transform="matrix(1, -2.7755575615628914e-17, 2.7755575615628914e-17, 1, 459.6589660644531, 334.71759033203125)" width="24" height="24" rx="0" ry="0"></rect>
        <rect id="bt-cc-add-2" fill="#1ac6ff33" transform="matrix(1, -2.7755575615628914e-17, 2.7755575615628914e-17, 1, 439.9295959472656, 248.28759765625)" width="24" height="24" rx="0" ry="0"></rect>
        <rect id="bt-cc-remove-7" fill="#1ac6ff33" transform="matrix(1, 5.551115123125783e-17, -5.551115123125783e-17, 1, 297.7796630859375, 182.13616943359375)" width="24" height="24" rx="0" ry="0"></rect>
        <rect id="bt-cc-remove-6" fill="#1ac6ff33" transform="translate(219.69073486328125, 279.607177734375)" width="24" height="24" rx="0" ry="0"></rect>
        <rect id="bt-cc-remove-5" fill="#1ac6ff33" transform="matrix(1, -5.551115123125783e-17, 5.551115123125783e-17, 1, 247.148193359375, 401.4453125)" width="24" height="24" rx="0" ry="0"></rect>
        <rect id="bt-cc-remove-4" fill="#1ac6ff33" transform="matrix(1, -5.551115123125783e-17, 5.551115123125783e-17, 1, 360, 456)" width="24" height="24" rx="0" ry="0"></rect>
        <rect id="bt-cc-remove-3" fill="#1ac6ff33" transform="matrix(1, -5.551115123125783e-17, 5.551115123125783e-17, 1, 472.5390625, 401.838623046875)" width="24" height="24" rx="0" ry="0"></rect>
        <rect id="bt-cc-remove-2" fill="#1ac6ff33" transform="matrix(1, 8.326672684688674e-17, -8.326672684688674e-17, 1, 500.4215087890625, 280.0970458984375)" width="24" height="24" rx="0" ry="0"></rect>
        <rect id="bt-cc-remove-1" fill="#1ac6ff33" transform="matrix(1, 1.6653345369377348e-16, -1.6653345369377348e-16, 1, 422.67333984375, 182.3541259765625)" width="24" height="24" rx="0" ry="0"></rect>
        <path id="ic-cc-7" transform="matrix(1, -2.7755575615628914e-17, 2.7755575615628914e-17, 1, 312.2035827636719, 212.76345825195312)" fill="#33de7b1a" d="M0 0 L36 0 L36 36 L0 36 L0 0 Z"></path>
        <path id="ic-cc-6" transform="matrix(1, -2.7755575615628914e-17, 2.7755575615628914e-17, 1, 255.05772399902344, 280.496337890625)" fill="#33de7b1a" d="M0 0 L36 0 L36 36 L0 36 L0 0 Z"></path>
        <path id="ic-cc-5" transform="matrix(0.9999999403953552, 0, 0, 0.9999999403953552, 272.3404235839844, 367.41424560546875)" fill="#33de7b1a" d="M0 0 L36 0 L36 36 L0 36 L0 0 Z"></path>
        <path id="ic-cc-4" transform="matrix(0.9999999403953552, 0, 0, 0.9999999403953552, 351.4071350097656, 408.1434020996094)" fill="#33de7b1a" d="M0 0 L36 0 L36 36 L0 36 L0 0 Z"></path>
        <path id="ic-cc-3" transform="matrix(0.9999999403953552, 0, 0, 0.9999999403953552, 432.2095642089844, 371.7516174316406)" fill="#33de7b1a" d="M0 0 L36 0 L36 36 L0 36 L0 0 Z"></path>
        <path id="ic-cc-2" transform="matrix(1, -2.7755575615628914e-17, 2.7755575615628914e-17, 1, 454.1795349121094, 285.8988342285156)" fill="#33de7b1a" d="M0 0 L36 0 L36 36 L0 36 L0 0 Z"></path>
        <path id="ic-cc-1" transform="matrix(0.9999999403953552, 0, 0, 0.9999999403953552, 400.7904357910156, 215.1669158935547)" fill="#33de7b1a" d="M0 0 L36 0 L36 36 L0 36 L0 0 Z"></path>
        <path id="tx-rb-7" transform="translate(132, 96)" fill="#ff00001a" d="M0 0 L168 0 L168 72 L0 72 L0 0 Z"></path>
        <path id="tx-rc-6" transform="matrix(1, -5.551115123125783e-17, 5.551115123125783e-17, 1, 36, 252)" fill="#ff00001a" d="M0 0 L168 0 L168 72 L0 72 L0 0 Z"></path>
        <path id="tx-rt-5" transform="matrix(1, -5.551115123125783e-17, 5.551115123125783e-17, 1, 72, 420)" fill="#ff00001a" d="M0 0 L168 0 L168 72 L0 72 L0 0 Z"></path>
        <path id="tx-ct-4" transform="matrix(1, -5.551115123125783e-17, 5.551115123125783e-17, 1, 288, 504)" fill="#ff00001a" d="M0 0 L168 0 L168 72 L0 72 L0 0 Z"></path>
        <path id="tx-lt-3" transform="matrix(1, -5.551115123125783e-17, 5.551115123125783e-17, 1, 504, 420)" fill="#ff00001a" d="M0 0 L168 0 L168 72 L0 72 L0 0 Z"></path>
        <path id="tx-lc-2" transform="translate(540, 252)" fill="#ff00001a" d="M0 0 L168 0 L168 72 L0 72 L0 0 Z"></path>
        <path id="tx-lb-1" transform="matrix(1, -5.551115123125783e-17, 5.551115123125783e-17, 1, 444, 96)" fill="#ff00001a" d="M0 0 L168 0 L168 72 L0 72 L0 0 Z"></path>
        <path id="tx-cb-title" transform="matrix(1, -1.6081230200044232e-16, 1.6081230200044232e-16, 1, 72, 24)" fill="#ff00001a" d="M0 0 L600 0 L600 48 L0 48 L0 0 Z"></path>
        <path id="ic-cc-0" transform="matrix(1, -5.551115123125783e-17, 5.551115123125783e-17, 1, 336, 287.99609375)" fill="#33de7b1a" d="M0 0 L72 0 L72 72 L0 72 L0 0 Z"></path></g></svg>