<svg xmlns="http://www.w3.org/2000/svg" width="744" height="612">    <g id="sector-color-v6--family--4">        <g id="lines">            <g id="g-0">                <ellipse id="cr-big" stroke="#bcbcbc" fill="#f6f6f6" stroke-width="2" stroke-linejoin="miter"  transform="translate(312.0000305175781, 264.0000457763672)" cx="60" cy="60" rx="60" ry="60"></ellipse></g>
            <g id="g-4">                <g id="cu_2" >                    <path id="cu" transform="translate(228.02595138549805, 179.99456787109375)" fill="#e8f9ff" d="M143.974 84 L143.974 0 C64.4569 0.0141 8.0922e-6 64.4797 2.6974e-6 144 L0 144.005 L84.0002 144.005 L84.0002 144 C84.0002 110.872 110.849 84.0141 143.974 84 Z"></path>
                    <path id="cu_1" transform="translate(228.02595138549805, 179.99456787109375)" fill="none" stroke="#17aee1" stroke-width="2" stroke-linejoin="miter" stroke-linecap="none" stroke-miterlimit="4"  d="M 143.974 84 L 143.974 0 C 64.4569 0.0141 0 64.4797 0 144 L 0 144.0054 L 84.0002 144.0054 L 84.0002 144 C 84.0002 110.8716 110.8489 84.0141 143.974 84 Z"></path></g></g>
            <g id="g-3">                <g id="cu_5" >                    <path id="cu_3" transform="translate(228.0081024169922, 323.99981689453125)" fill="#ffedeb" d="M84 0 L0 3.2568e-6 C0.0075 79.52 64.4713 143.982 143.992 143.986 L143.992 59.9858 C110.863 59.9815 84.0077 33.1279 84 0 Z"></path>
                    <path id="cu_4" transform="translate(228.0081024169922, 323.99981689453125)" fill="none" stroke="#df5e59" stroke-width="2" stroke-linejoin="miter" stroke-linecap="none" stroke-miterlimit="4"  d="M 84 0 L 0 0 C 0.0075 79.52 64.4713 143.9819 143.992 143.9862 L 143.992 59.9858 C 110.8633 59.9815 84.0077 33.1279 84 0 Z"></path></g></g>
            <g id="g-2">                <g id="cu_8" >                    <path id="cu_6" transform="translate(371.99961853027344, 324.0038757324219)" fill="#e7fbf2" d="M0 60 C33.1369 59.9998 59.9997 33.137 59.9997 8.0922e-6 L144 0 C144 79.5289 79.5289 144 6.2119e-5 144 L0 60 Z"></path>
                    <path id="cu_7" transform="translate(371.99961853027344, 324.0038757324219)" fill="none" stroke="#3cc583" stroke-width="2" stroke-linejoin="miter" stroke-linecap="none" stroke-miterlimit="4"  d="M 0 60 C 33.1369 59.9998 59.9997 33.137 59.9997 0 L 143.9998 0 C 143.9998 79.5289 79.5289 143.9998 0.0001 144 L 0 60 Z"></path></g></g>
            <g id="g-1">                <g id="cu_11" >                    <path id="cu_9" transform="translate(372.0000018149658, 180.01190185517044)" fill="#fefbdb" d="M60.0067 143.988 L144.007 143.988 C144 64.4645 79.5318 -3.4762e-6 0.0068 1.1369e-13 L0 2.9763e-10 L1.8568e-6 84.0001 C0.0022 84.0001 0.0045 84.0001 0.0067 84.0001 C33.1398 84.0001 60.0002 110.856 60.0067 143.988 Z"></path>
                    <path id="cu_10" transform="translate(372.0000018149658, 180.01190185517044)" fill="none" stroke="#d1bd08" stroke-width="2" stroke-linejoin="miter" stroke-linecap="none" stroke-miterlimit="4"  d="M 60.0067 143.988 L 144.0068 143.988 C 144.0003 64.4645 79.5318 -0 0.0068 1.1369e-13 L 0 2.9763e-10 L 0 84.0001 C 0.0022 84.0001 0.0045 84.0001 0.0067 84.0001 C 33.1398 84.0001 60.0002 110.8565 60.0067 143.988 Z"></path></g></g></g>
        <path id="tx-cb-title" transform="matrix(1, -1.6081230200044232e-16, 1.6081230200044232e-16, 1, 72, 60)" fill="#ff00001a" d="M0 0 L600 0 L600 48 L0 48 L0 0 Z"></path>
        <path id="ic-cc-0" transform="matrix(1, -5.551115123125783e-17, 5.551115123125783e-17, 1, 336, 287.99609375)" fill="#33de7b1a" d="M0 0 L72 0 L72 72 L0 72 L0 0 Z"></path>
        <rect id="bt-cc-remove-4" fill="#1ac6ff33" transform="translate(252, 204)" width="24" height="24" rx="0" ry="0"></rect>
        <rect id="bt-cc-remove-3" fill="#1ac6ff33" transform="matrix(0.9999999403953552, 5.551115123125783e-17, -5.551115123125783e-17, 0.9999999403953552, 252, 420)" width="24" height="24" rx="0" ry="0"></rect>
        <rect id="bt-cc-remove-2" fill="#1ac6ff33" transform="translate(468, 420)" width="24" height="24" rx="0" ry="0"></rect>
        <rect id="bt-cc-remove-1" fill="#1ac6ff33" transform="matrix(0.9999999403953552, 5.551115123125783e-17, -5.551115123125783e-17, 0.9999999403953552, 468, 204)" width="24" height="24" rx="0" ry="0"></rect>
        <rect id="bt-cc-add-5" fill="#1ac6ff33" transform="translate(360, 210)" width="24" height="24" rx="0" ry="0"></rect>
        <rect id="bt-cc-add-4" fill="#1ac6ff33" transform="translate(258, 312)" width="24" height="24" rx="0" ry="0"></rect>
        <rect id="bt-cc-add-3" fill="#1ac6ff33" transform="translate(360, 414)" width="24" height="24" rx="0" ry="0"></rect>
        <rect id="bt-cc-add-2" fill="#1ac6ff33" transform="translate(462, 312)" width="24" height="24" rx="0" ry="0"></rect>
        <path id="ic-cc-4" transform="matrix(1, -1.6081230200044232e-16, 1.6081230200044232e-16, 1, 275.9371337890625, 227.81341552734375)" fill="#33de7b1a" d="M0 0 L48 0 L48 48 L0 48 L0 0 Z"></path>
        <path id="ic-cc-3" transform="matrix(1, -1.6081230200044232e-16, 1.6081230200044232e-16, 1, 275.813232421875, 372.06304931640625)" fill="#33de7b1a" d="M0 0 L48 0 L48 48 L0 48 L0 0 Z"></path>
        <path id="ic-cc-2" transform="matrix(1, -1.6081230200044232e-16, 1.6081230200044232e-16, 1, 420.063232421875, 372.18670654296875)" fill="#33de7b1a" d="M0 0 L48 0 L48 48 L0 48 L0 0 Z"></path>
        <path id="ic-cc-1" transform="matrix(1, -1.6081230200044232e-16, 1.6081230200044232e-16, 1, 420.186767578125, 227.93682861328125)" fill="#33de7b1a" d="M0 0 L48 0 L48 48 L0 48 L0 0 Z"></path>
        <path id="tx-rb-4" transform="matrix(1, -5.551115123125783e-17, 5.551115123125783e-17, 1, 84, 132)" fill="#ff00001a" d="M0 0 L168 0 L168 72 L0 72 L0 0 Z"></path>
        <path id="tx-rt-3" transform="matrix(1, -5.551115123125783e-17, 5.551115123125783e-17, 1, 84, 444)" fill="#ff00001a" d="M0 0 L168 0 L168 72 L0 72 L0 0 Z"></path>
        <path id="tx-lt-2" transform="matrix(1, -5.551115123125783e-17, 5.551115123125783e-17, 1, 492, 444)" fill="#ff00001a" d="M0 0 L168 0 L168 72 L0 72 L0 0 Z"></path>
        <path id="tx-lb-1" transform="matrix(1, -5.551115123125783e-17, 5.551115123125783e-17, 1, 492, 132)" fill="#ff00001a" d="M0 0 L168 0 L168 72 L0 72 L0 0 Z"></path></g></svg>