<svg xmlns="http://www.w3.org/2000/svg" width="744" height="612">    <g id="sector-color-v6--family--8">        <g id="lines">            <g id="g-0">                <ellipse id="cr-big" stroke="#bcbcbc" fill="#f6f6f6" stroke-width="2" stroke-linejoin="miter"  transform="translate(311.99996185302734, 263.9999771118164)" cx="60" cy="60" rx="60" ry="60"></ellipse></g>
            <g id="g-8">                <g id="cu_2" >                    <path id="cu" transform="translate(270.1704788208008, 179.9999942779541)" fill="#edf4ff" d="M59.4193 101.588 C70.2779 90.7251 85.2818 84.0054 101.855 84.0054 L101.855 0 C64.6185 0.0237 27.6922 14.4226 0 42.1957 L59.4193 101.588 Z"></path>
                    <path id="cu_1" transform="translate(270.1704788208008, 179.9999942779541)" fill="none" stroke="#4987ec" stroke-width="2" stroke-linejoin="miter" stroke-linecap="none" stroke-miterlimit="4"  d="M 59.4193 101.5885 C 70.2779 90.7251 85.2818 84.0054 101.8551 84.0054 L 101.8552 0 C 64.6185 0.0237 27.6922 14.4226 0 42.1957 L 59.4193 101.5885 Z"></path></g></g>
            <g id="g-7">                <g id="cu_5" >                    <path id="cu_3" transform="translate(228.01339721681143, 222.16729736328125)" fill="#feecf7" d="M84.013 101.841 C84.0096 86.4808 89.8675 71.1199 101.587 59.4008 L42.1858 0 C15.8723 26.3471 -0.057 62.6394 0.0002 101.859 L84.013 101.841 Z"></path>
                    <path id="cu_4" transform="translate(228.01339721681143, 222.16729736328125)" fill="none" stroke="#d95da7" stroke-width="2" stroke-linejoin="miter" stroke-linecap="none" stroke-miterlimit="4"  d="M 84.013 101.8406 C 84.0096 86.4808 89.8675 71.1199 101.5866 59.4008 L 42.1858 0 C 15.8723 26.3471 -0.057 62.6394 0.0002 101.8593 L 84.013 101.8406 Z"></path></g></g>
            <g id="g-6">                <g id="cu_8" >                    <path id="cu_6" transform="translate(228.01364517211914, 323.98639360072957)" fill="#f2fae1" d="M101.588 42.4358 C90.7251 31.5772 84.0054 16.5734 84.0054 1.509e-5 L0 0 C0.0237 37.2366 14.4226 74.1629 42.1957 101.855 L101.588 42.4358 Z"></path>
                    <path id="cu_7" transform="translate(228.01364517211914, 323.98639360072957)" fill="none" stroke="#93c332" stroke-width="2" stroke-linejoin="miter" stroke-linecap="none" stroke-miterlimit="4"  d="M 101.5885 42.4358 C 90.7251 31.5772 84.0054 16.5734 84.0054 0 L 0 0 C 0.0237 37.2366 14.4226 74.1629 42.1957 101.8552 L 101.5885 42.4358 Z"></path></g></g>
            <g id="g-5">                <g id="cu_11" >                    <path id="cu_9" transform="translate(270.18109130859375, 366.41217041015625)" fill="#fef2e6" d="M101.841 17.5736 C86.4808 17.577 71.1199 11.7191 59.4008 0 L0 59.4008 C26.3471 85.7143 62.6394 101.644 101.859 101.586 L101.841 17.5736 Z"></path>
                    <path id="cu_10" transform="translate(270.18109130859375, 366.41217041015625)" fill="none" stroke="#db8333" stroke-width="2" stroke-linejoin="miter" stroke-linecap="none" stroke-miterlimit="4"  d="M 101.8406 17.5736 C 86.4808 17.577 71.1199 11.7191 59.4008 0 L 0 59.4008 C 26.3471 85.7143 62.6394 101.6436 101.8593 101.5864 L 101.8406 17.5736 Z"></path></g></g>
            <g id="g-4">                <g id="cu_14" >                    <path id="cu_12" transform="translate(372.0003967285156, 366.4099426269531)" fill="#e8f9ff" d="M42.4358 0 C31.5772 10.8634 16.5734 17.583 1.8762e-5 17.5831 L0 101.588 C37.2366 101.565 74.1629 87.1659 101.855 59.3928 L42.4358 0 Z"></path>
                    <path id="cu_13" transform="translate(372.0003967285156, 366.4099426269531)" fill="none" stroke="#17aee1" stroke-width="2" stroke-linejoin="miter" stroke-linecap="none" stroke-miterlimit="4"  d="M 42.4358 0 C 31.5772 10.8634 16.5734 17.583 0 17.5831 L 0 101.5885 C 37.2366 101.5647 74.1629 87.1659 101.8552 59.3928 L 42.4358 0 Z"></path></g></g>
            <g id="g-3">                <g id="cu_17" >                    <path id="cu_15" transform="translate(414.4261474609375, 323.9718933105469)" fill="#ffedeb" d="M17.5736 0.0188 C17.577 15.3785 11.7191 30.7394 0 42.4585 L59.4008 101.859 C85.7143 75.5123 101.644 39.2199 101.586 0 L17.5736 0.0188 Z"></path>
                    <path id="cu_16" transform="translate(414.4261474609375, 323.9718933105469)" fill="none" stroke="#df5e59" stroke-width="2" stroke-linejoin="miter" stroke-linecap="none" stroke-miterlimit="4"  d="M 17.5736 0.0188 C 17.577 15.3785 11.7191 30.7394 0 42.4585 L 59.4008 101.8593 C 85.7143 75.5123 101.6436 39.2199 101.5864 0 L 17.5736 0.0188 Z"></path></g></g>
            <g id="g-2">                <g id="cu_20" >                    <path id="cu_18" transform="translate(414.42413330078125, 222.15692901611328)" fill="#e7fbf2" d="M0 59.4193 C10.8634 70.2779 17.583 85.2818 17.5831 101.855 L101.588 101.855 C101.565 64.6185 87.1659 27.6922 59.3928 0 L0 59.4193 Z"></path>
                    <path id="cu_19" transform="translate(414.42413330078125, 222.15692901611328)" fill="none" stroke="#3cc583" stroke-width="2" stroke-linejoin="miter" stroke-linecap="none" stroke-miterlimit="4"  d="M 0 59.4193 C 10.8634 70.2779 17.583 85.2818 17.5831 101.8551 L 101.5885 101.8552 C 101.5647 64.6185 87.1659 27.6922 59.3928 0 L 0 59.4193 Z"></path></g></g>
            <g id="g-1">                <g id="cu_23" >                    <path id="cu_21" transform="translate(371.9853515625, 179.99969482423694)" fill="#fefbdb" d="M0.0188 84.013 C15.3785 84.0096 30.7394 89.8675 42.4585 101.587 L101.859 42.1858 C75.5123 15.8723 39.2199 -0.057 0 0.0002 L0.0188 84.013 Z"></path>
                    <path id="cu_22" transform="translate(371.9853515625, 179.99969482423694)" fill="none" stroke="#d1bd08" stroke-width="2" stroke-linejoin="miter" stroke-linecap="none" stroke-miterlimit="4"  d="M 0.0188 84.013 C 15.3785 84.0096 30.7394 89.8675 42.4585 101.5866 L 101.8593 42.1858 C 75.5123 15.8723 39.2199 -0.057 0 0.0002 L 0.0188 84.013 Z"></path></g></g></g>
        <path id="ic-cc-0" transform="matrix(1, -5.551115123125783e-17, 5.551115123125783e-17, 1, 336, 287.99609375)" fill="#33de7b1a" d="M0 0 L72 0 L72 72 L0 72 L0 0 Z"></path>
        <rect id="bt-cc-remove-8" fill="#1ac6ff33" transform="matrix(1, -5.551115123125783e-17, 5.551115123125783e-17, 1, 304.8935546875, 178.9613037109375)" width="24" height="24" rx="0" ry="0"></rect>
        <rect id="bt-cc-remove-7" fill="#1ac6ff33" transform="matrix(0.9999999403953552, -5.551115123125783e-17, 5.551115123125783e-17, 0.9999999403953552, 226.96142578125, 256.8935546875)" width="24" height="24" rx="0" ry="0"></rect>
        <rect id="bt-cc-remove-6" fill="#1ac6ff33" transform="matrix(0.9999999403953552, -5.551115123125783e-17, 5.551115123125783e-17, 0.9999999403953552, 226.9613037109375, 367.1063232421875)" width="24" height="24" rx="0" ry="0"></rect>
        <rect id="bt-cc-remove-5" fill="#1ac6ff33" transform="matrix(0.9999999403953552, 0, 0, 0.9999999403953552, 304.8935546875, 445.03857421875)" width="24" height="24" rx="0" ry="0"></rect>
        <rect id="bt-cc-remove-4" fill="#1ac6ff33" transform="matrix(1, -5.551115123125783e-17, 5.551115123125783e-17, 1, 415.1063232421875, 445.0386962890625)" width="24" height="24" rx="0" ry="0"></rect>
        <rect id="bt-cc-remove-3" fill="#1ac6ff33" transform="matrix(0.9999999403953552, -5.551115123125783e-17, 5.551115123125783e-17, 0.9999999403953552, 493.03857421875, 367.1064453125)" width="24" height="24" rx="0" ry="0"></rect>
        <rect id="bt-cc-remove-2" fill="#1ac6ff33" transform="matrix(0.9999999403953552, -5.551115123125783e-17, 5.551115123125783e-17, 0.9999999403953552, 493.03857421875, 256.8935546875)" width="24" height="24" rx="0" ry="0"></rect>
        <rect id="bt-cc-remove-1" fill="#1ac6ff33" transform="matrix(0.9999999403953552, 0, 0, 0.9999999403953552, 415.1065673828125, 178.9613037109375)" width="24" height="24" rx="0" ry="0"></rect>
        <rect id="bt-cc-add-9" fill="#1ac6ff33" transform="matrix(1, 1.3877787807814457e-17, -1.3877787807814457e-17, 1, 360.22998046875, 210.00025939941406)" width="24" height="24" rx="0" ry="0"></rect>
        <rect id="bt-cc-add-8" fill="#1ac6ff33" transform="matrix(1, 1.3877787807814457e-17, -1.3877787807814457e-17, 1, 288.0379638671875, 239.71266174316406)" width="24" height="24" rx="0" ry="0"></rect>
        <rect id="bt-cc-add-7" fill="#1ac6ff33" transform="matrix(1, 1.3877787807814457e-17, -1.3877787807814457e-17, 1, 258.000244140625, 311.7698974609375)" width="24" height="24" rx="0" ry="0"></rect>
        <rect id="bt-cc-add-6" fill="#1ac6ff33" transform="matrix(1, 1.3877787807814457e-17, -1.3877787807814457e-17, 1, 287.712646484375, 383.9620666503906)" width="24" height="24" rx="0" ry="0"></rect>
        <rect id="bt-cc-add-5" fill="#1ac6ff33" transform="matrix(1, 1.3877787807814457e-17, -1.3877787807814457e-17, 1, 359.77001953125, 413.999755859375)" width="24" height="24" rx="0" ry="0"></rect>
        <rect id="bt-cc-add-4" fill="#1ac6ff33" transform="matrix(1, 1.3877787807814457e-17, -1.3877787807814457e-17, 1, 431.9619140625, 384.2873229980469)" width="24" height="24" rx="0" ry="0"></rect>
        <rect id="bt-cc-add-3" fill="#1ac6ff33" transform="matrix(1, 1.3877787807814457e-17, -1.3877787807814457e-17, 1, 461.99951171875, 312.22998046875)" width="24" height="24" rx="0" ry="0"></rect>
        <rect id="bt-cc-add-2" fill="#1ac6ff33" transform="matrix(1, 1.3877787807814457e-17, -1.3877787807814457e-17, 1, 432.287353515625, 240.03794860839844)" width="24" height="24" rx="0" ry="0"></rect>
        <path id="ic-cc-8" transform="matrix(1, -5.551115123125783e-17, 5.551115123125783e-17, 1, 314.97216796875, 211.7618408203125)" fill="#33de7b1a" d="M0 0 L36 0 L36 36 L0 36 L0 0 Z"></path>
        <path id="ic-cc-7" transform="matrix(0.9999998807907104, 0, 0, 0.9999998807907104, 259.766845703125, 266.96051025390625)" fill="#33de7b1a" d="M0 0 L36 0 L36 36 L0 36 L0 0 Z"></path>
        <path id="ic-cc-6" transform="matrix(1, -5.551115123125783e-17, 5.551115123125783e-17, 1, 259.761962890625, 345.0276184082031)" fill="#33de7b1a" d="M0 0 L36 0 L36 36 L0 36 L0 0 Z"></path>
        <path id="ic-cc-5" transform="matrix(1, -5.551115123125783e-17, 5.551115123125783e-17, 1, 314.96044921875, 400.233154296875)" fill="#33de7b1a" d="M0 0 L36 0 L36 36 L0 36 L0 0 Z"></path>
        <path id="ic-cc-4" transform="matrix(1, -5.551115123125783e-17, 5.551115123125783e-17, 1, 393.027587890625, 400.2382507324219)" fill="#33de7b1a" d="M0 0 L36 0 L36 36 L0 36 L0 0 Z"></path>
        <path id="ic-cc-3" transform="matrix(0.9999998807907104, 0, 0, 0.9999998807907104, 448.23291015625, 345.0398254394531)" fill="#33de7b1a" d="M0 0 L36 0 L36 36 L0 36 L0 0 Z"></path>
        <path id="ic-cc-2" transform="matrix(1, -5.551115123125783e-17, 5.551115123125783e-17, 1, 448.23828125, 266.9721984863281)" fill="#33de7b1a" d="M0 0 L36 0 L36 36 L0 36 L0 0 Z"></path>
        <path id="ic-cc-1" transform="matrix(1, -5.551115123125783e-17, 5.551115123125783e-17, 1, 393.039794921875, 211.7667694091797)" fill="#33de7b1a" d="M0 0 L36 0 L36 36 L0 36 L0 0 Z"></path>
        <path id="tx-cb-title" transform="matrix(1, -1.6081230200044232e-16, 1.6081230200044232e-16, 1, 72, 36)" fill="#ff00001a" d="M0 0 L600 0 L600 48 L0 48 L0 0 Z"></path>
        <path id="tx-rb-8" transform="matrix(1, -5.551115123125783e-17, 5.551115123125783e-17, 1, 144, 108)" fill="#ff00001a" d="M0 0 L168 0 L168 72 L0 72 L0 0 Z"></path>
        <path id="tx-rc-7" transform="translate(48, 228)" fill="#ff00001a" d="M0 0 L168 0 L168 72 L0 72 L0 0 Z"></path>
        <path id="tx-rc-6" transform="matrix(1, -5.551115123125783e-17, 5.551115123125783e-17, 1, 48, 348)" fill="#ff00001a" d="M0 0 L168 0 L168 72 L0 72 L0 0 Z"></path>
        <path id="tx-rt-5" transform="matrix(1, -5.551115123125783e-17, 5.551115123125783e-17, 1, 144, 468)" fill="#ff00001a" d="M0 0 L168 0 L168 72 L0 72 L0 0 Z"></path>
        <path id="tx-lt-4" transform="matrix(1, -5.551115123125783e-17, 5.551115123125783e-17, 1, 432, 468)" fill="#ff00001a" d="M0 0 L168 0 L168 72 L0 72 L0 0 Z"></path>
        <path id="tx-lc-3" transform="matrix(1, -5.551115123125783e-17, 5.551115123125783e-17, 1, 528, 348)" fill="#ff00001a" d="M0 0 L168 0 L168 72 L0 72 L0 0 Z"></path>
        <path id="tx-lc-2" transform="translate(528, 228)" fill="#ff00001a" d="M0 0 L168 0 L168 72 L0 72 L0 0 Z"></path>
        <path id="tx-lb-1" transform="matrix(1, -5.551115123125783e-17, 5.551115123125783e-17, 1, 432, 108)" fill="#ff00001a" d="M0 0 L168 0 L168 72 L0 72 L0 0 Z"></path></g></svg>