<svg xmlns="http://www.w3.org/2000/svg" width="744" height="612">    <g id="sector-color-v6--family--5">        <g id="lines">            <g id="g-0">                <ellipse id="cr-big" stroke="#bcbcbc" fill="#f6f6f6" stroke-width="2" stroke-linejoin="miter"  transform="translate(312, 264.00001525878906)" cx="60" cy="60" rx="60" ry="60"></ellipse></g>
            <g id="g-5">                <g id="cu_2" >                    <path id="cu" transform="translate(235.04625415802002, 179.9394996217743)" fill="#fef2e6" d="M79.8899 125.52 C87.6897 101.45 110.288 84.0441 136.954 84.033 L136.954 0 C83.4909 0.0481 32.1635 29.9959 7.3333 81.3596 C4.4429 87.3388 2.0029 93.419 0 99.562 L79.8899 125.52 Z"></path>
                    <path id="cu_1" transform="translate(235.04625415802002, 179.9394996217743)" fill="none" stroke="#db8333" stroke-width="2" stroke-linejoin="miter" stroke-linecap="none" stroke-miterlimit="4"  d="M 79.8899 125.5196 C 87.6897 101.4502 110.2882 84.0441 136.9537 84.033 L 136.9538 0 C 83.4909 0.0481 32.1635 29.9959 7.3333 81.3596 C 4.4429 87.3388 2.0029 93.419 0 99.562 L 79.8899 125.5196 Z"></path></g></g>
            <g id="g-4">                <g id="cu_5" >                    <path id="cu_3" transform="translate(227.99249720005002, 279.492431640625)" fill="#e8f9ff" d="M108.763 93.0236 L59.3741 160.999 C40.618 147.397 24.8838 129.063 14.1695 106.7 C-2.4623 71.9867 -3.95 33.9291 7.0748 0 L86.9519 25.9414 C85.0571 31.7795 84.0331 38.01 84.0331 44.4797 C84.0331 64.4352 93.7752 82.1154 108.763 93.0236 Z"></path>
                    <path id="cu_4" transform="translate(227.99249720005002, 279.492431640625)" fill="none" stroke="#17aee1" stroke-width="2" stroke-linejoin="miter" stroke-linecap="none" stroke-miterlimit="4"  d="M 108.7628 93.0236 L 59.3741 160.9991 C 40.618 147.3968 24.8838 129.0625 14.1695 106.7 C -2.4623 71.9867 -3.95 33.9291 7.0748 0 L 86.9519 25.9414 C 85.0571 31.7795 84.0331 38.01 84.0331 44.4797 C 84.0331 64.4352 93.7752 82.1154 108.7628 93.0236 Z"></path></g></g>
            <g id="g-3">                <g id="cu_8" >                    <path id="cu_6" transform="translate(287.3607482910156, 372.5162048339844)" fill="#ffedeb" d="M119.93 0.0037 L169.296 67.9641 C136.748 91.5862 94.5351 101.522 52.2719 91.7652 C32.8127 87.2727 15.1933 79.0325 0 67.983 L49.3944 0 C59.2944 7.2054 71.4832 11.4561 84.6647 11.4561 C97.844 11.4561 110.031 7.2069 119.93 0.0037 Z"></path>
                    <path id="cu_7" transform="translate(287.3607482910156, 372.5162048339844)" fill="none" stroke="#df5e59" stroke-width="2" stroke-linejoin="miter" stroke-linecap="none" stroke-miterlimit="4"  d="M 119.9299 0.0037 L 169.2962 67.9641 C 136.748 91.5862 94.5351 101.5225 52.2719 91.7652 C 32.8127 87.2727 15.1933 79.0325 0 67.983 L 49.3944 0 C 59.2944 7.2054 71.4832 11.4561 84.6647 11.4561 C 97.844 11.4561 110.0308 7.2069 119.9299 0.0037 Z"></path></g></g>
            <g id="g-2">                <g id="cu_11" >                    <path id="cu_9" transform="translate(407.2658386230469, 279.47853088378906)" fill="#e7fbf2" d="M21.8441 25.9647 L101.755 0 C119.798 55.5788 102.688 118.919 54.2051 157.345 C52.6126 158.608 51.0016 159.831 49.3733 161.015 L0 93.0596 C15.0047 82.1531 24.7598 64.4626 24.7598 44.4937 C24.7598 38.0275 23.7369 31.8001 21.8441 25.9647 Z"></path>
                    <path id="cu_10" transform="translate(407.2658386230469, 279.47853088378906)" fill="none" stroke="#3cc583" stroke-width="2" stroke-linejoin="miter" stroke-linecap="none" stroke-miterlimit="4"  d="M 21.8441 25.9647 L 101.7547 0 C 119.7976 55.5788 102.6875 118.9187 54.2051 157.3453 C 52.6126 158.6076 51.0016 159.8307 49.3733 161.0149 L 0 93.0596 C 15.0047 82.1531 24.7598 64.4626 24.7598 44.4937 C 24.7598 38.0275 23.7369 31.8001 21.8441 25.9647 Z"></path></g></g>
            <g id="g-1">                <g id="cu_14" >                    <path id="cu_12" transform="translate(372.0256652832031, 179.9723049327731)" fill="#fefbdb" d="M57.0794 125.456 L136.991 99.4939 C118.3 41.9292 64.3222 0.2237 0.5027 0.0009 C0.3351 0.0003 0.1675 7.6294e-6 6.1035e-5 0 L0 84.0002 C26.6652 84.0002 49.2677 101.395 57.0794 125.456 Z"></path>
                    <path id="cu_13" transform="translate(372.0256652832031, 179.9723049327731)" fill="none" stroke="#d1bd08" stroke-width="2" stroke-linejoin="miter" stroke-linecap="none" stroke-miterlimit="4"  d="M 57.0794 125.4558 L 136.9906 99.4939 C 118.3 41.9292 64.3222 0.2237 0.5027 0.0009 C 0.3351 0.0003 0.1675 0 0.0001 0 L 0 84.0002 C 26.6652 84.0002 49.2677 101.3947 57.0794 125.4558 Z"></path></g></g></g>
        <path id="ic-cc-0" transform="matrix(1, -5.551115123125783e-17, 5.551115123125783e-17, 1, 336, 287.99609375)" fill="#33de7b1a" d="M0 0 L72 0 L72 72 L0 72 L0 0 Z"></path>
        <rect id="bt-cc-add-6" fill="#1ac6ff33" transform="matrix(1, -2.7755575615628914e-17, 2.7755575615628914e-17, 1, 360, 210)" width="24" height="24" rx="0" ry="0"></rect>
        <rect id="bt-cc-add-5" fill="#1ac6ff33" transform="matrix(1, 1.1102230246251565e-16, -1.1102230246251565e-16, 1, 262.9922180175781, 280.48028564453125)" width="24" height="24" rx="0" ry="0"></rect>
        <rect id="bt-cc-add-4" fill="#1ac6ff33" transform="matrix(1, -2.7755575615628914e-16, 2.7755575615628914e-16, 1, 300.0458984375, 394.5197448730469)" width="24" height="24" rx="0" ry="0"></rect>
        <rect id="bt-cc-add-3" fill="#1ac6ff33" transform="matrix(1, 2.7755575615628914e-16, -2.7755575615628914e-16, 1, 419.9540710449219, 394.519775390625)" width="24" height="24" rx="0" ry="0"></rect>
        <rect id="bt-cc-add-2" fill="#1ac6ff33" transform="matrix(1, -1.1102230246251565e-16, 1.1102230246251565e-16, 1, 457.00775146484375, 280.4803771972656)" width="24" height="24" rx="0" ry="0"></rect>
        <path id="ic-cc-5" transform="matrix(0.9999999403953552, 0, 0, 0.9999999403953552, 288.0667724609375, 217.4652099609375)" fill="#33de7b1a" d="M0 0 L48 0 L48 48 L0 48 L0 0 Z"></path>
        <path id="ic-cc-4" transform="matrix(0.9999999403953552, 1.6653345369377348e-16, -1.6653345369377348e-16, 0.9999999403953552, 250.98431396484375, 331.495361328125)" fill="#33de7b1a" d="M0 0 L48 0 L48 48 L0 48 L0 0 Z"></path>
        <path id="ic-cc-3" transform="matrix(0.9999999403953552, 2.194192395399064e-16, -2.194192395399064e-16, 0.9999999403953552, 347.97430419921875, 402.00006103515625)" fill="#33de7b1a" d="M0 0 L48 0 L48 48 L0 48 L0 0 Z"></path>
        <path id="ic-cc-2" transform="matrix(0.9999999403953552, -2.220446049250313e-16, 2.220446049250313e-16, 0.9999999403953552, 444.9998779296875, 331.54412841796875)" fill="#33de7b1a" d="M0 0 L48 0 L48 48 L0 48 L0 0 Z"></path>
        <path id="ic-cc-1" transform="matrix(0.9999999403953552, -5.551115123125783e-17, 5.551115123125783e-17, 0.9999999403953552, 407.974853515625, 217.495361328125)" fill="#33de7b1a" d="M0 0 L48 0 L48 48 L0 48 L0 0 Z"></path>
        <rect id="bt-cc-remove-5" fill="#1ac6ff33" transform="matrix(1, 1.1102230246251565e-16, -1.1102230246251565e-16, 1, 275.3589782714844, 195.5015869140625)" width="24" height="24" rx="0" ry="0"></rect>
        <rect id="bt-cc-remove-4" fill="#1ac6ff33" transform="translate(223.0478515625, 356.4984436035156)" width="24" height="24" rx="0" ry="0"></rect>
        <rect id="bt-cc-remove-3" fill="#1ac6ff33" transform="matrix(1, 1.2246468525851679e-16, -1.2246468525851679e-16, 1, 359.99993896484375, 456.00006103515625)" width="24" height="24" rx="0" ry="0"></rect>
        <rect id="bt-cc-remove-2" fill="#1ac6ff33" transform="translate(496.9521789550781, 356.49853515625)" width="24" height="24" rx="0" ry="0"></rect>
        <rect id="bt-cc-remove-1" fill="#1ac6ff33" transform="matrix(1, -5.551115123125783e-17, 5.551115123125783e-17, 1, 444.64111328125, 195.50155639648438)" width="24" height="24" rx="0" ry="0"></rect>
        <path id="tx-cb-title" transform="matrix(1, -1.6081230200044232e-16, 1.6081230200044232e-16, 1, 72, 48)" fill="#ff00001a" d="M0 0 L600 0 L600 48 L0 48 L0 0 Z"></path>
        <path id="tx-rb-5" transform="matrix(1, -5.551115123125783e-17, 5.551115123125783e-17, 1, 108, 120)" fill="#ff00001a" d="M0 0 L168 0 L168 72 L0 72 L0 0 Z"></path>
        <path id="tx-rc-4" transform="matrix(1, -5.551115123125783e-17, 5.551115123125783e-17, 1, 36, 324)" fill="#ff00001a" d="M0 0 L168 0 L168 72 L0 72 L0 0 Z"></path>
        <path id="tx-ct-3" transform="matrix(1, -5.551115123125783e-17, 5.551115123125783e-17, 1, 288, 492)" fill="#ff00001a" d="M0 0 L168 0 L168 72 L0 72 L0 0 Z"></path>
        <path id="tx-lc-2" transform="translate(540, 324)" fill="#ff00001a" d="M0 0 L168 0 L168 72 L0 72 L0 0 Z"></path>
        <path id="tx-lb-1" transform="matrix(1, -5.551115123125783e-17, 5.551115123125783e-17, 1, 468, 120)" fill="#ff00001a" d="M0 0 L168 0 L168 72 L0 72 L0 0 Z"></path></g></svg>