<svg xmlns="http://www.w3.org/2000/svg" width="744" height="612">    <g id="sector-color-v6--family--7">        <g id="lines">            <g id="g-0">                <ellipse id="cr-big" stroke="#bcbcbc" fill="#f6f6f6" stroke-width="2" stroke-linejoin="miter"  transform="translate(311.9999542236328, 264.00001525878906)" cx="60" cy="60" rx="60" ry="60"></ellipse></g>
            <g id="g-7">                <g id="cu_2" >                    <path id="cu" transform="translate(259.4865303039551, 179.96676576368736)" fill="#feecf7" d="M65.6461 106.571 C76.6407 92.8166 93.5609 84.0055 112.539 84.0054 L112.539 0 C70.2778 0.0269 28.4163 18.5703 0 54.1667 L65.6461 106.571 Z"></path>
                    <path id="cu_1" transform="translate(259.4865303039551, 179.96676576368736)" fill="none" stroke="#d95da7" stroke-width="2" stroke-linejoin="miter" stroke-linecap="none" stroke-miterlimit="4"  d="M 65.6461 106.5713 C 76.6407 92.8166 93.5609 84.0055 112.539 84.0054 L 112.539 0 C 70.2778 0.0269 28.4163 18.5703 0 54.1667 L 65.6461 106.5713 Z"></path></g></g>
            <g id="g-6">                <g id="cu_5" >                    <path id="cu_3" transform="translate(227.9940694015204, 234.1300811767578)" fill="#f2fae1" d="M97.1386 52.4079 C88.9359 62.6697 84.0315 75.6832 84.0315 89.8422 C84.0315 94.4114 84.5422 98.8612 85.5097 103.138 L3.61 121.745 C-6.4811 77.3293 5.1435 33.0448 31.4884 0 L97.1386 52.4079 Z"></path>
                    <path id="cu_4" transform="translate(227.9940694015204, 234.1300811767578)" fill="none" stroke="#93c332" stroke-width="2" stroke-linejoin="miter" stroke-linecap="none" stroke-miterlimit="4"  d="M 97.1386 52.4079 C 88.9359 62.6697 84.0315 75.6832 84.0315 89.8422 C 84.0315 94.4114 84.5422 98.8612 85.5097 103.1379 L 3.61 121.7451 C -6.481 77.3293 5.1435 33.0448 31.4884 0 L 97.1386 52.4079 Z"></path></g></g>
            <g id="g-5">                <g id="cu_8" >                    <path id="cu_6" transform="translate(231.59876823425293, 337.2679138183594)" fill="#fef2e6" d="M114.307 40.7358 L77.7535 116.35 C36.7461 96.5264 9.3892 59.8134 0 18.6084 L81.9051 0 C85.9718 17.976 98.1085 32.8907 114.307 40.7358 Z"></path>
                    <path id="cu_7" transform="translate(231.59876823425293, 337.2679138183594)" fill="none" stroke="#db8333" stroke-width="2" stroke-linejoin="miter" stroke-linecap="none" stroke-miterlimit="4"  d="M 114.3069 40.7358 L 77.7535 116.3502 C 36.7461 96.5264 9.3892 59.8134 0 18.6084 L 81.9051 0 C 85.9718 17.976 98.1085 32.8907 114.3069 40.7358 Z"></path></g></g>
            <g id="g-4">                <g id="cu_11" >                    <path id="cu_9" transform="translate(309.3498992919922, 378.0037536621094)" fill="#e8f9ff" d="M88.6068 0.0909 L124.896 75.8324 C83.8197 95.5128 38.0603 93.9883 0 75.6192 L36.5557 0 C44.452 3.8242 53.3134 5.9685 62.6756 5.9685 C71.9633 5.9685 80.7582 3.8582 88.6068 0.0909 Z"></path>
                    <path id="cu_10" transform="translate(309.3498992919922, 378.0037536621094)" fill="none" stroke="#17aee1" stroke-width="2" stroke-linejoin="miter" stroke-linecap="none" stroke-miterlimit="4"  d="M 88.6068 0.0909 L 124.896 75.8324 C 83.8197 95.5128 38.0603 93.9883 0 75.6192 L 36.5557 0 C 44.452 3.8242 53.3134 5.9685 62.6756 5.9685 C 71.9633 5.9685 80.7582 3.8582 88.6068 0.0909 Z"></path></g></g>
            <g id="g-3">                <g id="cu_14" >                    <path id="cu_12" transform="translate(397.9568786621094, 337.4721374511719)" fill="#ffedeb" d="M32.5439 0 L114.378 18.8929 C104.132 63.2732 74.3924 98.0839 36.2915 116.369 L0 40.6225 C16.2313 32.8316 28.4157 17.9543 32.5439 0 Z"></path>
                    <path id="cu_13" transform="translate(397.9568786621094, 337.4721374511719)" fill="none" stroke="#df5e59" stroke-width="2" stroke-linejoin="miter" stroke-linecap="none" stroke-miterlimit="4"  d="M 32.5439 0 L 114.3782 18.8929 C 104.1322 63.2732 74.3924 98.0839 36.2915 116.3687 L 0 40.6225 C 16.2313 32.8316 28.4157 17.9543 32.5439 0 Z"></path></g></g>
            <g id="g-2">                <g id="cu_17" >                    <path id="cu_15" transform="translate(419.0491027832031, 234.52684020996094)" fill="#e7fbf2" d="M11.4517 102.945 L93.2911 121.84 C102.772 80.6554 94.1203 35.6954 65.8285 0 L0 52.1751 C8.1242 62.4114 12.9766 75.3618 12.9766 89.4454 C12.9766 94.0874 12.4494 98.6063 11.4517 102.945 Z"></path>
                    <path id="cu_16" transform="translate(419.0491027832031, 234.52684020996094)" fill="none" stroke="#3cc583" stroke-width="2" stroke-linejoin="miter" stroke-linecap="none" stroke-miterlimit="4"  d="M 11.4517 102.9454 L 93.2911 121.8395 C 102.7716 80.6554 94.1203 35.6954 65.8285 0 L 0 52.1751 C 8.1242 62.4114 12.9766 75.3618 12.9766 89.4454 C 12.9766 94.0874 12.4494 98.6063 11.4517 102.9454 Z"></path></g></g>
            <g id="g-1">                <g id="cu_20" >                    <path id="cu_18" transform="translate(372.0256652832031, 179.97208858840168)" fill="#fefbdb" d="M47.0234 106.73 L112.856 54.5515 C86.5845 21.4483 46.05 0.1599 0.5026 0.0009 C0.335 0.0003 0.1675 7.6294e-6 7.6294e-6 0 L0 84.0002 C19.0534 84.0002 36.0325 92.8814 47.0234 106.73 Z"></path>
                    <path id="cu_19" transform="translate(372.0256652832031, 179.97208858840168)" fill="none" stroke="#d1bd08" stroke-width="2" stroke-linejoin="miter" stroke-linecap="none" stroke-miterlimit="4"  d="M 47.0234 106.7298 L 112.8561 54.5515 C 86.5845 21.4483 46.05 0.1599 0.5026 0.0009 C 0.335 0.0003 0.1675 0 0 0 L 0 84.0002 C 19.0534 84.0002 36.0325 92.8814 47.0234 106.7298 Z"></path></g></g></g>
        <path id="tx-rb-7" transform="translate(132, 108)" fill="#ff00001a" d="M0 0 L168 0 L168 72 L0 72 L0 0 Z"></path>
        <path id="tx-rc-6" transform="matrix(1, -5.551115123125783e-17, 5.551115123125783e-17, 1, 48, 252)" fill="#ff00001a" d="M0 0 L168 0 L168 72 L0 72 L0 0 Z"></path>
        <path id="tx-rt-5" transform="matrix(1, -5.551115123125783e-17, 5.551115123125783e-17, 1, 84, 420)" fill="#ff00001a" d="M0 0 L168 0 L168 72 L0 72 L0 0 Z"></path>
        <path id="tx-ct-4" transform="matrix(1, -5.551115123125783e-17, 5.551115123125783e-17, 1, 288, 480)" fill="#ff00001a" d="M0 0 L168 0 L168 72 L0 72 L0 0 Z"></path>
        <path id="tx-lt-3" transform="matrix(1, -5.551115123125783e-17, 5.551115123125783e-17, 1, 492, 420)" fill="#ff00001a" d="M0 0 L168 0 L168 72 L0 72 L0 0 Z"></path>
        <path id="tx-lc-2" transform="translate(528, 252)" fill="#ff00001a" d="M0 0 L168 0 L168 72 L0 72 L0 0 Z"></path>
        <path id="tx-lb-1" transform="matrix(1, -5.551115123125783e-17, 5.551115123125783e-17, 1, 444, 108)" fill="#ff00001a" d="M0 0 L168 0 L168 72 L0 72 L0 0 Z"></path>
        <path id="tx-cb-title" transform="matrix(1, -1.6081230200044232e-16, 1.6081230200044232e-16, 1, 72, 36)" fill="#ff00001a" d="M0 0 L600 0 L600 48 L0 48 L0 0 Z"></path>
        <rect id="bt-cc-add-8" fill="#1ac6ff33" transform="matrix(1, -2.7755575615628914e-17, 2.7755575615628914e-17, 1, 360.07373046875, 209.78465270996094)" width="24" height="24" rx="0" ry="0"></rect>
        <rect id="bt-cc-add-7" fill="#1ac6ff33" transform="matrix(1, -2.7755575615628914e-17, 2.7755575615628914e-17, 1, 280.16259765625, 248.17227172851562)" width="24" height="24" rx="0" ry="0"></rect>
        <rect id="bt-cc-add-6" fill="#1ac6ff33" transform="matrix(1, -2.7755575615628914e-17, 2.7755575615628914e-17, 1, 260.308349609375, 334.5738220214844)" width="24" height="24" rx="0" ry="0"></rect>
        <rect id="bt-cc-add-5" fill="#1ac6ff33" transform="matrix(1, -2.7755575615628914e-17, 2.7755575615628914e-17, 1, 315.4462890625, 403.994384765625)" width="24" height="24" rx="0" ry="0"></rect>
        <rect id="bt-cc-add-4" fill="#1ac6ff33" transform="matrix(1, -2.7755575615628914e-17, 2.7755575615628914e-17, 1, 404.4208984375, 404.0585632324219)" width="24" height="24" rx="0" ry="0"></rect>
        <rect id="bt-cc-add-3" fill="#1ac6ff33" transform="matrix(1, -2.7755575615628914e-17, 2.7755575615628914e-17, 1, 459.658935546875, 334.71759033203125)" width="24" height="24" rx="0" ry="0"></rect>
        <rect id="bt-cc-add-2" fill="#1ac6ff33" transform="matrix(1, -2.7755575615628914e-17, 2.7755575615628914e-17, 1, 439.9295654296875, 248.28759765625)" width="24" height="24" rx="0" ry="0"></rect>
        <rect id="bt-cc-remove-7" fill="#1ac6ff33" transform="matrix(1, 5.551115123125783e-17, -5.551115123125783e-17, 1, 297.7796630859375, 182.13616943359375)" width="24" height="24" rx="0" ry="0"></rect>
        <rect id="bt-cc-remove-6" fill="#1ac6ff33" transform="translate(219.69073486328125, 279.607177734375)" width="24" height="24" rx="0" ry="0"></rect>
        <rect id="bt-cc-remove-5" fill="#1ac6ff33" transform="matrix(1, -5.551115123125783e-17, 5.551115123125783e-17, 1, 247.148193359375, 401.4453125)" width="24" height="24" rx="0" ry="0"></rect>
        <rect id="bt-cc-remove-4" fill="#1ac6ff33" transform="matrix(1, -5.551115123125783e-17, 5.551115123125783e-17, 1, 360, 456)" width="24" height="24" rx="0" ry="0"></rect>
        <rect id="bt-cc-remove-3" fill="#1ac6ff33" transform="matrix(1, -5.551115123125783e-17, 5.551115123125783e-17, 1, 472.5390625, 401.838623046875)" width="24" height="24" rx="0" ry="0"></rect>
        <rect id="bt-cc-remove-2" fill="#1ac6ff33" transform="matrix(1, 8.326672684688674e-17, -8.326672684688674e-17, 1, 500.4215087890625, 280.0970458984375)" width="24" height="24" rx="0" ry="0"></rect>
        <rect id="bt-cc-remove-1" fill="#1ac6ff33" transform="matrix(1, 1.6653345369377348e-16, -1.6653345369377348e-16, 1, 422.67333984375, 182.3541259765625)" width="24" height="24" rx="0" ry="0"></rect>
        <path id="ic-cc-7" transform="matrix(1, -2.7755575615628914e-17, 2.7755575615628914e-17, 1, 312.20361328125, 212.76345825195312)" fill="#33de7b1a" d="M0 0 L36 0 L36 36 L0 36 L0 0 Z"></path>
        <path id="ic-cc-6" transform="matrix(1, -2.7755575615628914e-17, 2.7755575615628914e-17, 1, 255.0577392578125, 280.496337890625)" fill="#33de7b1a" d="M0 0 L36 0 L36 36 L0 36 L0 0 Z"></path>
        <path id="ic-cc-5" transform="matrix(0.9999999403953552, 0, 0, 0.9999999403953552, 272.3404541015625, 367.41424560546875)" fill="#33de7b1a" d="M0 0 L36 0 L36 36 L0 36 L0 0 Z"></path>
        <path id="ic-cc-4" transform="matrix(0.9999999403953552, 0, 0, 0.9999999403953552, 351.4071044921875, 408.1434020996094)" fill="#33de7b1a" d="M0 0 L36 0 L36 36 L0 36 L0 0 Z"></path>
        <path id="ic-cc-3" transform="matrix(0.9999999403953552, 0, 0, 0.9999999403953552, 432.2095947265625, 371.7516174316406)" fill="#33de7b1a" d="M0 0 L36 0 L36 36 L0 36 L0 0 Z"></path>
        <path id="ic-cc-2" transform="matrix(1, -2.7755575615628914e-17, 2.7755575615628914e-17, 1, 454.1795654296875, 285.8988342285156)" fill="#33de7b1a" d="M0 0 L36 0 L36 36 L0 36 L0 0 Z"></path>
        <path id="ic-cc-1" transform="matrix(0.9999999403953552, 0, 0, 0.9999999403953552, 400.7904052734375, 215.1669158935547)" fill="#33de7b1a" d="M0 0 L36 0 L36 36 L0 36 L0 0 Z"></path>
        <path id="ic-cc-0" transform="matrix(1, -5.551115123125783e-17, 5.551115123125783e-17, 1, 336, 287.99609375)" fill="#33de7b1a" d="M0 0 L72 0 L72 72 L0 72 L0 0 Z"></path></g></svg>