<svg xmlns="http://www.w3.org/2000/svg" width="744" height="612">    <g id="sector-color-v6--family--6">        <g id="lines">            <g id="g-0">                <ellipse id="cr-big" stroke="#bcbcbc" fill="#f6f6f6" stroke-width="2" stroke-linejoin="miter"  transform="translate(312, 264)" cx="60" cy="60" rx="60" ry="60"></ellipse></g>
            <g id="g-6">                <g id="cu_2" >                    <path id="cu" transform="translate(247.29246520996094, 179.97586059570312)" fill="#f2fae1" d="M0.1657 71.7369 L0 72.0239 L72.7458 114.024 C83.8491 94.7924 103.991 84.0332 124.708 84.0139 L124.708 0.024 L124.666 0 C75.0645 0.0604 26.8406 25.7743 0.1657 71.7369 Z"></path>
                    <path id="cu_1" transform="translate(247.29246520996094, 179.97586059570312)" fill="none" stroke="#93c332" stroke-width="2" stroke-linejoin="miter" stroke-linecap="none" stroke-miterlimit="4"  d="M 0.1657 71.7369 L 0 72.0239 L 72.7458 114.0238 C 83.8491 94.7924 103.9911 84.0332 124.7076 84.0139 L 124.7076 0.024 L 124.6665 0 C 75.0645 0.0604 26.8406 25.7743 0.1657 71.7369 Z"></path></g></g>
            <g id="g-5">                <g id="cu_5" >                    <path id="cu_3" transform="translate(227.97573813077142, 251.99964904785156)" fill="#fef2e6" d="M19.1509 143.713 L19.3166 144 L92.0624 102 C80.9593 82.7687 81.7125 59.9456 92.0541 41.995 L19.3166 0 L19.2753 0.0236 C-5.4734 43.0104 -7.3165 97.6305 19.1509 143.713 Z"></path>
                    <path id="cu_4" transform="translate(227.97573813077142, 251.99964904785156)" fill="none" stroke="#db8333" stroke-width="2" stroke-linejoin="miter" stroke-linecap="none" stroke-miterlimit="4"  d="M 19.1509 143.7129 L 19.3166 143.9999 L 92.0624 102.0001 C 80.9593 82.7687 81.7125 59.9456 92.0541 41.995 L 19.3166 0 L 19.2753 0.0236 C -5.4734 43.0104 -7.3165 97.6305 19.1509 143.7129 Z"></path></g></g>
            <g id="g-4">                <g id="cu_8" >                    <path id="cu_6" transform="translate(247.2919921875, 354.004638671875)" fill="#e8f9ff" d="M124.376 113.995 L124.708 113.995 L124.708 29.9953 C102.501 29.9953 83.1125 17.9314 72.7376 0 L0.0002 41.995 L0 42.0426 C24.8533 84.969 71.2342 113.875 124.376 113.995 Z"></path>
                    <path id="cu_7" transform="translate(247.2919921875, 354.004638671875)" fill="none" stroke="#17aee1" stroke-width="2" stroke-linejoin="miter" stroke-linecap="none" stroke-miterlimit="4"  d="M 124.3763 113.995 L 124.7078 113.995 L 124.7078 29.9953 C 102.5013 29.9953 83.1125 17.9314 72.7376 0 L 0.0002 41.995 L 0 42.0426 C 24.8533 84.969 71.2342 113.8752 124.3763 113.995 Z"></path></g></g>
            <g id="g-3">                <g id="cu_11" >                    <path id="cu_9" transform="translate(371.9997253417969, 353.9998779296875)" fill="#ffedeb" d="M0.0411 114.024 C49.7237 113.963 98.0237 88.1657 124.672 42.0625 L124.708 42 L51.9615 0 C40.8583 19.2313 20.7164 29.9906 0 30.01 L1.1307e-5 114 L0.0411 114.024 Z"></path>
                    <path id="cu_10" transform="translate(371.9997253417969, 353.9998779296875)" fill="none" stroke="#df5e59" stroke-width="2" stroke-linejoin="miter" stroke-linecap="none" stroke-miterlimit="4"  d="M 0.0411 114.0239 C 49.7237 113.9633 98.0237 88.1657 124.6715 42.0625 L 124.7076 42 L 51.9615 0 C 40.8583 19.2313 20.7164 29.9906 0 30.01 L 0 114 L 0.0411 114.0239 Z"></path></g></g>
            <g id="g-2">                <g id="cu_14" >                    <path id="cu_12" transform="translate(423.9613342285156, 252.00001525878906)" fill="#e7fbf2" d="M72.7874 143.976 C97.5762 100.92 99.3848 46.1919 72.7822 0.0625 L72.7461 0 L0 42 C11.1032 61.2313 10.3501 84.0543 0.0087 102.005 L72.7461 144 L72.7874 143.976 Z"></path>
                    <path id="cu_13" transform="translate(423.9613342285156, 252.00001525878906)" fill="none" stroke="#3cc583" stroke-width="2" stroke-linejoin="miter" stroke-linecap="none" stroke-miterlimit="4"  d="M 72.7874 143.9763 C 97.5762 100.9196 99.3848 46.1919 72.7822 0.0625 L 72.7461 0 L 0 42 C 11.1032 61.2313 10.3501 84.0543 0.0087 102.005 L 72.7461 143.9999 L 72.7874 143.9763 Z"></path></g></g>
            <g id="g-1">                <g id="cu_17" >                    <path id="cu_15" transform="translate(372, 180)" fill="#fefbdb" d="M124.708 71.9524 C99.814 28.9564 53.3227 0.0261 0.0722 0 L4.5563e-6 1.023e-8 L0 84 C22.2064 84 41.5952 96.0637 51.9702 113.995 L124.708 72 L124.708 71.9524 Z"></path>
                    <path id="cu_16" transform="translate(372, 180)" fill="none" stroke="#d1bd08" stroke-width="2" stroke-linejoin="miter" stroke-linecap="none" stroke-miterlimit="4"  d="M 124.7078 71.9524 C 99.814 28.9564 53.3227 0.0261 0.0722 0 L 0 1.023e-8 L 0 84 C 22.2064 84 41.5952 96.0637 51.9702 113.995 L 124.7076 72 L 124.7078 71.9524 Z"></path></g></g></g>
        <path id="tx-rb-6" transform="matrix(1, -5.551115123125783e-17, 5.551115123125783e-17, 1, 132, 120)" fill="#ff00001a" d="M0 0 L168 0 L168 72 L0 72 L0 0 Z"></path>
        <path id="tx-rc-5" transform="matrix(1, -5.551115123125783e-17, 5.551115123125783e-17, 1, 48, 288)" fill="#ff00001a" d="M0 0 L168 0 L168 72 L0 72 L0 0 Z"></path>
        <path id="tx-rt-4" transform="matrix(1, -5.551115123125783e-17, 5.551115123125783e-17, 1, 132, 456)" fill="#ff00001a" d="M0 0 L168 0 L168 72 L0 72 L0 0 Z"></path>
        <path id="tx-lt-3" transform="matrix(1, -5.551115123125783e-17, 5.551115123125783e-17, 1, 444, 456)" fill="#ff00001a" d="M0 0 L168 0 L168 72 L0 72 L0 0 Z"></path>
        <path id="tx-lc-2" transform="translate(528, 288)" fill="#ff00001a" d="M0 0 L168 0 L168 72 L0 72 L0 0 Z"></path>
        <path id="tx-lb-1" transform="matrix(1, -5.551115123125783e-17, 5.551115123125783e-17, 1, 444, 120)" fill="#ff00001a" d="M0 0 L168 0 L168 72 L0 72 L0 0 Z"></path>
        <path id="tx-cb-title" transform="matrix(1, -1.6081230200044232e-16, 1.6081230200044232e-16, 1, 72, 48)" fill="#ff00001a" d="M0 0 L600 0 L600 48 L0 48 L0 0 Z"></path>
        <rect id="bt-cc-remove-6" fill="#1ac6ff33" transform="matrix(1, 1.1102230246251565e-16, -1.1102230246251565e-16, 1, 288, 188)" width="24" height="24" rx="0" ry="0"></rect>
        <rect id="bt-cc-remove-5" fill="#1ac6ff33" transform="matrix(1, 5.551115123125783e-17, -5.551115123125783e-17, 1, 216, 312)" width="24" height="24" rx="0" ry="0"></rect>
        <rect id="bt-cc-remove-4" fill="#1ac6ff33" transform="matrix(1, -5.551115123125783e-17, 5.551115123125783e-17, 1, 288, 436)" width="24" height="24" rx="0" ry="0"></rect>
        <rect id="bt-cc-remove-3" fill="#1ac6ff33" transform="matrix(1, 1.1102230246251565e-16, -1.1102230246251565e-16, 1, 432, 436)" width="24" height="24" rx="0" ry="0"></rect>
        <rect id="bt-cc-remove-2" fill="#1ac6ff33" transform="matrix(1, 5.551115123125783e-17, -5.551115123125783e-17, 1, 504, 312)" width="24" height="24" rx="0" ry="0"></rect>
        <rect id="bt-cc-remove-1" fill="#1ac6ff33" transform="matrix(1, -5.551115123125783e-17, 5.551115123125783e-17, 1, 432, 188)" width="24" height="24" rx="0" ry="0"></rect>
        <rect id="bt-cc-add-7" fill="#1ac6ff33" transform="translate(360, 210)" width="24" height="24" rx="0" ry="0"></rect>
        <path id="bt-cc-add-6" transform="translate(276, 264)" fill="#1ac6ff33" d="M0 0 L24 0 L24 24 L0 24 L0 0 Z"></path>
        <rect id="bt-cc-add-5" fill="#1ac6ff33" transform="matrix(1, 5.551115123125783e-17, -5.551115123125783e-17, 1, 276, 360)" width="24" height="24" rx="0" ry="0"></rect>
        <rect id="bt-cc-add-4" fill="#1ac6ff33" transform="translate(360, 414)" width="24" height="24" rx="0" ry="0"></rect>
        <rect id="bt-cc-add-3" fill="#1ac6ff33" transform="translate(444, 360)" width="24" height="24" rx="0" ry="0"></rect>
        <rect id="bt-cc-add-2" fill="#1ac6ff33" transform="matrix(1, 5.551115123125783e-17, -5.551115123125783e-17, 1, 444, 264)" width="24" height="24" rx="0" ry="0"></rect>
        <path id="ic-cc-6" transform="matrix(1, 1.1102230246251565e-16, -1.1102230246251565e-16, 1, 297, 211.6654052734375)" fill="#33de7b1a" d="M0 0 L48 0 L48 48 L0 48 L0 0 Z"></path>
        <path id="ic-cc-5" transform="matrix(1, 5.551115123125783e-17, -5.551115123125783e-17, 1, 246, 300)" fill="#33de7b1a" d="M0 0 L48 0 L48 48 L0 48 L0 0 Z"></path>
        <path id="ic-cc-4" transform="translate(297, 388.3345642089844)" fill="#33de7b1a" d="M0 0 L48 0 L48 48 L0 48 L0 0 Z"></path>
        <path id="ic-cc-3" transform="matrix(1, 1.1102230246251565e-16, -1.1102230246251565e-16, 1, 399, 388.3345947265625)" fill="#33de7b1a" d="M0 0 L48 0 L48 48 L0 48 L0 0 Z"></path>
        <path id="ic-cc-2" transform="matrix(1, 5.551115123125783e-17, -5.551115123125783e-17, 1, 450, 300)" fill="#33de7b1a" d="M0 0 L48 0 L48 48 L0 48 L0 0 Z"></path>
        <path id="ic-cc-1" transform="translate(399, 211.6654052734375)" fill="#33de7b1a" d="M0 0 L48 0 L48 48 L0 48 L0 0 Z"></path>
        <path id="ic-cc-0" transform="matrix(1, -5.551115123125783e-17, 5.551115123125783e-17, 1, 336, 287.99609375)" fill="#33de7b1a" d="M0 0 L72 0 L72 72 L0 72 L0 0 Z"></path></g></svg>