<svg width="744" height="612" viewBox="0 0 744 612" fill="none" xmlns="http://www.w3.org/2000/svg">
<g id="converge2-v1--family--10">
<g id="lines">
<g id="g-10">
<path id="Vector" d="M326.9 226.92L343.478 236.218L351.423 218.952L344.598 221.17L336.506 196.265C351.986 188.356 359.866 170.157 354.323 153.098C348.179 134.189 327.869 123.841 308.96 129.985C290.051 136.128 279.703 156.438 285.847 175.347C291.382 192.383 308.414 202.47 325.562 199.809L333.658 224.724L326.9 226.92Z" fill="#FEFBDB" stroke="#D1BD08" stroke-width="2"/>
</g>
<g id="g-9">
<path id="Vector_2" d="M278.452 271.969L297.328 269.748L293.608 251.109L289.39 256.915L268.205 241.523C276.079 226.026 271.757 206.671 257.245 196.128C241.16 184.441 218.647 188.007 206.961 204.092C195.274 220.177 198.84 242.69 214.925 254.377C229.416 264.905 249.125 263.054 261.434 250.823L282.628 266.221L278.452 271.969Z" fill="#FAF0FF" stroke="#B960E2" stroke-width="2"/>
</g>
<g id="g-8">
<path id="Vector_3" d="M265.735 336.893L279.7 324L265.735 311.108L265.735 318.284L239.548 318.284C236.81 301.118 221.937 288 204 288C184.118 288 168 304.118 168 324C168 343.882 184.118 360 204 360C221.912 360 236.769 346.918 239.537 329.788L265.735 329.788L265.735 336.893Z" fill="#EDF4FF" stroke="#4987EC" stroke-width="2"/>
</g>
<g id="g-7">
<path id="Vector_4" d="M293.608 396.891L297.328 378.252L278.452 376.031L282.67 381.837L261.485 397.229C249.179 384.951 229.436 383.08 214.925 393.623C198.84 405.31 195.274 427.823 206.961 443.908C218.647 459.993 241.16 463.559 257.245 451.873C271.737 441.344 276.067 422.028 268.237 406.542L289.432 391.143L293.608 396.891Z" fill="#FEECF7" stroke="#D95DA7" stroke-width="2"/>
</g>
<g id="g-6">
<path id="Vector_5" d="M351.424 429.048L343.478 411.782L326.901 421.08L333.726 423.298L325.634 448.202C308.462 445.502 291.39 455.594 285.847 472.653C279.703 491.562 290.051 511.872 308.96 518.016C327.869 524.16 348.179 513.811 354.323 494.902C359.858 477.867 352.007 459.695 336.571 451.768L344.666 426.853L351.424 429.048Z" fill="#F2FAE1" stroke="#93C332" stroke-width="2"/>
</g>
<g id="g-5">
<path id="Vector_6" d="M417.099 421.08L400.522 411.782L392.576 429.048L399.401 426.831L407.493 451.735C392.014 459.644 384.134 477.843 389.677 494.902C395.821 513.811 416.13 524.16 435.04 518.016C453.949 511.872 464.297 491.562 458.153 472.653C452.618 455.618 435.585 445.531 418.438 448.191L410.342 423.276L417.099 421.08Z" fill="#FEF2E6" stroke="#DB8333" stroke-width="2"/>
</g>
<g id="g-4">
<path id="Vector_7" d="M465.548 376.031L446.672 378.252L450.392 396.891L454.61 391.085L475.795 406.477C467.921 421.974 472.243 441.329 486.754 451.873C502.839 463.559 525.353 459.993 537.039 443.908C548.726 427.823 545.16 405.31 529.075 393.623C514.584 383.095 494.875 384.946 482.566 397.177L461.372 381.779L465.548 376.031Z" fill="#E8F9FF" stroke="#17AEE1" stroke-width="2"/>
</g>
<g id="g-3">
<path id="Vector_8" d="M478.265 311.107L464.299 324L478.265 336.892L478.265 329.716L504.451 329.716C507.19 346.882 522.063 360 540 360C559.882 360 576 343.882 576 324C576 304.118 559.882 288 540 288C522.088 288 507.231 301.082 504.463 318.212L478.265 318.212L478.265 311.107Z" fill="#FFEDEB" stroke="#DF5E59" stroke-width="2"/>
</g>
<g id="g-2">
<path id="Vector_9" d="M450.392 251.109L446.672 269.748L465.548 271.969L461.33 266.163L482.515 250.771C494.82 263.049 514.563 264.92 529.075 254.377C545.16 242.69 548.726 220.177 537.039 204.092C525.353 188.007 502.839 184.441 486.754 196.127C472.263 206.656 467.933 225.972 475.763 241.458L454.568 256.857L450.392 251.109Z" fill="#E7FBF2" stroke="#3CC583" stroke-width="2"/>
</g>
<g id="g-1">
<path id="Vector_10" d="M392.576 218.952L400.522 236.218L417.099 226.92L410.274 224.702L418.366 199.798C435.538 202.498 452.61 192.406 458.153 175.347C464.297 156.438 453.948 136.129 435.039 129.985C416.13 123.841 395.821 134.189 389.677 153.098C384.142 170.133 391.992 188.305 407.429 196.232L399.333 221.148L392.576 218.952Z" fill="#FEFBDB" stroke="#D1BD08" stroke-width="2"/>
</g>
<g id="g-0">
<path id="cr-big" d="M444 323.996C444 284.232 411.765 251.996 372 251.996V251.996C332.236 251.996 300 284.232 300 323.996V323.996C300 363.761 332.236 395.996 372 395.996V395.996C411.764 395.996 444 363.761 444 323.996V323.996Z" fill="#F6F6F6" stroke="#BCBCBC" stroke-width="2"/>
</g>
</g>
<path id="tx-cb-title" d="M72 24L672 24V72L72 72L72 24Z" fill="#FF0000" fill-opacity="0.1"/>
<path id="ic-cc-end" d="M336 287.996H408V359.996H336V287.996Z" fill="#33DE7B" fill-opacity="0.1"/>
<path id="tx-rb-10" d="M120 96L276 96V168H120V96Z" fill="#FF0000" fill-opacity="0.1"/>
<path id="ic-cc-10" d="M296.085 140.223H344.085V188.223H296.085V140.223Z" fill="#33DE7B" fill-opacity="0.1"/>
<rect id="bt-cc-remove-10" x="295.106" y="112.278" width="24" height="24" fill="#1AC6FF" fill-opacity="0.2"/>
<path id="tx-rc-9" d="M36 192H192V264H36L36 192Z" fill="#FF0000" fill-opacity="0.1"/>
<path id="ic-cc-9" d="M212.085 201.252H260.085V249.252H212.085V201.252Z" fill="#33DE7B" fill-opacity="0.1"/>
<rect id="bt-cc-remove-9" x="190.106" y="188.565" width="24" height="24" fill="#1AC6FF" fill-opacity="0.2"/>
<path id="tx-rc-8" d="M0 288H156V360H0L0 288Z" fill="#FF0000" fill-opacity="0.1"/>
<path id="ic-cc-8" d="M180 300H228V348H180V300Z" fill="#33DE7B" fill-opacity="0.1"/>
<rect id="bt-cc-remove-8" x="150" y="312" width="24" height="24" fill="#1AC6FF" fill-opacity="0.2"/>
<path id="tx-rc-7" d="M36 384H192V456H36L36 384Z" fill="#FF0000" fill-opacity="0.1"/>
<path id="ic-cc-7" d="M212.085 398.748H260.085V446.748H212.085V398.748Z" fill="#33DE7B" fill-opacity="0.1"/>
<rect id="bt-cc-remove-7" x="190.106" y="435.435" width="24" height="24" fill="#1AC6FF" fill-opacity="0.2"/>
<path id="tx-rt-6" d="M120 480H276V552H120V480Z" fill="#FF0000" fill-opacity="0.1"/>
<path id="ic-cc-6" d="M296.085 459.778H344.085V507.778H296.085V459.778Z" fill="#33DE7B" fill-opacity="0.1"/>
<rect id="bt-cc-remove-6" x="295.106" y="511.722" width="24" height="24" fill="#1AC6FF" fill-opacity="0.2"/>
<path id="tx-lt-5" d="M468 480H624V552H468V480Z" fill="#FF0000" fill-opacity="0.1"/>
<path id="ic-cc-5" d="M399.915 459.778H447.915V507.778H399.915V459.778Z" fill="#33DE7B" fill-opacity="0.1"/>
<rect id="bt-cc-remove-5" x="424.894" y="511.722" width="24" height="24" fill="#1AC6FF" fill-opacity="0.2"/>
<path id="tx-lc-4" d="M552 384H720V456H552V384Z" fill="#FF0000" fill-opacity="0.1"/>
<path id="ic-cc-4" d="M483.915 398.748H531.915V446.748H483.915V398.748Z" fill="#33DE7B" fill-opacity="0.1"/>
<rect id="bt-cc-remove-4" x="529.893" y="435.435" width="24" height="24" fill="#1AC6FF" fill-opacity="0.2"/>
<path id="tx-lc-3" d="M588 288H744V360H588V288Z" fill="#FF0000" fill-opacity="0.1"/>
<path id="ic-cc-3" d="M516 300H564V348H516V300Z" fill="#33DE7B" fill-opacity="0.1"/>
<rect id="bt-cc-remove-3" x="570" y="312" width="24" height="24" fill="#1AC6FF" fill-opacity="0.2"/>
<path id="tx-lc-2" d="M552 192H708V264H552V192Z" fill="#FF0000" fill-opacity="0.1"/>
<path id="ic-cc-2" d="M483.915 201.252H531.915V249.252H483.915V201.252Z" fill="#33DE7B" fill-opacity="0.1"/>
<rect id="bt-cc-remove-2" x="529.893" y="188.565" width="24" height="24" fill="#1AC6FF" fill-opacity="0.2"/>
<path id="tx-lb-1" d="M468 96L624 96V168H468V96Z" fill="#FF0000" fill-opacity="0.1"/>
<path id="ic-cc-1" d="M399.915 140.223H447.915V188.223H399.915V140.223Z" fill="#33DE7B" fill-opacity="0.1"/>
<rect id="bt-cc-remove-1" x="424.894" y="112.278" width="24" height="24" fill="#1AC6FF" fill-opacity="0.2"/>
</g>
</svg>
