<svg width="744" height="612" viewBox="0 0 744 612" fill="none" xmlns="http://www.w3.org/2000/svg">
<g id="converge2-v1--family--5">
<g id="lines">
<g id="g-5">
<path id="Vector" d="M299.109 245.608L317.748 249.328L319.969 230.452L314.164 234.67L298.772 213.485C311.049 201.18 312.92 181.436 302.377 166.925C290.69 150.84 268.177 147.274 252.092 158.961C236.007 170.647 232.441 193.161 244.128 209.246C254.656 223.737 273.972 228.067 289.458 220.237L304.857 241.432L299.109 245.608Z" fill="#FEF2E6" stroke="#DB8333" stroke-width="2"/>
</g>
<g id="g-4">
<path id="Vector_2" d="M274.92 369.099L284.218 352.522L266.952 344.576L269.17 351.402L244.265 359.494C236.356 344.014 218.157 336.134 201.098 341.677C182.189 347.821 171.84 368.131 177.984 387.04C184.128 405.949 204.438 416.297 223.347 410.153C240.382 404.618 250.47 387.585 247.809 370.438L272.724 362.342L274.92 369.099Z" fill="#E8F9FF" stroke="#17AEE1" stroke-width="2"/>
</g>
<g id="g-3">
<path id="Vector_3" d="M384.893 430.265L372 416.3L359.107 430.265L366.284 430.265L366.284 456.451C349.118 459.19 336 474.063 336 492C336 511.882 352.118 528 372 528C391.882 528 408 511.882 408 492C408 474.088 394.918 459.231 377.787 456.463L377.787 430.265L384.893 430.265Z" fill="#FFEDEB" stroke="#DF5E59" stroke-width="2"/>
</g>
<g id="g-2">
<path id="Vector_4" d="M477.048 344.576L459.782 352.522L469.08 369.099L471.298 362.274L496.202 370.366C493.502 387.538 503.594 404.61 520.653 410.153C539.562 416.297 559.871 405.949 566.015 387.04C572.159 368.13 561.811 347.821 542.902 341.677C525.867 336.142 507.695 343.992 499.768 359.429L474.852 351.333L477.048 344.576Z" fill="#E7FBF2" stroke="#3CC583" stroke-width="2"/>
</g>
<g id="g-1">
<path id="Vector_5" d="M424.031 230.452L426.252 249.328L444.891 245.608L439.085 241.39L454.477 220.205C469.974 228.079 489.329 223.757 499.873 209.246C511.559 193.16 507.993 170.647 491.908 158.961C475.823 147.274 453.31 150.84 441.623 166.925C431.095 181.416 432.946 201.125 445.177 213.434L429.779 234.628L424.031 230.452Z" fill="#FEFBDB" stroke="#D1BD08" stroke-width="2"/>
</g>
<g id="g-0">
<path id="cr-big" d="M444 323.996C444 284.232 411.765 251.996 372 251.996C332.236 251.996 300 284.232 300 323.996C300 363.761 332.236 395.996 372 395.996C411.764 395.996 444 363.761 444 323.996Z" fill="#F6F6F6" stroke="#BCBCBC" stroke-width="2"/>
</g>
</g>
<path id="tx-rc-5" d="M72 144H228V216H72V144Z" fill="#FF0000" fill-opacity="0.1"/>
<path id="tx-rc-4" d="M4 348H160V420H4L4 348Z" fill="#FF0000" fill-opacity="0.1"/>
<path id="tx-ct-3" d="M288 540H456V612H288V540Z" fill="#FF0000" fill-opacity="0.1"/>
<path id="tx-lc-2" d="M582 348H738V420H582V348Z" fill="#FF0000" fill-opacity="0.1"/>
<path id="tx-lc-1" d="M516 144H672V216H516V144Z" fill="#FF0000" fill-opacity="0.1"/>
<path id="tx-cb-title" d="M72 60L672 60V108L72 108L72 60Z" fill="#FF0000" fill-opacity="0.1"/>
<path id="ic-cc-end" d="M336 287.996H408V359.996H336V287.996Z" fill="#33DE7B" fill-opacity="0.1"/>
<path id="ic-cc-3" d="M348 468H396V516H348V468Z" fill="#33DE7B" fill-opacity="0.1"/>
<rect id="bt-cc-remove-3" x="360" y="522" width="24" height="24" fill="#1AC6FF" fill-opacity="0.2"/>
<path id="ic-cc-2" d="M507.778 351.915H555.778V399.915H507.778V351.915Z" fill="#33DE7B" fill-opacity="0.1"/>
<rect id="bt-cc-remove-2" x="559.722" y="376.894" width="24" height="24" fill="#1AC6FF" fill-opacity="0.2"/>
<path id="ic-cc-1" d="M446.748 164.085H494.748V212.085H446.748V164.085Z" fill="#33DE7B" fill-opacity="0.1"/>
<rect id="bt-cc-remove-1" x="483.435" y="142.107" width="24" height="24" fill="#1AC6FF" fill-opacity="0.2"/>
<path id="ic-cc-5" d="M249.252 164.085H297.252V212.085H249.252V164.085Z" fill="#33DE7B" fill-opacity="0.1"/>
<rect id="bt-cc-remove-5" x="236.565" y="142.107" width="24" height="24" fill="#1AC6FF" fill-opacity="0.2"/>
<path id="ic-cc-4" d="M188.223 351.915H236.223V399.915H188.223V351.915Z" fill="#33DE7B" fill-opacity="0.1"/>
<rect id="bt-cc-remove-4" x="160.278" y="376.894" width="24" height="24" fill="#1AC6FF" fill-opacity="0.2"/>
<rect id="bt-cc-add-6" x="360" y="144" width="24" height="24" fill="#1AC6FF" fill-opacity="0.2"/>
<rect id="bt-cc-add-5" x="200.223" y="260.085" width="24" height="24" fill="#1AC6FF" fill-opacity="0.2"/>
<rect id="bt-cc-add-4" x="261.252" y="447.915" width="24" height="24" fill="#1AC6FF" fill-opacity="0.2"/>
<rect id="bt-cc-add-3" x="458.748" y="447.915" width="24" height="24" fill="#1AC6FF" fill-opacity="0.2"/>
<rect id="bt-cc-add-2" x="519.777" y="260.085" width="24" height="24" fill="#1AC6FF" fill-opacity="0.2"/>
</g>
</svg>
